<svg width="32" height="32" viewBox="0 0 32 32" fill="none" xmlns="http://www.w3.org/2000/svg">
<path opacity="0.4" d="M25.7868 19.3205L24.4534 17.1072C24.1734 16.6139 23.9201 15.6805 23.9201 15.1339V11.7605C23.9201 7.41385 20.3868 3.86719 16.0268 3.86719C11.6668 3.86719 8.13342 7.41385 8.13342 11.7605V15.1339C8.13342 15.6805 7.88009 16.6139 7.60009 17.0939L6.25342 19.3205C5.72009 20.2139 5.60009 21.2005 5.93342 22.1072C6.25342 23.0005 7.01342 23.6939 8.00009 24.0272C10.5868 24.9072 13.3068 25.3339 16.0268 25.3339C18.7468 25.3339 21.4668 24.9072 24.0534 24.0405C24.9868 23.7339 25.7068 23.0272 26.0534 22.1072C26.4001 21.1872 26.3068 20.1739 25.7868 19.3205Z" fill="#2868C5"/>
<path d="M19 4.42602C18.08 4.06602 17.08 3.86602 16.0267 3.86602C14.9867 3.86602 13.9867 4.05268 13.0667 4.42602C13.64 3.34602 14.7733 2.66602 16.0267 2.66602C17.2933 2.66602 18.4133 3.34602 19 4.42602Z" fill="#2868C5"/>
<path d="M19.7733 26.6793C19.2133 28.226 17.7333 29.3327 16 29.3327C14.9467 29.3327 13.9067 28.906 13.1733 28.146C12.7467 27.746 12.4267 27.2127 12.24 26.666C12.4133 26.6927 12.5867 26.706 12.7733 26.7327C13.08 26.7727 13.4 26.8127 13.72 26.8393C14.48 26.906 15.2533 26.946 16.0267 26.946C16.7867 26.946 17.5467 26.906 18.2933 26.8393C18.5733 26.8127 18.8533 26.7993 19.12 26.7593C19.3333 26.7327 19.5467 26.706 19.7733 26.6793Z" fill="#2868C5"/>
</svg>
