<svg width="481" height="437" viewBox="0 0 481 437" fill="none" xmlns="http://www.w3.org/2000/svg">
<g filter="url(#filter0_d_1_576)">
<path d="M409.999 30.6079C443.473 57.6662 455.601 61.86 466.273 144.249C475.461 215.188 483.479 284.165 466.273 332.505C448.753 380.845 391.503 416.112 333.626 425.841C276.063 435.57 218.186 419.76 160.623 400.303C102.746 381.149 45.4957 358.347 20.7809 317C-4.24673 275.956 3.26157 216.063 17.6525 161.339C32.3562 106.614 53.9425 57.0578 91.7968 30.6076C129.964 4.15734 184.086 1.4211 238.521 0.813053C292.956 0.509028 376.524 3.54961 409.999 30.6079Z" fill="#294363"/>
</g>
<defs>
<filter id="filter0_d_1_576" x="0.389648" y="0.793945" width="480" height="436" filterUnits="userSpaceOnUse" color-interpolation-filters="sRGB">
<feFlood flood-opacity="0" result="BackgroundImageFix"/>
<feColorMatrix in="SourceAlpha" type="matrix" values="0 0 0 0 0 0 0 0 0 0 0 0 0 0 0 0 0 0 127 0" result="hardAlpha"/>
<feOffset dy="4"/>
<feGaussianBlur stdDeviation="2"/>
<feComposite in2="hardAlpha" operator="out"/>
<feColorMatrix type="matrix" values="0 0 0 0 0 0 0 0 0 0 0 0 0 0 0 0 0 0 0.25 0"/>
<feBlend mode="normal" in2="BackgroundImageFix" result="effect1_dropShadow_1_576"/>
<feBlend mode="normal" in="SourceGraphic" in2="effect1_dropShadow_1_576" result="shape"/>
</filter>
</defs>
</svg>
