<svg width="40" height="40" viewBox="0 0 40 40" fill="none" xmlns="http://www.w3.org/2000/svg">
<path opacity="0.4" d="M19.9999 36.6654C29.2047 36.6654 36.6666 29.2034 36.6666 19.9987C36.6666 10.794 29.2047 3.33203 19.9999 3.33203C10.7952 3.33203 3.33325 10.794 3.33325 19.9987C3.33325 29.2034 10.7952 36.6654 19.9999 36.6654Z" fill="#2868C5"/>
<path d="M22.1001 27.1336C21.7834 27.1336 21.4668 27.0169 21.2168 26.7669L15.3334 20.8836C14.8501 20.4003 14.8501 19.6003 15.3334 19.1169L21.2168 13.2336C21.7001 12.7503 22.5001 12.7503 22.9834 13.2336C23.4668 13.7169 23.4668 14.5169 22.9834 15.0003L17.9834 20.0003L22.9834 25.0003C23.4668 25.4836 23.4668 26.2836 22.9834 26.7669C22.7501 27.0169 22.4334 27.1336 22.1001 27.1336Z" fill="#2868C5"/>
</svg>
