<svg width="16" height="16" viewBox="0 0 16 16" fill="none" xmlns="http://www.w3.org/2000/svg">
<path d="M14.0599 4.65302C13.4933 4.02635 12.5466 3.71302 11.1733 3.71302H11.0133V3.68635C11.0133 2.56635 11.0133 1.17969 8.50661 1.17969H7.49328C4.98661 1.17969 4.98661 2.57302 4.98661 3.68635V3.71969H4.82661C3.44661 3.71969 2.50661 4.03302 1.93994 4.65969C1.27994 5.39302 1.29994 6.37969 1.36661 7.05302L1.37328 7.09969L1.43994 7.79969C1.44661 7.80635 1.45994 7.81969 1.47328 7.82635C1.69328 7.97302 1.91994 8.11969 2.15994 8.25302C2.25328 8.31302 2.35328 8.36635 2.45328 8.41969C3.59328 9.04635 4.84661 9.46635 6.11994 9.67302C6.17994 10.2997 6.45328 11.033 7.91328 11.033C9.37328 11.033 9.65994 10.3064 9.70661 9.65969C11.0666 9.43969 12.3799 8.96635 13.5666 8.27302C13.6066 8.25302 13.6333 8.23302 13.6666 8.21302C13.9733 8.03969 14.2599 7.85302 14.5399 7.64635C14.5533 7.63969 14.5666 7.62635 14.5733 7.61302L14.5999 7.37302L14.6333 7.05969C14.6399 7.01969 14.6399 6.98635 14.6466 6.93969C14.6999 6.26635 14.6866 5.34635 14.0599 4.65302ZM8.72661 9.21969C8.72661 9.92635 8.72661 10.033 7.90661 10.033C7.08661 10.033 7.08661 9.90635 7.08661 9.22635V8.38635H8.72661V9.21969ZM5.93994 3.71302V3.68635C5.93994 2.55302 5.93994 2.13302 7.49328 2.13302H8.50661C10.0599 2.13302 10.0599 2.55969 10.0599 3.68635V3.71969H5.93994V3.71302Z" fill="#2868C5"/>
<path opacity="0.4" d="M13.6666 8.19961C13.6333 8.21961 13.5999 8.23961 13.5666 8.25961C12.3799 8.95294 11.0666 9.41961 9.70661 9.64628C9.65327 10.2863 9.37327 11.0196 7.91327 11.0196C6.45327 11.0196 6.17327 10.2929 6.11994 9.65961C4.84661 9.45961 3.59327 9.03961 2.45327 8.40628C2.35327 8.35294 2.25327 8.29961 2.15994 8.23961C1.91994 8.10628 1.69327 7.95961 1.47327 7.81294C1.45994 7.80628 1.44661 7.79294 1.43994 7.78628L1.84661 12.1263C1.98661 13.4529 2.53327 14.8196 5.46661 14.8196H10.5466C13.4799 14.8196 14.0266 13.4529 14.1666 12.1196L14.5866 7.59961C14.5799 7.61294 14.5666 7.62628 14.5533 7.63294C14.2666 7.83961 13.9733 8.03294 13.6666 8.19961Z" fill="#2868C5"/>
</svg>
