<svg width="32" height="32" viewBox="0 0 32 32" fill="none" xmlns="http://www.w3.org/2000/svg">
<path opacity="0.4" d="M2.66675 17.1726V14.8259C2.66675 13.4393 3.80008 12.2926 5.20008 12.2926C7.61341 12.2926 8.60008 10.5859 7.38675 8.4926C6.69341 7.2926 7.10675 5.7326 8.32008 5.03926L10.6267 3.71926C11.6801 3.0926 13.0401 3.46593 13.6667 4.51926L13.8134 4.7726C15.0134 6.86593 16.9867 6.86593 18.2001 4.7726L18.3467 4.51926C18.9734 3.46593 20.3334 3.0926 21.3867 3.71926L23.6934 5.03926C24.9067 5.7326 25.3201 7.2926 24.6267 8.4926C23.4134 10.5859 24.4001 12.2926 26.8134 12.2926C28.2001 12.2926 29.3467 13.4259 29.3467 14.8259V17.1726C29.3467 18.5593 28.2134 19.7059 26.8134 19.7059C24.4001 19.7059 23.4134 21.4126 24.6267 23.5059C25.3201 24.7193 24.9067 26.2659 23.6934 26.9593L21.3867 28.2793C20.3334 28.9059 18.9734 28.5326 18.3467 27.4793L18.2001 27.2259C17.0001 25.1326 15.0267 25.1326 13.8134 27.2259L13.6667 27.4793C13.0401 28.5326 11.6801 28.9059 10.6267 28.2793L8.32008 26.9593C7.10675 26.2659 6.69341 24.7059 7.38675 23.5059C8.60008 21.4126 7.61341 19.7059 5.20008 19.7059C3.80008 19.7059 2.66675 18.5593 2.66675 17.1726Z" fill="#2868C5"/>
<path d="M16.0001 20.3327C18.3933 20.3327 20.3334 18.3926 20.3334 15.9993C20.3334 13.6061 18.3933 11.666 16.0001 11.666C13.6068 11.666 11.6667 13.6061 11.6667 15.9993C11.6667 18.3926 13.6068 20.3327 16.0001 20.3327Z" fill="#2868C5"/>
</svg>
