<svg width="24" height="22" viewBox="0 0 24 22" fill="none" xmlns="http://www.w3.org/2000/svg">
<path d="M12.0001 18.2667L6.46676 21.6C6.22232 21.7556 5.96676 21.8222 5.70009 21.8C5.43343 21.7778 5.20009 21.6889 5.00009 21.5333C4.80009 21.3778 4.64454 21.1836 4.53343 20.9507C4.42232 20.7169 4.40009 20.4556 4.46676 20.1667L5.93343 13.8667L1.03343 9.63333C0.811205 9.43333 0.672538 9.20533 0.617427 8.94933C0.561427 8.69422 0.577872 8.44445 0.66676 8.2C0.755649 7.95556 0.888983 7.75556 1.06676 7.6C1.24454 7.44444 1.48898 7.34445 1.80009 7.3L8.26676 6.73333L10.7668 0.800001C10.8779 0.533334 11.0503 0.333333 11.2841 0.2C11.517 0.0666668 11.7556 0 12.0001 0C12.2445 0 12.4837 0.0666668 12.7174 0.2C12.9503 0.333333 13.1223 0.533334 13.2334 0.800001L15.7334 6.73333L22.2001 7.3C22.5112 7.34445 22.7557 7.44444 22.9334 7.6C23.1112 7.75556 23.2445 7.95556 23.3334 8.2C23.4223 8.44445 23.4392 8.69422 23.3841 8.94933C23.3281 9.20533 23.189 9.43333 22.9668 9.63333L18.0668 13.8667L19.5334 20.1667C19.6001 20.4556 19.5779 20.7169 19.4668 20.9507C19.3556 21.1836 19.2001 21.3778 19.0001 21.5333C18.8001 21.6889 18.5668 21.7778 18.3001 21.8C18.0334 21.8222 17.7779 21.7556 17.5334 21.6L12.0001 18.2667Z" fill="#FFC727"/>
</svg>
