<svg width="32" height="32" viewBox="0 0 32 32" fill="none" xmlns="http://www.w3.org/2000/svg">
<path d="M23.5469 30.2245C22.8402 30.2245 21.9336 29.9978 20.8002 29.3311L16.8136 26.9711C16.4002 26.7311 15.6002 26.7311 15.2002 26.9711L11.2002 29.3311C8.84024 30.7311 7.45357 30.1711 6.8269 29.7178C6.21357 29.2645 5.25357 28.1045 5.88024 25.4378L6.8269 21.3445C6.93357 20.9178 6.72024 20.1845 6.40024 19.8645L3.09357 16.5578C1.44024 14.9045 1.57357 13.4911 1.80024 12.7978C2.02691 12.1045 2.7469 10.8778 5.04024 10.4911L9.29357 9.78448C9.69357 9.71781 10.2669 9.29115 10.4402 8.93115L12.8002 4.22448C13.8669 2.07781 15.2669 1.75781 16.0002 1.75781C16.7336 1.75781 18.1336 2.07781 19.2002 4.22448L21.5469 8.91781C21.7336 9.27781 22.3069 9.70448 22.7069 9.77115L26.9602 10.4778C29.2669 10.8645 29.9869 12.0911 30.2002 12.7845C30.4136 13.4778 30.5469 14.8911 28.9069 16.5445L25.6002 19.8645C25.2802 20.1845 25.0802 20.9045 25.1736 21.3445L26.1202 25.4378C26.7336 28.1045 25.7869 29.2645 25.1736 29.7178C24.8402 29.9578 24.3069 30.2245 23.5469 30.2245ZM16.0002 24.7845C16.6536 24.7845 17.3069 24.9445 17.8269 25.2511L21.8136 27.6111C22.9736 28.3045 23.7069 28.3045 23.9869 28.1045C24.2669 27.9045 24.4669 27.1978 24.1736 25.8911L23.2269 21.7978C22.9736 20.6911 23.3869 19.2645 24.1869 18.4511L27.4936 15.1445C28.1469 14.4911 28.4402 13.8511 28.3069 13.4111C28.1602 12.9711 27.5469 12.6111 26.6402 12.4645L22.3869 11.7578C21.3602 11.5845 20.2402 10.7578 19.7736 9.82448L17.4269 5.13115C17.0002 4.27781 16.4669 3.77115 16.0002 3.77115C15.5336 3.77115 15.0002 4.27781 14.5869 5.13115L12.2269 9.82448C11.7602 10.7578 10.6402 11.5845 9.61357 11.7578L5.37357 12.4645C4.46691 12.6111 3.85357 12.9711 3.7069 13.4111C3.56024 13.8511 3.8669 14.5045 4.52024 15.1445L7.8269 18.4511C8.6269 19.2511 9.04024 20.6911 8.7869 21.7978L7.84024 25.8911C7.53357 27.2111 7.7469 27.9045 8.0269 28.1045C8.3069 28.3045 9.0269 28.2911 10.2002 27.6111L14.1869 25.2511C14.6936 24.9445 15.3469 24.7845 16.0002 24.7845Z" fill="#7D7C7C"/>
</svg>
