<svg width="64" height="44" viewBox="0 0 64 44" fill="none" xmlns="http://www.w3.org/2000/svg">
<rect x="0.5" y="0.5" width="63" height="43" rx="3.5" fill="white" stroke="#F3F3F3"/>
<path fill-rule="evenodd" clip-rule="evenodd" d="M23.4465 33.9797V35.6043V37.2289H22.7323V36.8344C22.5057 37.1269 22.162 37.3105 21.6947 37.3105C20.7736 37.3105 20.0515 36.5971 20.0515 35.6043C20.0515 34.6123 20.7736 33.898 21.6947 33.898C22.162 33.898 22.5057 34.0817 22.7323 34.3742V33.9797H23.4465ZM21.7836 34.564C21.1653 34.564 20.7869 35.0332 20.7869 35.6043C20.7869 36.1754 21.1653 36.6445 21.7836 36.6445C22.3743 36.6445 22.7732 36.1956 22.7732 35.6043C22.7732 35.013 22.3743 34.564 21.7836 34.564ZM47.5832 35.6043C47.5832 35.0332 47.9616 34.564 48.5799 34.564C49.1714 34.564 49.5694 35.013 49.5694 35.6043C49.5694 36.1956 49.1714 36.6445 48.5799 36.6445C47.9616 36.6445 47.5832 36.1754 47.5832 35.6043ZM50.2436 32.675V35.6043V37.2289H49.5285V36.8344C49.302 37.1269 48.9582 37.3105 48.491 37.3105C47.5699 37.3105 46.8477 36.5971 46.8477 35.6043C46.8477 34.6123 47.5699 33.898 48.491 33.898C48.9582 33.898 49.302 34.0817 49.5285 34.3742V32.675H50.2436ZM32.3125 34.5306C32.7727 34.5306 33.0685 34.8161 33.144 35.3188H31.4394C31.5157 34.8496 31.8036 34.5306 32.3125 34.5306ZM30.6905 35.6043C30.6905 34.5913 31.3638 33.898 32.3267 33.898C33.247 33.898 33.8795 34.5913 33.8865 35.6043C33.8865 35.6992 33.8795 35.7879 33.8724 35.8758H31.4331C31.5361 36.4609 31.9554 36.6718 32.4156 36.6718C32.7451 36.6718 33.096 36.5488 33.3713 36.3318L33.7213 36.8554C33.3225 37.1884 32.8694 37.3105 32.3746 37.3105C31.3914 37.3105 30.6905 36.6375 30.6905 35.6043ZM40.9512 35.6043C40.9512 35.0332 41.3296 34.564 41.9479 34.564C42.5386 34.564 42.9374 35.013 42.9374 35.6043C42.9374 36.1956 42.5386 36.6445 41.9479 36.6445C41.3296 36.6445 40.9512 36.1754 40.9512 35.6043ZM43.6108 33.9797V35.6043V37.2289L42.8965 37.2289V36.8344C42.6692 37.1269 42.3262 37.3105 41.859 37.3105C40.9378 37.3105 40.2157 36.5971 40.2157 35.6043C40.2157 34.6123 40.9378 33.898 41.859 33.898C42.3262 33.898 42.6692 34.0817 42.8965 34.3742V33.9797H43.6108ZM36.9174 35.6043C36.9174 36.5901 37.6112 37.3105 38.67 37.3105C39.1647 37.3105 39.4943 37.2016 39.8515 36.9231L39.5085 36.352C39.2403 36.5426 38.9587 36.6445 38.6487 36.6445C38.0784 36.6375 37.6592 36.2298 37.6592 35.6043C37.6592 34.9788 38.0784 34.5711 38.6487 34.5641C38.9587 34.5641 39.2403 34.666 39.5085 34.8566L39.8515 34.2855C39.4943 34.007 39.1647 33.898 38.67 33.898C37.6112 33.898 36.9174 34.6185 36.9174 35.6043ZM45.2602 34.3742C45.4458 34.0887 45.7141 33.898 46.1263 33.898C46.271 33.898 46.4771 33.9253 46.6352 33.9867L46.415 34.6528C46.2639 34.5913 46.1129 34.5711 45.9682 34.5711C45.5009 34.5711 45.2673 34.8698 45.2673 35.4075V37.2289H44.5522V33.9797L45.2602 33.9797V34.3742ZM26.9792 34.2381C26.6354 34.014 26.1619 33.898 25.6395 33.898C24.8073 33.898 24.2716 34.2925 24.2716 34.9383C24.2716 35.4681 24.6704 35.7949 25.4051 35.8968L25.7426 35.9443C26.1343 35.9988 26.3192 36.1007 26.3192 36.2843C26.3192 36.5356 26.058 36.6788 25.5703 36.6788C25.0755 36.6788 24.7184 36.5224 24.4777 36.3388L24.141 36.8888C24.5328 37.1744 25.0276 37.3105 25.5632 37.3105C26.5119 37.3105 27.0618 36.8686 27.0618 36.2501C27.0618 35.679 26.6291 35.3802 25.9141 35.2783L25.5774 35.2301C25.2683 35.1896 25.0205 35.1289 25.0205 34.9111C25.0205 34.673 25.2541 34.5306 25.6458 34.5306C26.0651 34.5306 26.471 34.687 26.67 34.8091L26.9792 34.2381ZM35.33 34.3742C35.5149 34.0887 35.7831 33.898 36.1953 33.898C36.34 33.898 36.5461 33.9253 36.7042 33.9867L36.484 34.6528C36.3329 34.5913 36.1819 34.5711 36.0372 34.5711C35.5699 34.5711 35.3363 34.8698 35.3363 35.4075V37.2289H34.622V33.9797H35.33V34.3742ZM30.0996 33.9797H28.9315V32.994H28.2094V33.9797H27.5431V34.6255H28.2094V36.1077C28.2094 36.8616 28.5051 37.3105 29.35 37.3105C29.6599 37.3105 30.017 37.2156 30.2436 37.0592L30.0375 36.4539C29.8243 36.5761 29.5907 36.6375 29.405 36.6375C29.0479 36.6375 28.9315 36.4197 28.9315 36.0937V34.6255H30.0996V33.9797ZM19.4198 35.1896V37.2289H18.6976V35.4207C18.6976 34.8698 18.464 34.5641 17.9763 34.5641C17.502 34.5641 17.1724 34.8636 17.1724 35.4277V37.2289H16.4503V35.4207C16.4503 34.8698 16.2103 34.5641 15.736 34.5641C15.2475 34.5641 14.9313 34.8636 14.9313 35.4277V37.2289H14.21V33.9797H14.925V34.3804C15.1932 34 15.5362 33.8981 15.887 33.8981C16.3889 33.8981 16.746 34.1159 16.9726 34.4761C17.2754 34.0202 17.7081 33.891 18.1273 33.8981C18.925 33.9051 19.4198 34.4217 19.4198 35.1896Z" fill="#231F20"/>
<path d="M37.5686 28.4574H26.7432V9.21484H37.5686V28.4574Z" fill="#FF5F00"/>
<path d="M27.4296 18.8383C27.4296 14.9349 29.2774 11.4578 32.1548 9.21704C30.0506 7.57848 27.395 6.60048 24.5089 6.60048C17.6763 6.60048 12.1377 12.0795 12.1377 18.8383C12.1377 25.5972 17.6763 31.0762 24.5089 31.0762C27.395 31.0762 30.0506 30.0982 32.1548 28.4596C29.2774 26.2188 27.4296 22.7418 27.4296 18.8383Z" fill="#EB001B"/>
<path d="M52.1732 18.8383C52.1732 25.5972 46.6346 31.0762 39.802 31.0762C36.9159 31.0762 34.2603 30.0982 32.1553 28.4596C35.0335 26.2188 36.8813 22.7418 36.8813 18.8383C36.8813 14.9349 35.0335 11.4578 32.1553 9.21704C34.2603 7.57848 36.9159 6.60048 39.802 6.60048C46.6346 6.60048 52.1732 12.0795 52.1732 18.8383Z" fill="#F79E1B"/>
</svg>
