<svg width="24" height="24" viewBox="0 0 24 24" fill="none" xmlns="http://www.w3.org/2000/svg">
<path opacity="0.4" d="M16.8201 1.91016H7.18007C5.06007 1.91016 3.32007 3.65016 3.32007 5.77016V19.8602C3.32007 21.6602 4.61007 22.4202 6.19007 21.5502L11.0701 18.8402C11.5901 18.5502 12.4301 18.5502 12.9401 18.8402L17.8201 21.5502C19.4001 22.4302 20.6901 21.6702 20.6901 19.8602V5.77016C20.6801 3.65016 18.9501 1.91016 16.8201 1.91016Z" fill="#FFC727"/>
<path d="M11.09 13.2495C10.9 13.2495 10.71 13.1795 10.56 13.0295L9.06003 11.5295C8.77003 11.2395 8.77003 10.7595 9.06003 10.4695C9.35003 10.1795 9.83003 10.1795 10.12 10.4695L11.09 11.4395L14.56 7.96945C14.85 7.67945 15.33 7.67945 15.62 7.96945C15.91 8.25945 15.91 8.73945 15.62 9.02945L11.62 13.0295C11.47 13.1795 11.28 13.2495 11.09 13.2495Z" fill="#FFC727"/>
</svg>
