<svg width="16" height="16" viewBox="0 0 16 16" fill="none" xmlns="http://www.w3.org/2000/svg">
<path opacity="0.4" d="M7.85992 9.47594L5.67992 11.6559C5.43992 11.4426 5.20659 11.2226 4.97992 10.9959C4.29325 10.3026 3.67325 9.57594 3.11992 8.81594C2.57325 8.05594 2.13325 7.29594 1.81325 6.5426C1.49325 5.7826 1.33325 5.05594 1.33325 4.3626C1.33325 3.90927 1.41325 3.47594 1.57325 3.07594C1.73325 2.66927 1.98659 2.29594 2.33992 1.9626C2.76659 1.5426 3.23325 1.33594 3.72659 1.33594C3.91325 1.33594 4.09992 1.37594 4.26659 1.45594C4.43992 1.53594 4.59325 1.65594 4.71325 1.82927L6.25992 4.00927C6.37992 4.17594 6.46659 4.32927 6.52659 4.47594C6.58659 4.61594 6.61992 4.75594 6.61992 4.8826C6.61992 5.0426 6.57325 5.2026 6.47992 5.35594C6.39325 5.50927 6.26659 5.66927 6.10659 5.82927L5.59992 6.35594C5.52659 6.42927 5.49325 6.51594 5.49325 6.6226C5.49325 6.67594 5.49992 6.7226 5.51325 6.77594C5.53325 6.82927 5.55325 6.86927 5.56659 6.90927C5.68659 7.12927 5.89325 7.41594 6.18659 7.7626C6.48659 8.10927 6.80659 8.4626 7.15325 8.81594C7.39325 9.04927 7.62659 9.27594 7.85992 9.47594Z" fill="#2868C5"/>
<path d="M14.6466 12.2194C14.6466 12.406 14.6132 12.5994 14.5466 12.786C14.5266 12.8394 14.5066 12.8927 14.4799 12.946C14.3666 13.186 14.2199 13.4127 14.0266 13.626C13.6999 13.986 13.3399 14.246 12.9332 14.4127C12.9266 14.4127 12.9199 14.4194 12.9132 14.4194C12.5199 14.5794 12.0932 14.666 11.6332 14.666C10.9532 14.666 10.2266 14.506 9.4599 14.1794C8.69324 13.8527 7.92657 13.4127 7.16657 12.8594C6.90657 12.666 6.64657 12.4727 6.3999 12.266L8.5799 10.086C8.76657 10.226 8.93324 10.3327 9.07324 10.406C9.10657 10.4194 9.14657 10.4394 9.19324 10.4594C9.24657 10.4794 9.2999 10.486 9.3599 10.486C9.47324 10.486 9.5599 10.446 9.63324 10.3727L10.1399 9.87271C10.3066 9.70604 10.4666 9.57938 10.6199 9.49938C10.7732 9.40604 10.9266 9.35938 11.0932 9.35938C11.2199 9.35938 11.3532 9.38604 11.4999 9.44604C11.6466 9.50604 11.7999 9.59271 11.9666 9.70604L14.1732 11.2727C14.3466 11.3927 14.4666 11.5327 14.5399 11.6994C14.6066 11.866 14.6466 12.0327 14.6466 12.2194Z" fill="#2868C5"/>
</svg>
