<svg width="16" height="16" viewBox="0 0 16 16" fill="none" xmlns="http://www.w3.org/2000/svg">
<path opacity="0.4" d="M11.3333 13.6693H4.66658C2.66659 13.6693 1.33325 12.6693 1.33325 10.3359V5.66927C1.33325 3.33594 2.66659 2.33594 4.66658 2.33594H11.3333C13.3333 2.33594 14.6666 3.33594 14.6666 5.66927V10.3359C14.6666 12.6693 13.3333 13.6693 11.3333 13.6693Z" fill="#2868C5"/>
<path d="M7.99993 8.58388C7.43993 8.58388 6.87327 8.41055 6.43994 8.05722L4.35327 6.39055C4.13993 6.21722 4.09994 5.90389 4.27327 5.69055C4.4466 5.47722 4.75994 5.43722 4.97327 5.61056L7.05993 7.27722C7.5666 7.68389 8.4266 7.68389 8.93326 7.27722L11.0199 5.61056C11.2333 5.43722 11.5533 5.47055 11.7199 5.69055C11.8933 5.90389 11.8599 6.22389 11.6399 6.39055L9.55327 8.05722C9.1266 8.41055 8.55993 8.58388 7.99993 8.58388Z" fill="#2868C5"/>
</svg>
