<svg width="16" height="16" viewBox="0 0 16 16" fill="none" xmlns="http://www.w3.org/2000/svg">
<path opacity="0.4" d="M13.2534 13.9591C12.6201 14.4257 11.7867 14.6657 10.7934 14.6657H5.20673C5.04673 14.6657 4.88673 14.6591 4.7334 14.6391L9.33339 10.0391L13.2534 13.9591Z" fill="#2868C5"/>
<path opacity="0.4" d="M14.6667 5.20771V10.7944C14.6667 11.7877 14.4267 12.621 13.96 13.2544L10.04 9.33437L14.64 4.73438C14.66 4.88771 14.6667 5.04771 14.6667 5.20771Z" fill="#2868C5"/>
<path opacity="0.4" d="M10.0399 9.33594L13.9599 13.2559C13.7666 13.5359 13.5333 13.7693 13.2533 13.9626L9.33325 10.0426L4.73326 14.6426C4.30659 14.6159 3.91992 14.5293 3.56659 14.3959C2.13992 13.8759 1.33325 12.6093 1.33325 10.7959V5.20927C1.33325 2.7826 2.77992 1.33594 5.20658 1.33594H10.7933C12.6066 1.33594 13.8732 2.1426 14.3932 3.56927C14.5266 3.9226 14.6132 4.30927 14.6399 4.73594L10.0399 9.33594Z" fill="#2868C5"/>
<path d="M10.04 9.33698L13.96 13.257C13.7667 13.537 13.5333 13.7703 13.2533 13.9636L9.33331 10.0436L4.73332 14.6436C4.30665 14.617 3.91998 14.5303 3.56665 14.397L3.82664 14.137L14.3933 3.57031C14.5266 3.92365 14.6133 4.31031 14.64 4.73698L10.04 9.33698Z" fill="#2868C5"/>
<path d="M8.15987 5.2875C7.90653 4.1875 6.9332 3.69417 6.07987 3.6875C5.22654 3.6875 4.25321 4.18083 3.99988 5.28083C3.71988 6.50083 4.46654 7.52083 5.13987 8.16083C5.40654 8.41417 5.73987 8.53417 6.07987 8.53417C6.41987 8.53417 6.75321 8.4075 7.01987 8.16083C7.69321 7.52083 8.43987 6.50083 8.15987 5.2875ZM6.09987 6.3275C5.7332 6.3275 5.4332 6.0275 5.4332 5.66083C5.4332 5.29417 5.72654 4.99417 6.09987 4.99417H6.10654C6.47321 4.99417 6.77321 5.29417 6.77321 5.66083C6.77321 6.0275 6.46654 6.3275 6.09987 6.3275Z" fill="#2868C5"/>
</svg>
