<svg width="16" height="16" viewBox="0 0 16 16" fill="none" xmlns="http://www.w3.org/2000/svg">
<path opacity="0.4" d="M7.99992 14.6673C11.6818 14.6673 14.6666 11.6825 14.6666 8.00065C14.6666 4.31875 11.6818 1.33398 7.99992 1.33398C4.31802 1.33398 1.33325 4.31875 1.33325 8.00065C1.33325 11.6825 4.31802 14.6673 7.99992 14.6673Z" fill="#2868C5"/>
<path d="M10.4733 10.6192C10.3867 10.6192 10.3 10.5992 10.22 10.5459L8.15334 9.31253C7.64001 9.00586 7.26001 8.33253 7.26001 7.73919V5.00586C7.26001 4.73253 7.48668 4.50586 7.76001 4.50586C8.03334 4.50586 8.26001 4.73253 8.26001 5.00586V7.73919C8.26001 7.97919 8.46001 8.33253 8.66668 8.45253L10.7333 9.68586C10.9733 9.82586 11.0467 10.1325 10.9067 10.3725C10.8067 10.5325 10.64 10.6192 10.4733 10.6192Z" fill="#2868C5"/>
</svg>