<svg width="32" height="32" viewBox="0 0 32 32" fill="none" xmlns="http://www.w3.org/2000/svg">
<path d="M16.0001 2.66699C19.6227 2.66699 20.0747 2.68033 21.4961 2.74699C22.9161 2.81366 23.8827 3.03633 24.7334 3.36699C25.6134 3.70566 26.3547 4.16433 27.0961 4.90433C27.7741 5.57085 28.2987 6.37711 28.6334 7.26699C28.9627 8.11632 29.1867 9.08432 29.2534 10.5043C29.3161 11.9257 29.3334 12.3777 29.3334 16.0003C29.3334 19.623 29.3201 20.075 29.2534 21.4963C29.1867 22.9163 28.9627 23.883 28.6334 24.7337C28.2996 25.624 27.7749 26.4305 27.0961 27.0963C26.4294 27.7741 25.6232 28.2987 24.7334 28.6337C23.8841 28.963 22.9161 29.187 21.4961 29.2537C20.0747 29.3163 19.6227 29.3337 16.0001 29.3337C12.3774 29.3337 11.9254 29.3203 10.5041 29.2537C9.08408 29.187 8.11741 28.963 7.26675 28.6337C6.37652 28.2996 5.57012 27.7749 4.90408 27.0963C4.22596 26.4299 3.70132 25.6236 3.36675 24.7337C3.03608 23.8843 2.81341 22.9163 2.74675 21.4963C2.68408 20.075 2.66675 19.623 2.66675 16.0003C2.66675 12.3777 2.68008 11.9257 2.74675 10.5043C2.81341 9.08299 3.03608 8.11766 3.36675 7.26699C3.7004 6.37656 4.22515 5.57009 4.90408 4.90433C5.57031 4.22597 6.37665 3.7013 7.26675 3.36699C8.11741 3.03633 9.08275 2.81366 10.5041 2.74699C11.9254 2.68433 12.3774 2.66699 16.0001 2.66699ZM16.0001 9.33366C14.232 9.33366 12.5363 10.036 11.286 11.2863C10.0358 12.5365 9.33341 14.2322 9.33341 16.0003C9.33341 17.7684 10.0358 19.4641 11.286 20.7144C12.5363 21.9646 14.232 22.667 16.0001 22.667C17.7682 22.667 19.4639 21.9646 20.7141 20.7144C21.9644 19.4641 22.6667 17.7684 22.6667 16.0003C22.6667 14.2322 21.9644 12.5365 20.7141 11.2863C19.4639 10.036 17.7682 9.33366 16.0001 9.33366ZM24.6667 9.00033C24.6667 8.5583 24.4912 8.13437 24.1786 7.82181C23.866 7.50925 23.4421 7.33366 23.0001 7.33366C22.5581 7.33366 22.1341 7.50925 21.8216 7.82181C21.509 8.13437 21.3334 8.5583 21.3334 9.00033C21.3334 9.44235 21.509 9.86628 21.8216 10.1788C22.1341 10.4914 22.5581 10.667 23.0001 10.667C23.4421 10.667 23.866 10.4914 24.1786 10.1788C24.4912 9.86628 24.6667 9.44235 24.6667 9.00033ZM16.0001 12.0003C17.0609 12.0003 18.0784 12.4218 18.8285 13.1719C19.5787 13.922 20.0001 14.9395 20.0001 16.0003C20.0001 17.0612 19.5787 18.0786 18.8285 18.8288C18.0784 19.5789 17.0609 20.0003 16.0001 20.0003C14.9392 20.0003 13.9218 19.5789 13.1717 18.8288C12.4215 18.0786 12.0001 17.0612 12.0001 16.0003C12.0001 14.9395 12.4215 13.922 13.1717 13.1719C13.9218 12.4218 14.9392 12.0003 16.0001 12.0003Z" fill="white"/>
</svg>
