<svg width="32" height="32" viewBox="0 0 32 32" fill="none" xmlns="http://www.w3.org/2000/svg">
<path fill-rule="evenodd" clip-rule="evenodd" d="M12.5733 11.958H17.5253V14.4247C18.2386 13.006 20.068 11.7313 22.816 11.7313C28.084 11.7313 29.3346 14.5553 29.3346 19.7367V29.3327H24.0013V20.9167C24.0013 17.966 23.288 16.302 21.472 16.302C18.9533 16.302 17.9066 18.0953 17.9066 20.9153V29.3327H12.5733V11.958ZM3.42797 29.106H8.7613V11.7313H3.42797V29.106ZM9.5253 6.06602C9.5255 6.51305 9.43684 6.95566 9.26448 7.36813C9.09213 7.7806 8.8395 8.1547 8.5213 8.46868C7.8765 9.10951 7.00372 9.46822 6.09464 9.46602C5.18715 9.46541 4.31638 9.10761 3.67064 8.47002C3.35358 8.15497 3.10182 7.78045 2.92976 7.36792C2.7577 6.9554 2.66874 6.51298 2.66797 6.06602C2.66797 5.16335 3.02797 4.29935 3.67197 3.66202C4.31715 3.02356 5.18829 2.66562 6.09597 2.66602C7.0053 2.66602 7.8773 3.02468 8.5213 3.66202C9.16397 4.29935 9.5253 5.16335 9.5253 6.06602Z" fill="#EBEBEB"/>
</svg>
