<svg width="32" height="32" viewBox="0 0 32 32" fill="none" xmlns="http://www.w3.org/2000/svg">
<path d="M29.948 8.00065C28.9214 8.46732 27.8147 8.77398 26.668 8.92065C27.8414 8.21398 28.748 7.09398 29.1747 5.74732C28.068 6.41398 26.8414 6.88065 25.548 7.14732C24.4947 6.00065 23.0147 5.33398 21.3347 5.33398C18.2014 5.33398 15.6414 7.89398 15.6414 11.054C15.6414 11.5073 15.6947 11.9473 15.788 12.3607C11.0414 12.1207 6.81469 9.84065 4.00135 6.38732C3.50802 7.22732 3.22802 8.21398 3.22802 9.25398C3.22802 11.2407 4.22802 13.0007 5.77469 14.0007C4.82802 14.0007 3.94802 13.734 3.17469 13.334V13.374C3.17469 16.1473 5.14802 18.4673 7.76135 18.9873C6.92232 19.2169 6.04148 19.2489 5.18802 19.0807C5.55016 20.2173 6.2594 21.2119 7.21604 21.9246C8.17268 22.6373 9.32862 23.0322 10.5214 23.054C8.49953 24.6546 5.99335 25.5197 3.41469 25.5073C2.96135 25.5073 2.50802 25.4806 2.05469 25.4273C4.58802 27.054 7.60135 28.0007 10.828 28.0007C21.3347 28.0007 27.108 19.2807 27.108 11.7207C27.108 11.4673 27.108 11.2273 27.0947 10.974C28.2147 10.174 29.1747 9.16065 29.948 8.00065Z" fill="#EBEBEB"/>
</svg>
