<svg width="33" height="33" viewBox="0 0 33 33" fill="none" xmlns="http://www.w3.org/2000/svg">
<path d="M21.3125 15.4692H14.1762L16.5412 13.1042C16.94 12.7055 16.94 12.0455 16.5412 11.6467C16.1425 11.248 15.4825 11.248 15.0837 11.6467L10.9587 15.7717C10.56 16.1705 10.56 16.8305 10.9587 17.2292L15.0837 21.3542C15.29 21.5605 15.5512 21.6567 15.8125 21.6567C16.0737 21.6567 16.335 21.5605 16.5412 21.3542C16.94 20.9555 16.94 20.2955 16.5412 19.8967L14.1762 17.5317H21.3125C21.8762 17.5317 22.3437 17.0642 22.3437 16.5005C22.3437 15.9367 21.8762 15.4692 21.3125 15.4692Z" fill="#2868C5"/>
</svg>
