<svg width="40" height="40" viewBox="0 0 40 40" fill="none" xmlns="http://www.w3.org/2000/svg">
<path opacity="0.4" d="M20.0002 36.6673C29.2049 36.6673 36.6668 29.2054 36.6668 20.0007C36.6668 10.7959 29.2049 3.33398 20.0002 3.33398C10.7954 3.33398 3.3335 10.7959 3.3335 20.0007C3.3335 29.2054 10.7954 36.6673 20.0002 36.6673Z" fill="white"/>
<path d="M22.0999 27.1336C21.7832 27.1336 21.4665 27.0169 21.2165 26.7669L15.3332 20.8836C14.8499 20.4003 14.8499 19.6003 15.3332 19.1169L21.2165 13.2336C21.6999 12.7503 22.4999 12.7503 22.9832 13.2336C23.4665 13.7169 23.4665 14.5169 22.9832 15.0003L17.9832 20.0003L22.9832 25.0003C23.4665 25.4836 23.4665 26.2836 22.9832 26.7669C22.7499 27.0169 22.4332 27.1336 22.0999 27.1336Z" fill="white"/>
</svg>
