<svg width="182" height="121" viewBox="0 0 182 121" fill="none" xmlns="http://www.w3.org/2000/svg">
<path d="M167.452 78.4199L88.7749 100.098V84.4723L167.452 62.7939C171.621 70.4605 167.452 78.4199 167.452 78.4199Z" fill="#37474F"/>
<path d="M12 89.26L88.7749 100.099V96.1376L19.0203 87.6289L12 88.05V89.26Z" fill="#455A64"/>
<path d="M88.7773 84.5452C91.6457 91.4301 88.7773 100.099 88.7773 100.099L15.7031 88.589V75.083L88.7773 84.5452Z" fill="#455A64"/>
<path d="M14.2227 57.0765C63.9014 56.9288 119.627 56.9264 169.306 57.0765C119.627 57.2265 63.9014 57.2241 14.2227 57.0765Z" fill="#FFC727"/>
<path d="M86.9695 84.3128C89.7626 91.1711 87.2 98.557 87.2 98.557L15.7031 88.5333V75.0781L86.9695 84.3128Z" fill="white"/>
<path d="M86.9695 84.3132C87.0641 84.5794 87.3383 85.3296 87.433 85.5934C88.0007 87.4774 88.2885 89.4342 88.2872 91.4014C88.2978 93.8281 87.9436 96.2426 87.2364 98.5646C87.2704 98.6711 15.7104 88.616 15.6861 88.6426L15.5818 88.6281V88.5337V75.0785V74.9551L15.7031 74.972L51.3509 79.6257L86.9549 84.3084L86.9695 84.3132ZM86.9695 84.3132C69.4392 81.9634 32.7553 77.6268 15.8099 75.0833L15.822 88.5385L15.7177 88.4175C15.7177 88.4442 87.3626 98.4823 87.1587 98.5452C87.5211 97.3929 87.7921 96.214 87.9693 95.0193C88.5104 91.445 88.3017 87.694 86.967 84.3132H86.9695Z" fill="#DBDBDB"/>
<path d="M50.2976 80.9102C62.2271 82.3622 75.5883 84.153 87.4766 85.9123C75.5471 84.4603 62.1858 82.6671 50.2976 80.9102Z" fill="#DBDBDB"/>
<path d="M15.7031 80.0059C25.9291 81.2159 37.2738 82.7501 47.4633 84.2772C37.2301 83.0672 25.8903 81.5377 15.7031 80.0059Z" fill="#DBDBDB"/>
<path d="M17.4065 81.334C34.7839 83.512 54.253 86.1304 71.5843 88.6206C54.2093 86.4426 34.7402 83.8242 17.4065 81.334Z" fill="#DBDBDB"/>
<path d="M26.8003 85.9053C44.8256 88.1293 65.0227 90.8009 83.0043 93.3371C64.9815 91.1155 44.7843 88.4414 26.8003 85.9053Z" fill="#DBDBDB"/>
<path d="M38.9165 88.751C54.6364 90.7112 72.2662 93.0779 87.9497 95.3479C72.2225 93.3925 54.6025 91.0209 38.9165 88.751Z" fill="#DBDBDB"/>
<path d="M24.7886 88.7246C44.9299 91.285 67.4979 94.3197 87.5883 97.1728C67.4469 94.6149 44.8789 91.5778 24.7886 88.7246Z" fill="#DBDBDB"/>
<path d="M88.7773 84.5454L167.452 62.7944L87.9498 59.2031L12 73.2488V74.604L88.7773 84.5454Z" fill="#455A64"/>
<path d="M90.7939 82.1541C100.554 79.2041 110.579 76.5397 120.593 74.2383C110.836 77.1907 100.811 79.8503 90.7939 82.1541Z" fill="#37474F"/>
<path d="M71.9192 80.7705C74.6371 80.9109 77.4447 81.2255 80.1432 81.5522C82.8416 81.8789 85.6274 82.2782 88.2725 82.8227C85.5546 82.6847 82.747 82.3677 80.051 82.041C77.3549 81.7143 74.5667 81.3029 71.9192 80.7705Z" fill="#37474F"/>
<path d="M14.1111 73.5127C32.5902 75.4923 51.2172 77.8276 69.5725 80.4726C51.0789 78.4979 32.4543 76.1578 14.1111 73.5127Z" fill="#37474F"/>
<path d="M142.239 71.6083C149.917 69.2029 157.688 67.0111 165.552 65.0332C157.878 67.4387 150.107 69.6304 142.239 71.6083Z" fill="#455A64"/>
<path d="M114.199 91.334L138.298 85.4268L168.918 89.6811L143.778 96.0264L114.199 91.334Z" fill="#DBDBDB"/>
<path d="M114.199 91.3342L138.291 85.4004C138.291 85.4004 168.933 89.6257 168.933 89.6233L169.241 89.6644L168.933 89.7443L143.778 96.0605C143.778 96.0605 114.209 91.3318 114.199 91.3342ZM114.199 91.3342C114.199 91.3342 143.824 95.9976 143.771 95.9952L168.904 89.6233V89.7419C168.904 89.7419 138.26 85.4512 138.306 85.4536L114.199 91.3342Z" fill="#DBDBDB"/>
<path d="M142.819 94.3809C144.302 93.926 145.831 93.5025 147.364 93.0838C148.898 92.6652 150.456 92.2634 152.019 91.8738C153.582 91.4842 155.173 91.0897 156.77 90.7195L159.177 90.1653C159.998 89.9911 160.801 89.8071 161.631 89.6426C160.903 89.8725 160.131 90.083 159.381 90.3057L157.088 90.9373C155.559 91.3608 153.997 91.7601 152.434 92.1473C150.871 92.5345 149.279 92.9314 147.682 93.3016C146.086 93.6719 144.474 94.0421 142.819 94.3809Z" fill="#C7C7C7"/>
<path d="M146.802 91.9775C148.5 91.3967 150.335 90.8981 152.194 90.4238C154.052 89.9495 155.969 89.5018 158.013 89.1533C156.314 89.7365 154.482 90.2326 152.621 90.707C150.759 91.1813 148.833 91.6193 146.802 91.9775Z" fill="#C7C7C7"/>
<path d="M135.559 93.42C137.042 92.965 138.57 92.5415 140.104 92.1229C141.638 91.7042 143.196 91.3025 144.758 90.9129C146.321 90.5233 147.913 90.1288 149.507 89.7585L151.917 89.2068C152.735 89.0325 153.54 88.8486 154.37 88.6816C153.642 88.9115 152.871 89.1245 152.121 89.3447L149.828 89.9788C148.296 90.3998 146.736 90.7991 145.173 91.1888C143.611 91.5784 142.019 91.9728 140.422 92.3431C138.825 92.7134 137.214 93.0812 135.559 93.42Z" fill="#C7C7C7"/>
<path d="M134.632 92.2555C137.153 91.4666 139.801 90.7648 142.48 90.0775C145.159 89.3902 147.891 88.7514 150.73 88.1875C148.209 88.9764 145.562 89.6782 142.885 90.3655C140.208 91.0528 137.481 91.6917 134.632 92.2555Z" fill="#C7C7C7"/>
<path d="M137.782 90.0656C139.172 89.5622 140.694 89.1436 142.24 88.7467C143.785 88.3498 145.394 87.9917 147.11 87.7109C145.719 88.2167 144.198 88.633 142.654 89.0298C141.111 89.4267 139.5 89.7849 137.782 90.0656Z" fill="#C7C7C7"/>
<path d="M14.6113 66.5262L48.0508 60.2148L80.3182 69.6165L47.0462 76.1554L14.6113 66.5262Z" fill="#EBEBEB"/>
<path d="M14.6113 66.5264L48.0532 60.1836C48.0532 60.1836 80.3279 69.5611 80.3279 69.5587L80.5706 69.6289L80.3279 69.6772L47.0462 76.1919C47.034 76.1919 14.621 66.5337 14.6113 66.5337V66.5264ZM14.6113 66.5264L47.0559 76.1241C46.9758 76.1411 80.3279 69.5514 80.3012 69.5587V69.6748L48.0435 60.2368C48.1066 60.2223 14.6016 66.5288 14.6113 66.5288V66.5264Z" fill="#DBDBDB"/>
<path d="M46.5779 74.2391C48.7619 73.7357 50.9629 73.2711 53.1736 72.804C55.3843 72.337 57.6119 71.8917 59.842 71.4512C62.0721 71.0108 64.3144 70.58 66.5712 70.1711L69.9564 69.5564C71.0945 69.3628 72.2229 69.1595 73.3707 68.9756C72.2836 69.2297 71.1867 69.4596 70.085 69.7016L66.7702 70.4106C64.5619 70.8801 62.3318 71.323 60.1041 71.7634C57.8764 72.2039 55.6318 72.6346 53.375 73.0436C51.1182 73.4526 48.8638 73.8664 46.5779 74.2391Z" fill="#DBDBDB"/>
<path d="M55.1487 70.892C57.5317 70.2798 60.002 69.7619 62.4796 69.2682C64.9573 68.7745 67.481 68.3244 70.0727 67.959C67.6897 68.5712 65.2193 69.0891 62.7417 69.5828C60.2641 70.0765 57.7404 70.5266 55.1487 70.892Z" fill="#DBDBDB"/>
<path d="M43.28 71.5597C45.185 71.1096 47.1166 70.6958 49.0531 70.2844C50.9896 69.873 52.9357 69.4834 54.8965 69.0938C56.8572 68.7041 58.8204 68.3315 60.803 67.9757L63.7757 67.4433C64.7779 67.2763 65.768 67.0997 66.7774 66.9424C65.8286 67.1699 64.8628 67.378 63.9043 67.5958L61.0044 68.2177C59.0631 68.6315 57.1217 69.0187 55.161 69.4084C53.2002 69.798 51.2395 70.1682 49.2569 70.5264C47.2743 70.8846 45.2942 71.2403 43.28 71.5597Z" fill="#DBDBDB"/>
<path d="M41.7244 70.2025C43.4837 69.7814 45.2697 69.3942 47.063 69.0118C48.8563 68.6295 50.6618 68.2665 52.4721 67.9083C54.2824 67.5502 56.1121 67.2017 57.9418 66.875L60.696 66.391C61.6255 66.2385 62.5452 66.0764 63.4819 65.9336C62.6058 66.149 61.7104 66.3402 60.8271 66.5459L58.1432 67.1242C56.3547 67.509 54.5444 67.8696 52.7342 68.2278C50.9239 68.5859 49.0942 68.932 47.2644 69.2611C45.4347 69.5902 43.5929 69.9 41.7244 70.2025Z" fill="#DBDBDB"/>
<path d="M33.3938 70.1761C35.5778 69.6727 37.7788 69.2081 39.9895 68.7386C42.2002 68.2691 44.4278 67.8287 46.658 67.3858C48.8881 66.943 51.1303 66.517 53.3847 66.1056L56.782 65.491C57.9201 65.2998 59.0485 65.0941 60.1963 64.9102C59.1092 65.1667 58.0123 65.3942 56.9106 65.6362L53.5982 66.338C51.39 66.805 49.1599 67.2479 46.9322 67.6907C44.7045 68.1336 42.4598 68.5595 40.203 68.9709C37.9462 69.3823 35.6797 69.801 33.3938 70.1761Z" fill="#DBDBDB"/>
<path d="M33.1172 68.5665C35.044 68.1116 36.9999 67.6929 38.9582 67.2767C40.9165 66.8604 42.8942 66.466 44.872 66.0667C46.8497 65.6674 48.8396 65.2947 50.844 64.9341L53.8531 64.3945C54.865 64.2251 55.8696 64.046 56.8888 63.8887C55.9181 64.1186 54.9475 64.3267 53.9768 64.5493L51.043 65.1761C49.0871 65.5948 47.1093 65.9868 45.1316 66.3861C43.1539 66.7854 41.1616 67.1581 39.1572 67.5187C37.1527 67.8793 35.1532 68.2422 33.1172 68.5665Z" fill="#DBDBDB"/>
<path d="M26.8005 68.1434C28.9845 67.64 31.1855 67.1754 33.3986 66.7083C35.6118 66.2413 37.837 65.7863 40.0768 65.3555C42.3166 64.9248 44.5492 64.4843 46.806 64.0754L50.1912 63.4607C51.3293 63.2671 52.4601 63.0638 53.6055 62.8799C52.5184 63.134 51.4215 63.3639 50.3222 63.6059L47.0098 64.3101C44.8016 64.7772 42.5714 65.22 40.3413 65.6605C38.1112 66.1009 35.869 66.5317 33.6122 66.9406C31.3554 67.3496 29.0889 67.7707 26.8005 68.1434Z" fill="#DBDBDB"/>
<path d="M34.4614 64.9754C36.9973 64.3317 39.6132 63.7848 42.2486 63.262C44.884 62.7393 47.5533 62.2577 50.2979 61.8633C47.762 62.507 45.1485 63.0515 42.5107 63.5766C39.8729 64.1018 37.206 64.5761 34.4614 64.9754Z" fill="#DBDBDB"/>
<path d="M63.6106 98.7464L106.106 90.7266L147.107 102.674L104.828 110.982L63.6106 98.7464Z" fill="#EBEBEB"/>
<path d="M63.6154 98.7467L106.106 90.6953C106.106 90.6953 147.117 102.619 147.117 102.616L147.36 102.686L147.117 102.735L104.828 111.014C104.815 111.016 63.6154 98.7467 63.6154 98.7467ZM63.6154 98.7467L104.842 110.953C104.767 110.953 147.119 102.611 147.1 102.616V102.732L106.097 90.7558C106.16 90.7365 63.6009 98.7588 63.6106 98.7418L63.6154 98.7467Z" fill="#DBDBDB"/>
<path d="M104.23 108.547C106.999 107.908 109.812 107.311 112.615 106.723C115.417 106.135 118.254 105.566 121.086 105.004C123.918 104.443 126.769 103.898 129.638 103.376L133.94 102.596C135.396 102.354 136.821 102.091 138.279 101.858C136.898 102.183 135.496 102.48 134.105 102.793L129.895 103.683C127.09 104.278 124.255 104.84 121.423 105.401C118.591 105.963 115.74 106.507 112.872 107.028C110.004 107.548 107.138 108.073 104.23 108.547Z" fill="#DBDBDB"/>
<path d="M115.124 104.293C118.152 103.516 121.283 102.858 124.437 102.231C127.592 101.605 130.795 101.021 134.091 100.566C131.062 101.346 127.929 102.004 124.775 102.631C121.62 103.257 118.417 103.829 115.124 104.293Z" fill="#DBDBDB"/>
<path d="M100.042 105.142C102.469 104.571 104.917 104.044 107.378 103.523C109.839 103.003 112.321 102.505 114.804 102.011C117.286 101.517 119.788 101.043 122.307 100.588L126.088 99.9104C127.359 99.6999 128.619 99.4748 129.902 99.2764C128.689 99.5668 127.476 99.8305 126.262 100.106L122.579 100.895C120.12 101.42 117.636 101.914 115.153 102.408C112.671 102.902 110.166 103.376 107.647 103.828C105.129 104.281 102.6 104.748 100.042 105.142Z" fill="#DBDBDB"/>
<path d="M98.0742 103.417C100.309 102.882 102.581 102.391 104.869 101.907C107.157 101.423 109.441 100.959 111.741 100.501C114.042 100.044 116.352 99.6058 118.691 99.1895L122.195 98.5652C123.375 98.374 124.542 98.1659 125.733 97.9844C124.62 98.2578 123.484 98.5023 122.358 98.7612L118.948 99.4872C116.677 99.9712 114.377 100.433 112.076 100.891C109.776 101.348 107.465 101.786 105.126 102.202C102.787 102.619 100.438 103.054 98.0742 103.417Z" fill="#DBDBDB"/>
<path d="M87.4768 103.383C90.2456 102.744 93.0581 102.147 95.8609 101.559C98.6637 100.971 101.501 100.402 104.332 99.8405C107.164 99.279 110.016 98.7345 112.877 98.2142L117.179 97.435C118.635 97.193 120.06 96.9292 121.518 96.709C120.137 97.0333 118.735 97.3309 117.344 97.6431L113.134 98.5337C110.329 99.129 107.494 99.6904 104.662 100.252C101.831 100.813 98.9792 101.358 96.1109 101.878C93.2426 102.398 90.384 102.909 87.4768 103.383Z" fill="#DBDBDB"/>
<path d="M87.1274 101.339C89.5759 100.763 92.0609 100.228 94.5506 99.7026C97.0404 99.1775 99.5495 98.6717 102.073 98.1707C104.597 97.6698 107.116 97.1906 109.664 96.7333L113.476 96.0363C114.765 95.8233 116.039 95.5959 117.337 95.3926C116.124 95.6854 114.874 95.9516 113.641 96.2323L109.914 97.0309C107.427 97.5609 104.912 98.0618 102.391 98.5604C99.8699 99.0589 97.3486 99.5284 94.8006 99.9978C92.2526 100.467 89.7143 100.927 87.1274 101.339Z" fill="#DBDBDB"/>
<path d="M79.1001 100.801C81.8689 100.162 84.6814 99.5646 87.4842 98.9765C90.287 98.3884 93.1238 97.8197 95.9557 97.2583C98.7876 96.6969 101.639 96.1524 104.507 95.6296L108.81 94.8504C110.266 94.6084 111.69 94.3446 113.146 94.1123C111.768 94.4366 110.365 94.7342 108.975 95.0464L104.765 95.937C101.959 96.5323 99.125 97.0937 96.293 97.6552C93.4611 98.2166 90.6098 98.7611 87.7415 99.2814C84.8731 99.8017 82.0072 100.327 79.1001 100.801Z" fill="#DBDBDB"/>
<path d="M88.8357 96.7741C92.0583 95.9585 95.3877 95.264 98.7292 94.5961C102.071 93.9282 105.473 93.3183 108.96 92.8174C105.737 93.6353 102.408 94.3299 99.0641 94.9954C95.7201 95.6609 92.3228 96.278 88.8357 96.7741Z" fill="#DBDBDB"/>
<path d="M101.445 59.6908C100.426 59.8893 96.218 60.1143 96.1331 59.2068C96.0021 57.8419 106.065 48.1619 109.676 46.3421C113.11 44.6094 124.173 40.8294 126.906 40.7471L126.93 49.4397C125.384 49.8317 113.069 48.6339 110.482 50.0036C109.358 50.5989 107.871 53.0673 104.842 56.9877C103.777 58.3695 102.047 59.5723 101.445 59.6908Z" fill="#FFC727"/>
<g opacity="0.3">
<path d="M101.445 59.6908C100.426 59.8893 96.218 60.1143 96.1331 59.2068C96.0021 57.8419 106.065 48.1619 109.676 46.3421C113.11 44.6094 124.173 40.8294 126.906 40.7471L126.93 49.4397C125.384 49.8317 113.069 48.6339 110.482 50.0036C109.358 50.5989 107.871 53.0673 104.842 56.9877C103.777 58.3695 102.047 59.5723 101.445 59.6908Z" fill="#222222"/>
</g>
<path d="M99.3557 59.6908C98.3341 59.8893 94.4223 60.1143 94.335 59.2068C94.2063 57.8419 104.27 48.1619 107.878 46.3421C111.312 44.6094 124.173 40.8294 126.906 40.7471L126.93 49.4397C125.384 49.8317 111.273 48.6339 108.686 50.0036C107.563 50.5989 105.774 53.0673 102.751 56.9877C101.688 58.3695 99.9575 59.5723 99.3557 59.6908Z" fill="#FFC727"/>
<g opacity="0.2">
<path d="M99.3557 59.6908C98.3341 59.8893 94.4223 60.1143 94.335 59.2068C94.2063 57.8419 104.27 48.1619 107.878 46.3421C111.312 44.6094 124.173 40.8294 126.906 40.7471L126.93 49.4397C125.384 49.8317 111.273 48.6339 108.686 50.0036C107.563 50.5989 105.774 53.0673 102.751 56.9877C101.688 58.3695 99.9575 59.5723 99.3557 59.6908Z" fill="#222222"/>
</g>
<path d="M139.034 71.2244C139.912 71.5922 143.368 71.7786 143.96 71.0356C144.853 69.9103 133.957 54.599 127.556 51.8208C121.569 49.2435 37.1091 32.8843 35.3668 32.6133L35.3037 39.4086C47.0706 41.243 121.734 53.1058 126.352 55.112C129.364 56.4164 133.2 63.2989 135.957 68.0542C137.071 69.9853 138.015 70.7985 139.034 71.2244Z" fill="#FFC727"/>
<g opacity="0.2">
<path d="M139.034 71.2244C139.912 71.5922 143.368 71.7786 143.96 71.0356C144.853 69.9103 133.957 54.599 127.556 51.8208C121.569 49.2435 37.1091 32.8843 35.3668 32.6133L35.3037 39.4086C47.0706 41.243 121.734 53.1058 126.352 55.112C129.364 56.4164 133.2 63.2989 135.957 68.0542C137.071 69.9853 138.015 70.7985 139.034 71.2244Z" fill="#222222"/>
</g>
<path d="M137.576 71.2244C138.454 71.5922 141.91 71.7786 142.502 71.0356C143.395 69.9103 132.579 54.2287 126.18 51.4506C120.191 48.8733 37.1091 32.8746 35.3667 32.6133L33.8452 39.4086C45.6121 41.243 120.276 53.1058 124.894 55.112C127.905 56.4164 131.742 63.2989 134.498 68.0542C135.612 69.9853 136.556 70.7985 137.576 71.2244Z" fill="#FFC727"/>
<g opacity="0.1">
<path d="M137.576 71.2244C138.454 71.5922 141.91 71.7786 142.502 71.0356C143.395 69.9103 132.579 54.2287 126.18 51.4506C120.191 48.8733 37.1091 32.8746 35.3667 32.6133L33.8452 39.4086C45.6121 41.243 120.276 53.1058 124.894 55.112C127.905 56.4164 131.742 63.2989 134.498 68.0542C135.612 69.9853 136.556 70.7985 137.576 71.2244Z" fill="#222222"/>
</g>
<g opacity="0.1">
<path d="M51.7249 35.7496L45.3331 41.2309C40.0163 40.3839 35.937 39.7426 33.8501 39.4159L35.3692 32.6133C35.8424 32.6859 42.3628 33.9322 51.7249 35.7496Z" fill="#222222"/>
<path d="M68.0709 44.8994L64.1009 44.2484L60.4124 37.4434L66.2582 38.5953L68.0709 44.8994Z" fill="#222222"/>
<path d="M90.4302 43.4407L85.9409 47.8524L81.9539 47.1844L85.1425 42.3662C86.914 42.7228 88.6765 43.0809 90.4302 43.4407Z" fill="#222222"/>
<path d="M125.632 51.2494L124.086 54.8528C123.343 54.6446 122.224 54.3833 120.785 54.0808L119.672 49.6885C122.472 50.3467 124.54 50.8815 125.632 51.2494Z" fill="#222222"/>
</g>
<path d="M51.4192 74.7844C42.6201 74.3609 35.9249 64.4219 36.4928 52.6317C36.7621 47.0052 38.6282 41.7732 41.7441 37.8987C44.9643 33.8961 49.1212 31.7955 53.4892 32.0157C57.8572 32.2359 61.7932 34.7043 64.6106 38.9998C67.3406 43.1477 68.6946 48.5371 68.4204 54.1684C67.8817 65.3246 61.024 74.206 52.8291 74.7699C52.3598 74.8014 51.8891 74.8062 51.4192 74.7844ZM43.9839 39.6944C41.2442 43.0945 39.5916 47.7409 39.349 52.7721C38.8636 62.9845 44.3309 71.5779 51.5527 71.9239C58.7744 72.27 65.0522 64.2429 65.5497 54.0159C65.7924 48.9848 64.6009 44.2053 62.2057 40.5535C59.898 37.0469 56.7506 35.0262 53.3435 34.8641C52.9807 34.8423 52.6168 34.8423 52.254 34.8641C49.2352 35.094 46.3329 36.771 43.9839 39.6895V39.6944ZM36.5049 54.1297C36.0608 45.5048 37.0291 44.1544 36.636 41.611C36.4491 40.401 34.7407 39.2394 34.7407 39.2394L36.2331 33.0466C36.2331 33.0466 40.885 33.4992 41.9576 33.5161C43.865 33.5427 47.983 32.1537 51.5697 32.0641C51.5697 32.0641 43.7728 35.5586 41.266 40.0138C38.7593 44.469 36.5049 54.1248 36.5049 54.1248V54.1297Z" fill="#FFC727"/>
<path opacity="0.1" d="M51.4192 74.7844C42.6201 74.3609 35.9249 64.4219 36.4928 52.6317C36.7621 47.0052 38.6282 41.7732 41.7441 37.8987C44.9643 33.8961 49.1212 31.7955 53.4892 32.0157C57.8572 32.2359 61.7932 34.7043 64.6106 38.9998C67.3406 43.1477 68.6946 48.5371 68.4204 54.1684C67.8817 65.3246 61.024 74.206 52.8291 74.7699C52.3598 74.8014 51.8891 74.8062 51.4192 74.7844ZM43.9839 39.6944C41.2442 43.0945 39.5916 47.7409 39.349 52.7721C38.8636 62.9845 44.3309 71.5779 51.5527 71.9239C58.7744 72.27 65.0522 64.2429 65.5497 54.0159C65.7924 48.9848 64.6009 44.2053 62.2057 40.5535C59.898 37.0469 56.7506 35.0262 53.3435 34.8641C52.9807 34.8423 52.6168 34.8423 52.254 34.8641C49.2352 35.094 46.3329 36.771 43.9839 39.6895V39.6944ZM36.5049 54.1297C36.0608 45.5048 37.0291 44.1544 36.636 41.611C36.4491 40.401 34.7407 39.2394 34.7407 39.2394L36.2331 33.0466C36.2331 33.0466 40.885 33.4992 41.9576 33.5161C43.865 33.5427 47.983 32.1537 51.5697 32.0641C51.5697 32.0641 43.7728 35.5586 41.266 40.0138C38.7593 44.469 36.5049 54.1248 36.5049 54.1248V54.1297Z" fill="#222222"/>
<path d="M50.2229 74.7844C41.4214 74.3609 34.7262 64.4219 35.294 52.6317C35.5634 47.0052 37.4295 41.7732 40.5453 37.8987C43.7655 33.8961 47.9224 31.7955 52.2904 32.0157C56.6584 32.2359 60.5945 34.7043 63.4118 38.9998C66.1418 43.1477 67.4959 48.5371 67.2217 54.1684C66.683 65.3246 59.8252 74.206 51.6304 74.7699C51.1619 74.8013 50.6919 74.8062 50.2229 74.7844ZM42.7852 39.6944C40.0455 43.0993 38.4026 47.7457 38.1599 52.7769C37.6746 62.9893 43.1395 71.5827 50.3612 71.9288C57.583 72.2748 63.8608 64.2477 64.3582 54.0208C64.6009 48.9896 63.4094 44.2101 61.0143 40.5583C58.709 37.0517 55.5591 35.031 52.1521 34.8689C51.7892 34.8471 51.4254 34.8471 51.0625 34.8689C48.0389 35.094 45.1342 36.771 42.7852 39.6895V39.6944ZM35.3062 54.1297C34.8621 45.5048 35.8303 44.1544 35.4372 41.611C35.2504 40.401 33.542 39.2394 33.542 39.2394L35.1023 32.3376C35.1023 32.3376 39.8319 33.1725 40.9021 33.187C42.8094 33.216 46.7843 32.1537 50.3661 32.0738C50.3661 32.0738 42.5692 35.5683 40.0624 40.0235C37.5557 44.4787 35.3062 54.1248 35.3062 54.1248V54.1297Z" fill="#FFC727"/>
<path d="M39.7664 35.4954C39.7106 35.9238 38.9122 36.1706 37.9828 36.0472C37.0534 35.9238 36.3497 35.4761 36.4079 35.0502C36.4662 34.6242 37.2621 34.375 38.1915 34.4984C39.1209 34.6218 39.8344 35.0671 39.7664 35.4954Z" fill="#A6A6A6"/>
<path d="M36.8157 35.0646C36.8909 34.8589 37.699 34.6266 38.5823 34.8638L36.8157 35.0646Z" fill="white"/>
<path d="M34.7383 39.2949C36.4175 40.2339 37.1358 41.6181 36.9465 43.5348C36.7597 46.8598 36.3835 50.1535 36.3787 53.4785C36.3558 55.138 36.4629 56.7967 36.699 58.4395C35.624 54.3885 35.9443 50.1172 36.3229 45.9911L36.5655 43.513C36.8276 41.6593 36.2404 40.3912 34.7334 39.2949H34.7383Z" fill="white"/>
<path d="M43.5083 33.5867C45.8379 32.9236 48.2573 32.3767 50.6937 32.4856C48.267 32.7009 45.9107 33.243 43.5083 33.5867Z" fill="white"/>
<path opacity="0.1" d="M43.5059 39.8661C40.8584 43.2541 39.2714 47.8714 39.0336 52.876C38.5604 63.04 43.8505 71.5777 50.8296 71.9238C57.8087 72.2699 63.8778 64.2839 64.3583 54.1247C64.6009 49.1226 63.4434 44.3673 61.1284 40.7373C58.8983 37.2476 55.8552 35.239 52.5598 35.0769C52.2091 35.0551 51.8574 35.0551 51.5066 35.0769C48.5825 35.2947 45.7773 36.9596 43.5059 39.8661Z" fill="#EBEBEB"/>
<g opacity="0.2">
<path d="M56.8985 36.442L39.014 54.7929C38.997 54.1588 39.014 53.5224 39.0358 52.8738C39.1205 50.9805 39.4118 49.1019 39.9046 47.2715L51.7953 35.0771C52.0379 35.0771 52.3073 35.0771 52.5645 35.0771C54.1007 35.1644 55.5907 35.6336 56.8985 36.442Z" fill="white"/>
<path d="M63.1301 44.9749L42.302 66.3459C41.919 65.7535 41.5722 65.1385 41.2634 64.5043L62.3051 42.9131C62.619 43.5842 62.8944 44.2726 63.1301 44.9749Z" fill="white"/>
<path d="M63.9408 57.7432C63.6865 59.1218 63.3146 60.4762 62.8294 61.7918L53.1349 71.738C52.378 71.9009 51.6028 71.9636 50.8295 71.9244C50.6111 71.9123 50.3927 71.8953 50.1768 71.8663L63.9408 57.7432Z" fill="white"/>
<path d="M63.9795 48.2633L44.1172 68.6422C44.0226 68.5502 43.9328 68.4534 43.8455 68.3542L63.8873 47.7842C63.9237 47.9439 63.9504 48.106 63.9795 48.2633Z" fill="white"/>
</g>
<path d="M78.8357 54.6955L80.777 52.5925C77.6563 49.7127 70.3108 45.6907 64.8071 51.0268L66.8067 53.0789C71.7377 48.2898 78.5469 54.4341 78.8357 54.6955Z" fill="#FFC727"/>
<path d="M97.4093 77.4029C91.8071 76.3771 86.8422 73.176 83.6049 68.5024C80.3676 63.8289 79.1227 58.0651 80.1436 52.4769C80.9082 48.3099 82.8947 44.4626 85.8518 41.4214C88.8089 38.3803 92.6039 36.2819 96.7569 35.3915C100.91 34.5012 105.234 34.8589 109.183 36.4194C113.132 37.9799 116.529 40.6732 118.943 44.1586C121.357 47.6441 122.681 51.7652 122.747 56.0008C122.813 60.2365 121.618 64.3965 119.313 67.9548C117.008 71.5131 113.697 74.31 109.798 75.9917C105.899 77.6735 101.588 78.1645 97.4093 77.4029ZM82.9682 52.9996C82.277 56.7974 82.7924 60.7158 84.4425 64.2073C86.0926 67.6989 88.795 70.5893 92.1723 72.4749C95.5496 74.3605 99.4331 75.1471 103.28 74.7248C107.128 74.3026 110.747 72.6926 113.632 70.1197C116.517 67.5468 118.525 64.1395 119.374 60.3736C120.223 56.6078 119.872 52.6714 118.369 49.1144C116.866 45.5573 114.287 42.5572 110.991 40.533C107.695 38.5088 103.848 37.5616 99.9864 37.8238C95.8632 38.1112 91.953 39.7584 88.8719 42.506C85.7908 45.2535 83.7138 48.9453 82.9682 52.9996Z" fill="#FFC727"/>
<path d="M120.4 47.1821C118.922 42.2888 110.314 36.9092 110.314 36.9092C113.799 37.7634 117.643 39.501 119.512 39.8882C120.56 40.1036 126.918 40.7521 126.918 40.7521L126.942 49.4448C126.942 49.4448 125.195 49.5416 124.758 50.6814C123.821 53.0796 124.294 53.6604 121.984 61.9804C121.962 61.9804 121.856 52.0729 120.4 47.1821Z" fill="#FFC727"/>
<g opacity="0.1">
<path d="M97.4093 77.4029C91.8071 76.3771 86.8422 73.176 83.6049 68.5024C80.3676 63.8289 79.1227 58.0651 80.1436 52.4769C80.9082 48.3099 82.8947 44.4626 85.8518 41.4214C88.8089 38.3803 92.6039 36.2819 96.7569 35.3915C100.91 34.5012 105.234 34.8589 109.183 36.4194C113.132 37.9799 116.529 40.6732 118.943 44.1586C121.357 47.6441 122.681 51.7652 122.747 56.0008C122.813 60.2365 121.618 64.3965 119.313 67.9548C117.008 71.5131 113.697 74.31 109.798 75.9917C105.899 77.6735 101.588 78.1645 97.4093 77.4029ZM82.9682 52.9996C82.277 56.7974 82.7924 60.7158 84.4425 64.2073C86.0926 67.6989 88.795 70.5893 92.1723 72.4749C95.5496 74.3605 99.4331 75.1471 103.28 74.7248C107.128 74.3026 110.747 72.6926 113.632 70.1197C116.517 67.5468 118.525 64.1395 119.374 60.3736C120.223 56.6078 119.872 52.6714 118.369 49.1144C116.866 45.5573 114.287 42.5572 110.991 40.533C107.695 38.5088 103.848 37.5616 99.9864 37.8238C95.8632 38.1112 91.953 39.7584 88.8719 42.506C85.7908 45.2535 83.7138 48.9453 82.9682 52.9996Z" fill="#222222"/>
<path d="M120.399 47.1821C118.922 42.2888 110.314 36.9092 110.314 36.9092C113.799 37.7634 117.643 39.501 119.511 39.8882C120.56 40.1036 126.917 40.7521 126.917 40.7521L126.942 49.4448C126.942 49.4448 125.195 49.5416 124.758 50.6814C123.821 53.0796 124.294 53.6604 121.984 61.9804C121.962 61.9804 121.855 52.0729 120.399 47.1821Z" fill="#222222"/>
</g>
<path d="M95.4997 77.0911C89.902 76.0652 84.9408 72.8672 81.7041 68.1986C78.4674 63.53 77.2195 57.7718 78.234 52.1869C78.9937 48.0153 80.9772 44.1621 83.9336 41.1151C86.8899 38.0681 90.6862 35.9641 94.842 35.0694C98.9979 34.1748 103.326 34.5296 107.28 36.0891C111.233 37.6486 114.634 40.3426 117.052 43.8302C119.47 47.3178 120.795 51.4423 120.862 55.6816C120.928 59.921 119.732 64.0847 117.425 67.6458C115.117 71.207 111.802 74.0055 107.9 75.6873C103.997 77.369 99.6815 77.8584 95.4997 77.0935V77.0911ZM81.0586 52.6999C80.3643 56.5008 80.878 60.423 82.528 63.9185C84.1779 67.414 86.8817 70.3082 90.2614 72.1966C93.6412 74.085 97.528 74.8732 101.379 74.4513C105.23 74.0293 108.852 72.4181 111.74 69.8429C114.628 67.2677 116.637 63.857 117.487 60.0876C118.336 56.3182 117.983 52.3784 116.478 48.8185C114.973 45.2587 112.39 42.2568 109.09 40.2323C105.791 38.2078 101.939 37.2618 98.0744 37.5265C93.9519 37.8143 90.0426 39.4615 86.962 42.2085C83.8814 44.9555 81.8046 48.6464 81.0586 52.6999Z" fill="#FFC727"/>
<path d="M118.478 46.8813C117 41.9881 108.393 36.6084 108.393 36.6084C111.877 37.4627 115.721 39.2002 117.59 39.5874C118.638 39.8028 124.996 40.4514 124.996 40.4514L125.02 48.4107C125.02 48.4107 123.273 48.9383 122.836 50.0757C121.897 52.4739 122.37 53.3596 120.06 61.6917C120.053 61.6723 119.956 51.7721 118.478 46.8813Z" fill="#FFC727"/>
<path d="M122.273 44.0259C122.215 44.4542 121.416 44.7011 120.489 44.5777C119.562 44.4542 118.854 44.009 118.912 43.5806C118.97 43.1523 119.769 42.9054 120.696 43.0289C121.623 43.1523 122.341 43.6 122.273 44.0259Z" fill="#A6A6A6"/>
<path d="M119.32 43.5979C119.395 43.3922 120.203 43.1575 121.086 43.397L119.32 43.5979Z" fill="white"/>
<path d="M89.5398 38.1676C91.3798 36.77 93.6333 36.0218 95.9462 36.0404C93.7622 36.6793 91.6607 37.3714 89.5398 38.1676Z" fill="white"/>
<path d="M80.4519 48.847C81.5391 44.5176 85.1693 40.3407 89.1661 38.3926C85.4241 41.0546 82.2865 44.6265 80.4519 48.847Z" fill="white"/>
<path opacity="0.1" d="M81.9442 52.6996C80.1485 62.7595 86.6956 72.4395 96.543 74.2763C106.39 76.1131 115.859 69.4193 117.655 59.3618C119.451 49.3043 112.901 39.6195 103.054 37.7851C101.573 37.5071 100.063 37.4201 98.5596 37.5262C90.4715 38.0949 83.4633 44.1933 81.9442 52.6996Z" fill="#EBEBEB"/>
<g opacity="0.2">
<path d="M117.934 56.8859L100.635 74.5519C99.2643 74.6149 97.8913 74.519 96.5432 74.2663C95.9597 74.1584 95.3821 74.0203 94.813 73.8525L117.245 50.9375C117.793 52.8706 118.026 54.879 117.934 56.8859Z" fill="white"/>
<path d="M102.127 37.6374L81.7987 58.4106C81.5581 56.5105 81.6072 54.585 81.9443 52.6994C82.0268 52.23 82.1311 51.7629 82.2476 51.3055L95.1623 38.0996C96.2733 37.7983 97.4111 37.6062 98.5596 37.526C99.7494 37.4407 100.945 37.478 102.127 37.6374Z" fill="white"/>
<path d="M114.986 45.8923L89.8721 71.5443C89.2985 71.1637 88.7482 70.7491 88.2244 70.3029L113.775 44.208C114.211 44.7455 114.615 45.3079 114.986 45.8923Z" fill="white"/>
<path d="M107.128 39.0584L83.1965 63.5004C82.8957 62.8053 82.638 62.0925 82.4248 61.3659L105.039 38.2598C105.751 38.4824 106.449 38.7492 107.128 39.0584Z" fill="white"/>
<path d="M117.701 59.1055C117.689 59.1902 117.672 59.2773 117.658 59.362C117.633 59.512 117.604 59.6621 117.573 59.8073L103.498 74.1918C103.272 74.2402 103.042 74.2837 102.809 74.3224L117.701 59.1055Z" fill="white"/>
<path d="M112.345 42.6347L86.6907 68.8482C86.5985 68.7514 86.5087 68.6522 86.4214 68.5529L112.059 42.3564L112.345 42.6347Z" fill="white"/>
</g>
</svg>
