<svg width="133" height="83" viewBox="0 0 133 83" fill="none" xmlns="http://www.w3.org/2000/svg">
<g clip-path="url(#clip0_69_72)">
<path d="M111.309 21.1406H91.9102V80.6998H111.309V21.1406Z" fill="#455A64"/>
<path d="M111.234 15.1484H96.7207V21.1385H111.234V15.1484Z" fill="#37474F"/>
<path d="M99.169 16.0742H97.9287V20.2155H99.169V16.0742Z" fill="#455A64"/>
<path d="M101.338 16.0742H100.098V20.2155H101.338V16.0742Z" fill="#455A64"/>
<path d="M103.51 16.0742H102.27V20.2155H103.51V16.0742Z" fill="#455A64"/>
<path d="M105.682 16.0742H104.441V20.2155H105.682V16.0742Z" fill="#455A64"/>
<path d="M107.855 16.0742H106.614V20.2155H107.855V16.0742Z" fill="#455A64"/>
<path d="M110.026 16.0742H108.786V20.2155H110.026V16.0742Z" fill="#455A64"/>
<path d="M117.836 15.1484H111.234V21.1385H117.836V15.1484Z" fill="#455A64"/>
<path d="M113.215 16.0742H112.16V20.2155H113.215V16.0742Z" fill="#37474F"/>
<path d="M115.061 16.0742H114.006V20.2155H115.061V16.0742Z" fill="#37474F"/>
<path d="M116.907 16.0742H115.852V20.2155H116.907V16.0742Z" fill="#37474F"/>
<path d="M121.107 21.1406H111.234V80.6998H121.107V21.1406Z" fill="#37474F"/>
<path d="M99.9155 12.1133H99.4717V15.1494H99.9155V12.1133Z" fill="#FFC727"/>
<path d="M108.481 12.1133H108.037V15.1494H108.481V12.1133Z" fill="#FFC727"/>
<path d="M110.45 6.80469H97.5059V12.1128H110.45V6.80469Z" fill="#FFC727"/>
<path d="M99.4598 25.2422H95.8799V30.7237H99.4598V25.2422Z" fill="#FFC727"/>
<path d="M106.746 25.2422H103.166V30.7237H106.746V25.2422Z" fill="#FFC727"/>
<path d="M99.4598 33.8828H95.8799V39.3644H99.4598V33.8828Z" fill="#FFC727"/>
<path d="M106.746 33.8828H103.166V39.3644H106.746V33.8828Z" fill="#FFC727"/>
<path d="M99.4598 42.5195H95.8799V48.0011H99.4598V42.5195Z" fill="#FFC727"/>
<path d="M106.746 42.5195H103.166V48.0011H106.746V42.5195Z" fill="#FFC727"/>
<path d="M99.4598 51.1641H95.8799V56.6456H99.4598V51.1641Z" fill="#FFC727"/>
<path d="M106.746 51.1641H103.166V56.6456H106.746V51.1641Z" fill="#FFC727"/>
<path d="M99.4598 59.8008H95.8799V65.2823H99.4598V59.8008Z" fill="#FFC727"/>
<path d="M106.746 59.8008H103.166V65.2823H106.746V59.8008Z" fill="#FFC727"/>
<path d="M99.4598 68.4375H95.8799V73.919H99.4598V68.4375Z" fill="#FFC727"/>
<path d="M106.746 68.4375H103.166V73.919H106.746V68.4375Z" fill="#FFC727"/>
<path d="M115.105 25.2422H113.048V30.7237H115.105V25.2422Z" fill="#FFC727"/>
<path d="M119.294 25.2422H117.236V30.7237H119.294V25.2422Z" fill="#FFC727"/>
<path d="M115.105 33.8828H113.048V39.3644H115.105V33.8828Z" fill="#FFC727"/>
<path d="M119.294 33.8828H117.236V39.3644H119.294V33.8828Z" fill="#FFC727"/>
<path d="M115.105 42.5195H113.048V48.0011H115.105V42.5195Z" fill="#FFC727"/>
<path d="M119.294 42.5195H117.236V48.0011H119.294V42.5195Z" fill="#FFC727"/>
<path d="M115.105 51.1641H113.048V56.6456H115.105V51.1641Z" fill="#FFC727"/>
<path d="M119.294 51.1641H117.236V56.6456H119.294V51.1641Z" fill="#FFC727"/>
<path d="M115.105 59.8008H113.048V65.2823H115.105V59.8008Z" fill="#FFC727"/>
<path d="M119.294 59.8008H117.236V65.2823H119.294V59.8008Z" fill="#FFC727"/>
<path d="M115.105 68.4375H113.048V73.919H115.105V68.4375Z" fill="#FFC727"/>
<path d="M119.294 68.4375H117.236V73.919H119.294V68.4375Z" fill="#FFC727"/>
<path d="M59.9048 4.29297H49.5295V80.6995H59.9048V4.29297Z" fill="#37474F"/>
<path d="M59.9045 8.57422H49.5293V9.37661H59.9045V8.57422Z" fill="#455A64"/>
<path d="M52.5101 11.7383H50.5996V16.2058H52.5101V11.7383Z" fill="#FFC727"/>
<path d="M52.5101 17.375H50.5996V21.8425H52.5101V17.375Z" fill="#FFC727"/>
<path d="M52.5101 23.0078H50.5996V27.4753H52.5101V23.0078Z" fill="#FFC727"/>
<path d="M52.5101 28.6406H50.5996V33.1082H52.5101V28.6406Z" fill="#FFC727"/>
<path d="M52.5101 34.2812H50.5996V38.7488H52.5101V34.2812Z" fill="#FFC727"/>
<path d="M52.5101 39.918H50.5996V44.3855H52.5101V39.918Z" fill="#FFC727"/>
<path d="M52.5101 45.5469H50.5996V50.0144H52.5101V45.5469Z" fill="#FFC727"/>
<path d="M52.5101 51.1875H50.5996V55.655H52.5101V51.1875Z" fill="#FFC727"/>
<path d="M52.5101 56.8242H50.5996V61.2918H52.5101V56.8242Z" fill="#FFC727"/>
<path d="M52.5101 62.457H50.5996V66.9246H52.5101V62.457Z" fill="#FFC727"/>
<path d="M52.5101 68.0898H50.5996V72.5574H52.5101V68.0898Z" fill="#FFC727"/>
<path d="M52.5101 73.7305H50.5996V78.198H52.5101V73.7305Z" fill="#FFC727"/>
<path d="M52.5101 11.7383H50.5996V16.2058H52.5101V11.7383Z" fill="#FFC727"/>
<path d="M52.5101 17.375H50.5996V21.8425H52.5101V17.375Z" fill="#FFC727"/>
<path d="M52.5101 23.0078H50.5996V27.4753H52.5101V23.0078Z" fill="#FFC727"/>
<path d="M52.5101 28.6406H50.5996V33.1082H52.5101V28.6406Z" fill="#FFC727"/>
<path d="M52.5101 34.2812H50.5996V38.7488H52.5101V34.2812Z" fill="#FFC727"/>
<path d="M52.5101 39.918H50.5996V44.3855H52.5101V39.918Z" fill="#FFC727"/>
<path d="M52.5101 45.5469H50.5996V50.0144H52.5101V45.5469Z" fill="#FFC727"/>
<path d="M52.5101 51.1875H50.5996V55.655H52.5101V51.1875Z" fill="#FFC727"/>
<path d="M52.5101 56.8242H50.5996V61.2918H52.5101V56.8242Z" fill="#FFC727"/>
<path d="M52.5101 62.457H50.5996V66.9246H52.5101V62.457Z" fill="#FFC727"/>
<path d="M52.5101 68.0898H50.5996V72.5574H52.5101V68.0898Z" fill="#FFC727"/>
<path d="M52.5101 73.7305H50.5996V78.198H52.5101V73.7305Z" fill="#FFC727"/>
<path d="M55.6722 11.7383H53.7617V16.2058H55.6722V11.7383Z" fill="#FFC727"/>
<path d="M55.6722 17.375H53.7617V21.8425H55.6722V17.375Z" fill="#FFC727"/>
<path d="M55.6722 23.0078H53.7617V27.4753H55.6722V23.0078Z" fill="#FFC727"/>
<path d="M55.6722 28.6406H53.7617V33.1082H55.6722V28.6406Z" fill="#FFC727"/>
<path d="M55.6722 34.2812H53.7617V38.7488H55.6722V34.2812Z" fill="#FFC727"/>
<path d="M55.6722 39.918H53.7617V44.3855H55.6722V39.918Z" fill="#FFC727"/>
<path d="M55.6722 45.5469H53.7617V50.0144H55.6722V45.5469Z" fill="#FFC727"/>
<path d="M55.6722 51.1875H53.7617V55.655H55.6722V51.1875Z" fill="#FFC727"/>
<path d="M55.6722 56.8242H53.7617V61.2918H55.6722V56.8242Z" fill="#FFC727"/>
<path d="M55.6722 62.457H53.7617V66.9246H55.6722V62.457Z" fill="#FFC727"/>
<path d="M55.6722 68.0898H53.7617V72.5574H55.6722V68.0898Z" fill="#FFC727"/>
<path d="M55.6722 73.7305H53.7617V78.198H55.6722V73.7305Z" fill="#FFC727"/>
<path d="M55.6722 11.7383H53.7617V16.2058H55.6722V11.7383Z" fill="#FFC727"/>
<path d="M55.6722 17.375H53.7617V21.8425H55.6722V17.375Z" fill="#FFC727"/>
<path d="M55.6722 23.0078H53.7617V27.4753H55.6722V23.0078Z" fill="#FFC727"/>
<path d="M55.6722 28.6406H53.7617V33.1082H55.6722V28.6406Z" fill="#FFC727"/>
<path d="M55.6722 34.2812H53.7617V38.7488H55.6722V34.2812Z" fill="#FFC727"/>
<path d="M55.6722 39.918H53.7617V44.3855H55.6722V39.918Z" fill="#FFC727"/>
<path d="M55.6722 45.5469H53.7617V50.0144H55.6722V45.5469Z" fill="#FFC727"/>
<path d="M55.6722 51.1875H53.7617V55.655H55.6722V51.1875Z" fill="#FFC727"/>
<path d="M55.6722 56.8242H53.7617V61.2918H55.6722V56.8242Z" fill="#FFC727"/>
<path d="M55.6722 62.457H53.7617V66.9246H55.6722V62.457Z" fill="#FFC727"/>
<path d="M55.6722 68.0898H53.7617V72.5574H55.6722V68.0898Z" fill="#FFC727"/>
<path d="M55.6722 73.7305H53.7617V78.198H55.6722V73.7305Z" fill="#FFC727"/>
<path d="M58.8353 11.7383H56.9248V16.2058H58.8353V11.7383Z" fill="#FFC727"/>
<path d="M58.8353 17.375H56.9248V21.8425H58.8353V17.375Z" fill="#FFC727"/>
<path d="M58.8353 23.0078H56.9248V27.4753H58.8353V23.0078Z" fill="#FFC727"/>
<path d="M58.8353 28.6406H56.9248V33.1082H58.8353V28.6406Z" fill="#FFC727"/>
<path d="M58.8353 34.2812H56.9248V38.7488H58.8353V34.2812Z" fill="#FFC727"/>
<path d="M58.8353 39.918H56.9248V44.3855H58.8353V39.918Z" fill="#FFC727"/>
<path d="M58.8353 45.5469H56.9248V50.0144H58.8353V45.5469Z" fill="#FFC727"/>
<path d="M58.8353 51.1875H56.9248V55.655H58.8353V51.1875Z" fill="#FFC727"/>
<path d="M58.8353 56.8242H56.9248V61.2918H58.8353V56.8242Z" fill="#FFC727"/>
<path d="M58.8353 62.457H56.9248V66.9246H58.8353V62.457Z" fill="#FFC727"/>
<path d="M58.8353 68.0898H56.9248V72.5574H58.8353V68.0898Z" fill="#FFC727"/>
<path d="M58.8353 73.7305H56.9248V78.198H58.8353V73.7305Z" fill="#FFC727"/>
<path d="M58.8353 11.7383H56.9248V16.2058H58.8353V11.7383Z" fill="#FFC727"/>
<path d="M58.8353 17.375H56.9248V21.8425H58.8353V17.375Z" fill="#FFC727"/>
<path d="M58.8353 23.0078H56.9248V27.4753H58.8353V23.0078Z" fill="#FFC727"/>
<path d="M58.8353 28.6406H56.9248V33.1082H58.8353V28.6406Z" fill="#FFC727"/>
<path d="M58.8353 34.2812H56.9248V38.7488H58.8353V34.2812Z" fill="#FFC727"/>
<path d="M58.8353 39.918H56.9248V44.3855H58.8353V39.918Z" fill="#FFC727"/>
<path d="M58.8353 45.5469H56.9248V50.0144H58.8353V45.5469Z" fill="#FFC727"/>
<path d="M58.8353 51.1875H56.9248V55.655H58.8353V51.1875Z" fill="#FFC727"/>
<path d="M58.8353 56.8242H56.9248V61.2918H58.8353V56.8242Z" fill="#FFC727"/>
<path d="M58.8353 62.457H56.9248V66.9246H58.8353V62.457Z" fill="#FFC727"/>
<path d="M58.8353 68.0898H56.9248V72.5574H58.8353V68.0898Z" fill="#FFC727"/>
<path d="M58.8353 73.7305H56.9248V78.198H58.8353V73.7305Z" fill="#FFC727"/>
<path d="M49.5298 4.29297H31.792V80.6995H49.5298V4.29297Z" fill="#455A64"/>
<path d="M49.5298 8.57422H31.792V9.37661H49.5298V8.57422Z" fill="#37474F"/>
<path d="M49.5292 0H38.1135V4.29118H49.5292V0Z" fill="#37474F"/>
<path d="M49.5296 4.29297L54.8936 4.29297V0.00179291L49.5296 0.00179291V4.29297Z" fill="#FFC727"/>
<path d="M36.7942 11.7383H33.6934V16.2058H36.7942V11.7383Z" fill="#FFC727"/>
<path d="M36.7942 17.375H33.6934V21.8425H36.7942V17.375Z" fill="#FFC727"/>
<path d="M36.7942 23.0078H33.6934V27.4753H36.7942V23.0078Z" fill="#FFC727"/>
<path d="M36.7942 28.6406H33.6934V33.1082H36.7942V28.6406Z" fill="#FFC727"/>
<path d="M36.7942 34.2812H33.6934V38.7488H36.7942V34.2812Z" fill="#FFC727"/>
<path d="M36.7942 39.918H33.6934V44.3855H36.7942V39.918Z" fill="#FFC727"/>
<path d="M36.7942 45.5469H33.6934V50.0144H36.7942V45.5469Z" fill="#FFC727"/>
<path d="M36.7942 51.1875H33.6934V55.655H36.7942V51.1875Z" fill="#FFC727"/>
<path d="M36.7942 56.8242H33.6934V61.2918H36.7942V56.8242Z" fill="#FFC727"/>
<path d="M36.7942 62.457H33.6934V66.9246H36.7942V62.457Z" fill="#FFC727"/>
<path d="M36.7942 68.0898H33.6934V72.5574H36.7942V68.0898Z" fill="#FFC727"/>
<path d="M36.7942 73.7305H33.6934V78.198H36.7942V73.7305Z" fill="#FFC727"/>
<path d="M36.7942 11.7383H33.6934V16.2058H36.7942V11.7383Z" fill="#FFC727"/>
<path d="M36.7942 17.375H33.6934V21.8425H36.7942V17.375Z" fill="#FFC727"/>
<path d="M36.7942 23.0078H33.6934V27.4753H36.7942V23.0078Z" fill="#FFC727"/>
<path d="M36.7942 28.6406H33.6934V33.1082H36.7942V28.6406Z" fill="#FFC727"/>
<path d="M36.7942 34.2812H33.6934V38.7488H36.7942V34.2812Z" fill="#FFC727"/>
<path d="M36.7942 39.918H33.6934V44.3855H36.7942V39.918Z" fill="#FFC727"/>
<path d="M36.7942 45.5469H33.6934V50.0144H36.7942V45.5469Z" fill="#FFC727"/>
<path d="M36.7942 51.1875H33.6934V55.655H36.7942V51.1875Z" fill="#FFC727"/>
<path d="M36.7942 56.8242H33.6934V61.2918H36.7942V56.8242Z" fill="#FFC727"/>
<path d="M36.7942 62.457H33.6934V66.9246H36.7942V62.457Z" fill="#FFC727"/>
<path d="M36.7942 68.0898H33.6934V72.5574H36.7942V68.0898Z" fill="#FFC727"/>
<path d="M36.7942 73.7305H33.6934V78.198H36.7942V73.7305Z" fill="#FFC727"/>
<path d="M41.9289 11.7383H38.8281V16.2058H41.9289V11.7383Z" fill="#FFC727"/>
<path d="M41.9292 17.375H38.8284V21.8425H41.9292V17.375Z" fill="#FFC727"/>
<path d="M41.9289 23.0078H38.8281V27.4753H41.9289V23.0078Z" fill="#FFC727"/>
<path d="M41.9289 28.6406H38.8281V33.1082H41.9289V28.6406Z" fill="#FFC727"/>
<path d="M41.9289 34.2812H38.8281V38.7488H41.9289V34.2812Z" fill="#FFC727"/>
<path d="M41.9289 39.918H38.8281V44.3855H41.9289V39.918Z" fill="#FFC727"/>
<path d="M41.9289 45.5469H38.8281V50.0144H41.9289V45.5469Z" fill="#FFC727"/>
<path d="M41.9289 51.1875H38.8281V55.655H41.9289V51.1875Z" fill="#FFC727"/>
<path d="M41.9292 56.8242H38.8284V61.2918H41.9292V56.8242Z" fill="#FFC727"/>
<path d="M41.9289 62.457H38.8281V66.9246H41.9289V62.457Z" fill="#FFC727"/>
<path d="M41.9289 68.0898H38.8281V72.5574H41.9289V68.0898Z" fill="#FFC727"/>
<path d="M41.9289 73.7305H38.8281V78.198H41.9289V73.7305Z" fill="#FFC727"/>
<path d="M41.9289 11.7383H38.8281V16.2058H41.9289V11.7383Z" fill="#FFC727"/>
<path d="M41.9292 17.375H38.8284V21.8425H41.9292V17.375Z" fill="#FFC727"/>
<path d="M41.9289 23.0078H38.8281V27.4753H41.9289V23.0078Z" fill="#FFC727"/>
<path d="M41.9289 28.6406H38.8281V33.1082H41.9289V28.6406Z" fill="#FFC727"/>
<path d="M41.9289 34.2812H38.8281V38.7488H41.9289V34.2812Z" fill="#FFC727"/>
<path d="M41.9289 39.918H38.8281V44.3855H41.9289V39.918Z" fill="#FFC727"/>
<path d="M41.9289 45.5469H38.8281V50.0144H41.9289V45.5469Z" fill="#FFC727"/>
<path d="M41.9289 51.1875H38.8281V55.655H41.9289V51.1875Z" fill="#FFC727"/>
<path d="M41.9292 56.8242H38.8284V61.2918H41.9292V56.8242Z" fill="#FFC727"/>
<path d="M41.9289 62.457H38.8281V66.9246H41.9289V62.457Z" fill="#FFC727"/>
<path d="M41.9289 68.0898H38.8281V72.5574H41.9289V68.0898Z" fill="#FFC727"/>
<path d="M41.9289 73.7305H38.8281V78.198H41.9289V73.7305Z" fill="#FFC727"/>
<path d="M47.0666 11.7383H43.9658V16.2058H47.0666V11.7383Z" fill="#FFC727"/>
<path d="M47.0666 17.375H43.9658V21.8425H47.0666V17.375Z" fill="#FFC727"/>
<path d="M47.0666 23.0078H43.9658V27.4753H47.0666V23.0078Z" fill="#FFC727"/>
<path d="M47.0666 28.6406H43.9658V33.1082H47.0666V28.6406Z" fill="#FFC727"/>
<path d="M47.0666 34.2812H43.9658V38.7488H47.0666V34.2812Z" fill="#FFC727"/>
<path d="M47.0666 39.918H43.9658V44.3855H47.0666V39.918Z" fill="#FFC727"/>
<path d="M47.0666 45.5469H43.9658V50.0144H47.0666V45.5469Z" fill="#FFC727"/>
<path d="M47.0666 51.1875H43.9658V55.655H47.0666V51.1875Z" fill="#FFC727"/>
<path d="M47.0666 56.8242H43.9658V61.2918H47.0666V56.8242Z" fill="#FFC727"/>
<path d="M47.0666 62.457H43.9658V66.9246H47.0666V62.457Z" fill="#FFC727"/>
<path d="M47.0666 68.0898H43.9658V72.5574H47.0666V68.0898Z" fill="#FFC727"/>
<path d="M47.0666 73.7305H43.9658V78.198H47.0666V73.7305Z" fill="#FFC727"/>
<path d="M47.0666 11.7383H43.9658V16.2058H47.0666V11.7383Z" fill="#FFC727"/>
<path d="M47.0666 17.375H43.9658V21.8425H47.0666V17.375Z" fill="#FFC727"/>
<path d="M47.0666 23.0078H43.9658V27.4753H47.0666V23.0078Z" fill="#FFC727"/>
<path d="M47.0666 28.6406H43.9658V33.1082H47.0666V28.6406Z" fill="#FFC727"/>
<path d="M47.0666 34.2812H43.9658V38.7488H47.0666V34.2812Z" fill="#FFC727"/>
<path d="M47.0666 39.918H43.9658V44.3855H47.0666V39.918Z" fill="#FFC727"/>
<path d="M47.0666 45.5469H43.9658V50.0144H47.0666V45.5469Z" fill="#FFC727"/>
<path d="M47.0666 51.1875H43.9658V55.655H47.0666V51.1875Z" fill="#FFC727"/>
<path d="M47.0666 56.8242H43.9658V61.2918H47.0666V56.8242Z" fill="#FFC727"/>
<path d="M47.0666 62.457H43.9658V66.9246H47.0666V62.457Z" fill="#FFC727"/>
<path d="M47.0666 68.0898H43.9658V72.5574H47.0666V68.0898Z" fill="#FFC727"/>
<path d="M47.0666 73.7305H43.9658V78.198H47.0666V73.7305Z" fill="#FFC727"/>
<path d="M25.061 80.6989H11V36.5909L25.061 27.4766V80.6989Z" fill="#FFC727"/>
<path d="M23.2532 80.6996H12.5811V37.826L23.2532 30.9102V80.6996Z" fill="#FFC727"/>
<path opacity="0.3" d="M23.2532 80.6996H12.5811V37.826L23.2532 30.9102V80.6996Z" fill="#222222"/>
<g opacity="0.3">
<path d="M23.2541 38.5664H13.8047V38.9074H23.2541V38.5664Z" fill="#222222"/>
<path d="M23.2541 41.3516H13.8047V41.6925H23.2541V41.3516Z" fill="#222222"/>
<path d="M23.2541 44.1367H13.8047V44.4777H23.2541V44.1367Z" fill="#222222"/>
<path d="M23.2541 46.9219H13.8047V47.2628H23.2541V46.9219Z" fill="#222222"/>
<path d="M23.2541 49.707H13.8047V50.048H23.2541V49.707Z" fill="#222222"/>
<path d="M23.2541 52.4961H13.8047V52.837H23.2541V52.4961Z" fill="#222222"/>
<path d="M23.2541 55.2812H13.8047V55.6222H23.2541V55.2812Z" fill="#222222"/>
<path d="M23.2541 58.0703H13.8047V58.4112H23.2541V58.0703Z" fill="#222222"/>
<path d="M23.2541 60.8555H13.8047V61.1964H23.2541V60.8555Z" fill="#222222"/>
<path d="M23.2541 63.6406H13.8047V63.9816H23.2541V63.6406Z" fill="#222222"/>
<path d="M23.2541 66.4258H13.8047V66.7667H23.2541V66.4258Z" fill="#222222"/>
<path d="M23.2541 69.2148H13.8047V69.5558H23.2541V69.2148Z" fill="#222222"/>
<path d="M23.2541 72H13.8047V72.3409H23.2541V72Z" fill="#222222"/>
<path d="M23.2541 74.7852H13.8047V75.1261H23.2541V74.7852Z" fill="#222222"/>
<path d="M23.2541 77.5742H13.8047V77.9152H23.2541V77.5742Z" fill="#222222"/>
<path d="M23.2541 80.3594H13.8047V80.7003H23.2541V80.3594Z" fill="#222222"/>
<path d="M18.3604 35.3274L18.3604 80.6992H18.7013L18.7013 35.3274H18.3604Z" fill="#222222"/>
</g>
<path d="M23.2531 30.9102V32.4444L13.8037 38.5667V80.6996H12.584V37.8231L23.2531 30.9102Z" fill="#FFC727"/>
<path opacity="0.2" d="M23.2531 30.9102V32.4444L13.8037 38.5667V80.6996H12.584V37.8231L23.2531 30.9102Z" fill="#222222"/>
<path d="M37.4491 27.4766H25.0605V80.6989H37.4491V27.4766Z" fill="#FFC727"/>
<path opacity="0.2" d="M37.4491 27.4766H25.0605V80.6989H37.4491V27.4766Z" fill="#222222"/>
<g opacity="0.2">
<path d="M36.248 30.9102H26.2637V32.1152H36.248V30.9102Z" fill="#222222"/>
<path d="M36.248 33.6367H26.2637V34.8418H36.248V33.6367Z" fill="#222222"/>
<path d="M36.248 36.3672H26.2637V37.5722H36.248V36.3672Z" fill="#222222"/>
<path d="M36.248 39.0977H26.2637V40.3027H36.248V39.0977Z" fill="#222222"/>
<path d="M36.248 41.8281H26.2637V43.0332H36.248V41.8281Z" fill="#222222"/>
<path d="M36.248 44.5547H26.2637V45.7597H36.248V44.5547Z" fill="#222222"/>
<path d="M36.248 47.2852H26.2637V48.4902H36.248V47.2852Z" fill="#222222"/>
<path d="M36.248 50.0156H26.2637V51.2207H36.248V50.0156Z" fill="#222222"/>
<path d="M36.248 52.7422H26.2637V53.9472H36.248V52.7422Z" fill="#222222"/>
<path d="M36.248 55.4727H26.2637V56.6777H36.248V55.4727Z" fill="#222222"/>
<path d="M36.248 58.2031H26.2637V59.4082H36.248V58.2031Z" fill="#222222"/>
<path d="M36.248 60.9336H26.2637V62.1387H36.248V60.9336Z" fill="#222222"/>
<path d="M36.248 63.6602H26.2637V64.8652H36.248V63.6602Z" fill="#222222"/>
<path d="M36.248 66.3867H26.2637V67.5918H36.248V66.3867Z" fill="#222222"/>
<path d="M36.248 69.1172H26.2637V70.3222H36.248V69.1172Z" fill="#222222"/>
<path d="M36.248 71.8516H26.2637V73.0566H36.248V71.8516Z" fill="#222222"/>
<path d="M36.248 74.5781H26.2637V75.7832H36.248V74.5781Z" fill="#222222"/>
<path d="M36.248 77.3086H26.2637V78.5137H36.248V77.3086Z" fill="#222222"/>
</g>
<path d="M88.6707 24.3477H77.5254V80.7002H88.6707V24.3477Z" fill="#FFC727"/>
<path opacity="0.2" d="M88.6707 24.3477H77.5254V80.7002H88.6707V24.3477Z" fill="#222222"/>
<path d="M77.5244 24.3477H89.3369V22.5019H77.5244V24.3477Z" fill="#FFC727"/>
<path d="M77.5214 22.5039H87.5381V19.6206H77.5214V22.5039Z" fill="#FFC727"/>
<path opacity="0.2" d="M77.5214 22.5039H87.5381V19.6206H77.5214V22.5039Z" fill="#222222"/>
<path d="M77.5251 19.6172H85.1875V13.2568H77.5251V19.6172Z" fill="#FFC727"/>
<path opacity="0.3" d="M77.5251 19.6172H85.1875V13.2568H77.5251V19.6172Z" fill="#222222"/>
<g opacity="0.3">
<path d="M80.1035 26.4805H78.5928V32.4088H80.1035V26.4805Z" fill="#222222"/>
</g>
<g opacity="0.3">
<path d="M80.1035 34.5547H78.5928V40.483H80.1035V34.5547Z" fill="#222222"/>
</g>
<g opacity="0.3">
<path d="M80.1035 42.6328H78.5928V48.5611H80.1035V42.6328Z" fill="#222222"/>
</g>
<g opacity="0.3">
<path d="M80.1035 50.7031H78.5928V56.6314H80.1035V50.7031Z" fill="#222222"/>
</g>
<g opacity="0.3">
<path d="M80.1035 58.7812H78.5928V64.7095H80.1035V58.7812Z" fill="#222222"/>
</g>
<g opacity="0.3">
<path d="M80.1035 66.8555H78.5928V72.7838H80.1035V66.8555Z" fill="#222222"/>
</g>
<g opacity="0.3">
<path d="M82.6045 26.4805H81.0938V32.4088H82.6045V26.4805Z" fill="#222222"/>
</g>
<g opacity="0.3">
<path d="M82.6045 34.5547H81.0938V40.483H82.6045V34.5547Z" fill="#222222"/>
</g>
<g opacity="0.3">
<path d="M82.6045 42.6328H81.0938V48.5611H82.6045V42.6328Z" fill="#222222"/>
</g>
<g opacity="0.3">
<path d="M82.6045 50.7031H81.0938V56.6314H82.6045V50.7031Z" fill="#222222"/>
</g>
<g opacity="0.3">
<path d="M82.6045 58.7812H81.0938V64.7095H82.6045V58.7812Z" fill="#222222"/>
</g>
<g opacity="0.3">
<path d="M82.6045 66.8555H81.0938V72.7838H82.6045V66.8555Z" fill="#222222"/>
</g>
<g opacity="0.3">
<path d="M85.1015 26.4805H83.5908V32.4088H85.1015V26.4805Z" fill="#222222"/>
</g>
<g opacity="0.3">
<path d="M85.1015 34.5547H83.5908V40.483H85.1015V34.5547Z" fill="#222222"/>
</g>
<g opacity="0.3">
<path d="M85.1015 42.6328H83.5908V48.5611H85.1015V42.6328Z" fill="#222222"/>
</g>
<g opacity="0.3">
<path d="M85.1015 50.7031H83.5908V56.6314H85.1015V50.7031Z" fill="#222222"/>
</g>
<g opacity="0.3">
<path d="M85.1015 58.7812H83.5908V64.7095H85.1015V58.7812Z" fill="#222222"/>
</g>
<g opacity="0.3">
<path d="M85.1015 66.8555H83.5908V72.7838H85.1015V66.8555Z" fill="#222222"/>
</g>
<g opacity="0.3">
<path d="M87.6006 26.4805H86.0898V32.4088H87.6006V26.4805Z" fill="#222222"/>
</g>
<g opacity="0.3">
<path d="M87.6006 34.5547H86.0898V40.483H87.6006V34.5547Z" fill="#222222"/>
</g>
<g opacity="0.3">
<path d="M87.6006 42.6328H86.0898V48.5611H87.6006V42.6328Z" fill="#222222"/>
</g>
<g opacity="0.3">
<path d="M87.6006 50.7031H86.0898V56.6314H87.6006V50.7031Z" fill="#222222"/>
</g>
<g opacity="0.3">
<path d="M87.6006 58.7812H86.0898V64.7095H87.6006V58.7812Z" fill="#222222"/>
</g>
<g opacity="0.3">
<path d="M87.6006 66.8555H86.0898V72.7838H87.6006V66.8555Z" fill="#222222"/>
</g>
<path d="M77.5229 24.3477H54.6768V80.7002H77.5229V24.3477Z" fill="#FFC727"/>
<path d="M77.5242 19.6172H55.7715V22.5005H77.5242V19.6172Z" fill="#FFC727"/>
<path d="M77.5254 13.2617H61.1572V19.6221H77.5254V13.2617Z" fill="#FFC727"/>
<path opacity="0.2" d="M77.5254 13.2617H61.1572V19.6221H77.5254V13.2617Z" fill="#222222"/>
<path d="M77.5251 22.5H53.9941V24.3458H77.5251V22.5Z" fill="#FFC727"/>
<path opacity="0.2" d="M77.5251 22.5H53.9941V24.3458H77.5251V22.5Z" fill="#222222"/>
<g opacity="0.3">
<path d="M59.9641 26.4805H56.8633V32.4088H59.9641V26.4805Z" fill="#222222"/>
</g>
<g opacity="0.3">
<path d="M59.9641 34.5547H56.8633V40.483H59.9641V34.5547Z" fill="#222222"/>
</g>
<g opacity="0.3">
<path d="M59.9641 42.6328H56.8633V48.5611H59.9641V42.6328Z" fill="#222222"/>
</g>
<g opacity="0.3">
<path d="M59.9641 50.7031H56.8633V56.6314H59.9641V50.7031Z" fill="#222222"/>
</g>
<g opacity="0.3">
<path d="M59.9641 58.7812H56.8633V64.7095H59.9641V58.7812Z" fill="#222222"/>
</g>
<g opacity="0.3">
<path d="M59.9641 66.8555H56.8633V72.7838H59.9641V66.8555Z" fill="#222222"/>
</g>
<g opacity="0.3">
<path d="M65.0891 26.4805H61.9883V32.4088H65.0891V26.4805Z" fill="#222222"/>
</g>
<g opacity="0.3">
<path d="M65.0891 34.5547H61.9883V40.483H65.0891V34.5547Z" fill="#222222"/>
</g>
<g opacity="0.3">
<path d="M65.0891 42.6328H61.9883V48.5611H65.0891V42.6328Z" fill="#222222"/>
</g>
<g opacity="0.3">
<path d="M65.0891 50.7031H61.9883V56.6314H65.0891V50.7031Z" fill="#222222"/>
</g>
<g opacity="0.3">
<path d="M65.0891 58.7812H61.9883V64.7095H65.0891V58.7812Z" fill="#222222"/>
</g>
<g opacity="0.3">
<path d="M65.0891 66.8555H61.9883V72.7838H65.0891V66.8555Z" fill="#222222"/>
</g>
<g opacity="0.3">
<path d="M70.216 26.4805H67.1152V32.4088H70.216V26.4805Z" fill="#222222"/>
</g>
<g opacity="0.3">
<path d="M70.216 34.5547H67.1152V40.483H70.216V34.5547Z" fill="#222222"/>
</g>
<g opacity="0.3">
<path d="M70.216 42.6328H67.1152V48.5611H70.216V42.6328Z" fill="#222222"/>
</g>
<g opacity="0.3">
<path d="M70.216 50.7031H67.1152V56.6314H70.216V50.7031Z" fill="#222222"/>
</g>
<g opacity="0.3">
<path d="M70.216 58.7812H67.1152V64.7095H70.216V58.7812Z" fill="#222222"/>
</g>
<g opacity="0.3">
<path d="M70.216 66.8555H67.1152V72.7838H70.216V66.8555Z" fill="#222222"/>
</g>
<g opacity="0.3">
<path d="M75.3381 26.4805H72.2373V32.4088H75.3381V26.4805Z" fill="#222222"/>
</g>
<g opacity="0.3">
<path d="M75.3381 34.5547H72.2373V40.483H75.3381V34.5547Z" fill="#222222"/>
</g>
<g opacity="0.3">
<path d="M75.3381 42.6328H72.2373V48.5611H75.3381V42.6328Z" fill="#222222"/>
</g>
<g opacity="0.3">
<path d="M75.3381 50.7031H72.2373V56.6314H75.3381V50.7031Z" fill="#222222"/>
</g>
<g opacity="0.3">
<path d="M75.3381 58.7812H72.2373V64.7095H75.3381V58.7812Z" fill="#222222"/>
</g>
<g opacity="0.3">
<path d="M75.3381 66.8555H72.2373V72.7838H75.3381V66.8555Z" fill="#222222"/>
</g>
<path opacity="0.3" d="M70.215 75.1133H61.9883V80.6977H70.215V75.1133Z" fill="#222222"/>
<path d="M111.537 48.5625H100.392V80.6964H111.537V48.5625Z" fill="#FFC727"/>
<path opacity="0.2" d="M111.537 48.5625H100.392V80.6964H111.537V48.5625Z" fill="#222222"/>
<path d="M100.392 48.5664H112.204V46.7206H100.392V48.5664Z" fill="#FFC727"/>
<path d="M100.393 46.7188H110.409V43.8354H100.393V46.7188Z" fill="#FFC727"/>
<path opacity="0.2" d="M100.393 46.7188H110.409V43.8354H100.393V46.7188Z" fill="#222222"/>
<g opacity="0.3">
<path d="M102.972 50.7031H101.461V56.6314H102.972V50.7031Z" fill="#222222"/>
</g>
<g opacity="0.3">
<path d="M102.972 58.7773H101.461V64.7056H102.972V58.7773Z" fill="#222222"/>
</g>
<g opacity="0.3">
<path d="M102.972 66.8516H101.461V72.7799H102.972V66.8516Z" fill="#222222"/>
</g>
<g opacity="0.3">
<path d="M105.471 50.7031H103.96V56.6314H105.471V50.7031Z" fill="#222222"/>
</g>
<g opacity="0.3">
<path d="M105.471 58.7773H103.96V64.7056H105.471V58.7773Z" fill="#222222"/>
</g>
<g opacity="0.3">
<path d="M105.471 66.8516H103.96V72.7799H105.471V66.8516Z" fill="#222222"/>
</g>
<g opacity="0.3">
<path d="M107.969 50.7031H106.458V56.6314H107.969V50.7031Z" fill="#222222"/>
</g>
<g opacity="0.3">
<path d="M107.969 58.7773H106.458V64.7056H107.969V58.7773Z" fill="#222222"/>
</g>
<g opacity="0.3">
<path d="M107.969 66.8516H106.458V72.7799H107.969V66.8516Z" fill="#222222"/>
</g>
<g opacity="0.3">
<path d="M110.468 50.7031H108.957V56.6314H110.468V50.7031Z" fill="#222222"/>
</g>
<g opacity="0.3">
<path d="M110.468 58.7773H108.957V64.7056H110.468V58.7773Z" fill="#222222"/>
</g>
<g opacity="0.3">
<path d="M110.468 66.8516H108.957V72.7799H110.468V66.8516Z" fill="#222222"/>
</g>
<path d="M100.392 48.5625H77.5459V80.6964H100.392V48.5625Z" fill="#FFC727"/>
<path d="M100.391 43.8359H78.6387V46.7193H100.391V43.8359Z" fill="#FFC727"/>
<path d="M100.391 46.7188H76.8604V48.5645H100.391V46.7188Z" fill="#FFC727"/>
<path opacity="0.2" d="M100.391 46.7188H76.8604V48.5645H100.391V46.7188Z" fill="#222222"/>
<g opacity="0.3">
<path d="M82.8303 50.7031H79.7295V56.6314H82.8303V50.7031Z" fill="#222222"/>
</g>
<g opacity="0.3">
<path d="M82.8303 58.7773H79.7295V64.7056H82.8303V58.7773Z" fill="#222222"/>
</g>
<g opacity="0.3">
<path d="M82.8303 66.8516H79.7295V72.7799H82.8303V66.8516Z" fill="#222222"/>
</g>
<g opacity="0.3">
<path d="M87.9563 50.7031H84.8555V56.6314H87.9563V50.7031Z" fill="#222222"/>
</g>
<g opacity="0.3">
<path d="M87.9563 58.7773H84.8555V64.7056H87.9563V58.7773Z" fill="#222222"/>
</g>
<g opacity="0.3">
<path d="M87.9563 66.8516H84.8555V72.7799H87.9563V66.8516Z" fill="#222222"/>
</g>
<g opacity="0.3">
<path d="M93.0823 50.7031H89.9814V56.6314H93.0823V50.7031Z" fill="#222222"/>
</g>
<g opacity="0.3">
<path d="M93.0823 58.7773H89.9814V64.7056H93.0823V58.7773Z" fill="#222222"/>
</g>
<g opacity="0.3">
<path d="M93.0823 66.8516H89.9814V72.7799H93.0823V66.8516Z" fill="#222222"/>
</g>
<g opacity="0.3">
<path d="M98.2082 50.7031H95.1074V56.6314H98.2082V50.7031Z" fill="#222222"/>
</g>
<g opacity="0.3">
<path d="M98.2082 58.7773H95.1074V64.7056H98.2082V58.7773Z" fill="#222222"/>
</g>
<g opacity="0.3">
<path d="M98.2082 66.8516H95.1074V72.7799H98.2082V66.8516Z" fill="#222222"/>
</g>
<path d="M133.361 80.6953H-1V83.0362H133.361V80.6953Z" fill="#555353"/>
<path d="M8.42129 80.6953C8.63162 81.4615 8.63162 82.2701 8.42129 83.0362C8.3081 82.6572 8.2538 82.263 8.26029 81.8674C8.25516 81.4708 8.30943 81.0758 8.42129 80.6953Z" fill="#34547B"/>
<path d="M18.9224 80.6953C19.0343 81.0758 19.0885 81.4708 19.0834 81.8674C19.0899 82.263 19.0356 82.6572 18.9224 83.0362C18.7121 82.2701 18.7121 81.4615 18.9224 80.6953Z" fill="#34547B"/>
<path d="M29.4262 80.6953C29.6365 81.4615 29.6365 82.2701 29.4262 83.0362C29.313 82.6572 29.2587 82.263 29.2652 81.8674C29.26 81.4708 29.3143 81.0758 29.4262 80.6953Z" fill="#34547B"/>
<path d="M39.9263 80.6953C40.0382 81.0758 40.0924 81.4708 40.0873 81.8674C40.0938 82.263 40.0395 82.6572 39.9263 83.0362C39.716 82.2701 39.716 81.4615 39.9263 80.6953Z" fill="#34547B"/>
<path d="M50.4298 80.6953C50.6402 81.4615 50.6402 82.2701 50.4298 83.0362C50.3166 82.6572 50.2623 82.263 50.2688 81.8674C50.2637 81.4708 50.318 81.0758 50.4298 80.6953Z" fill="#34547B"/>
<path d="M60.9302 80.6953C61.0421 81.0758 61.0963 81.4708 61.0912 81.8674C61.0977 82.263 61.0434 82.6572 60.9302 83.0362C60.7199 82.2701 60.7199 81.4615 60.9302 80.6953Z" fill="#34547B"/>
<path d="M71.434 80.6953C71.6443 81.4615 71.6443 82.2701 71.434 83.0362C71.3208 82.6572 71.2665 82.263 71.273 81.8674C71.2679 81.4708 71.3221 81.0758 71.434 80.6953Z" fill="#34547B"/>
<path d="M81.9344 80.6953C82.0462 81.0758 82.1005 81.4708 82.0954 81.8674C82.1019 82.263 82.0476 82.6572 81.9344 83.0362C81.724 82.2701 81.724 81.4615 81.9344 80.6953Z" fill="#34547B"/>
<path d="M92.4379 80.6953C92.6482 81.4615 92.6482 82.2701 92.4379 83.0362C92.3247 82.6572 92.2704 82.263 92.2769 81.8674C92.2718 81.4708 92.326 81.0758 92.4379 80.6953Z" fill="#34547B"/>
<path d="M102.938 80.6953C103.05 81.0758 103.104 81.4708 103.099 81.8674C103.106 82.263 103.051 82.6572 102.938 83.0362C102.728 82.2701 102.728 81.4615 102.938 80.6953Z" fill="#34547B"/>
<path d="M113.442 80.6953C113.652 81.4615 113.652 82.2701 113.442 83.0362C113.329 82.6572 113.275 82.263 113.281 81.8674C113.276 81.4708 113.33 81.0758 113.442 80.6953Z" fill="#34547B"/>
<path d="M123.943 80.6953C124.055 81.0758 124.109 81.4708 124.104 81.8674C124.11 82.263 124.056 82.6572 123.943 83.0362C123.733 82.2701 123.733 81.4615 123.943 80.6953Z" fill="#34547B"/>
<path d="M-0.00512695 83.036L16.5425 82.9587L33.09 82.9297L66.182 82.875L99.2739 82.9297L115.821 82.9587L132.369 83.036L115.821 83.1165L99.2739 83.1455L66.182 83.197L33.09 83.1423L16.5425 83.1165L-0.00512695 83.036Z" fill="#34547B"/>
</g>
<defs>
<clipPath id="clip0_69_72">
<rect width="133" height="83" fill="white"/>
</clipPath>
</defs>
</svg>
