<svg width="95" height="118" viewBox="0 0 95 118" fill="none" xmlns="http://www.w3.org/2000/svg">
<path d="M71.5117 93.3086C71.5117 93.3086 71.5117 106.919 71.5117 106.928C71.5117 109.529 71.4895 111.81 71.36 112.989C71.3616 112.992 71.3625 112.995 71.3625 112.999C71.3625 113.002 71.3616 113.005 71.36 113.008C71.3601 113.288 71.2952 113.564 71.1704 113.814L71.1546 113.83C70.3835 114.357 49.5907 115.072 48.8576 114.85C48.1245 114.629 48.6901 112.525 49.4896 111.851C50.2891 111.178 58.1164 107.348 58.1164 107.348L58.246 93.7447L71.5117 93.3086Z" fill="#AD6359"/>
<path d="M71.5085 104.133V106.929C71.5085 109.53 71.4864 111.812 71.3568 112.99C71.3585 112.993 71.3594 112.996 71.3594 113C71.3594 113.003 71.3585 113.006 71.3568 113.009C71.3241 113.284 71.2605 113.554 71.1672 113.815L71.1514 113.831C70.3804 114.359 49.5876 115.073 48.8545 114.852C48.1213 114.63 48.687 112.526 49.4865 111.853C50.2859 111.18 58.1133 107.35 58.1133 107.35L58.0753 104.506L71.5085 104.133Z" fill="#C7C7C7"/>
<path d="M48.8545 114.852C49.5876 115.073 70.3804 114.362 71.1546 113.831C71.4516 113.635 71.5243 110.598 71.5085 106.929V106.812L58.088 107.129L58.1038 107.356C58.1038 107.356 50.267 111.189 49.477 111.862C48.687 112.535 48.1182 114.64 48.8545 114.852Z" fill="#263238"/>
<path d="M49.0598 114.038C52.5642 113.83 66.7084 113.33 70.1844 113.406C70.2128 113.406 70.2128 113.425 70.1844 113.428C66.7084 113.706 52.5706 114.095 49.063 114.108C48.9903 114.095 48.9871 114.041 49.0598 114.038Z" fill="#455A64"/>
<path d="M56.9726 107.428C58.344 107.112 60.0378 107.276 61.1248 108.224C61.169 108.262 61.1248 108.319 61.0711 108.306C59.7381 107.927 58.3684 107.69 56.9852 107.602C56.9645 107.599 56.9452 107.59 56.9308 107.575C56.9163 107.56 56.9075 107.541 56.906 107.52C56.9045 107.499 56.9103 107.479 56.9225 107.462C56.9347 107.445 56.9524 107.433 56.9726 107.428Z" fill="#455A64"/>
<path d="M55.9992 108.061C57.3675 107.745 59.0644 107.909 60.1514 108.857C60.1925 108.892 60.1514 108.952 60.0946 108.939C58.7617 108.559 57.3919 108.323 56.0087 108.234C55.9882 108.232 55.9692 108.222 55.9551 108.207C55.941 108.192 55.9327 108.172 55.9315 108.151C55.9304 108.131 55.9366 108.11 55.9489 108.094C55.9613 108.077 55.9791 108.065 55.9992 108.061Z" fill="#455A64"/>
<path d="M55.0229 108.693C56.3943 108.377 58.0881 108.544 59.1751 109.489C59.2193 109.527 59.1751 109.587 59.1214 109.574C57.7885 109.194 56.4188 108.956 55.0355 108.867C55.0148 108.864 54.9955 108.855 54.981 108.84C54.9666 108.825 54.9578 108.806 54.9563 108.785C54.9548 108.764 54.9606 108.744 54.9728 108.727C54.985 108.71 55.0027 108.698 55.0229 108.693Z" fill="#455A64"/>
<path d="M72.703 42.851L72.6903 43.7516L72.1816 83.5234L72.1784 83.675L71.8782 107.498L57.3232 107.208L60.1325 42.8984L60.1704 42.0389L60.3126 34.5781H72.605L72.703 42.851Z" fill="#455A64"/>
<path d="M57.9331 104.784C60.2051 104.762 59.551 104.737 61.8231 104.743C62.9354 104.743 70.2445 104.772 71.2809 104.955C71.3031 104.955 71.3031 104.999 71.2809 105.002C70.2381 105.16 62.9322 105.002 61.8199 104.983C59.5479 104.936 60.202 104.923 57.9299 104.851C57.9229 104.848 57.917 104.843 57.9128 104.837C57.9087 104.831 57.9067 104.824 57.907 104.816C57.9074 104.809 57.9101 104.802 57.9148 104.796C57.9195 104.79 57.9259 104.786 57.9331 104.784Z" fill="#263238"/>
<path d="M64.4522 47.037C64.4522 47.0303 64.4495 47.0239 64.4448 47.0191C64.4401 47.0144 64.4336 47.0117 64.4269 47.0117C64.4202 47.0117 64.4138 47.0144 64.409 47.0191C64.4043 47.0239 64.4016 47.0303 64.4016 47.037C64.4016 50.8448 64.2468 52.9778 64.1552 56.7824C64.0635 60.5871 63.9529 64.3917 63.8392 68.1932C63.6338 75.7993 63.3272 83.3991 63.046 91.0021C62.888 95.266 62.691 99.5278 62.4551 103.787C62.4551 103.793 62.4574 103.799 62.4616 103.803C62.4657 103.807 62.4713 103.81 62.4772 103.81C62.4831 103.81 62.4887 103.807 62.4928 103.803C62.497 103.799 62.4993 103.793 62.4993 103.787C63.0523 96.2034 63.58 88.5942 63.8834 80.988C64.1868 73.3819 64.4016 65.779 64.4364 58.1728C64.468 53.9037 64.4427 51.3062 64.4522 47.037Z" fill="#263238"/>
<path d="M72.6997 42.851L72.1814 83.5234L62.4265 34.5781H72.6017L72.6997 42.851Z" fill="#263238"/>
<path d="M87.8361 92.5703C87.8361 92.5703 89.6689 106.054 89.6689 106.064C90.0355 108.642 90.3009 110.908 90.3388 112.093C90.3388 112.093 90.3388 112.093 90.3388 112.112C90.3758 112.388 90.3498 112.669 90.263 112.933C90.2627 112.94 90.2627 112.946 90.263 112.952C89.5678 113.584 69.0594 117.092 68.3042 116.972C67.5489 116.852 67.827 114.69 68.5127 113.916C69.1984 113.142 76.4538 108.291 76.4538 108.291L74.7474 94.7949L87.8361 92.5703Z" fill="#AD6359"/>
<path d="M89.2929 103.297C89.2929 103.297 89.6689 106.056 89.6689 106.065C90.0355 108.644 90.3009 110.909 90.3388 112.094C90.3388 112.094 90.3388 112.094 90.3388 112.113C90.3447 112.389 90.3193 112.665 90.263 112.935C90.2627 112.941 90.2627 112.948 90.263 112.954C89.5678 113.586 69.0594 117.093 68.3042 116.973C67.5489 116.853 67.827 114.692 68.5127 113.918C69.1984 113.143 76.4538 108.293 76.4538 108.293L76.0209 105.474L89.2929 103.297Z" fill="#C7C7C7"/>
<path d="M68.2916 116.975C69.05 117.095 89.5552 113.585 90.2504 112.956C90.519 112.719 90.1809 109.704 89.669 106.067L89.65 105.953L76.397 108.07L76.4412 108.295C76.4412 108.295 69.1922 113.148 68.5001 113.923C67.8081 114.697 67.5205 116.852 68.2916 116.975Z" fill="#263238"/>
<path d="M68.3865 116.14C71.8309 115.464 85.7665 113.059 89.2425 112.664C89.2709 112.664 89.2741 112.68 89.2425 112.686C85.8455 113.432 71.8814 115.723 68.4054 116.21C68.3233 116.219 68.3138 116.156 68.3865 116.14Z" fill="#455A64"/>
<path d="M75.3352 108.523C76.653 108.036 78.353 107.96 79.557 108.75C79.6044 108.782 79.557 108.848 79.5128 108.842C78.1412 108.644 76.7522 108.594 75.37 108.694C75.3493 108.694 75.329 108.687 75.3128 108.674C75.2966 108.661 75.2855 108.643 75.2813 108.623C75.2772 108.602 75.2803 108.581 75.2902 108.563C75.3 108.545 75.316 108.531 75.3352 108.523Z" fill="#455A64"/>
<path d="M74.4536 109.28C75.7714 108.794 77.4714 108.718 78.6754 109.511C78.7228 109.54 78.6754 109.606 78.6312 109.6C77.2594 109.403 75.8707 109.353 74.4884 109.451C74.4677 109.452 74.4474 109.445 74.4312 109.432C74.415 109.419 74.4039 109.401 74.3997 109.38C74.3956 109.36 74.3987 109.339 74.4086 109.321C74.4184 109.302 74.4344 109.288 74.4536 109.28Z" fill="#455A64"/>
<path d="M73.5752 110.042C74.8929 109.556 76.5899 109.48 77.797 110.27C77.8444 110.302 77.797 110.368 77.7527 110.362C76.3813 110.162 74.9922 110.112 73.61 110.213C73.5893 110.214 73.569 110.207 73.5528 110.194C73.5366 110.181 73.5255 110.163 73.5213 110.142C73.5172 110.122 73.5203 110.101 73.5302 110.083C73.54 110.064 73.556 110.05 73.5752 110.042Z" fill="#455A64"/>
<path d="M61.564 34.5664C61.6177 34.8192 62.4772 38.8071 63.3683 42.2326C64.0161 44.7353 64.6829 46.9346 65.0653 47.1622C65.4982 47.4181 67.609 48.3535 68.3169 48.6474L71.5496 79.5616L75.9198 108.185L90.2094 105.973L80.0405 43.3291L78.3846 34.5664H61.564Z" fill="#455A64"/>
<path d="M76.0053 105.312C78.2489 104.952 77.5853 105.022 79.8478 104.68C80.9475 104.516 88.1776 103.445 89.2299 103.473C89.252 103.473 89.2583 103.511 89.2299 103.517C88.225 103.833 80.9759 104.781 79.8731 104.92C77.62 105.211 78.2647 105.104 76.0084 105.372C76.003 105.37 75.9984 105.365 75.9951 105.36C75.9918 105.355 75.9899 105.349 75.9895 105.343C75.9892 105.337 75.9905 105.331 75.9933 105.326C75.996 105.32 76.0002 105.316 76.0053 105.312Z" fill="#263238"/>
<path d="M84.2685 96.7653C83.9114 94.7808 83.5575 92.7963 83.191 90.8118C82.4599 86.8429 81.7226 82.8749 80.979 78.9081C79.4874 70.9681 78.0128 63.0217 76.5549 55.0691C75.7397 50.5819 75.7586 51.0021 75.0476 46.4928C75.0476 46.4644 74.9908 46.4675 74.9971 46.4928C75.6796 50.4997 75.3573 49.6212 76.0019 53.6344C76.6466 57.6476 77.3228 61.5755 78.0338 65.535C79.4621 73.495 80.96 81.4424 82.4736 89.3867C82.895 91.6155 83.3258 93.8412 83.7661 96.0637C84.2085 98.3326 84.7141 100.589 85.1818 102.851C85.1818 102.902 85.2734 102.899 85.2639 102.851C84.9353 100.826 84.6382 98.7908 84.2685 96.7653Z" fill="#263238"/>
<path d="M80.3407 46.7892C79.9615 46.6913 79.5539 46.6597 79.1683 46.5996C78.8523 46.5491 78.5363 46.4922 78.2203 46.4258C77.6257 46.3195 77.0622 46.082 76.5708 45.7306C76.0336 45.3135 75.7587 44.6784 75.4996 44.0685C75.3437 43.7082 75.1857 43.348 75.0256 42.9878L74.7886 42.4664C74.6782 42.2617 74.5801 42.0507 74.4947 41.8344C74.4947 41.8028 74.4347 41.8344 74.4473 41.8344C74.5011 41.982 74.5454 42.1329 74.58 42.2862C74.6337 42.46 74.6811 42.6338 74.7349 42.8076C74.8328 43.1236 74.9276 43.4396 75.0287 43.7556C75.1825 44.3258 75.4042 44.8753 75.6892 45.3925C76.2643 46.3026 77.2881 46.6723 78.312 46.8019C78.6059 46.8366 78.9029 46.8588 79.1999 46.8746C79.5721 46.9077 79.9464 46.9077 80.3186 46.8746C80.3273 46.8723 80.3352 46.8677 80.3415 46.8613C80.3478 46.855 80.3523 46.8471 80.3546 46.8384C80.3568 46.8297 80.3567 46.8206 80.3543 46.8119C80.3519 46.8033 80.3472 46.7955 80.3407 46.7892Z" fill="#263238"/>
<path d="M63.9434 46.6169C65.4505 47.1643 66.9065 47.8432 68.2947 48.6456C68.3065 48.6511 68.3155 48.6609 68.32 48.6731C68.3244 48.6852 68.3239 48.6987 68.3184 48.7104C68.313 48.7221 68.3031 48.7312 68.2909 48.7357C68.2788 48.7401 68.2654 48.7395 68.2536 48.7341C66.7874 48.1021 65.2927 47.5017 63.8644 46.7939C63.8446 46.7812 63.83 46.7619 63.8232 46.7394C63.8165 46.7169 63.818 46.6928 63.8276 46.6713C63.8372 46.6499 63.8541 46.6326 63.8754 46.6226C63.8966 46.6126 63.9208 46.6106 63.9434 46.6169Z" fill="#263238"/>
<path d="M63.501 36.5858C63.501 36.5352 63.5958 36.5226 63.5958 36.5858C63.5948 38.2216 63.677 39.8563 63.8423 41.4838C63.9087 42.239 64.5154 46.4102 65.8268 46.1068C66.0448 46.0563 66.1428 45.8382 66.1902 45.5096C66.1855 45.0775 66.1271 44.6476 66.0164 44.2298C65.871 43.3545 65.7541 42.4792 65.6814 41.5975C65.5271 39.9548 65.5451 38.3005 65.7352 36.6616C65.7352 36.6507 65.7395 36.6403 65.7472 36.6326C65.7549 36.6248 65.7653 36.6205 65.7762 36.6205C65.7871 36.6205 65.7976 36.6248 65.8053 36.6326C65.813 36.6403 65.8173 36.6507 65.8173 36.6616C65.7807 38.9404 65.9138 41.2187 66.2155 43.4777C66.3798 44.5616 66.9265 46.1953 65.792 46.3628C64.6576 46.5303 63.896 43.7969 63.7475 43.048C63.3855 40.9137 63.3027 38.7414 63.501 36.5858Z" fill="#263238"/>
<path d="M65.792 46.2034C65.9074 46.4858 66.0056 46.775 66.0859 47.0693C66.1704 47.2967 66.2122 47.5377 66.2092 47.7803C66.2073 47.7901 66.2026 47.7992 66.1956 47.8064C66.1885 47.8135 66.1795 47.8185 66.1697 47.8205C66.1599 47.8225 66.1497 47.8216 66.1404 47.8178C66.1311 47.814 66.1231 47.8075 66.1175 47.7992C65.9765 47.5866 65.8698 47.353 65.8015 47.1072C65.7004 46.8417 65.5961 46.5731 65.5045 46.3045C65.4911 46.2664 65.4934 46.2245 65.5108 46.1881C65.5283 46.1516 65.5596 46.1236 65.5977 46.1102C65.6358 46.0968 65.6777 46.0991 65.7142 46.1166C65.7506 46.134 65.7786 46.1653 65.792 46.2034Z" fill="#263238"/>
<path d="M80.189 44.2509C78.4573 44.1371 60.1704 42.0389 60.1704 42.0389L60.3126 34.5781H61.5766H78.3973L80.0531 43.3408L80.189 44.2509Z" fill="#263238"/>
<path d="M67.3815 17.4438C65.2895 23.9913 61.7472 30.7505 60.7233 32.0809C57.9773 35.658 49.7265 39.1814 47.208 39.6365C46.1178 39.8324 43.5045 32.8014 44.1807 31.8344C44.857 30.8675 55.1112 26.9491 55.6136 26.4277C55.9612 26.0643 60.2873 20.49 63.1976 17.1278C66.8348 12.9471 67.9313 15.7311 67.3815 17.4438Z" fill="#AD6359"/>
<path d="M46.3706 30.4685L50.4217 38.6845C50.4217 38.6845 59.0327 34.9525 61.0836 32.2886C63.1344 29.6248 66.8506 20.5966 67.4036 17.721C67.9566 14.8454 67.0022 12.7914 63.1502 16.9942C59.2982 21.197 56.1066 25.384 55.4177 26.0856C54.7288 26.7871 46.3706 30.4685 46.3706 30.4685Z" fill="#EBEBEB"/>
<path d="M46.7119 30.0504L51.5657 38.5635C51.5657 38.5635 59.1497 34.9389 61.0836 32.5595C63.0175 30.18 66.206 22.8741 67.2045 18.9304C68.2031 14.9867 67.6185 12.1901 63.1534 17.0154C58.6883 21.8407 56.1635 25.3452 55.2534 26.132C54.8205 26.4733 46.7119 30.0504 46.7119 30.0504Z" fill="#37474F"/>
<path d="M48.7564 30.8364C49.0024 30.8364 49.2019 30.6369 49.2019 30.3909C49.2019 30.1448 49.0024 29.9453 48.7564 29.9453C48.5103 29.9453 48.3108 30.1448 48.3108 30.3909C48.3108 30.6369 48.5103 30.8364 48.7564 30.8364Z" fill="#263238"/>
<path d="M50.8579 29.8716C51.104 29.8716 51.3035 29.6721 51.3035 29.426C51.3035 29.18 51.104 28.9805 50.8579 28.9805C50.6118 28.9805 50.4124 29.18 50.4124 29.426C50.4124 29.6721 50.6118 29.8716 50.8579 29.8716Z" fill="#263238"/>
<path d="M67.2046 18.9174C66.206 22.8611 63.0208 30.1544 61.0837 32.5465C60.2558 33.5672 58.404 34.8122 56.5491 35.9056L66.323 14.4998C67.8366 14.089 67.884 16.2378 67.2046 18.9174Z" fill="#263238"/>
<path d="M81.1432 41.1188C81.0927 41.1757 59.2318 41.2421 59.0232 41.0177C58.742 40.7017 63.6811 17.0017 65.9247 14.0914C66.4019 13.4594 67.985 13.2919 69.3312 13.4594C69.6823 13.499 70.0291 13.5698 70.3676 13.6711H70.4056C70.6786 13.7516 70.9361 13.8777 71.1671 14.044C74.9086 17.0333 78.0622 27.4834 78.7985 30.6213C80.0309 35.8006 81.3234 40.9134 81.1432 41.1188Z" fill="#EBEBEB"/>
<path d="M71.1039 13.7656C71.1039 13.7656 69.3249 23.4668 69.0152 25.9885C68.7055 28.5102 69.1605 41.8296 69.1605 41.8296L82.8876 42.8439C82.8876 42.8439 79.9203 34.0275 79.8856 33.4682C79.8856 33.4682 77.4208 22.9075 75.1108 18.4961C74.1019 16.6694 72.7398 15.0614 71.1039 13.7656Z" fill="#37474F"/>
<path d="M82.8876 42.8441L76.6624 42.3827L72.2195 14.7422V14.7611L75.0066 18.3319C75.0382 18.3888 75.0698 18.4457 75.0982 18.5026C77.4082 22.9266 79.873 33.4747 79.873 33.4747C79.9204 34.0277 82.8876 42.8441 82.8876 42.8441Z" fill="#263238"/>
<path d="M65.792 13.9766C65.792 13.9766 64.3353 23.801 64.1773 24.6131C64.0193 25.4252 61.8136 41.4464 61.8136 41.4464L58.3787 41.5539L60.1704 34.229C60.1704 34.229 64.1551 16.0685 65.792 13.9766Z" fill="#37474F"/>
<path d="M67.7986 19.3687L66.8253 17.4727L65.5676 18.8441L65.8773 20.2092L67.116 20.3704L67.7986 19.3687Z" fill="#263238"/>
<path d="M67.1161 20.3682L67.7102 34.3164L65.0968 38.93L63.738 33.7382L65.8774 20.207L67.1161 20.3682Z" fill="#263238"/>
<path d="M66.5684 58.9194L66.5513 75.3008L93.5882 75.3291L93.6054 58.9477L66.5684 58.9194Z" fill="#FFC727"/>
<path opacity="0.1" d="M66.5669 58.9232L66.5588 66.6367L93.5958 66.665L93.6039 58.9515L66.5669 58.9232Z" fill="black"/>
<path d="M65.923 64.1539L94.2397 64.1836L94.2478 56.5396L65.931 56.5099L65.923 64.1539Z" fill="#FFC727"/>
<path d="M74.1313 52.1602L74.125 56.5178L76.1758 56.521L76.179 54.0404L84 54.0498L83.9968 56.5304H86.0477L86.0508 52.1696L74.1313 52.1602Z" fill="#263238"/>
<path d="M88.5042 65.9981L90.3496 66L90.3534 62.347L88.508 62.3451L88.5042 65.9981Z" fill="#263238"/>
<path d="M69.8064 65.9824L71.6519 65.9844L71.6557 62.3314L69.8102 62.3295L69.8064 65.9824Z" fill="#263238"/>
<path d="M74.1249 16.679C80.2237 22.2122 84.0947 30.1153 84.357 31.7111C84.989 35.5695 85.7885 42.3319 85.6526 45.2991C85.602 46.3988 77.2691 45.0653 77.2849 43.8898C77.3386 40.2115 76.8488 32.1219 76.8267 31.9797C76.6782 30.9906 74.8643 26.5445 73.0347 21.7224C71.2051 16.9002 71.559 14.3564 74.1249 16.679Z" fill="#AD6359"/>
<path d="M76.4065 55.4159C76.6496 55.5264 76.9207 55.5599 77.1833 55.5119C77.446 55.4639 77.6877 55.3367 77.8759 55.1473C78.1138 55.5335 78.4794 55.8242 78.9093 55.9689C79.6771 56.1901 80.3597 55.0809 80.3597 55.0809C80.6908 55.4303 81.1189 55.6725 81.5889 55.7761C82.3442 55.912 83.1942 54.8913 83.1942 54.8913C83.6747 55.0427 84.1933 55.018 84.6573 54.8218C85.4441 54.4521 86.1109 52.1958 86.2752 50.8971C86.4395 49.5983 85.6843 45.7589 85.6148 45.0132L77.285 43.8945C77.285 43.8945 74.8961 49.513 74.9213 51.0677C74.9435 52.3855 75.4901 54.9608 76.4065 55.4159Z" fill="#AD6359"/>
<path d="M77.7494 55.0713C77.3923 53.684 77.465 52.2652 77.4587 50.8495C77.4587 50.8428 77.4614 50.8364 77.4661 50.8316C77.4708 50.8269 77.4773 50.8242 77.484 50.8242C77.4907 50.8242 77.4971 50.8269 77.5019 50.8316C77.5066 50.8364 77.5092 50.8428 77.5092 50.8495C77.5092 52.2589 77.7684 53.6524 77.8252 55.0618C77.8265 55.0718 77.8237 55.082 77.8175 55.09C77.8113 55.098 77.8021 55.1032 77.7921 55.1044C77.782 55.1057 77.7719 55.1029 77.7639 55.0967C77.7559 55.0905 77.7507 55.0813 77.7494 55.0713Z" fill="#263238"/>
<path d="M80.2554 55.0408C80.2043 54.7178 80.1958 54.3895 80.2301 54.0643C80.2301 53.7199 80.268 53.3723 80.2965 53.0278C80.3512 52.3369 80.4218 51.648 80.5082 50.9612C80.5082 50.9296 80.5588 50.9296 80.5556 50.9612C80.505 51.6501 80.464 52.339 80.4387 53.0278C80.4387 53.3754 80.4197 53.7199 80.4134 54.0643C80.4272 54.3911 80.406 54.7185 80.3502 55.0408C80.3466 55.0504 80.3401 55.0588 80.3317 55.0647C80.3232 55.0706 80.3131 55.0737 80.3028 55.0737C80.2925 55.0737 80.2824 55.0706 80.2739 55.0647C80.2655 55.0588 80.259 55.0504 80.2554 55.0408Z" fill="#263238"/>
<path d="M83.1941 54.8626C83.1536 54.5694 83.1621 54.2714 83.2193 53.981C83.2509 53.665 83.2794 53.349 83.3078 53.033C83.3647 52.401 83.4184 51.769 83.45 51.137C83.45 51.1054 83.5006 51.1054 83.5006 51.137C83.469 51.769 83.4469 52.4199 83.4121 53.0614L83.3552 54.0094C83.3619 54.2982 83.3181 54.5858 83.2257 54.8595C83.2242 54.8623 83.2221 54.8646 83.2195 54.8664C83.2169 54.8682 83.2138 54.8693 83.2107 54.8696C83.2076 54.8699 83.2044 54.8694 83.2015 54.8682C83.1986 54.867 83.196 54.8651 83.1941 54.8626Z" fill="#263238"/>
<path d="M76.8774 43.9336L86.1141 44.4329C86.1141 44.4329 85.4315 34.3209 84.6984 31.5117C83.9653 28.7024 77.7085 19.3393 74.0144 15.9455C70.5384 12.7507 70.5384 15.4083 71.8562 19.1529C73.1739 22.8975 76.435 31.9477 76.5456 32.6082C76.6562 33.2686 76.8774 43.9336 76.8774 43.9336Z" fill="#37474F"/>
<path d="M77.2912 42.0687C77.6452 42.0371 78.0022 42.0687 78.3562 42.0687C78.7101 42.0687 79.064 42.0845 79.4179 42.1003C80.1005 42.1288 80.783 42.1698 81.4656 42.2141L83.5101 42.35C84.2148 42.3974 84.9353 42.41 85.6336 42.5143C85.6385 42.5161 85.6426 42.5193 85.6456 42.5236C85.6485 42.5278 85.6501 42.5328 85.6501 42.538C85.6501 42.5432 85.6485 42.5482 85.6456 42.5524C85.6426 42.5567 85.6385 42.5599 85.6336 42.5617C84.929 42.5901 84.2116 42.5269 83.507 42.5017L81.4214 42.4163C80.7262 42.3847 80.031 42.35 79.3358 42.3057C78.9945 42.2868 78.6532 42.2615 78.3151 42.2236C77.977 42.1856 77.623 42.1825 77.2881 42.1161C77.2565 42.1098 77.266 42.0719 77.2912 42.0687Z" fill="#263238"/>
<path d="M67.1539 17.2204C67.5141 17.2046 69.9063 15.3244 70.6299 13.8771C70.6805 13.776 70.494 12.7458 70.3297 11.485C70.2317 10.7202 70.1401 9.86388 70.1148 9.07704C70.1148 8.91588 69.5713 9.23188 69.5713 9.23188L68.5601 9.50996L65.2231 10.439C65.5375 11.4133 65.7306 12.4226 65.7983 13.4442C65.8019 13.55 65.7945 13.6559 65.7761 13.7602C65.7775 13.778 65.7775 13.796 65.7761 13.8139C65.7035 14.4364 66.5725 17.2425 67.1539 17.2204Z" fill="#AD6359"/>
<path d="M65.7889 13.7648C65.7902 13.7827 65.7902 13.8007 65.7889 13.8185C65.9581 13.8346 66.1284 13.8346 66.2976 13.8185C69.6156 13.6353 69.8905 9.39453 69.8905 9.39453L68.5791 9.49565L65.2422 10.4247C65.5565 11.399 65.7497 12.4083 65.8173 13.4299C65.8202 13.5422 65.8107 13.6546 65.7889 13.7648Z" fill="#263238"/>
<path d="M69.9916 2.40873C70.7879 4.05509 70.6552 9.19325 69.5966 10.4983C68.0671 12.3943 65.1726 12.9979 63.4662 11.0671C61.8135 9.19957 62.1074 2.50669 63.324 1.27113C65.1157 -0.52375 68.8161 -0.0244701 69.9916 2.40873Z" fill="#AD6359"/>
<path d="M65.5867 6.15625C65.5867 6.15625 65.612 6.15625 65.612 6.18785C65.593 6.53229 65.6309 6.93361 65.928 7.05369C65.928 7.05369 65.928 7.07581 65.928 7.07265C65.5583 7.01261 65.514 6.48173 65.5867 6.15625Z" fill="#263238"/>
<path d="M65.9027 5.80144C66.4588 5.76984 66.4809 6.88848 65.9627 6.91692C65.4445 6.94536 65.435 5.82672 65.9027 5.80144Z" fill="#263238"/>
<path d="M63.5831 6.25C63.5831 6.25 63.5579 6.2658 63.5579 6.2816C63.5737 6.62604 63.5357 7.02736 63.2229 7.14744V7.1664C63.6084 7.1032 63.6558 6.566 63.5831 6.25Z" fill="#263238"/>
<path d="M63.2672 5.89128C62.7111 5.85968 62.6858 6.97832 63.204 7.00676C63.7223 7.0352 63.7286 5.93552 63.2672 5.89128Z" fill="#263238"/>
<path d="M66.3355 5.2843C66.1807 5.24638 66.0448 5.1895 65.8994 5.13894C65.738 5.11027 65.591 5.02786 65.4823 4.90509C65.4552 4.86071 65.4439 4.80847 65.4502 4.75684C65.4565 4.70522 65.4801 4.65724 65.5171 4.62069C65.5997 4.55734 65.6977 4.5172 65.8011 4.50442C65.9044 4.49164 66.0093 4.50669 66.1048 4.54802C66.3116 4.60269 66.4906 4.7322 66.6073 4.91142C66.6315 4.95375 66.643 5.00218 66.6403 5.05088C66.6376 5.09957 66.6209 5.14645 66.5922 5.18587C66.5634 5.22528 66.5239 5.25555 66.4784 5.27301C66.4328 5.29047 66.3832 5.29439 66.3355 5.2843Z" fill="#263238"/>
<path d="M62.8249 5.33598C62.9745 5.30308 63.1222 5.26194 63.2673 5.21274C63.4286 5.19024 63.5784 5.11594 63.6939 5.00102C63.7233 4.95786 63.7374 4.90609 63.7339 4.85397C63.7305 4.80185 63.7097 4.75239 63.6749 4.71346C63.5955 4.64568 63.4993 4.60052 63.3965 4.58273C63.2936 4.56493 63.1879 4.57516 63.0903 4.61234C62.8815 4.65651 62.6966 4.7771 62.5721 4.95046C62.5459 4.99152 62.5322 5.03927 62.5325 5.08796C62.5328 5.13665 62.5472 5.18421 62.5739 5.22492C62.6006 5.26564 62.6385 5.29778 62.683 5.31748C62.7275 5.33718 62.7768 5.34361 62.8249 5.33598Z" fill="#263238"/>
<path d="M65.5804 8.33093C65.495 8.46938 65.3818 8.58861 65.248 8.68108C65.1142 8.77355 64.9627 8.83724 64.803 8.86813C64.664 8.89823 64.5213 8.90781 64.3796 8.89657C64.3523 8.89985 64.3247 8.89985 64.2974 8.89657H64.2216C64.2033 8.89322 64.1866 8.884 64.1741 8.87031C64.1615 8.85662 64.1538 8.83922 64.152 8.82073C64.1505 8.8092 64.1505 8.79751 64.152 8.78597V8.75437C64.152 8.48893 64.152 8.08445 64.152 8.08445C64.0541 8.13501 63.5611 8.36569 63.5674 8.22666C63.5777 7.02503 63.7101 5.82756 63.9624 4.65269C63.9624 4.64431 63.9658 4.63628 63.9717 4.63035C63.9776 4.62442 63.9857 4.62109 63.994 4.62109C64.0024 4.62109 64.0105 4.62442 64.0164 4.63035C64.0223 4.63628 64.0256 4.64431 64.0256 4.65269C64.0256 5.76501 63.8234 6.86469 63.8044 7.98333C63.9795 7.89776 64.1656 7.83713 64.3574 7.80321C64.3954 7.80321 64.3069 8.58689 64.3227 8.70697C64.541 8.725 64.7608 8.69874 64.9688 8.62978C65.1767 8.56082 65.3686 8.45058 65.533 8.30566C65.574 8.28038 65.5993 8.30249 65.5804 8.33093Z" fill="#263238"/>
<path d="M64.5344 8.75938C64.6828 8.94751 64.8778 9.0935 65.1001 9.18282C65.2225 9.22852 65.3561 9.23514 65.4824 9.20178C65.7605 9.12278 65.7605 8.88578 65.7068 8.65194C65.6758 8.54202 65.6323 8.436 65.5772 8.33594C65.2834 8.58427 64.9182 8.73259 64.5344 8.75938Z" fill="#263238"/>
<path d="M65.1001 9.18322C65.2225 9.22892 65.3561 9.23555 65.4825 9.20218C65.7605 9.12318 65.7605 8.88618 65.7068 8.65234C65.5611 8.6609 65.4224 8.71772 65.3125 8.81384C65.2026 8.90997 65.1279 9.03993 65.1001 9.18322Z" fill="#FF9ABB"/>
<path d="M62.6162 2.98929C62.7963 2.54689 63.008 2.10133 63.2703 2.00653C63.5326 1.91173 63.719 2.55637 64.3226 2.58481C65.1347 2.62589 65.5139 1.87381 66.6484 1.77269C68.2758 1.62733 69.0184 2.97665 69.1037 5.28977C69.1764 7.35325 70.4309 7.52389 70.4309 7.52389C70.4309 7.52389 71.1008 2.95453 69.7989 1.46933C68.497 -0.0158695 65.5266 -0.62575 63.5737 0.83733C62.8501 1.39033 62.6162 2.98929 62.6162 2.98929Z" fill="#263238"/>
<path d="M69.3724 6.73088C69.3724 6.73088 70.2856 4.95813 71.0756 5.26149C71.8656 5.56485 71.3316 8.02964 70.51 8.46888C70.4086 8.53208 70.2955 8.57411 70.1774 8.59241C70.0594 8.61072 69.9389 8.60494 69.8231 8.57541C69.7074 8.54588 69.5988 8.49322 69.5039 8.42061C69.4091 8.34799 69.3299 8.25692 69.2712 8.15288L69.3724 6.73088Z" fill="#AD6359"/>
<path d="M70.905 5.96484C70.905 5.96484 70.924 5.98064 70.905 5.98696C70.3331 6.30296 70.0897 6.91601 69.957 7.52905C69.9836 7.46331 70.0243 7.4042 70.0762 7.35583C70.128 7.30746 70.1899 7.27102 70.2573 7.24904C70.3247 7.22707 70.3961 7.2201 70.4665 7.22862C70.5369 7.23714 70.6046 7.26094 70.6649 7.29836C70.6807 7.29836 70.6649 7.33312 70.6649 7.33312C70.5539 7.3134 70.4396 7.32866 70.3377 7.37678C70.2358 7.4249 70.1513 7.50351 70.0961 7.60172C70.0037 7.76589 69.9295 7.93967 69.8749 8.11996C69.8559 8.18 69.7516 8.1642 69.7643 8.09784C69.6315 7.31416 70.0866 6.15444 70.905 5.96484Z" fill="#263238"/>
<path d="M65.773 13.8843L66.9643 16.8105L70.5794 13.1133L71.6095 14.2951C71.6095 14.2951 68.0767 20.1538 68.0545 19.8978L66.8474 17.3888L65.1189 19.1394L65.2485 14.7502L65.773 13.8843Z" fill="#EBEBEB"/>
<path d="M65.059 16.9692C65.1064 16.2456 65.1317 15.5124 65.2107 14.792C65.2107 14.7667 65.2549 14.7572 65.2612 14.792C65.4066 15.4903 65.217 18.268 65.2201 18.9221C65.2928 18.8462 66.8223 17.3832 66.8381 17.4053C67.1003 17.8034 67.9851 19.6173 68.0452 19.7974C68.6045 18.8652 70.7438 15.4777 71.4074 14.596C71.4115 14.5925 71.4166 14.5904 71.4219 14.5899C71.4273 14.5895 71.4327 14.5908 71.4372 14.5936C71.4418 14.5964 71.4454 14.6006 71.4474 14.6056C71.4494 14.6106 71.4498 14.6161 71.4485 14.6213C70.965 15.5883 68.1337 20.1545 68.0894 20.1545C67.6233 19.2917 67.2014 18.4057 66.8254 17.5001C66.5663 17.8161 65.0211 19.4751 65.0147 19.3676C64.9878 18.5679 65.0026 17.7674 65.059 16.9692Z" fill="#263238"/>
<path d="M24.9552 16.8991C28.9305 24.7454 32.969 43.62 33.345 46.1449C33.601 47.8608 24.5792 49.4123 24.5792 48.2242C24.5792 46.701 22.759 28.885 22.9328 21.8445C23.0276 17.9608 24.1336 15.278 24.9552 16.8991Z" fill="#EB9481"/>
<path d="M24.5446 47.4716C24.3992 48.505 24.7437 52.0852 25.4199 54.7396C25.7359 56.0352 27.0884 59.6534 28.1028 59.4796C29.1171 59.3058 28.8169 58.2156 28.8169 58.2156C28.8169 58.2156 29.6133 59.6566 30.615 59.388C31.6167 59.1194 31.1016 57.432 31.1016 57.432C31.1016 57.432 32.0243 58.8571 32.9976 58.5158C33.9709 58.1746 33.1714 56.5661 33.1714 56.5661C33.1714 56.5661 33.9583 57.9091 34.6471 57.2866C35.4782 56.5377 33.7528 54.2309 33.4621 52.7804C33.3958 52.4644 32.59 46.0117 32.59 46.0117L24.5446 47.4716Z" fill="#EB9481"/>
<path d="M33.184 56.5456C31.92 54.8456 31.6609 53.8818 31.5029 51.8056C31.5007 51.7986 31.4963 51.7924 31.4903 51.788C31.4843 51.7836 31.4771 51.7812 31.4697 51.7812C31.4623 51.7812 31.4551 51.7836 31.4491 51.788C31.4431 51.7924 31.4387 51.7986 31.4365 51.8056C31.4081 53.8565 31.5598 55.111 33.105 56.6183C33.1808 56.6847 33.244 56.6246 33.184 56.5456Z" fill="#263238"/>
<path d="M31.1269 57.5242C29.9672 55.644 29.6764 54.6012 29.3478 52.4366C29.3478 52.405 29.2909 52.4082 29.2941 52.4366C29.4363 54.5886 29.6101 55.8368 31.0226 57.5653C31.0858 57.6474 31.1806 57.6095 31.1269 57.5242Z" fill="#263238"/>
<path d="M28.7253 58.0738C27.7363 56.1778 27.3697 55.0434 27.3223 52.9009C27.3199 52.8923 27.3147 52.8848 27.3075 52.8794C27.3004 52.874 27.2917 52.8711 27.2828 52.8711C27.2739 52.8711 27.2652 52.874 27.2581 52.8794C27.2509 52.8848 27.2458 52.8923 27.2433 52.9009C27.079 55.0908 27.5277 56.5033 28.6653 58.1023C28.7443 58.1939 28.7885 58.1813 28.7253 58.0738Z" fill="#263238"/>
<path d="M33.2883 45.6953C33.2883 45.6953 34.7419 47.9073 35.1654 49.0354C35.5888 50.1635 35.6362 54.8941 34.6124 54.9636C33.2915 55.0521 32.7164 52.3187 32.6216 50.9441C32.6216 50.9441 29.5627 51.1495 28.7348 49.2756C27.9069 47.4017 33.2883 45.6953 33.2883 45.6953Z" fill="#EB9481"/>
<path d="M34.2427 54.8673C32.9787 54.0805 32.9597 52.2666 32.7606 50.9394C32.7586 50.9197 32.7518 50.9007 32.7409 50.8841C32.7299 50.8675 32.7151 50.8539 32.6977 50.8442C32.6804 50.8346 32.6609 50.8293 32.6411 50.8289C32.6212 50.8284 32.6015 50.8327 32.5837 50.8415C31.2976 50.8415 29.4806 50.4686 28.7032 49.3563C28.7016 49.352 28.699 49.3481 28.6957 49.3449C28.6924 49.3417 28.6885 49.3392 28.6841 49.3377C28.6798 49.3362 28.6752 49.3356 28.6706 49.3361C28.666 49.3365 28.6616 49.338 28.6577 49.3403C28.6537 49.3426 28.6503 49.3458 28.6477 49.3496C28.6451 49.3534 28.6433 49.3577 28.6425 49.3622C28.6418 49.3667 28.642 49.3714 28.6432 49.3758C28.6444 49.3802 28.6465 49.3843 28.6495 49.3879C29.3194 50.6961 31.0764 51.208 32.4857 51.1164C32.669 52.4783 32.767 54.2985 34.2332 54.8799C34.2427 54.8831 34.249 54.8736 34.2427 54.8673Z" fill="#263238"/>
<path d="M34.2111 45.1652L23.9632 46.7452C23.9632 46.7452 22.3295 27.7189 22.2695 21.3325C22.2094 14.9461 24.5036 13.3819 26.9652 19.9137C29.4269 26.4454 34.2111 45.1652 34.2111 45.1652Z" fill="#FFC727"/>
<path d="M23.9124 45.1422C28.1057 44.1942 32.653 43.8435 33.443 43.7266C33.4809 43.7266 33.4841 43.7803 33.443 43.7834C32.6656 43.8593 27.5085 44.8294 23.9124 45.2054C23.884 45.2086 23.8808 45.1486 23.9124 45.1422Z" fill="#263238"/>
<path d="M46.6266 114.833C45.9156 115.063 25.0754 114.751 24.3106 114.248C24.219 114.191 24.2064 112.308 24.2316 109.726L23.2173 94.3906L36.404 94.4285L37.4468 107.701C37.4468 107.701 40.4045 109.066 42.844 110.26C43.9114 110.745 44.9487 111.294 45.9503 111.903C46.7372 112.561 47.3376 114.605 46.6266 114.833Z" fill="#EB9481"/>
<path d="M46.6266 114.833C45.9156 115.064 25.0754 114.751 24.3106 114.249C24.219 114.192 24.2064 112.308 24.2316 109.727C29.3793 110.874 43.1063 112.732 43.5076 111.654C43.6688 111.221 43.3402 110.731 42.8504 110.28C43.9178 110.765 44.955 111.313 45.9566 111.923C46.7372 112.561 47.3376 114.606 46.6266 114.833Z" fill="#263238"/>
<path d="M17.6494 38.5781C17.6494 38.5781 21.3845 78.2108 21.4667 78.6912C21.4667 78.7544 21.5078 79.4875 21.5425 80.6788C21.7511 87.2168 22.263 107.605 22.263 107.605H37.9303C37.9303 107.605 36.9096 83.4564 36.3219 77.8253C35.5729 70.6363 30.9688 38.5781 30.9688 38.5781H17.6494Z" fill="#37474F"/>
<path d="M23.3342 80.0291C22.8518 71.8004 22.126 63.5844 21.157 55.3811C20.6071 50.7675 19.9435 46.1697 19.2863 41.5687C19.2863 41.5276 19.2167 41.5308 19.2231 41.5687C20.4365 49.7563 21.2929 58.0007 22.0323 66.2515C22.7717 74.5022 23.2963 82.734 23.6123 90.9943C23.8051 95.6711 23.9504 100.354 24.0989 105.034C24.1028 105.054 24.1136 105.073 24.1295 105.086C24.1453 105.099 24.1653 105.106 24.1858 105.106C24.2064 105.106 24.2264 105.099 24.2422 105.086C24.2581 105.073 24.2689 105.054 24.2727 105.034C24.0642 96.7044 23.824 88.362 23.3342 80.0291Z" fill="#263238"/>
<path d="M36.9413 105.08C36.5305 105.027 36.0849 105.043 35.6773 105.03C35.2096 105.03 34.7293 105.008 34.2679 104.992C33.361 104.957 32.4509 104.932 31.544 104.919C29.7143 104.888 27.8815 104.9 26.0551 104.957L24.5446 105.011C24.0074 105.03 23.4702 105.08 22.933 105.077C22.8951 105.077 22.8951 105.125 22.933 105.125C23.8525 105.125 24.7847 105.204 25.7075 105.238C26.6302 105.273 27.5213 105.286 28.4282 105.298C30.2579 105.324 32.0938 105.298 33.9203 105.242C34.4227 105.223 34.9252 105.216 35.4276 105.201L36.2366 105.159C36.4767 105.159 36.7137 105.159 36.9539 105.137C36.9855 105.137 36.9823 105.087 36.9413 105.08Z" fill="#263238"/>
<path d="M28.9685 38.5781L21.8111 90.1999C21.71 86.351 21.6089 82.7928 21.5425 80.6788C21.5078 79.4875 21.4793 78.7544 21.4667 78.6912C21.3782 78.2108 17.6494 38.5781 17.6494 38.5781H28.9685Z" fill="#263238"/>
<path d="M20.3797 117.584C19.6339 117.524 0.515901 109.219 0.00398093 108.461C-0.0592191 108.376 0.635982 106.631 1.6693 104.258L5.88474 89.4062L18.0823 94.3011L14.6411 107.488C14.6411 107.488 16.8531 109.886 18.6417 111.912C19.4405 112.771 20.1876 113.678 20.8789 114.626C21.3561 115.527 21.1223 117.647 20.3797 117.584Z" fill="#EB9481"/>
<path d="M20.3797 117.584C19.6339 117.523 0.515901 109.219 0.00398093 108.461C-0.0592191 108.375 0.635982 106.631 1.6693 104.258C5.9827 107.298 17.937 114.288 18.7333 113.447C19.0493 113.112 18.9324 112.531 18.6543 111.924C19.4531 112.784 20.2002 113.69 20.8916 114.638C21.3561 115.526 21.1223 117.647 20.3797 117.584Z" fill="#263238"/>
<path d="M0.297852 102.727L15.5828 107.467C15.5828 107.467 23.0467 81.2863 23.6187 75.1369C24.1843 69.0413 24.731 56.5877 24.9743 47.5533C24.9743 47.5533 27.5276 46.0428 28.1754 45.218C28.8232 44.3933 29.4046 41.426 30.6813 38.582H11.9804C7.51213 47.2626 10.8744 51.1241 10.8744 53.0169C10.8744 62.1556 9.49345 74.2869 9.05421 76.0849C8.13781 79.8327 0.297852 102.727 0.297852 102.727Z" fill="#37474F"/>
<path d="M15.5479 104.125C15.1656 103.967 14.7326 103.869 14.3345 103.745C13.8826 103.609 13.4276 103.483 12.9788 103.344C12.113 103.075 11.2408 102.819 10.3687 102.573C8.60962 102.072 6.83791 101.61 5.05357 101.189L3.58101 100.851C3.05961 100.731 2.52557 100.639 2.00101 100.5C1.95993 100.5 1.95045 100.535 2.00101 100.547C2.89213 100.781 3.77061 101.1 4.65225 101.372C5.53389 101.644 6.39341 101.887 7.26557 102.137C9.02569 102.633 10.8016 103.085 12.5838 103.499C13.0768 103.609 13.5634 103.733 14.0532 103.85L14.8401 104.023C15.0739 104.077 15.3014 104.153 15.5384 104.188C15.5468 104.189 15.5554 104.187 15.5622 104.182C15.569 104.177 15.5735 104.169 15.5748 104.161C15.576 104.152 15.5739 104.144 15.5689 104.137C15.5638 104.13 15.5563 104.126 15.5479 104.125Z" fill="#263238"/>
<path d="M28.6116 45.0144C27.7192 45.4246 26.8719 45.9266 26.0836 46.5123C25.2462 47.0874 24.4751 47.7478 23.6693 48.364C23.6377 48.3893 23.6693 48.4399 23.7009 48.4178C24.551 47.8742 25.4421 47.3971 26.2827 46.8378C27.1266 46.3257 27.9221 45.7376 28.659 45.0808C28.6811 45.0555 28.6527 44.9986 28.6116 45.0144Z" fill="#263238"/>
<path d="M28.7283 39.7481C28.6208 40.3295 28.4786 40.9078 28.3522 41.4861C28.2258 42.0644 28.1468 42.5826 28.0046 43.1198C27.8871 43.6394 27.6228 44.1144 27.2431 44.4881C27.0314 44.6872 26.7944 44.861 26.5668 45.0443C26.4468 45.1422 26.314 45.2339 26.1876 45.335C26.2034 45.256 26.2161 45.1801 26.2287 45.098C26.2698 44.8799 26.3077 44.6587 26.3425 44.4375C26.4246 43.9477 26.5036 43.4548 26.5795 42.965C26.728 41.998 26.8639 41.0216 27.0661 40.0641C27.0682 40.0557 27.0669 40.0468 27.0624 40.0394C27.058 40.032 27.0508 40.0267 27.0424 40.0246C27.034 40.0225 27.0252 40.0238 27.0178 40.0283C27.0103 40.0327 27.005 40.0399 27.0029 40.0483C26.7628 40.9963 26.4973 41.9443 26.2888 42.8923C26.1845 43.36 25.8179 45.6731 25.8021 45.8374C25.7863 46.0017 25.7705 46.1755 25.7642 46.3462C25.7436 46.5194 25.7436 46.6944 25.7642 46.8676C25.7642 46.9087 25.8274 46.9023 25.8432 46.8676C25.914 46.7071 25.9639 46.5383 25.9917 46.3651C26.0328 46.2008 26.0707 46.0333 26.0992 45.8659C26.0992 45.8058 26.1181 45.7426 26.1276 45.6794C26.3551 45.5404 26.5668 45.3634 26.7817 45.2054C26.9966 45.0474 27.2431 44.8894 27.4611 44.6935C27.8629 44.3544 28.1526 43.9016 28.2922 43.3947C28.4326 42.8488 28.5246 42.2915 28.5671 41.7294C28.6398 41.0721 28.6935 40.4117 28.7852 39.7576C28.7946 39.7481 28.7346 39.7165 28.7283 39.7481Z" fill="#263238"/>
<path d="M28.3366 14.5469C28.0364 18.2599 27.6635 22.0772 26.7977 25.7049C26.1214 28.5299 24.5857 30.7261 21.5205 31.02C18.6765 31.2918 14.7423 30.704 12.6567 28.552C11.6834 27.5503 11.4717 26.2926 11.7276 24.9528C12.0847 23.0916 14.9824 13.0175 15.8641 9.87011C16.4013 7.95515 16.9322 6.01175 17.8043 4.21055C19.6308 0.418555 21.5963 0.734554 21.8681 0.687154C22.124 0.567074 23.7167 0.105713 25.7644 1.07899C26.3031 1.33049 26.7827 1.69304 27.1715 2.14287C27.5603 2.5927 27.8497 3.11965 28.0206 3.68915C29.1076 7.07667 28.6273 11.0709 28.3366 14.5469Z" fill="#263238"/>
<path d="M21.1917 1.15353C18.6858 1.93089 17.7694 4.42729 16.8846 6.65193C15.6522 9.75189 14.4704 12.874 13.4402 16.0498C12.9473 17.576 12.4922 19.115 12.0719 20.6634C11.6769 22.1486 11.1619 23.7191 11.0544 25.258C10.8775 27.786 13.0263 29.2649 15.213 29.9316C15.2348 29.9388 15.2585 29.9369 15.2789 29.9266C15.2994 29.9162 15.3149 29.8981 15.322 29.8763C15.3291 29.8546 15.3273 29.8308 15.3169 29.8104C15.3066 29.7899 15.2885 29.7744 15.2667 29.7673C14.028 29.3407 12.7798 28.8193 11.9613 27.7354C10.9091 26.3577 11.2693 24.7966 11.6264 23.2419C12.2394 20.5938 13.001 17.9868 13.8384 15.4083C14.6758 12.8297 15.6427 10.2764 16.6287 7.74529C17.5767 5.33421 18.452 2.11101 21.1854 1.19461C21.2265 1.19461 21.217 1.14405 21.1917 1.15353Z" fill="#263238"/>
<path d="M28.719 6.53253C28.5357 4.54489 27.7899 2.52881 25.8402 1.69141C28.3493 2.88589 28.5957 5.84049 28.6147 8.28001C28.6358 10.8522 28.5631 13.4203 28.3967 15.9841C28.2387 18.452 28.0238 20.9326 27.6414 23.3753C27.2275 26.0108 26.409 28.4313 24.5509 30.3874C24.5468 30.3911 24.5434 30.3956 24.541 30.4007C24.5386 30.4057 24.5372 30.4112 24.5369 30.4167C24.5366 30.4223 24.5374 30.4279 24.5393 30.4332C24.5412 30.4384 24.544 30.4433 24.5478 30.4474C24.5515 30.4516 24.556 30.4549 24.5611 30.4573C24.5661 30.4597 24.5716 30.4611 24.5771 30.4614C24.5827 30.4617 24.5883 30.4609 24.5936 30.459C24.5988 30.4572 24.6037 30.4543 24.6078 30.4506C26.3869 28.899 27.2306 26.5416 27.6635 24.2854C28.1859 21.2901 28.51 18.2636 28.6337 15.2257C28.798 12.3659 28.9844 9.41129 28.719 6.53253Z" fill="#263238"/>
<path d="M21.0432 15.0561C21.1633 15.3721 23.0056 17.2997 24.4971 17.0374C24.9806 16.9489 24.6235 14.2787 24.6235 14.2787L24.6425 14.0765L24.9016 11.2325L21.3845 9.57035L20.8821 9.35547C20.8821 9.35547 20.86 10.1391 20.8473 11.1124C20.8473 11.1598 20.8473 11.2041 20.8473 11.2515C20.8442 11.3051 20.8442 11.359 20.8473 11.4126C20.8473 11.558 20.8473 11.7065 20.8473 11.855C20.8473 12.0035 20.8473 12.0762 20.8473 12.1931C20.8473 12.3101 20.8473 12.4301 20.8473 12.5471C20.8556 13.3869 20.9211 14.2252 21.0432 15.0561Z" fill="#EB9481"/>
<path d="M20.8474 11.1124C21.2266 11.852 21.7622 12.5001 22.4171 13.012C23.0719 13.5238 23.8302 13.8871 24.6394 14.0765L24.8985 11.2325L21.3846 9.57035L20.8822 9.35547C20.8822 9.35547 20.8601 10.1391 20.8474 11.1124Z" fill="#263238"/>
<path d="M28.5166 7.04242C28.9148 12.0352 25.9697 12.8379 24.8921 12.9232C23.9125 12.999 20.5724 13.1381 19.6623 8.20846C18.7522 3.27886 20.9484 1.50926 23.1762 1.22486C25.404 0.940462 28.1216 2.04646 28.5166 7.04242Z" fill="#EB9481"/>
<path d="M27.6761 5.98195C27.5622 5.96517 27.4493 5.94196 27.338 5.91243C27.2145 5.90499 27.0968 5.85726 27.003 5.77655C26.9792 5.7452 26.9663 5.7069 26.9663 5.66753C26.9663 5.62815 26.9792 5.58985 27.003 5.55851C27.0594 5.50413 27.1291 5.46557 27.2051 5.44671C27.2811 5.42785 27.3607 5.42935 27.436 5.45107C27.597 5.47133 27.7441 5.5528 27.8468 5.67859C27.8692 5.70804 27.8825 5.7434 27.885 5.78031C27.8876 5.81723 27.8793 5.85408 27.8611 5.88633C27.843 5.91858 27.8158 5.94482 27.7829 5.96181C27.75 5.9788 27.7129 5.9858 27.6761 5.98195Z" fill="#263238"/>
<path d="M24.3518 6.05024C24.4688 6.03444 24.5731 6.00284 24.69 5.97756C24.8076 5.96438 24.9181 5.91465 25.006 5.83536C25.0303 5.80423 25.0435 5.76585 25.0435 5.72634C25.0435 5.68682 25.0303 5.64844 25.006 5.61732C24.9488 5.5632 24.8783 5.5253 24.8017 5.50753C24.725 5.48975 24.645 5.49275 24.5699 5.5162C24.4109 5.54169 24.2669 5.62495 24.1654 5.75003C24.1425 5.78058 24.1293 5.81734 24.1276 5.8555C24.1259 5.89366 24.1358 5.93144 24.156 5.96389C24.1761 5.99634 24.2056 6.02194 24.2406 6.03735C24.2755 6.05276 24.3143 6.05725 24.3518 6.05024Z" fill="#263238"/>
<path d="M25.1323 7.3125C25.1323 7.3125 25.107 7.3125 25.107 7.34094C25.1291 7.68222 25.107 8.07722 24.791 8.20046C24.791 8.20046 24.791 8.22258 24.791 8.21942C25.1765 8.14674 25.2081 7.63166 25.1323 7.3125Z" fill="#263238"/>
<path d="M24.8162 6.96517C24.2664 6.94305 24.26 8.04273 24.7688 8.06485C25.2776 8.08697 25.2776 6.98413 24.8162 6.96517Z" fill="#263238"/>
<path d="M24.6014 7.01988C24.5034 7.08308 24.4086 7.19052 24.2854 7.20316C24.1622 7.2158 24.0516 7.09888 23.9694 6.98828H23.9504C23.9504 7.19684 24.0231 7.41488 24.2664 7.44648C24.5098 7.47808 24.6235 7.29164 24.6772 7.07992C24.6741 7.05464 24.6393 6.9946 24.6014 7.01988Z" fill="#263238"/>
<path d="M27.0283 7.23828C27.0283 7.23828 27.0536 7.23828 27.0536 7.26672C27.0378 7.608 27.0758 8.003 27.3854 8.11992C27.3854 8.11992 27.3854 8.14204 27.3854 8.13888C27.0062 8.082 26.9588 7.55744 27.0283 7.23828Z" fill="#263238"/>
<path d="M27.3379 6.88348C27.8846 6.85188 27.913 7.95156 27.4043 7.98316C26.8955 8.01476 26.8765 6.91192 27.3379 6.88348Z" fill="#263238"/>
<path d="M27.5688 6.95233C27.6572 7.00605 27.7457 7.11033 27.85 7.11665C27.9543 7.12297 28.0554 6.99973 28.1312 6.88281H28.147C28.147 7.09137 28.0933 7.31257 27.8942 7.35681C27.6952 7.40105 27.5782 7.22093 27.515 7.01553C27.5055 6.98709 27.534 6.92705 27.5688 6.95233Z" fill="#263238"/>
<path d="M26.5289 8.77968C26.5289 8.77968 26.6016 9.28844 26.6016 9.5286C26.6016 9.55388 26.5447 9.56336 26.4626 9.56968C26.2565 9.60868 26.0436 9.59008 25.8473 9.51593C25.6511 9.44178 25.4791 9.31496 25.3503 9.1494C25.3457 9.14437 25.3432 9.13772 25.3435 9.13091C25.3438 9.12409 25.3468 9.11767 25.3518 9.11306C25.3569 9.10845 25.3635 9.10603 25.3703 9.10633C25.3772 9.10662 25.3836 9.10961 25.3882 9.11464C25.6946 9.32328 26.0607 9.42644 26.431 9.40852C26.4468 9.34216 26.2761 8.53952 26.3141 8.53636C26.5009 8.55134 26.6848 8.59174 26.8607 8.65644C26.7407 7.59152 26.4499 6.55504 26.3425 5.49644C26.3425 5.48806 26.3458 5.48003 26.3518 5.4741C26.3577 5.46817 26.3657 5.46484 26.3741 5.46484C26.3825 5.46484 26.3905 5.46817 26.3965 5.4741C26.4024 5.48003 26.4057 5.48806 26.4057 5.49644C26.7522 6.59842 26.9883 7.73211 27.1104 8.8808C27.1199 8.98824 26.6237 8.81128 26.5289 8.77968Z" fill="#263238"/>
<path d="M26.9145 7.56873C26.8387 6.75345 27.2147 6.05193 27.7519 5.98873C28.2891 5.92553 28.7915 6.55753 28.8674 7.37281C28.9432 8.18809 28.5514 8.88961 28.03 8.95281C27.5086 9.01601 26.9904 8.38401 26.9145 7.56873ZM27.1136 7.54977C27.18 8.25445 27.5813 8.79481 28.011 8.75689C28.4408 8.71897 28.7378 8.10909 28.6715 7.40441C28.6051 6.69973 28.2006 6.15937 27.7709 6.19729C27.3411 6.23521 27.0472 6.84509 27.1136 7.54977Z" fill="#263238"/>
<path d="M23.2016 7.91801C23.1949 7.64792 23.2671 7.38175 23.4095 7.15215C23.5519 6.92256 23.7583 6.73954 24.0032 6.62557C24.2482 6.5116 24.5211 6.47164 24.7884 6.51059C25.0558 6.54954 25.3059 6.66571 25.5082 6.84483C25.7104 7.02396 25.856 7.25824 25.9269 7.51892C25.9979 7.7796 25.9912 8.05534 25.9077 8.31227C25.8241 8.5692 25.6674 8.79614 25.4567 8.96524C25.246 9.13434 24.9905 9.23824 24.7216 9.26417C24.3418 9.28581 23.969 9.15643 23.6842 8.90426C23.3995 8.65209 23.226 8.29757 23.2016 7.91801ZM23.4007 7.89905C23.4409 8.12626 23.5464 8.33684 23.7044 8.50507C23.8623 8.6733 24.0658 8.79191 24.29 8.84641C24.5142 8.90092 24.7494 8.88895 24.967 8.81198C25.1845 8.73501 25.3749 8.59637 25.515 8.41298C25.655 8.2296 25.7386 8.0094 25.7556 7.77928C25.7726 7.54916 25.7222 7.31908 25.6105 7.11713C25.4989 6.91518 25.3309 6.7501 25.127 6.64204C24.9232 6.53399 24.6922 6.48764 24.4624 6.50865C24.1375 6.55265 23.8432 6.72373 23.6442 6.98437C23.4451 7.24502 23.3576 7.57395 23.4007 7.89905Z" fill="#263238"/>
<path d="M25.8812 7.5319C26.5954 7.2159 26.9525 7.41498 26.9556 7.41814L27.0631 7.25066C27.0473 7.25066 26.6238 6.97258 25.7991 7.35178L25.8812 7.5319Z" fill="#263238"/>
<path d="M23.2805 7.77984L23.2994 7.58076C23.1667 7.58076 20.1015 7.29636 19.7728 7.309C19.4442 7.32164 18.6637 7.84936 18.5784 7.9094L18.6921 8.07372C19.0168 7.82822 19.3798 7.63816 19.7665 7.51124H19.8045C20.0446 7.5144 22.1903 7.68188 23.2805 7.77984Z" fill="#263238"/>
<path d="M19.8044 7.85369C20.3448 7.82209 21.7542 6.32741 21.7984 3.71093C21.7984 3.71093 21.5962 6.05882 21.4224 6.40326C21.2486 6.7477 22.2092 5.5627 22.2724 3.45498C22.9381 3.92987 23.668 4.30759 24.4402 4.57677C25.4356 4.85485 26.0454 4.84538 26.1181 4.7727C26.1908 4.70002 24.7214 4.23866 24.3232 3.78362C24.3232 3.78362 26.9776 5.01285 28.1974 5.10765C28.3396 5.10765 28.5134 2.20993 26.6174 0.977534C24.7214 -0.254866 21.7352 1.07865 20.9294 1.85601C20.9294 1.85601 19.9814 1.98874 18.9607 3.38862C17.94 4.7885 19.223 7.88845 19.8044 7.85369Z" fill="#263238"/>
<path d="M20.4872 8.53187C20.4872 8.53187 19.4033 6.95187 18.6923 7.34371C17.9813 7.73555 18.784 10.0013 19.615 10.3173C19.7189 10.3651 19.8313 10.3916 19.9456 10.395C20.0599 10.3984 20.1737 10.3787 20.2802 10.3371C20.3867 10.2955 20.4837 10.2328 20.5654 10.1529C20.6472 10.0729 20.7119 9.97728 20.7558 9.87171L20.4872 8.53187Z" fill="#EB9481"/>
<path d="M18.9387 7.98828V8.0104C19.5202 8.25372 19.8235 8.79724 20.0352 9.35972C20.0021 9.30067 19.9564 9.24959 19.9014 9.21005C19.8464 9.17051 19.7835 9.14347 19.717 9.13083C19.6504 9.11819 19.5819 9.12024 19.5163 9.13686C19.4506 9.15347 19.3894 9.18423 19.3369 9.227C19.3369 9.227 19.3369 9.26176 19.3527 9.2586C19.4556 9.22631 19.566 9.22692 19.6685 9.26034C19.771 9.29376 19.8606 9.35832 19.9246 9.44504C20.0315 9.58977 20.1226 9.74549 20.1964 9.90956C20.2217 9.96328 20.3165 9.93484 20.2975 9.8748C20.3102 9.1164 19.7382 8.07044 18.9387 7.98828Z" fill="#263238"/>
<path d="M20.3132 10.2032C20.3138 10.2759 20.2928 10.3471 20.2529 10.4077C20.2131 10.4684 20.156 10.5159 20.0891 10.5441C20.0222 10.5724 19.9484 10.5801 19.8771 10.5663C19.8058 10.5525 19.7401 10.5179 19.6886 10.4667C19.637 10.4156 19.6018 10.3503 19.5874 10.2791C19.573 10.2079 19.58 10.134 19.6077 10.0669C19.6353 9.9997 19.6823 9.94227 19.7426 9.90185C19.803 9.86143 19.874 9.83985 19.9466 9.83984C20.0433 9.83984 20.1361 9.87803 20.2047 9.94609C20.2734 10.0141 20.3124 10.1066 20.3132 10.2032Z" fill="white"/>
<path d="M31.4964 40.2672C31.4964 40.2672 14.6663 40.5169 10.4888 40.223C10.4888 40.223 13.8952 20.9154 18.3888 16.0364C18.5561 15.8531 18.7334 15.679 18.9196 15.515C19.1946 15.2843 19.1566 13.442 19.2862 13.303C19.4158 13.1639 24.8762 13.8812 24.9458 14.014C25.0153 14.1467 25.2965 15.8847 25.2965 15.8847C26.5352 17.4647 30.52 22.9251 30.9845 25.1782C31.449 27.4313 29.986 29.9182 29.986 29.9182L31.4964 40.2672Z" fill="#FFC727"/>
<path d="M17.1027 19.4797C16.1073 24.2765 16.6982 34.6477 18.9987 36.5437C22.7907 39.6468 31.9041 40.5537 34.4479 40.8539C35.5444 40.9835 37.728 33.8071 36.9759 32.8812C36.2238 31.9553 25.0216 30.5144 24.4876 30.0372C24.1179 29.6959 22.3767 23.4297 20.8757 19.8968C18.8565 15.1157 17.4661 17.7101 17.1027 19.4797Z" fill="#EB9481"/>
<path d="M35.08 32.3042C35.08 32.3042 38.4422 32.2694 40.6416 32.3516C41.8708 32.3958 43.9659 32.6676 44.8539 33.11C46.1779 33.7767 51.2971 37.4107 50.4408 38.6716C49.6666 39.8123 48.1434 38.3113 48.1434 38.3113C48.1434 38.3113 49.9636 39.7934 48.8481 40.6908C47.7326 41.5883 45.9283 39.4458 45.9283 39.4458C45.9283 39.4458 47.9696 40.8867 46.6867 41.7273C45.5744 42.4604 43.2391 40.2105 43.2391 40.2105C43.2391 40.2105 45.5491 41.4745 44.481 42.3498C43.3023 43.2978 39.3776 40.3653 39.3776 40.3653C36.5652 40.9973 34.7924 40.9973 32.7258 40.6592C32.3466 40.596 35.08 32.3042 35.08 32.3042Z" fill="#EB9481"/>
<path d="M46.4907 39.9467L46.0325 39.4632C45.749 39.1428 45.4472 38.8389 45.1288 38.5531C44.8128 38.2813 44.4968 38.0222 44.1492 37.7757C43.8016 37.5293 43.4097 37.2828 43.0621 37.0142C43.0337 36.9921 43.0021 37.0331 43.0337 37.0521C43.3788 37.3182 43.71 37.6019 44.0259 37.9021C44.3419 38.1865 44.6579 38.4773 44.9739 38.7648C45.2899 39.0524 45.6059 39.3083 45.9219 39.5833C46.0768 39.7191 46.2379 39.8613 46.3801 40.0035C46.5149 40.1495 46.6618 40.2838 46.8194 40.4049C46.8352 40.4049 46.8541 40.4049 46.8446 40.3796C46.7425 40.2231 46.6238 40.0779 46.4907 39.9467Z" fill="#263238"/>
<path d="M48.5162 38.6277C48.0092 38.0151 47.4602 37.4386 46.873 36.9023C46.2786 36.3696 45.6317 35.8985 44.9423 35.4961C44.917 35.4961 44.8917 35.5151 44.9107 35.534C45.5048 36.0681 46.1083 36.5926 46.7119 37.114C47.0058 37.37 48.3077 38.5771 48.4594 38.694C48.4941 38.713 48.5383 38.6624 48.5162 38.6277Z" fill="#263238"/>
<path d="M44.617 41.2335C44.1252 40.6681 43.5974 40.1351 43.037 39.6377C42.4203 39.1835 41.7707 38.7758 41.0936 38.418C41.0683 38.418 41.043 38.4432 41.0651 38.459C41.6782 38.9141 42.2975 39.3533 42.8884 39.8368C43.1792 40.0738 44.2725 41.0787 44.5696 41.2778C44.6012 41.2967 44.6359 41.2588 44.617 41.2335Z" fill="#263238"/>
<path d="M31.9262 41.1521L35.9362 31.8017C35.9362 31.8017 24.9521 29.9847 24.6139 29.7635C24.2758 29.5423 22.2724 22.249 20.9863 19.386C19.7002 16.5231 17.4913 14.842 16.6381 20.9882C15.7849 27.1344 17.0205 34.6394 18.256 36.2004C19.7539 38.0901 25.6852 40.4822 31.9262 41.1521Z" fill="#FFC727"/>
<path d="M26.2825 39.9703C24.6393 39.5248 23.0372 38.7474 21.4667 38.0743C20.1174 37.5087 18.7396 36.8103 17.9907 35.4863C17.6415 34.8121 17.3975 34.0886 17.2671 33.3406C17.0933 32.5064 16.9511 31.6627 16.831 30.8126C16.6856 29.8436 16.555 28.8724 16.4391 27.8991C16.3823 27.3998 16.3254 26.9006 16.2748 26.4013C16.2243 25.902 16.1326 25.4027 16.1137 24.9003C16.1137 24.8936 16.111 24.8871 16.1063 24.8824C16.1015 24.8777 16.0951 24.875 16.0884 24.875C16.0817 24.875 16.0752 24.8777 16.0705 24.8824C16.0658 24.8871 16.0631 24.8936 16.0631 24.9003C16.0979 25.3616 16.0631 25.8262 16.101 26.2907C16.101 26.6067 16.1389 26.8974 16.1611 27.2008L16.0726 27.008C15.9753 26.7866 15.9011 26.5558 15.8514 26.3191C15.8514 26.2907 15.7977 26.3033 15.804 26.3191C15.8609 26.5561 15.9177 26.7963 15.9841 27.0301C16.0157 27.1439 16.0536 27.2576 16.0979 27.3714C16.1243 27.4478 16.1549 27.5227 16.1895 27.5958C16.2653 28.5037 16.3633 29.4075 16.4834 30.307C16.6003 31.1792 16.7362 32.045 16.891 32.9109C17.0057 33.6767 17.2093 34.4264 17.4977 35.145C17.7847 35.8224 18.2237 36.4246 18.7807 36.9051C19.358 37.3791 19.9955 37.7743 20.6767 38.0806C22.2169 38.7922 23.8088 39.3859 25.4388 39.8566C27.3885 40.4696 27.9826 40.4285 26.2825 39.9703Z" fill="#263238"/>
<path d="M30.4064 30.828C30.002 30.7742 25.2209 29.7694 25.0344 29.7156C24.9411 29.6872 24.8568 29.6349 24.7897 29.564C24.7227 29.4931 24.6753 29.406 24.6521 29.3112C24.5036 28.9256 24.374 28.5306 24.235 28.142C23.9948 27.472 23.7504 26.8053 23.5018 26.1417C23.5018 25.9932 23.4734 25.8257 23.4576 25.6961C23.4418 25.5666 23.4102 25.3422 23.3818 25.1652C23.3186 24.7829 23.2048 24.4068 23.1574 24.0245C23.1574 23.9866 23.0974 23.9992 23.1068 24.0245C23.2031 24.401 23.2603 24.7865 23.2775 25.1747C23.2933 25.3264 23.3028 25.4907 23.3122 25.6329C23.1669 25.2442 23.0184 24.8556 22.8635 24.47C22.6834 24.0213 22.478 23.5694 22.3326 23.1081C22.3326 23.0765 22.2758 23.0923 22.2852 23.1081C22.4496 23.522 22.5665 23.9613 22.696 24.3721C22.8256 24.7829 22.9646 25.2253 23.1037 25.6519C23.3754 26.4893 23.663 27.3204 23.9537 28.1546C24.0928 28.5559 24.2286 28.9636 24.3772 29.3617C24.4179 29.5108 24.4982 29.6462 24.6094 29.7535C24.7206 29.8608 24.8587 29.9362 25.0092 29.9716C25.8402 30.196 29.904 30.869 30.397 30.888C30.4475 30.9196 30.4602 30.8343 30.4064 30.828Z" fill="#263238"/>
<path d="M33.9044 31.9461C33.2724 33.2891 32.6404 34.6227 32.0684 35.9941C31.4898 37.3433 30.9825 38.7219 30.5485 40.1242C30.5459 40.1305 30.546 40.1375 30.5487 40.1438C30.5514 40.15 30.5564 40.1549 30.5627 40.1574C30.569 40.1599 30.576 40.1598 30.5822 40.1572C30.5884 40.1545 30.5933 40.1495 30.5959 40.1432C31.2279 38.8255 31.7809 37.4572 32.3402 36.1015C32.8995 34.7459 33.4083 33.3523 33.9739 31.9935C34.0023 31.9367 33.9297 31.8924 33.9044 31.9461Z" fill="#263238"/>
<path d="M45.7166 30.8805C45.2331 31.1523 42.465 30.3875 41.3432 31.2281C40.6006 31.7843 39.8738 33.1241 39.7158 34.8716C39.5546 36.676 40.9798 36.5843 41.5075 35.8196C42.1505 34.8129 42.7116 33.7561 43.1854 32.6596C43.6929 32.7607 44.1932 32.8947 44.6833 33.0609L45.7166 30.8805Z" fill="#AD6359"/>
<path d="M42.3228 37.1761C41.4664 36.2786 37.1878 39.5682 38.5308 41.0629C39.8738 42.5576 43.2898 38.1936 42.3228 37.1761Z" fill="#AD6359"/>
<path d="M43.751 38.4651C42.8947 37.5677 38.616 40.8573 39.959 42.3519C41.302 43.8466 44.718 39.4827 43.751 38.4651Z" fill="#AD6359"/>
<path d="M44.876 38.9175C43.9754 38.2192 40.5437 41.8058 41.9815 42.975C43.4193 44.1442 45.8967 39.7075 44.876 38.9175Z" fill="#AD6359"/>
<path d="M46.0989 39.1154C45.0655 38.7204 42.8883 43.018 44.5536 43.6974C46.2189 44.3768 47.2712 39.5484 46.0989 39.1154Z" fill="#AD6359"/>
<path d="M42.1962 38.6554C41.9585 38.8146 41.7345 38.9932 41.5263 39.1895C41.2956 39.3917 41.0681 39.5971 40.8596 39.8215C40.6562 40.0336 40.4652 40.2573 40.2876 40.4914C40.1012 40.7442 39.9463 41.0191 39.7567 41.2656C39.7533 41.2678 39.7504 41.2708 39.7484 41.2743C39.7464 41.2779 39.7453 41.2819 39.7451 41.2859C39.745 41.29 39.7458 41.2941 39.7476 41.2977C39.7493 41.3014 39.752 41.3046 39.7552 41.3071C39.7585 41.3095 39.7623 41.3111 39.7663 41.3118C39.7703 41.3125 39.7745 41.3121 39.7783 41.3108C39.7822 41.3096 39.7857 41.3074 39.7886 41.3044C39.7914 41.3015 39.7935 41.2979 39.7946 41.294C39.9819 41.0557 40.1857 40.8308 40.4045 40.621C40.6099 40.4061 40.8027 40.1817 41.0081 39.9637C41.2135 39.7456 41.3968 39.5339 41.599 39.3317C41.8012 39.1294 42.0288 38.9209 42.231 38.6997C42.2405 38.6712 42.2184 38.6428 42.1962 38.6554Z" fill="#263238"/>
<path d="M43.8964 39.0556C43.7131 39.3369 43.0716 40.4271 42.8757 40.702C42.6798 40.9769 42.4744 41.2518 42.2658 41.5204C42.0573 41.789 41.855 42.0829 41.618 42.3357C41.599 42.3578 41.6338 42.3926 41.6559 42.3705C41.8929 42.1177 42.152 41.887 42.3764 41.6216C42.6008 41.3561 42.8062 41.0875 43.0084 40.8063C43.3594 40.2489 43.676 39.6706 43.9564 39.0746C43.9564 39.0462 43.9122 39.0304 43.8964 39.0556Z" fill="#263238"/>
<path d="M45.0845 39.6715C44.8949 40.0886 44.7306 40.5215 44.5378 40.9355C44.443 41.1409 44.345 41.3463 44.2502 41.5675L44.1175 41.8677C44.0758 41.9872 44.0229 42.1025 43.9595 42.2121C43.9406 42.2374 43.9911 42.2658 44.0038 42.2311C44.0672 42.106 44.1412 41.9865 44.225 41.874C44.2787 41.7792 44.3356 41.6844 44.3861 41.5896C44.4936 41.3789 44.5915 41.1735 44.68 40.9734C44.8646 40.564 45.0188 40.1415 45.1414 39.7094C45.1464 39.7019 45.1482 39.6926 45.1464 39.6837C45.1447 39.6748 45.1394 39.667 45.1319 39.662C45.1243 39.657 45.1151 39.6551 45.1062 39.6569C45.0973 39.6587 45.0895 39.6639 45.0845 39.6715Z" fill="#263238"/>
</svg>
