<svg width="179" height="106" viewBox="0 0 179 106" fill="none" xmlns="http://www.w3.org/2000/svg">
<path d="M178.743 99.0781H0V105.589H178.743V99.0781Z" fill="#C7C7C7"/>
<path d="M106.796 99.0781H71.9497V101.728H106.796V99.0781Z" fill="#A6A6A6"/>
<path d="M160.277 4.21875H18.4719V99.0751H160.277V4.21875Z" fill="#DBDBDB"/>
<path d="M159.244 5.375H19.4995V97.9179H159.244V5.375Z" fill="#37474F"/>
<path d="M153.057 11.3242H25.6887V91.9691H153.057V11.3242Z" fill="white"/>
<path d="M153.057 11.3242H25.6887V14.4279H153.057V11.3242Z" fill="#263238"/>
<path d="M28.6093 12.8784C28.6092 12.9979 28.5736 13.1147 28.5069 13.2138C28.4402 13.3129 28.3454 13.3899 28.2347 13.4349C28.1241 13.4799 28.0025 13.4909 27.8855 13.4665C27.7686 13.442 27.6615 13.3833 27.5781 13.2977C27.4947 13.2122 27.4387 13.1037 27.4172 12.9862C27.3958 12.8687 27.4098 12.7474 27.4576 12.6379C27.5054 12.5284 27.5848 12.4356 27.6856 12.3714C27.7863 12.3072 27.904 12.2745 28.0234 12.2775C28.1016 12.2775 28.1791 12.2931 28.2511 12.3235C28.3232 12.3539 28.3885 12.3984 28.4431 12.4544C28.4977 12.5104 28.5405 12.5768 28.5691 12.6496C28.5976 12.7224 28.6113 12.8002 28.6093 12.8784Z" fill="#C7C7C7"/>
<path d="M31.007 12.8784C31.007 12.9973 30.9718 13.1135 30.9057 13.2123C30.8397 13.3111 30.7458 13.3881 30.636 13.4336C30.5262 13.4791 30.4054 13.491 30.2889 13.4678C30.1723 13.4446 30.0652 13.3874 29.9812 13.3034C29.8971 13.2193 29.8399 13.1122 29.8167 12.9957C29.7935 12.8791 29.8054 12.7583 29.8509 12.6485C29.8964 12.5387 29.9734 12.4448 30.0722 12.3788C30.1711 12.3128 30.2872 12.2775 30.4061 12.2775C30.4856 12.2755 30.5646 12.2896 30.6385 12.3191C30.7123 12.3485 30.7794 12.3927 30.8356 12.4489C30.8918 12.5052 30.936 12.5722 30.9655 12.6461C30.9949 12.7199 31.0091 12.799 31.007 12.8784Z" fill="white"/>
<path d="M33.4045 12.8784C33.4044 12.9979 33.3688 13.1147 33.302 13.2138C33.2353 13.3129 33.1406 13.3899 33.0299 13.4349C32.9192 13.4799 32.7976 13.4909 32.6807 13.4665C32.5637 13.442 32.4567 13.3833 32.3733 13.2977C32.2899 13.2122 32.2339 13.1037 32.2124 12.9862C32.1909 12.8687 32.205 12.7474 32.2528 12.6379C32.3006 12.5284 32.38 12.4356 32.4807 12.3714C32.5815 12.3072 32.6991 12.2745 32.8186 12.2775C32.8968 12.2775 32.9742 12.2931 33.0463 12.3235C33.1184 12.3539 33.1836 12.3984 33.2383 12.4544C33.2929 12.5104 33.3357 12.5768 33.3642 12.6496C33.3928 12.7224 33.4065 12.8002 33.4045 12.8784Z" fill="#FFC727"/>
<path d="M153.057 88.4141H25.6887V91.9744H153.057V88.4141Z" fill="#263238"/>
<path d="M143.893 89.8086H33.789C33.6989 89.8086 33.6126 89.8444 33.5489 89.908C33.4852 89.9717 33.4495 90.0581 33.4495 90.1481C33.4495 90.2382 33.4852 90.3245 33.5489 90.3882C33.6126 90.4518 33.6989 90.4876 33.789 90.4876H143.905C143.995 90.4876 144.082 90.4518 144.146 90.3882C144.209 90.3245 144.245 90.2382 144.245 90.1481C144.245 90.0581 144.209 89.9717 144.146 89.908C144.082 89.8444 143.995 89.8086 143.905 89.8086H143.893Z" fill="white"/>
<path d="M33.789 89.8086C33.6989 89.8086 33.6126 89.8444 33.5489 89.908C33.4852 89.9717 33.4495 90.0581 33.4495 90.1481C33.4495 90.2382 33.4852 90.3245 33.5489 90.3882C33.6126 90.4518 33.6989 90.4876 33.789 90.4876H117.757V89.8086H33.789Z" fill="#FFC727"/>
<path d="M117.075 90.146C117.074 90.011 117.114 89.8788 117.188 89.7662C117.263 89.6537 117.369 89.5658 117.494 89.5137C117.618 89.4616 117.756 89.4477 117.888 89.4737C118.021 89.4997 118.142 89.5644 118.238 89.6596C118.334 89.7549 118.399 89.8764 118.426 90.0088C118.452 90.1412 118.439 90.2785 118.387 90.4033C118.336 90.5281 118.248 90.6348 118.136 90.7099C118.024 90.7849 117.892 90.825 117.757 90.825C117.577 90.825 117.404 90.7536 117.276 90.6263C117.148 90.499 117.076 90.3263 117.075 90.146Z" fill="#FFC727"/>
<path d="M149.491 89.0508V89.3633V90.0393H149.803V89.3633H150.479V89.0508H149.803H149.491Z" fill="white"/>
<path d="M151.528 89.0508H150.849V89.3633H151.528V90.0393H151.841V89.3633V89.0508H151.528Z" fill="white"/>
<path d="M151.528 91.0237H150.849V91.3361H151.528H151.841V91.0237V90.3477H151.528V91.0237Z" fill="white"/>
<path d="M149.803 90.3477H149.491V91.0237V91.3361H149.803H150.479V91.0237H149.803V90.3477Z" fill="white"/>
<path d="M26.9058 89.1562V91.1363L28.5042 90.1478L26.9058 89.1562Z" fill="white"/>
<path d="M29.3693 90.1752C29.3672 90.0954 29.3892 90.0169 29.4324 89.9498C29.451 89.9193 29.477 89.8939 29.508 89.8761C29.539 89.8582 29.574 89.8485 29.6097 89.8477C29.6445 89.8489 29.6785 89.8589 29.7084 89.8768C29.7383 89.8946 29.7633 89.9198 29.781 89.9498C29.8242 90.0169 29.8462 90.0954 29.844 90.1752C29.8465 90.2549 29.8245 90.3336 29.781 90.4005C29.7635 90.4309 29.7386 90.4565 29.7087 90.4749C29.6788 90.4932 29.6447 90.5038 29.6097 90.5057C29.5737 90.5043 29.5387 90.4939 29.5077 90.4755C29.4768 90.4572 29.4509 90.4314 29.4324 90.4005C29.3889 90.3336 29.3668 90.2549 29.3693 90.1752ZM29.7419 90.1752C29.7414 90.1162 29.7259 90.0583 29.6968 90.0069C29.6895 89.9894 29.6772 89.9745 29.6614 89.9641C29.6456 89.9536 29.6271 89.948 29.6082 89.948C29.5893 89.948 29.5708 89.9536 29.555 89.9641C29.5392 89.9745 29.5269 89.9894 29.5196 90.0069C29.4892 90.0577 29.4736 90.116 29.4745 90.1752C29.4726 90.2345 29.4883 90.293 29.5196 90.3434C29.5269 90.3609 29.5392 90.3758 29.555 90.3862C29.5708 90.3967 29.5893 90.4023 29.6082 90.4023C29.6271 90.4023 29.6456 90.3967 29.6614 90.3862C29.6772 90.3758 29.6895 90.3609 29.6968 90.3434C29.7262 90.2922 29.7418 90.2342 29.7419 90.1752Z" fill="white"/>
<path d="M30.0393 90.1752C30.0386 90.0956 30.0605 90.0174 30.1024 89.9498C30.1211 89.9193 30.1471 89.8939 30.178 89.8761C30.209 89.8582 30.244 89.8485 30.2797 89.8477C30.3149 89.8492 30.3491 89.8593 30.3795 89.8771C30.4099 89.8949 30.4354 89.9199 30.454 89.9498C30.4948 90.0178 30.5157 90.0959 30.5141 90.1752C30.5162 90.2545 30.4953 90.3327 30.454 90.4005C30.4356 90.4308 30.4101 90.4562 30.3798 90.4745C30.3494 90.4928 30.3151 90.5035 30.2797 90.5057C30.2437 90.5043 30.2087 90.4939 30.1777 90.4755C30.1468 90.4572 30.1209 90.4314 30.1024 90.4005C30.0602 90.333 30.0383 90.2548 30.0393 90.1752ZM30.4119 90.1752C30.4128 90.116 30.3972 90.0577 30.3668 90.0069C30.3595 89.9894 30.3472 89.9745 30.3314 89.9641C30.3156 89.9536 30.2971 89.948 30.2782 89.948C30.2593 89.948 30.2408 89.9536 30.225 89.9641C30.2092 89.9745 30.1969 89.9894 30.1896 90.0069C30.1592 90.0577 30.1436 90.116 30.1445 90.1752C30.1426 90.2345 30.1583 90.293 30.1896 90.3434C30.1969 90.3609 30.2092 90.3758 30.225 90.3862C30.2408 90.3967 30.2593 90.4023 30.2782 90.4023C30.2971 90.4023 30.3156 90.3967 30.3314 90.3862C30.3472 90.3758 30.3595 90.3609 30.3668 90.3434C30.3981 90.293 30.4138 90.2345 30.4119 90.1752Z" fill="white"/>
<path d="M30.7996 89.9961C30.8087 89.9961 30.8177 89.9979 30.8261 90.0013C30.8345 90.0048 30.8421 90.0099 30.8485 90.0163C30.8549 90.0227 30.86 90.0304 30.8635 90.0387C30.867 90.0471 30.8687 90.0561 30.8687 90.0652C30.8687 90.0743 30.867 90.0833 30.8635 90.0916C30.86 90.1 30.8549 90.1076 30.8485 90.1141C30.8421 90.1205 30.8345 90.1256 30.8261 90.129C30.8177 90.1325 30.8087 90.1343 30.7996 90.1343C30.7906 90.1343 30.7816 90.1325 30.7732 90.129C30.7648 90.1256 30.7572 90.1205 30.7508 90.1141C30.7444 90.1076 30.7393 90.1 30.7358 90.0916C30.7323 90.0833 30.7305 90.0743 30.7305 90.0652C30.7305 90.0561 30.7323 90.0471 30.7358 90.0387C30.7393 90.0304 30.7444 90.0227 30.7508 90.0163C30.7572 90.0099 30.7648 90.0048 30.7732 90.0013C30.7816 89.9979 30.7906 89.9961 30.7996 89.9961ZM30.7996 90.3687C30.8091 90.3687 30.8185 90.3705 30.8272 90.3741C30.836 90.3778 30.8439 90.3831 30.8506 90.3898C30.8573 90.3965 30.8626 90.4044 30.8663 90.4132C30.8699 90.4219 30.8717 90.4313 30.8717 90.4408C30.8718 90.4501 30.8699 90.4593 30.8662 90.4679C30.8626 90.4765 30.8572 90.4843 30.8505 90.4907C30.8437 90.4972 30.8357 90.5022 30.827 90.5055C30.8183 90.5088 30.809 90.5103 30.7996 90.5099C30.7813 90.5099 30.7637 90.5026 30.7508 90.4896C30.7378 90.4767 30.7305 90.4591 30.7305 90.4408C30.7301 90.4314 30.7316 90.4221 30.7349 90.4134C30.7382 90.4047 30.7432 90.3967 30.7497 90.3899C30.7561 90.3832 30.7639 90.3778 30.7725 90.3742C30.7811 90.3705 30.7903 90.3686 30.7996 90.3687Z" fill="white"/>
<path d="M30.9377 90.1752C30.9356 90.0954 30.9576 90.0169 31.0008 89.9498C31.0187 89.9193 31.0441 89.894 31.0746 89.8761C31.1051 89.8582 31.1397 89.8484 31.1751 89.8477C31.2103 89.8487 31.2448 89.8586 31.2752 89.8764C31.3057 89.8943 31.3312 89.9195 31.3493 89.9498C31.3925 90.0169 31.4145 90.0954 31.4124 90.1752C31.4149 90.2549 31.3929 90.3336 31.3493 90.4005C31.3313 90.4311 31.306 90.4568 31.2755 90.4752C31.2451 90.4936 31.2106 90.504 31.1751 90.5057C31.1395 90.5043 31.1048 90.4939 31.0744 90.4755C31.0439 90.4572 31.0186 90.4313 31.0008 90.4005C30.9572 90.3336 30.9352 90.2549 30.9377 90.1752ZM31.3073 90.1752C31.3082 90.116 31.2925 90.0577 31.2622 90.0069C31.2534 89.991 31.2409 89.9775 31.2257 89.9675C31.2105 89.9576 31.1931 89.9515 31.1751 89.9498C31.1566 89.9517 31.1389 89.9579 31.1233 89.9678C31.1077 89.9777 31.0945 89.9911 31.0849 90.0069C31.0559 90.0583 31.0404 90.1162 31.0398 90.1752C31.04 90.2342 31.0555 90.2922 31.0849 90.3434C31.0945 90.3592 31.1077 90.3726 31.1233 90.3825C31.1389 90.3924 31.1566 90.3986 31.1751 90.4005C31.1931 90.3988 31.2105 90.3927 31.2257 90.3828C31.2409 90.3728 31.2534 90.3593 31.2622 90.3434C31.2935 90.293 31.3092 90.2345 31.3073 90.1752Z" fill="white"/>
<path d="M31.6079 90.1752C31.6057 90.0954 31.6277 90.0169 31.6709 89.9498C31.6889 89.9193 31.7143 89.894 31.7448 89.8761C31.7753 89.8582 31.8099 89.8484 31.8452 89.8477C31.8805 89.8487 31.915 89.8586 31.9454 89.8764C31.9759 89.8943 32.0013 89.9195 32.0195 89.9498C32.0627 90.0169 32.0847 90.0954 32.0826 90.1752C32.0851 90.2549 32.063 90.3336 32.0195 90.4005C32.0015 90.4311 31.9761 90.4568 31.9457 90.4752C31.9153 90.4936 31.8807 90.504 31.8452 90.5057C31.8096 90.5043 31.775 90.4939 31.7445 90.4755C31.714 90.4572 31.6887 90.4313 31.6709 90.4005C31.6274 90.3336 31.6054 90.2549 31.6079 90.1752ZM31.9774 90.1752C31.9783 90.116 31.9627 90.0577 31.9323 90.0069C31.9236 89.991 31.9111 89.9775 31.8959 89.9675C31.8807 89.9576 31.8633 89.9515 31.8452 89.9498C31.8268 89.9517 31.8091 89.9579 31.7935 89.9678C31.7778 89.9777 31.7647 89.9911 31.7551 90.0069C31.7261 90.0583 31.7105 90.1162 31.71 90.1752C31.7101 90.2342 31.7257 90.2922 31.7551 90.3434C31.7647 90.3592 31.7778 90.3726 31.7935 90.3825C31.8091 90.3924 31.8268 90.3986 31.8452 90.4005C31.8633 90.3988 31.8807 90.3927 31.8959 90.3828C31.9111 90.3728 31.9236 90.3593 31.9323 90.3434C31.9668 90.294 31.9857 90.2354 31.9864 90.1752H31.9774Z" fill="white"/>
<path d="M145.69 90.1762C145.69 90.0966 145.711 90.0185 145.753 89.9508C145.771 89.9195 145.796 89.8935 145.827 89.8754C145.858 89.8572 145.893 89.8477 145.929 89.8477C145.965 89.8477 146 89.8572 146.031 89.8754C146.062 89.8935 146.087 89.9195 146.105 89.9508C146.147 90.0185 146.169 90.0966 146.168 90.1762C146.169 90.2558 146.147 90.334 146.105 90.4015C146.088 90.4336 146.063 90.4605 146.032 90.4793C146.001 90.4981 145.965 90.508 145.929 90.508C145.893 90.508 145.857 90.4981 145.826 90.4793C145.795 90.4605 145.77 90.4336 145.753 90.4015C145.711 90.334 145.689 90.2558 145.69 90.1762ZM146.063 90.1762C146.064 90.117 146.048 90.0587 146.018 90.0079C146.01 89.9905 145.998 89.9756 145.982 89.9651C145.967 89.9546 145.948 89.949 145.929 89.949C145.91 89.949 145.892 89.9546 145.876 89.9651C145.86 89.9756 145.848 89.9905 145.84 90.0079C145.81 90.0587 145.794 90.117 145.795 90.1762C145.793 90.2355 145.809 90.294 145.84 90.3444C145.848 90.3619 145.86 90.3768 145.876 90.3873C145.892 90.3977 145.91 90.4033 145.929 90.4033C145.948 90.4033 145.967 90.3977 145.982 90.3873C145.998 90.3768 146.01 90.3619 146.018 90.3444C146.049 90.294 146.065 90.2355 146.063 90.1762Z" fill="white"/>
<path d="M146.709 90.1072C146.741 90.14 146.764 90.1817 146.773 90.227C146.782 90.2723 146.777 90.3193 146.759 90.362C146.742 90.4047 146.712 90.4413 146.673 90.467C146.635 90.4928 146.59 90.5066 146.544 90.5068C146.483 90.5058 146.424 90.481 146.381 90.4377C146.374 90.4273 146.371 90.4148 146.372 90.4022C146.374 90.3897 146.379 90.378 146.388 90.3691C146.397 90.3602 146.409 90.3547 146.421 90.3535C146.434 90.3523 146.446 90.3555 146.457 90.3626C146.468 90.375 146.482 90.3848 146.497 90.3916C146.513 90.3983 146.53 90.4018 146.547 90.4018C146.564 90.4018 146.58 90.3983 146.596 90.3916C146.611 90.3848 146.625 90.375 146.637 90.3626C146.661 90.3387 146.674 90.3063 146.674 90.2725C146.674 90.2387 146.661 90.2062 146.637 90.1823C146.613 90.1584 146.58 90.145 146.547 90.145C146.513 90.145 146.48 90.1584 146.457 90.1823C146.446 90.1921 146.433 90.1975 146.419 90.1975C146.405 90.1975 146.391 90.1921 146.381 90.1823C146.38 90.1796 146.379 90.1765 146.379 90.1733C146.379 90.1701 146.38 90.167 146.381 90.1643L146.408 89.9209C146.412 89.9063 146.42 89.8935 146.432 89.8849C146.44 89.8821 146.449 89.8821 146.457 89.8849H146.736C146.743 89.8845 146.75 89.8855 146.756 89.8879C146.763 89.8902 146.769 89.8939 146.774 89.8987C146.779 89.9035 146.783 89.9093 146.786 89.9157C146.789 89.9221 146.79 89.929 146.79 89.936C146.79 89.9503 146.784 89.964 146.774 89.9742C146.764 89.9843 146.75 89.99 146.736 89.99H146.505V90.0832H146.568C146.616 90.0763 146.665 90.0847 146.709 90.1072Z" fill="white"/>
<path d="M147.021 89.9961C147.03 89.9961 147.039 89.9979 147.048 90.0013C147.056 90.0048 147.064 90.0099 147.07 90.0163C147.077 90.0227 147.082 90.0304 147.085 90.0387C147.089 90.0471 147.09 90.0561 147.09 90.0652C147.09 90.0743 147.089 90.0833 147.085 90.0916C147.082 90.1 147.077 90.1076 147.07 90.1141C147.064 90.1205 147.056 90.1256 147.048 90.129C147.039 90.1325 147.03 90.1343 147.021 90.1343C147.012 90.1343 147.003 90.1325 146.995 90.129C146.986 90.1256 146.979 90.1205 146.972 90.1141C146.966 90.1076 146.961 90.1 146.957 90.0916C146.954 90.0833 146.952 90.0743 146.952 90.0652C146.952 90.0561 146.954 90.0471 146.957 90.0387C146.961 90.0304 146.966 90.0227 146.972 90.0163C146.979 90.0099 146.986 90.0048 146.995 90.0013C147.003 89.9979 147.012 89.9961 147.021 89.9961ZM147.021 90.3687C147.031 90.3687 147.04 90.3705 147.049 90.3741C147.058 90.3778 147.066 90.3831 147.072 90.3898C147.079 90.3965 147.084 90.4044 147.088 90.4132C147.092 90.4219 147.093 90.4313 147.093 90.4408C147.093 90.4501 147.092 90.4593 147.088 90.4679C147.084 90.4765 147.079 90.4843 147.072 90.4907C147.065 90.4972 147.057 90.5022 147.049 90.5055C147.04 90.5088 147.031 90.5103 147.021 90.5099C147.003 90.5099 146.985 90.5026 146.972 90.4896C146.959 90.4767 146.952 90.4591 146.952 90.4408C146.952 90.4314 146.953 90.4221 146.957 90.4134C146.96 90.4047 146.965 90.3967 146.971 90.3899C146.978 90.3832 146.986 90.3778 146.994 90.3742C147.003 90.3705 147.012 90.3686 147.021 90.3687Z" fill="white"/>
<path d="M147.514 90.106C147.536 90.1273 147.554 90.153 147.566 90.1814C147.578 90.2099 147.584 90.2405 147.583 90.2713C147.583 90.3021 147.577 90.3325 147.565 90.3609C147.553 90.3893 147.536 90.415 147.514 90.4365C147.493 90.4585 147.467 90.476 147.439 90.4879C147.41 90.4998 147.38 90.506 147.349 90.506C147.318 90.506 147.288 90.4998 147.259 90.4879C147.231 90.476 147.205 90.4585 147.184 90.4365C147.177 90.4261 147.173 90.4136 147.175 90.4011C147.176 90.3886 147.181 90.3768 147.19 90.3679C147.199 90.3591 147.211 90.3535 147.223 90.3524C147.236 90.3512 147.248 90.3544 147.259 90.3614C147.283 90.3844 147.315 90.3973 147.349 90.3975C147.366 90.3977 147.382 90.3947 147.398 90.3885C147.413 90.3823 147.427 90.3731 147.439 90.3614C147.451 90.3499 147.461 90.3359 147.468 90.3204C147.475 90.3049 147.478 90.2882 147.478 90.2713C147.478 90.2543 147.475 90.2375 147.468 90.2219C147.462 90.2064 147.452 90.1925 147.439 90.1812C147.416 90.1575 147.385 90.1435 147.352 90.1421C147.345 90.1429 147.337 90.142 147.331 90.1394C147.324 90.1368 147.318 90.1326 147.313 90.1271C147.308 90.1223 147.304 90.1165 147.301 90.11C147.298 90.1036 147.296 90.0966 147.296 90.0895C147.296 90.0825 147.298 90.0755 147.301 90.069C147.304 90.0626 147.308 90.0567 147.313 90.052L147.409 89.9558H147.256C147.241 89.9558 147.228 89.9501 147.218 89.94C147.207 89.9298 147.202 89.9161 147.202 89.9017C147.202 89.8874 147.207 89.8736 147.218 89.8635C147.228 89.8533 147.241 89.8477 147.256 89.8477H147.532C147.547 89.8477 147.56 89.8533 147.57 89.8635C147.581 89.8736 147.586 89.8874 147.586 89.9017C147.588 89.9097 147.588 89.9178 147.586 89.9258L147.466 90.046C147.486 90.0623 147.503 90.0828 147.514 90.106Z" fill="white"/>
<path d="M148.076 90.1074C148.098 90.1287 148.116 90.1543 148.128 90.1828C148.14 90.2112 148.146 90.2418 148.145 90.2727C148.144 90.3341 148.12 90.3928 148.077 90.4365C148.033 90.4802 147.975 90.5055 147.914 90.507C147.852 90.5068 147.792 90.4819 147.748 90.4379C147.741 90.4275 147.738 90.415 147.739 90.4024C147.74 90.3899 147.746 90.3782 147.755 90.3693C147.764 90.3604 147.775 90.3549 147.788 90.3537C147.801 90.3525 147.813 90.3557 147.823 90.3628C147.848 90.3871 147.882 90.4011 147.917 90.4019C147.95 90.3997 147.981 90.3853 148.004 90.3614C148.028 90.3376 148.041 90.306 148.043 90.2727C148.043 90.2557 148.04 90.2389 148.033 90.2233C148.026 90.2077 148.016 90.1938 148.004 90.1825C147.98 90.1597 147.949 90.1468 147.917 90.1465C147.882 90.1467 147.849 90.1596 147.823 90.1825C147.819 90.1877 147.813 90.1919 147.806 90.1947C147.8 90.1975 147.793 90.199 147.786 90.199C147.779 90.199 147.772 90.1975 147.765 90.1947C147.759 90.1919 147.753 90.1877 147.748 90.1825V90.1645L147.778 89.9211C147.779 89.9137 147.782 89.9065 147.786 89.9002C147.79 89.894 147.796 89.8888 147.802 89.8851C147.81 89.8821 147.819 89.8821 147.826 89.8851H148.103C148.11 89.8847 148.117 89.8857 148.123 89.8881C148.13 89.8904 148.136 89.8941 148.141 89.8989C148.146 89.9037 148.15 89.9095 148.153 89.9159C148.156 89.9223 148.157 89.9292 148.157 89.9362C148.157 89.9505 148.151 89.9642 148.141 89.9744C148.131 89.9845 148.117 89.9902 148.103 89.9902H147.872V90.0834C147.892 90.0802 147.914 90.0802 147.935 90.0834C147.983 90.0765 148.032 90.0849 148.076 90.1074Z" fill="white"/>
<path d="M34.8137 28.2143C37.3194 28.2143 39.3506 26.1831 39.3506 23.6775C39.3506 21.1718 37.3194 19.1406 34.8137 19.1406C32.3081 19.1406 30.2769 21.1718 30.2769 23.6775C30.2769 26.1831 32.3081 28.2143 34.8137 28.2143Z" fill="#C7C7C7"/>
<path d="M37.3945 27.4042C37.2923 27.4763 37.1811 27.5454 37.07 27.6115C36.6574 27.848 36.2103 28.0183 35.745 28.1163C35.7149 28.0201 35.6819 27.927 35.6548 27.8158L35.5647 27.5334L35.5016 27.3141C35.4806 27.248 35.4655 27.1849 35.4475 27.1248C35.4295 27.0647 35.4145 27.0046 35.4024 26.9475C35.3904 26.8904 35.3754 26.8394 35.3634 26.7883L35.3454 26.6921C35.3454 26.6741 35.3454 26.6561 35.3454 26.638C35.3454 26.62 35.3273 26.5389 35.3213 26.4938C35.3153 26.4488 35.3213 26.4217 35.3213 26.3917V26.3045C35.3213 26.2835 35.3213 26.2625 35.3213 26.2414C35.309 26.1218 35.3224 26.001 35.3604 25.8869C35.3716 25.8527 35.3904 25.8214 35.4154 25.7954C35.4403 25.7694 35.4708 25.7493 35.5046 25.7367H35.5527C35.5746 25.7336 35.5968 25.7336 35.6188 25.7367H35.6488C35.6688 25.7339 35.689 25.7339 35.7089 25.7367C35.9464 25.8252 36.1662 25.9554 36.3579 26.1213C36.7324 26.5246 37.0788 26.9533 37.3945 27.4042Z" fill="#FFC727"/>
<path opacity="0.1" d="M37.0762 27.6118C36.6636 27.8482 36.2165 28.0186 35.7512 28.1166C35.6881 27.9273 35.631 27.738 35.5709 27.5487L35.5078 27.3294C35.4868 27.2633 35.4717 27.2002 35.4537 27.1401C35.4357 27.08 35.4207 27.0199 35.4086 26.9628C35.3966 26.9057 35.3816 26.8547 35.3696 26.8036L35.3515 26.7074V26.6533C35.3515 26.6023 35.3335 26.5542 35.3275 26.5091C35.3215 26.4641 35.3275 26.44 35.3275 26.407C35.2972 26.2389 35.3065 26.0661 35.3546 25.9022C35.3658 25.868 35.3846 25.8367 35.4095 25.8107C35.4345 25.7847 35.465 25.7646 35.4988 25.752C35.5364 25.7441 35.5753 25.7441 35.6129 25.752H35.643L35.6911 25.8121L35.7211 25.8511L37.0491 27.5517L37.0762 27.6118Z" fill="black"/>
<path d="M37.07 27.6126C36.6574 27.849 36.2103 28.0193 35.745 28.1173C34.988 28.2753 34.2032 28.2381 33.4646 28.0092L33.4075 27.9911C33.0931 27.8906 32.7908 27.7555 32.5061 27.5885C32.6974 27.1396 32.933 26.7109 33.2092 26.3086C33.3389 26.1363 33.4927 25.9835 33.6659 25.8549L33.729 25.8068L33.786 25.7708L33.8672 25.7197H33.8882C33.9363 25.6897 33.9903 25.6626 34.0414 25.6356C34.2988 25.5067 34.5871 25.4525 34.8737 25.4793C35.133 25.4989 35.3817 25.5905 35.5918 25.7437L35.6789 25.8098L35.7059 25.8339C36.2197 26.347 36.666 26.9235 37.034 27.5495L37.07 27.6126Z" fill="#FFC727"/>
<path d="M33.8282 27.0106C33.693 27.3111 33.5518 27.6566 33.4076 27.9931C33.0932 27.8925 32.7909 27.7575 32.5062 27.5905C32.3412 27.4948 32.1826 27.3884 32.0315 27.272C32.2989 26.9715 32.5663 26.6891 32.8247 26.4457C33.0696 26.1999 33.3539 25.9967 33.666 25.8448C33.7145 25.8252 33.7648 25.8101 33.8162 25.7998C33.8568 25.7907 33.8988 25.7907 33.9394 25.7998C33.9615 25.8035 33.9825 25.8119 34.0012 25.8243C34.0198 25.8367 34.0356 25.8529 34.0475 25.8719C34.07 25.9038 34.0834 25.9412 34.0866 25.98C34.0862 26.3395 33.9975 26.6934 33.8282 27.0106Z" fill="#EB9481"/>
<path d="M34.1467 26.0455C34.121 26.3162 34.052 26.5809 33.9424 26.8297C33.8343 27.1031 33.666 27.5208 33.4647 28.0015L33.4076 27.9835C33.0932 27.8829 32.791 27.7479 32.5063 27.5809C32.3412 27.4852 32.1826 27.3788 32.0315 27.2624L31.9023 27.1572C32.3273 26.7317 32.7899 26.3456 33.2844 26.0035C33.4083 25.9213 33.5402 25.8518 33.678 25.7962C33.713 25.7819 33.7492 25.7708 33.7862 25.7631C33.8545 25.7404 33.9282 25.7404 33.9965 25.7631C34.0134 25.7685 34.0289 25.7778 34.0416 25.7901C34.077 25.8222 34.1048 25.8618 34.123 25.906C34.1412 25.9501 34.1493 25.9978 34.1467 26.0455Z" fill="#FFC727"/>
<path d="M34.0655 25.9346C34.1136 26.0758 34.8347 26.896 35.4717 26.6827C35.9193 26.5325 35.6489 25.6251 35.6489 25.6251L35.7992 24.2881L34.0475 23.4258C34.0475 23.4258 34.0445 25.8745 34.0655 25.9346Z" fill="#EB9481"/>
<path d="M34.0474 24.2851C34.2144 24.5953 34.4437 24.8677 34.7208 25.0854C34.9978 25.303 35.3168 25.4612 35.6578 25.55L35.802 24.2881L34.0474 23.4258V24.2851Z" fill="#263238"/>
<path d="M35.0779 24.4248C35.6457 25.2871 37.0068 25.4042 37.8541 24.9325C37.5607 24.5146 37.3393 24.0505 37.1991 23.5594C37.1103 23.0923 37.075 22.6165 37.0939 22.1413C37.0939 21.928 37.0939 21.7147 37.0639 21.5013C37.0645 21.2895 37.0331 21.0788 36.9707 20.8764C36.7604 20.3205 35.8891 20.3476 35.7689 20.4738C35.0268 21.3361 34.4319 23.4423 35.0779 24.4248Z" fill="#263238"/>
<path d="M35.2913 23.8175C35.3422 24.0677 35.4457 24.3042 35.5948 24.5114C35.744 24.7186 35.9355 24.8917 36.1566 25.0194C36.4012 25.1494 36.6702 25.2269 36.9465 25.2471C37.2227 25.2673 37.5001 25.2296 37.761 25.1365C37.761 25.1365 37.7791 25.1365 37.761 25.1365C37.5053 25.2482 37.2282 25.3021 36.9493 25.2943C36.6704 25.2865 36.3966 25.2172 36.1476 25.0915C35.908 24.967 35.7014 24.7874 35.5447 24.5675C35.388 24.3476 35.2857 24.0937 35.2462 23.8266C35.2432 23.8025 35.2913 23.7965 35.2913 23.8175Z" fill="#263238"/>
<path d="M34.9399 23.6421C35.03 24.1328 35.3 24.5721 35.6971 24.874C36.1403 25.231 36.7002 25.4109 37.2685 25.3788C37.2685 25.3788 37.2865 25.3998 37.2685 25.3998C36.9767 25.43 36.6819 25.4024 36.4009 25.3183C36.1198 25.2343 35.8582 25.0955 35.631 24.91C35.4249 24.764 35.253 24.575 35.1269 24.3561C35.0009 24.1372 34.9238 23.8937 34.9009 23.6421C34.9024 23.6382 34.9051 23.6349 34.9086 23.6325C34.9121 23.6302 34.9162 23.6289 34.9204 23.6289C34.9246 23.6289 34.9287 23.6302 34.9322 23.6325C34.9357 23.6349 34.9384 23.6382 34.9399 23.6421Z" fill="#263238"/>
<path d="M36.9499 21.3156C36.9562 21.9146 37.0339 22.5107 37.1813 23.0913C37.347 23.6854 37.6023 24.2507 37.9384 24.7678C37.9384 24.7678 37.9384 24.7889 37.9234 24.7678C37.5675 24.2744 37.2964 23.725 37.1212 23.1424C36.9301 22.5484 36.8586 21.9224 36.9109 21.3006C36.9132 21.296 36.9172 21.2923 36.9221 21.2905C36.9269 21.2886 36.9323 21.2886 36.9372 21.2905C36.942 21.2923 36.946 21.2959 36.9484 21.3006C36.9508 21.3052 36.9513 21.3106 36.9499 21.3156Z" fill="#263238"/>
<path d="M37.3224 22.2911C37.6709 24.4694 36.421 24.92 35.9343 24.9952C35.5076 25.0643 34.0444 25.2385 33.4736 23.1083C32.9027 20.9781 33.8071 20.1308 34.7745 19.9265C35.742 19.7222 36.9769 20.1158 37.3224 22.2911Z" fill="#EB9481"/>
<path d="M36.8207 22.0647C36.7702 22.0607 36.72 22.0537 36.6704 22.0437C36.616 22.0442 36.5631 22.0262 36.5202 21.9926C36.5095 21.9789 36.5037 21.962 36.5037 21.9446C36.5037 21.9271 36.5095 21.9102 36.5202 21.8965C36.5439 21.871 36.5737 21.852 36.6069 21.8415C36.6401 21.8309 36.6754 21.8292 36.7095 21.8364C36.7803 21.8434 36.8463 21.8754 36.8958 21.9265C36.9069 21.9395 36.9138 21.9555 36.9156 21.9725C36.9174 21.9894 36.914 22.0065 36.9059 22.0215C36.8977 22.0365 36.8852 22.0487 36.87 22.0564C36.8548 22.0641 36.8376 22.067 36.8207 22.0647Z" fill="#263238"/>
<path d="M35.2643 22.2029C35.3141 22.1917 35.3633 22.1777 35.4115 22.1609C35.4652 22.153 35.5149 22.1277 35.5527 22.0887C35.563 22.0748 35.5685 22.058 35.5685 22.0407C35.5685 22.0234 35.563 22.0065 35.5527 21.9926C35.5256 21.971 35.4933 21.9568 35.4591 21.9515C35.4248 21.9463 35.3898 21.9501 35.3574 21.9626C35.2867 21.9764 35.2241 22.0174 35.1832 22.0767C35.1753 22.0901 35.1713 22.1055 35.1716 22.121C35.172 22.1365 35.1766 22.1517 35.185 22.1647C35.1934 22.1778 35.2052 22.1883 35.2192 22.195C35.2332 22.2018 35.2488 22.2045 35.2643 22.2029Z" fill="#263238"/>
<path d="M35.6249 22.6641C35.6249 22.6641 35.6249 22.6641 35.6249 22.6791C35.6459 22.8263 35.6429 23.0036 35.5107 23.0637C35.664 23.0396 35.667 22.8023 35.6249 22.6641Z" fill="#263238"/>
<path d="M35.4745 22.5235C35.2312 22.5235 35.2582 23.0132 35.4745 23.0102C35.6909 23.0072 35.6788 22.5204 35.4745 22.5235Z" fill="#263238"/>
<path d="M35.3815 22.5538C35.3394 22.5839 35.3004 22.6349 35.2493 22.6439C35.1982 22.653 35.1441 22.6049 35.1021 22.5568C35.1021 22.65 35.1471 22.7431 35.2493 22.7521C35.3514 22.7611 35.4025 22.674 35.4205 22.5778C35.4145 22.5688 35.3965 22.5418 35.3815 22.5538Z" fill="#263238"/>
<path d="M36.5291 22.6055C36.5291 22.7557 36.5622 22.927 36.7004 22.969C36.5442 22.978 36.5081 22.7407 36.5291 22.6055Z" fill="#263238"/>
<path d="M36.6583 22.4427C36.8987 22.4127 36.9408 22.8964 36.7184 22.9235C36.4961 22.9505 36.454 22.4698 36.6583 22.4427Z" fill="#263238"/>
<path d="M36.7605 22.4669C36.8026 22.491 36.8446 22.533 36.8897 22.533C36.9348 22.533 36.9768 22.476 37.0069 22.4219C37.0069 22.515 37.0069 22.6142 36.9077 22.6382C36.8086 22.6622 36.7605 22.5871 36.7305 22.497C36.7335 22.488 36.7455 22.4579 36.7605 22.4669Z" fill="#263238"/>
<path d="M35.7061 23.8944C35.7421 23.9304 35.7752 23.9815 35.8293 23.9905C35.8847 23.9935 35.9401 23.9843 35.9915 23.9635C35.9679 23.9911 35.9374 24.012 35.9031 24.0242C35.8688 24.0363 35.832 24.0392 35.7962 24.0326C35.7664 24.0217 35.7403 24.0027 35.7206 23.9777C35.701 23.9528 35.6887 23.9229 35.6851 23.8914C35.6851 23.8914 35.7031 23.8884 35.7061 23.8944Z" fill="#263238"/>
<path d="M36.2076 23.6433C36.1589 23.7152 36.0913 23.7724 36.0123 23.8086C35.9685 23.8237 35.9209 23.8237 35.8771 23.8086C35.775 23.7875 35.769 23.6974 35.784 23.6163C35.7925 23.5749 35.8056 23.5346 35.823 23.4961C35.9316 23.586 36.0668 23.6377 36.2076 23.6433Z" fill="#263238"/>
<path d="M36.0123 23.8173C35.9685 23.8324 35.9209 23.8324 35.8771 23.8173C35.775 23.7963 35.769 23.7061 35.784 23.625C35.8385 23.6255 35.8911 23.645 35.9327 23.6801C35.9744 23.7152 36.0025 23.7637 36.0123 23.8173Z" fill="#FF98B9"/>
<path d="M32.389 22.3076C32.422 22.714 32.3719 23.1229 32.2418 23.5094C32.0979 23.8206 32.0202 24.1582 32.0134 24.5009C32.0585 25.1228 32.6774 25.4954 33.2363 25.7207C33.8212 25.873 34.4396 25.833 34.9999 25.6066C35.03 25.6066 32.5062 23.1158 34.3029 20.0842C34.0906 20.0731 33.8782 20.1043 33.6781 20.176C33.478 20.2477 33.2941 20.3585 33.1371 20.5018C32.8662 20.7118 32.6547 20.9888 32.5235 21.3054C32.3923 21.6221 32.3459 21.9675 32.389 22.3076Z" fill="#263238"/>
<path d="M32.2869 22.1147C32.308 21.6641 32.4734 21.2322 32.7586 20.8828C32.4855 21.2571 32.3325 21.7056 32.32 22.1688C32.3408 22.5634 32.2941 22.9587 32.1817 23.3375C32.0764 23.537 32.0033 23.7521 31.9654 23.9745C31.9485 24.1963 31.9888 24.4187 32.0826 24.6205C32.1891 24.832 32.3363 25.0205 32.5157 25.1752C32.6951 25.3299 32.9032 25.4476 33.1282 25.5218C33.1282 25.5218 33.1282 25.5489 33.1282 25.5459C32.3109 25.2905 31.692 24.4432 32.0195 23.629C32.1364 23.3866 32.2174 23.1285 32.2599 22.8628C32.2869 22.6134 32.2869 22.361 32.2869 22.1147Z" fill="#263238"/>
<path d="M32.2867 22.2898C32.2689 22.0491 32.3008 21.8072 32.3804 21.5792C32.46 21.3513 32.5856 21.1422 32.7494 20.9648C32.3048 21.3945 32.3168 22.0375 32.3108 22.6083C32.319 22.8927 32.2876 23.1768 32.2176 23.4526C32.0973 23.7099 31.9969 23.9761 31.9172 24.2488C31.8331 24.8497 32.3018 25.3485 32.8336 25.5558C33.4165 25.7841 34.0114 25.697 34.6153 25.679C34.6153 25.679 34.6363 25.703 34.6153 25.706C33.774 25.8262 32.6233 25.8202 32.0824 25.039C31.9709 24.8856 31.9007 24.7061 31.8786 24.5177C31.8565 24.3293 31.8833 24.1384 31.9562 23.9634C32.0887 23.6991 32.1847 23.4182 32.2417 23.1281C32.2714 22.8497 32.2865 22.5699 32.2867 22.2898Z" fill="#263238"/>
<path d="M33.6869 23.1683C34.1406 23.1143 34.0505 22.0687 34.0505 22.0687C34.0505 22.0687 34.8046 21.8433 35.066 21.2875C34.9753 21.551 34.8229 21.789 34.6214 21.9816C34.5733 22.0176 36.1236 21.6811 36.1236 20.4793C36.1236 20.4793 36.4812 21.639 37.2203 21.8043C37.2563 21.8043 37.001 20.7377 36.7426 20.5093C36.4493 20.2513 36.1005 20.0642 35.7233 19.9626C35.3461 19.861 34.9505 19.8476 34.5673 19.9234C33.6238 20.1668 33.1041 21.2454 33.065 21.6661C33.032 22.4923 33.4706 23.1954 33.6869 23.1683Z" fill="#263238"/>
<path d="M34.6724 22.004C35.075 21.9675 35.4487 21.7792 35.7176 21.4774C35.9866 21.1755 36.1306 20.7827 36.1206 20.3785C36.1206 20.3545 36.1536 20.3515 36.1566 20.3785C36.3669 21.2499 35.4836 22.001 34.6544 22.025C34.6483 22.019 34.6544 22.007 34.6724 22.004Z" fill="#263238"/>
<path d="M33.6839 23.1204C34.1196 22.835 34.1436 22.3633 34.1286 21.8856C34.1286 21.8856 34.1496 21.8706 34.1526 21.8856C34.2097 22.3483 34.1857 22.9252 33.7049 23.1625C33.6994 23.1653 33.6929 23.1658 33.687 23.1638C33.6811 23.1618 33.6762 23.1576 33.6734 23.152C33.6706 23.1464 33.6701 23.14 33.6721 23.134C33.6741 23.1281 33.6783 23.1232 33.6839 23.1204Z" fill="#263238"/>
<path d="M36.1266 20.2969C36.2828 20.7746 36.394 21.5948 37.0279 21.6519V21.679C36.424 21.679 36.1145 20.8107 36.1266 20.2969Z" fill="#263238"/>
<path d="M34.0204 23.043C34.0204 23.043 33.5246 22.364 33.2152 22.5412C32.9057 22.7185 33.2873 23.71 33.6568 23.8392C33.7031 23.8591 33.7528 23.8694 33.8032 23.8696C33.8535 23.8697 33.9033 23.8596 33.9497 23.84C33.996 23.8203 34.0378 23.7915 34.0727 23.7552C34.1076 23.7189 34.1348 23.6759 34.1526 23.6289L34.0204 23.043Z" fill="#EB9481"/>
<path d="M33.3325 22.8359C33.452 22.8918 33.5582 22.9724 33.6442 23.0723C33.7301 23.1723 33.7939 23.2894 33.8313 23.4158C33.8157 23.3918 33.7952 23.3713 33.7713 23.3556C33.7474 23.3399 33.7205 23.3293 33.6922 23.3245C33.664 23.3197 33.6351 23.3208 33.6073 23.3277C33.5795 23.3346 33.5535 23.3472 33.5308 23.3647V23.3798C33.5755 23.3642 33.6238 23.3631 33.6691 23.3766C33.7144 23.3901 33.7543 23.4175 33.7832 23.4549C33.8322 23.5174 33.8745 23.5849 33.9094 23.6562C33.9094 23.6802 33.9635 23.6562 33.9545 23.6562C33.9485 23.3167 33.6841 22.863 33.3325 22.8359Z" fill="#263238"/>
<path d="M53.2195 20.0703H42.0095V20.4279H53.2195V20.0703Z" fill="#C7C7C7"/>
<path d="M61.3918 23.0312H42.0095V23.3888H61.3918V23.0312Z" fill="#EBEBEB"/>
<path d="M57.9456 24.3047H42.0095V24.6622H57.9456V24.3047Z" fill="#EBEBEB"/>
<path d="M118.61 75.4266C116.402 82.7968 105.273 81.7662 103.942 79.9845C98.5551 72.7736 91.9421 58.9828 87.8709 44.9966C84.3947 33.0596 88.4238 34.3515 92.8735 37.8398C95.7789 40.1172 119.797 71.4666 118.61 75.4266Z" fill="#FFC727"/>
<path d="M97.185 42.7461C96.9273 42.757 96.6778 42.8403 96.4653 42.9865C96.2527 43.1326 96.0856 43.3356 95.9831 43.5723C95.8936 43.8079 95.8697 44.0634 95.914 44.3115C95.9591 44.5278 95.9831 44.7441 96.0522 44.9725C96.1183 44.7441 96.1424 44.5278 96.1874 44.3115C96.2033 44.117 96.2662 43.9293 96.3707 43.7646C96.4675 43.6145 96.6012 43.4917 96.759 43.408C96.9168 43.3243 97.0935 43.2827 97.2721 43.2869C97.3798 43.2869 97.4871 43.2717 97.5906 43.2418L97.185 42.7461ZM105.874 66.2596C105.843 66.0374 105.797 65.8176 105.736 65.6016C105.679 65.806 105.658 66.0223 105.601 66.2596C105.588 66.4514 105.534 66.638 105.441 66.8065C105.354 66.9585 105.228 67.0848 105.076 67.1728C104.924 67.2609 104.752 67.3076 104.576 67.3082C104.308 67.3097 104.046 67.3888 103.821 67.5359C103.597 67.6831 103.42 67.892 103.311 68.1375C103.221 68.374 103.198 68.6309 103.245 68.8796C103.29 69.0959 103.311 69.3093 103.38 69.5376C103.449 69.3093 103.47 69.0959 103.519 68.8796C103.531 68.6849 103.593 68.4965 103.699 68.3328C103.795 68.1818 103.928 68.0583 104.086 67.9746C104.244 67.8908 104.421 67.8496 104.6 67.8551C104.869 67.8508 105.13 67.7644 105.348 67.6076C105.566 67.4508 105.731 67.231 105.82 66.9777C105.914 66.7502 105.932 66.4982 105.871 66.2596H105.874ZM114.93 75.3995C114.785 75.5289 114.609 75.6189 114.419 75.6609C114.245 75.6993 114.064 75.6936 113.893 75.6442C113.722 75.5949 113.566 75.5035 113.44 75.3784C113.251 75.1862 113.008 75.0568 112.744 75.0079C112.479 74.959 112.206 74.9929 111.961 75.105C111.739 75.2176 111.551 75.3864 111.414 75.5948C111.274 75.7723 111.145 75.9579 111.027 76.1506C111.228 76.0438 111.418 75.918 111.595 75.775C111.74 75.6439 111.917 75.5537 112.109 75.5136C112.276 75.4711 112.451 75.4716 112.618 75.5152C112.785 75.5588 112.939 75.6441 113.064 75.763C113.255 75.9518 113.497 76.0808 113.76 76.1342C114.023 76.1876 114.296 76.163 114.545 76.0635C114.775 75.9639 114.972 75.8014 115.113 75.5948C115.249 75.413 115.375 75.2234 115.489 75.0269C115.293 75.1501 115.11 75.2853 114.927 75.3995H114.93ZM101.13 55.7497C100.937 55.7374 100.752 55.6707 100.595 55.5575C100.442 55.4643 100.318 55.331 100.236 55.172C100.154 55.0131 100.117 54.8346 100.129 54.6561C100.115 54.3877 100.024 54.129 99.8692 53.9095C99.714 53.69 99.5002 53.5187 99.2521 53.4152C99.0173 53.3379 98.7658 53.3265 98.525 53.3822C98.2977 53.4113 98.0728 53.4565 97.852 53.5174C98.0803 53.5654 98.2966 53.5985 98.525 53.6315C98.7175 53.6521 98.9031 53.7147 99.0688 53.8148C99.2179 53.9029 99.3422 54.0274 99.4299 54.1766C99.5177 54.3259 99.5661 54.495 99.5706 54.6681C99.5696 54.9359 99.6482 55.1979 99.7964 55.421C99.9446 55.644 100.156 55.8181 100.403 55.921C100.631 56.0218 100.884 56.0531 101.13 56.0112C101.358 55.9541 101.575 55.921 101.791 55.8759C101.574 55.8154 101.351 55.7732 101.127 55.7497H101.13Z" fill="white"/>
<path d="M104.696 78.0465C102.912 73.3835 106.277 65.818 114.01 47.5925C115.08 45.0687 135.069 49.8008 134.063 52.553C132.795 56.0172 125.761 69.2162 124.325 71.0549C117.315 80.0656 105.913 81.2103 104.696 78.0465Z" fill="#EB9481"/>
<path d="M136.989 45.4402C136.301 49.3671 131.752 56.8575 129.962 58.2335C128.171 59.6096 115.191 52.3086 114.855 50.0101C114.518 47.7116 117.859 34.6659 120.909 31.9829C123.959 29.2998 137.701 41.369 136.989 45.4402Z" fill="#EB9481"/>
<path d="M117.045 37.0574C118.673 38.4035 119.692 36.9973 119.692 36.9973C119.692 36.9973 117.685 40.5728 119.259 42.2974C120.783 43.9559 122.97 41.423 123.129 41.2458C123.024 41.4351 121.266 44.7671 123.027 46.3385C124.857 47.9699 126.617 45.0495 126.732 44.8632C126.69 45.0736 126.176 47.8678 127.783 48.7511C130.55 50.2804 132.056 43.1777 134.258 41.8767C134.258 41.8767 136.89 45.356 136.989 45.4401C136.989 45.4401 138.561 38.7129 136.641 35.8436C136.367 35.4215 135.958 35.1053 135.48 34.9474C135.003 34.7895 134.486 34.7994 134.015 34.9753C134.015 34.9753 134.763 32.8721 133.414 31.5832C132.72 30.9282 131.055 31.454 131.055 31.454C131.055 31.454 131.581 29.7354 130.313 28.6718C129.304 27.8185 127.789 28.4795 127.789 28.4795C127.789 28.4795 132.182 20.4453 130.208 19.0482C126.807 16.6446 118.376 34.3714 116.564 34.6718C115.669 34.8251 116.336 36.4716 117.045 37.0574Z" fill="#EB9481"/>
<path d="M127.531 28.5485C127.561 28.5244 127.531 28.4763 127.498 28.4974C124.193 30.4293 121.134 33.566 119.572 37.0964C119.521 37.2136 119.623 37.7934 119.686 37.6672C121.33 34.5155 124.388 31.1264 127.531 28.5485Z" fill="#263238"/>
<path d="M131.082 31.3979C131.115 31.3709 131.082 31.3138 131.031 31.3378C127.624 33.3478 124.286 36.9743 122.967 41.2528C122.922 41.4 123.027 41.5773 123.093 41.412C124.187 38.6358 128.237 33.7054 131.082 31.3979Z" fill="#263238"/>
<path d="M126.741 45.1919C128.165 41.1388 130.746 37.948 133.87 35.0516C133.909 35.0126 133.852 34.9585 133.81 34.9825C131.896 35.983 130.1 38.0351 128.835 39.7507C127.632 41.3228 126.862 43.182 126.599 45.1439C126.59 45.222 126.711 45.2761 126.741 45.1919Z" fill="#263238"/>
<path d="M119.623 37.0117C119.56 37.1499 120.013 37.0328 119.959 37.177C119.358 38.7123 118.4 41.5125 119.539 42.2847C120.44 42.9036 121.918 42.1074 122.363 41.5816L123.478 40.2566L122.892 41.8881C122.624 42.6104 122.476 43.3715 122.453 44.1415C122.453 44.8926 122.63 45.6438 123.138 46.0975C123.368 46.3356 123.672 46.4876 124 46.5281C124.328 46.5686 124.66 46.495 124.941 46.3198C125.564 45.9138 126.073 45.3553 126.419 44.6973L127.438 42.9156L127.059 44.9227C126.954 45.482 126.921 46.0525 126.96 46.6202C126.976 47.1589 127.149 47.6812 127.459 48.1225C127.607 48.3151 127.807 48.4622 128.034 48.5472C128.262 48.6322 128.509 48.6516 128.748 48.6032C129.265 48.4185 129.719 48.0889 130.055 47.6538C130.795 46.7262 131.461 45.7417 132.047 44.7094C132.362 44.1956 132.678 43.6818 133.02 43.183C133.333 42.6631 133.753 42.2156 134.252 41.8701C133.8 42.2618 133.43 42.7386 133.161 43.2732C132.861 43.79 132.587 44.3248 132.314 44.8566C131.788 45.9532 131.16 46.9983 130.439 47.9783C130.056 48.514 129.524 48.9264 128.91 49.1651C128.561 49.259 128.193 49.2487 127.85 49.1355C127.507 49.0223 127.205 48.8111 126.981 48.5281C126.577 47.9933 126.344 47.3495 126.311 46.6803C126.255 46.0494 126.283 45.4139 126.395 44.7905L127.035 45.0158C126.639 45.8014 126.043 46.4688 125.307 46.9507C124.894 47.2088 124.403 47.315 123.919 47.2512C123.447 47.1707 123.011 46.9498 122.666 46.6172C121.96 45.9562 121.765 44.9768 121.798 44.1415C121.833 43.2944 122.008 42.4589 122.315 41.6688L122.844 41.9692C122.258 42.6212 120.717 43.6908 119.178 42.9066C117.315 41.5876 119.223 37.6998 119.623 37.0117Z" fill="#263238"/>
<path d="M114.855 50.01C114.855 50.01 110.892 39.7194 112.211 36.2311C113.53 32.7428 121.645 31.1024 124.698 30.9762C128.904 30.7989 128.604 33.8395 126.801 35.2396C124.716 36.8621 120.918 38.157 120.654 38.2442C120.654 38.2442 125.425 42.6068 124.559 47.2338C123.694 51.8608 114.855 50.01 114.855 50.01Z" fill="#EB9481"/>
<path d="M118.818 32.0315C119.608 31.7641 120.413 31.5448 121.221 31.3495C122.034 31.1455 122.857 30.988 123.688 30.8778C124.106 30.8207 124.526 30.7786 124.95 30.7606C125.383 30.7334 125.818 30.7586 126.245 30.8357C126.691 30.9156 127.114 31.0886 127.489 31.3435C127.888 31.6141 128.179 32.0176 128.309 32.4822C128.423 32.9475 128.385 33.4372 128.201 33.8793C128.024 34.295 127.773 34.6756 127.462 35.003C127.162 35.3217 126.83 35.6077 126.47 35.8563C126.125 36.1027 125.773 36.337 125.41 36.5564C123.957 37.4372 122.381 38.0965 120.735 38.5123L120.837 38.0376C121.458 38.5555 122.016 39.1455 122.498 39.7953C122.984 40.432 123.4 41.119 123.739 41.8444C123.906 42.2069 124.053 42.578 124.181 42.956C124.301 43.335 124.402 43.7202 124.481 44.1098C124.638 44.8865 124.699 45.6797 124.661 46.4714C124.618 45.6893 124.493 44.9139 124.289 44.1579C124.075 43.4113 123.782 42.6893 123.418 42.0036C123.053 41.3222 122.622 40.6782 122.132 40.0807C121.65 39.4862 121.108 38.9444 120.512 38.4642L120.086 38.1277L120.614 37.9895C121.401 37.7751 122.17 37.5019 122.916 37.1723C123.668 36.8457 124.397 36.4682 125.097 36.0426C125.446 35.8293 125.791 35.6099 126.128 35.3756C126.454 35.151 126.756 34.8932 127.029 34.6064C127.294 34.3311 127.51 34.0119 127.666 33.663C127.813 33.3352 127.852 32.9689 127.777 32.6174C127.686 32.2692 127.473 31.9653 127.176 31.7611C126.865 31.538 126.511 31.3816 126.137 31.3014C125.337 31.1666 124.523 31.1464 123.718 31.2413C122.069 31.3966 120.432 31.6606 118.818 32.0315Z" fill="#263238"/>
<path d="M131.641 63.4983L110.384 54.7461C110.384 54.7461 100.998 74.8044 103.356 79.152C104.414 81.0959 106.992 83.136 110.985 83.142C119.205 83.148 131.641 63.4983 131.641 63.4983Z" fill="#FFC727"/>
<path d="M114.927 75.3979C114.782 75.5273 114.606 75.6173 114.416 75.6593C114.242 75.6977 114.061 75.692 113.89 75.6426C113.719 75.5933 113.563 75.5019 113.436 75.3768C113.248 75.1847 113.005 75.0553 112.741 75.0063C112.476 74.9574 112.203 74.9913 111.958 75.1034C111.736 75.216 111.548 75.3848 111.411 75.5932C111.271 75.7707 111.142 75.9563 111.024 76.149C111.225 76.0422 111.415 75.9164 111.592 75.7734C111.737 75.6423 111.914 75.5521 112.105 75.512C112.273 75.4695 112.448 75.47 112.615 75.5136C112.782 75.5572 112.936 75.6425 113.061 75.7614C113.252 75.9502 113.494 76.0793 113.757 76.1326C114.02 76.186 114.293 76.1614 114.542 76.0619C114.772 75.9623 114.969 75.7998 115.11 75.5932C115.246 75.4114 115.372 75.2218 115.486 75.0253C115.293 75.1485 115.11 75.2837 114.927 75.3979ZM116.114 59.3626C115.967 59.4916 115.79 59.5815 115.6 59.624C115.426 59.6627 115.246 59.6567 115.075 59.6068C114.904 59.5569 114.749 59.4647 114.623 59.3386C114.434 59.1474 114.19 59.019 113.925 58.9706C113.66 58.9223 113.387 58.9563 113.142 59.0682C112.921 59.1805 112.732 59.3482 112.595 59.5549C112.457 59.734 112.328 59.9206 112.211 60.1138C112.41 60.0052 112.6 59.8795 112.778 59.7382C112.923 59.6078 113.099 59.5176 113.289 59.4768C113.457 59.434 113.633 59.4344 113.801 59.478C113.968 59.5216 114.122 59.607 114.248 59.7262C114.438 59.9151 114.679 60.0442 114.942 60.0976C115.205 60.151 115.477 60.1263 115.726 60.0266C115.956 59.9271 116.154 59.7647 116.297 59.5579C116.42 59.3656 116.567 59.1944 116.672 58.9901C116.471 59.1132 116.291 59.2485 116.114 59.3626ZM105.877 66.2581C105.85 66.1078 105.829 65.9576 105.799 65.8344C105.784 65.7562 105.763 65.6789 105.739 65.6031C105.682 65.8074 105.661 66.0237 105.604 66.2611C105.597 66.3317 105.586 66.402 105.571 66.4714C105.551 66.5664 105.519 66.6583 105.474 66.7448C105.36 67.0693 105.246 67.3938 105.138 67.7183C105.298 67.6456 105.442 67.5409 105.56 67.4107C105.678 67.2805 105.769 67.1275 105.826 66.9611C105.915 66.7375 105.931 66.4913 105.871 66.2581H105.877ZM126.681 64.2901C126.648 64.0671 126.602 63.8463 126.542 63.6291C126.485 63.8454 126.464 64.0497 126.407 64.2901C126.395 64.4818 126.34 64.6684 126.248 64.8369C126.159 64.9875 126.032 65.1126 125.881 65.2C125.729 65.2874 125.558 65.3341 125.383 65.3357C125.114 65.3378 124.852 65.4174 124.627 65.5651C124.403 65.7127 124.226 65.9221 124.118 66.1679C124.029 66.3997 124.007 66.6512 124.052 66.895C124.079 67.1225 124.124 67.3475 124.187 67.568C124.256 67.3397 124.277 67.1234 124.325 66.895C124.339 66.7044 124.401 66.5204 124.505 66.3602C124.6 66.2084 124.734 66.0842 124.892 66.0004C125.05 65.9165 125.228 65.8758 125.407 65.8825C125.676 65.876 125.937 65.7905 126.157 65.6366C126.378 65.4827 126.548 65.2673 126.647 65.0172C126.716 64.7807 126.725 64.531 126.674 64.2901H126.681Z" fill="white"/>
<path d="M109.047 60.1011C111.396 61.1948 113.794 62.1622 116.198 63.1237C118.601 64.0851 121.005 65.0496 123.433 65.9509C124.803 66.4587 126.173 66.9755 127.561 67.4352C127.597 67.4352 127.624 67.3901 127.588 67.3721C125.244 66.2814 122.847 65.302 120.452 64.3285C118.057 63.355 115.645 62.3996 113.241 61.4682C111.874 60.9454 110.501 60.4436 109.113 59.9839C109.032 59.9599 108.978 60.0681 109.047 60.1011Z" fill="#263238"/>
<path d="M110.973 54.7531C110.549 54.5938 110.162 54.3865 110.138 54.4376C109.516 55.7386 108.969 57.2048 108.461 58.5538C107.953 59.9029 107.488 61.2309 107.037 62.5799C106.793 63.307 106.565 64.0371 106.361 64.7732C105.761 65.6091 105.326 66.5512 105.078 67.5494C105.078 67.5975 105.153 67.6215 105.168 67.5734C105.423 66.6925 105.797 65.8505 106.28 65.0707C105.759 66.8662 105.51 68.7297 105.541 70.599H105.559C105.532 67.8078 106.67 65.0857 107.548 62.4868C107.986 61.1828 108.449 59.8908 108.927 58.5989C109.404 57.3069 109.927 56.042 110.384 54.7501C110.384 54.7501 110.684 54.8883 110.898 54.9634C110.943 54.9754 111.006 54.7711 110.973 54.7531Z" fill="#263238"/>
<path opacity="0.1" d="M121.059 76.9988C117.691 80.427 114.047 83.1311 110.985 83.1311C107.1 83.1311 104.555 81.1962 103.446 79.3033C98.1555 71.9332 91.8189 58.5509 87.8679 44.9884C85.6295 37.2998 86.5039 35.0975 88.601 35.44L107.974 60.2395L118.217 73.3483L121.059 76.9988Z" fill="black"/>
<path d="M104.564 88.4155L101.091 66.924C101.091 66.924 104.612 62.258 102.164 55.7261C100.424 51.0811 93.189 39.4385 89.0728 35.9592C82.9916 30.8515 76.5408 35.5836 74.1552 38.8195C69.375 45.2973 60.4034 64.9981 58.3123 88.4095L104.564 88.4155Z" fill="#FFC727"/>
<path d="M85.933 64.8024C88.2365 64.8821 90.5306 65.1373 92.7954 65.5656C93.9221 65.7939 95.0277 66.0734 96.1334 66.3798C96.6862 66.533 97.2391 66.6653 97.7949 66.7944C98.3722 66.9492 98.9669 67.03 99.5646 67.0348C99.5757 67.0348 99.5864 67.0392 99.5943 67.0471C99.6022 67.055 99.6067 67.0657 99.6067 67.0769C99.6067 67.088 99.6022 67.0987 99.5943 67.1066C99.5864 67.1145 99.5757 67.1189 99.5646 67.1189C99.0039 67.1791 98.4397 67.2001 97.876 67.182C97.3298 67.1463 96.7867 67.073 96.2506 66.9627C95.1089 66.7404 93.9791 66.4669 92.8374 66.2356C90.5389 65.7639 88.2405 65.2952 85.912 64.9977C85.8098 64.9677 85.8248 64.7814 85.933 64.8024Z" fill="#263238"/>
<path d="M80.3955 67.1896C82.2692 66.8799 84.1592 66.6793 86.0561 66.5887C87.0085 66.5466 87.952 66.5617 88.9014 66.5887C89.3541 66.6107 89.8078 66.6378 90.2624 66.6698C90.7612 66.7059 91.2539 66.811 91.7647 66.8411C91.8158 66.8411 91.8218 66.9282 91.7647 66.9252C91.296 66.9252 90.8213 66.9793 90.3496 66.9943L88.9314 67.0364C87.982 67.0664 87.0356 67.1055 86.0891 67.1265C84.1933 67.1686 82.3034 67.2287 80.4106 67.3368C80.2994 67.3549 80.2994 67.2076 80.3955 67.1896Z" fill="#263238"/>
<path d="M83.1117 77.4397C82.9629 77.5682 82.7824 77.6543 82.5889 77.6891C82.4173 77.7262 82.2389 77.7179 82.0714 77.6653C81.9039 77.6126 81.753 77.5173 81.6335 77.3886C81.4386 77.1984 81.1902 77.0725 80.9215 77.0279C80.6529 76.9833 80.377 77.0222 80.1312 77.1392C79.9065 77.2471 79.7138 77.4118 79.5724 77.617C79.4462 77.8002 79.323 77.9715 79.1968 78.1758C79.3952 78.0651 79.5851 77.9395 79.7646 77.8003C79.9176 77.6782 80.0918 77.5855 80.2784 77.5268C80.4486 77.4848 80.6267 77.4867 80.7959 77.5324C80.9652 77.5782 81.12 77.6662 81.2459 77.7882C81.4344 77.9767 81.6742 78.1056 81.9354 78.1591C82.1966 78.2125 82.4677 78.188 82.7151 78.0887C82.9498 77.9877 83.1509 77.822 83.295 77.611C83.4092 77.4307 83.5444 77.2594 83.6585 77.0551C83.4684 77.1718 83.2858 77.3002 83.1117 77.4397ZM66.6769 57.2161C66.5357 57.3445 66.364 57.4345 66.1781 57.4775C66.0119 57.5138 65.8393 57.5083 65.6758 57.4617C65.5122 57.415 65.3627 57.3286 65.2407 57.2101L65.0484 57.7509C65.338 57.9457 65.6924 58.0193 66.0356 57.9558C66.3788 57.8923 66.6834 57.6969 66.8842 57.4114C67.0148 57.2273 67.1361 57.0368 67.2477 56.8406C67.0434 56.9668 66.8722 57.102 66.6769 57.2161ZM85.3321 39.8649C85.1848 39.9886 85.0094 40.0742 84.8213 40.1143C84.6493 40.1544 84.4696 40.1477 84.3011 40.0949C84.1325 40.042 83.9812 39.945 83.8628 39.8138C83.6671 39.6251 83.4187 39.5002 83.1505 39.4556C82.8822 39.4111 82.6068 39.449 82.3606 39.5644C82.1324 39.6656 81.9391 39.8318 81.8047 40.0422C81.6685 40.2239 81.5431 40.4135 81.4292 40.61C81.6335 40.4838 81.8047 40.3486 81.997 40.2345C82.1408 40.1007 82.3168 40.0065 82.5078 39.961C82.6762 39.9151 82.8535 39.9131 83.0228 39.9552C83.1922 39.9973 83.3479 40.082 83.4753 40.2014C83.6588 40.3974 83.8977 40.5329 84.1602 40.5898C84.4226 40.6467 84.6962 40.6223 84.9445 40.5199C85.1776 40.4163 85.3781 40.2512 85.5244 40.0422C85.6385 39.8589 85.7767 39.6756 85.8879 39.4713C85.6956 39.6065 85.5243 39.7417 85.3321 39.8649ZM86.8343 52.3728C86.7893 52.1565 86.7562 51.9401 86.7111 51.7118C86.6505 51.9288 86.6043 52.1497 86.5729 52.3728C86.5584 52.5746 86.4966 52.7701 86.3927 52.9437C86.3046 53.0932 86.1796 53.2176 86.0297 53.305C85.8798 53.3923 85.7099 53.4396 85.5364 53.4424C85.2633 53.4346 84.9944 53.5115 84.7668 53.6627C84.5392 53.8139 84.3641 54.0319 84.2654 54.2867C84.1588 54.5137 84.1344 54.7708 84.1963 55.0138C84.2294 55.2421 84.2654 55.4585 84.3105 55.6748C84.374 55.4586 84.4192 55.2375 84.4457 55.0138C84.4717 54.8236 84.5383 54.6412 84.641 54.479C84.7326 54.324 84.8653 54.1974 85.0243 54.1131C85.1834 54.0288 85.3627 53.9901 85.5424 54.0013C85.8126 53.9934 86.0745 53.906 86.2953 53.7499C86.516 53.5939 86.6858 53.3761 86.7833 53.1239C86.8592 52.8819 86.8727 52.6245 86.8223 52.3758L86.8343 52.3728ZM65.8025 69.015C65.7687 68.7932 65.7226 68.5736 65.6643 68.357C65.6072 68.5733 65.5862 68.7776 65.5291 69.015C65.5166 69.2067 65.4622 69.3933 65.3699 69.5618C65.2805 69.7124 65.1541 69.8376 65.0026 69.9254C64.8511 70.0133 64.6797 70.0608 64.5046 70.0636C64.2361 70.0647 63.9738 70.1436 63.7493 70.2908C63.5247 70.4379 63.3477 70.6471 63.2397 70.8928C63.15 71.1253 63.1271 71.3781 63.1736 71.6229C63.2009 71.8495 63.2462 72.0735 63.3088 72.2929C63.3656 72.0721 63.4108 71.8485 63.444 71.6229C63.4604 71.4323 63.5233 71.2487 63.6272 71.0881C63.7218 70.9358 63.855 70.8114 64.0134 70.7274C64.1717 70.6435 64.3495 70.6031 64.5286 70.6104C64.7971 70.6037 65.0577 70.5181 65.2779 70.3642C65.498 70.2103 65.668 69.995 65.7665 69.7451C65.8349 69.5052 65.8411 69.2519 65.7845 69.009L65.8025 69.015ZM101.151 86.261C101.117 86.0393 101.071 85.8196 101.013 85.603C100.956 85.8194 100.935 86.0237 100.878 86.261C100.865 86.4528 100.811 86.6394 100.718 86.8079C100.629 86.9585 100.503 87.0837 100.351 87.1715C100.2 87.2594 100.028 87.3069 99.853 87.3096C99.5847 87.3111 99.3224 87.3902 99.098 87.5373C98.8736 87.6845 98.6965 87.8934 98.5881 88.1389C98.5542 88.2271 98.53 88.3188 98.516 88.4123H98.9306C98.9434 88.385 98.9584 88.3589 98.9757 88.3342C99.0702 88.1819 99.2034 88.0574 99.3618 87.9735C99.5202 87.8896 99.698 87.8492 99.877 87.8565C100.146 87.8498 100.406 87.7642 100.626 87.6103C100.846 87.4564 101.016 87.241 101.115 86.9911C101.182 86.7541 101.188 86.5041 101.133 86.264L101.151 86.261ZM93.9401 63.4265C93.7907 63.5543 93.6169 63.6504 93.4293 63.7089C93.26 63.7511 93.0829 63.7504 92.914 63.7069C92.745 63.6633 92.5896 63.5783 92.4618 63.4596C92.2736 63.2707 92.0348 63.1401 91.7742 63.0837C91.5136 63.0272 91.2422 63.0471 90.9926 63.1411C90.7585 63.243 90.5576 63.4085 90.4127 63.6188C90.2986 63.8021 90.1634 63.9824 90.0372 64.1867C90.2415 64.0635 90.4127 63.9253 90.605 63.8021C90.7573 63.6838 90.9321 63.5979 91.1188 63.5497C91.2923 63.5162 91.4715 63.5261 91.6402 63.5785C91.809 63.6309 91.9622 63.7242 92.0863 63.8502C92.2822 64.0384 92.5298 64.1638 92.7975 64.2104C93.0651 64.2569 93.3406 64.2225 93.5885 64.1116C93.8137 63.9989 94.0062 63.8302 94.1474 63.6218C94.2706 63.4295 94.3968 63.2583 94.5109 63.054C94.2796 63.1651 94.1083 63.3003 93.913 63.4175L93.9401 63.4265ZM79.2328 66.0044C79.0443 65.9887 78.8616 65.9313 78.698 65.8362C78.5464 65.741 78.4224 65.6076 78.3386 65.4494C78.2548 65.2912 78.214 65.1137 78.2203 64.9348C78.2149 64.664 78.1284 64.401 77.972 64.1798C77.8156 63.9586 77.5965 63.7894 77.343 63.6939C77.1121 63.597 76.8561 63.5769 76.6129 63.6368C76.3875 63.6939 76.1712 63.718 75.9429 63.775C76.1712 63.8411 76.3875 63.8652 76.6129 63.9102C76.8084 63.9229 76.9989 63.9771 77.1717 64.0695C77.322 64.1593 77.4468 64.2858 77.5346 64.4372C77.6224 64.5886 77.6702 64.7598 77.6735 64.9348C77.6731 65.2036 77.7514 65.4666 77.8987 65.6914C78.0461 65.9162 78.2561 66.0929 78.5027 66.1997C78.7352 66.2893 78.9881 66.3122 79.2328 66.2658C79.4583 66.232 79.6819 66.1869 79.9029 66.1306C79.6745 66.0916 79.4582 66.0675 79.2328 66.0044ZM68.3053 84.0317C68.1088 84.0025 67.9194 83.9373 67.7465 83.8394C67.5981 83.7416 67.4774 83.6074 67.3958 83.4496C67.3143 83.2917 67.2746 83.1156 67.2808 82.938C67.2778 82.6666 67.1923 82.4025 67.0355 82.1808C66.8788 81.9592 66.6584 81.7905 66.4034 81.6971C66.1696 81.6179 65.9197 81.5983 65.6763 81.6401C65.448 81.6971 65.2317 81.7212 65.0153 81.7783C65.2329 81.836 65.4536 81.8812 65.6763 81.9135C65.8735 81.926 66.0649 81.9847 66.2352 82.0847C66.3861 82.1745 66.5121 82.3008 66.6013 82.452C66.6906 82.6032 66.7403 82.7745 66.746 82.95C66.7387 83.2176 66.8134 83.481 66.96 83.7049C67.1066 83.9288 67.3181 84.1026 67.5662 84.2029C67.7989 84.3045 68.0583 84.3277 68.3053 84.269C68.5287 84.2402 68.7496 84.195 68.9663 84.1338C68.738 84.0737 68.5216 84.0527 68.3053 84.0317ZM72.3675 47.22C72.1746 47.2076 71.9892 47.141 71.8327 47.0277C71.6799 46.9346 71.5557 46.8012 71.4736 46.6423C71.3914 46.4833 71.3545 46.3048 71.367 46.1264C71.3523 45.8619 71.2645 45.6066 71.1133 45.3891C70.9621 45.1716 70.7535 45.0004 70.5107 44.8945C70.4416 45.0237 70.3754 45.1529 70.3093 45.2851C70.4577 45.3737 70.5812 45.4984 70.6684 45.6476C70.7556 45.7968 70.8037 45.9656 70.8081 46.1384C70.8072 46.4062 70.8858 46.6682 71.0339 46.8912C71.1821 47.1143 71.3932 47.2883 71.6404 47.3913C71.8687 47.4919 72.1215 47.5232 72.3675 47.4814C72.5958 47.4243 72.8121 47.3913 73.0285 47.3462C72.8117 47.2872 72.5907 47.245 72.3675 47.22ZM101.127 55.7469C100.934 55.7345 100.749 55.6679 100.592 55.5546C100.439 55.4615 100.315 55.3281 100.233 55.1692C100.151 55.0102 100.114 54.8317 100.126 54.6533C100.112 54.3849 100.021 54.1261 99.8662 53.9066C99.711 53.6872 99.4972 53.5159 99.2491 53.4124C99.0143 53.3351 98.7628 53.3237 98.522 53.3793C98.2948 53.4085 98.0698 53.4536 97.849 53.5145C98.0773 53.5626 98.2937 53.5957 98.522 53.6287C98.7145 53.6492 98.9002 53.7118 99.0658 53.812C99.2149 53.9 99.3392 54.0245 99.427 54.1738C99.5147 54.3231 99.5631 54.4922 99.5676 54.6653C99.5666 54.9331 99.6452 55.1951 99.7934 55.4181C99.9416 55.6412 100.153 55.8152 100.4 55.9182C100.628 56.0189 100.881 56.0503 101.127 56.0083C101.355 55.9512 101.572 55.9182 101.788 55.8731C101.572 55.8127 101.35 55.7705 101.127 55.7469ZM95.9561 44.567C95.9782 44.7029 96.0083 44.8373 96.0463 44.9696C96.0643 44.9035 96.0793 44.8404 96.0943 44.7773C96.0493 44.7052 96.0042 44.6361 95.9561 44.567ZM95.6226 78.1999C95.4252 78.1746 95.235 78.1092 95.0638 78.0076C94.9128 77.9125 94.7901 77.7788 94.7082 77.6203C94.6263 77.4618 94.5883 77.2843 94.5981 77.1062C94.5926 76.8354 94.5061 76.5724 94.3497 76.3512C94.1933 76.13 93.9743 75.9608 93.7207 75.8653C93.4859 75.7856 93.2347 75.767 92.9906 75.8112C92.9005 75.8323 92.8314 75.8443 92.7533 75.8563C92.7323 75.9156 92.7061 75.9729 92.6752 76.0276C92.7773 76.0486 92.8915 76.0606 93.0027 76.0816C93.1964 76.0922 93.3843 76.1511 93.5495 76.2529C93.7025 76.3405 93.8303 76.4663 93.9203 76.6179C94.0104 76.7695 94.0596 76.9419 94.0633 77.1182C94.0609 77.3847 94.1376 77.6459 94.2836 77.8689C94.4296 78.0919 94.6383 78.2667 94.8835 78.3711C95.1206 78.4717 95.3832 78.4959 95.6346 78.4402C95.8532 78.4145 96.0699 78.3753 96.2836 78.323C96.0433 78.269 95.8389 78.2359 95.6226 78.1999Z" fill="white"/>
<path d="M71.8206 39.6513C58.8019 52.021 42.0756 78.3829 44.8548 83.9262C47.9495 90.1036 66.0819 72.7614 66.0488 71.7128C66.0218 70.9196 72.7279 54.7942 77.7966 43.0705C82.8653 31.3467 75.0384 36.5927 71.8206 39.6513Z" fill="#EB9481"/>
<path d="M66.166 71.7355C66.7669 70.0049 75.8587 48.7507 78.4846 42.0205C80.8372 35.9784 79.9479 33.6829 74.5787 37.057C66.6407 42.0536 45.8072 64.5035 42.0035 75.4461C38.353 85.989 47.1563 87.1458 54.5475 82.4707C60.6016 78.6429 66.166 71.7355 66.166 71.7355Z" fill="#FFC727"/>
<path d="M56.5544 79.5037C56.4093 79.6331 56.2335 79.7231 56.0436 79.7651C55.8698 79.8035 55.6891 79.7978 55.518 79.7485C55.3469 79.6991 55.1909 79.6078 55.0642 79.4827C54.8759 79.2905 54.6329 79.1611 54.3683 79.1122C54.1037 79.0632 53.8305 79.0971 53.5859 79.2093C53.3645 79.3227 53.1762 79.4914 53.0391 79.699C52.8991 79.8765 52.7697 80.0621 52.6515 80.2548C52.8523 80.148 53.0425 80.0223 53.2194 79.8793C53.3644 79.7481 53.5417 79.6579 53.7332 79.6179C53.9005 79.5759 54.0758 79.5767 54.2428 79.6203C54.4098 79.6639 54.5631 79.7488 54.6886 79.8673C54.8788 80.0562 55.1201 80.1853 55.3828 80.2387C55.6454 80.292 55.918 80.2674 56.1668 80.1677C56.3979 80.069 56.5959 79.9064 56.7377 79.699C56.8739 79.5172 56.9993 79.3276 57.1133 79.1311C56.924 79.2543 56.7377 79.3895 56.5544 79.5037ZM66.6767 57.216C66.5356 57.3444 66.3638 57.4344 66.178 57.4774C66.0045 57.514 65.8245 57.5056 65.6552 57.453C65.4858 57.4004 65.3328 57.3054 65.2105 57.177C65.0144 56.9891 64.7668 56.8639 64.4992 56.8174C64.2316 56.7708 63.9563 56.805 63.7082 56.9156C63.4804 57.0183 63.2904 57.1895 63.1644 57.4053C63.0382 57.5856 62.891 57.7689 62.7768 57.9611C62.9753 57.848 63.1679 57.7246 63.3537 57.5916C63.4987 57.4604 63.6761 57.3702 63.8675 57.3302C64.0356 57.2809 64.2137 57.2772 64.3837 57.3195C64.5537 57.3617 64.7094 57.4484 64.8349 57.5705C64.9714 57.7116 65.1374 57.8208 65.321 57.8904C65.5046 57.9599 65.7012 57.9881 65.8969 57.9729C66.0927 57.9577 66.2826 57.8994 66.4532 57.8024C66.6239 57.7053 66.771 57.5718 66.884 57.4113C67.0147 57.2272 67.136 57.0367 67.2476 56.8404C67.0433 56.9666 66.872 57.1018 66.6767 57.216ZM45.723 71.8932C45.6931 71.67 45.6479 71.4492 45.5878 71.2322C45.5308 71.4365 45.5067 71.6528 45.4496 71.8932C45.44 72.0854 45.3855 72.2727 45.2904 72.44C45.203 72.5914 45.0773 72.7172 44.9259 72.8048C44.7746 72.8923 44.6029 72.9385 44.4281 72.9388C44.2302 72.9328 44.0335 72.9716 43.8526 73.052C43.6717 73.1325 43.5112 73.2526 43.3831 73.4036C43.2549 73.5545 43.1624 73.7323 43.1124 73.9239C43.0624 74.1155 43.0561 74.3158 43.0941 74.5102C43.1391 74.7265 43.1632 74.9428 43.2323 75.1712C43.3014 74.9428 43.3224 74.7265 43.3675 74.5102C43.3819 74.3154 43.4449 74.1274 43.5508 73.9633C43.6471 73.8127 43.7807 73.6896 43.9386 73.6059C44.0965 73.5222 44.2734 73.4808 44.4521 73.4856C44.7202 73.4807 44.9803 73.3941 45.1978 73.2373C45.4152 73.0805 45.5796 72.8611 45.669 72.6083C45.7659 72.3826 45.785 72.131 45.723 71.8932ZM65.7844 69.0088C65.7505 68.7871 65.7044 68.5675 65.6462 68.3508C65.5891 68.5672 65.568 68.7715 65.511 69.0088C65.4984 69.2006 65.4441 69.3872 65.3517 69.5557C65.2624 69.7063 65.1359 69.8315 64.9845 69.9193C64.833 70.0072 64.6615 70.0547 64.4864 70.0574C64.218 70.0585 63.9556 70.1375 63.7311 70.2846C63.5066 70.4318 63.3296 70.6409 63.2215 70.8867C63.1319 71.1191 63.109 71.372 63.1554 71.6168C63.1828 71.8433 63.228 72.0674 63.2906 72.2868C63.3475 72.066 63.3926 71.8424 63.4258 71.6168C63.4422 71.4262 63.5051 71.2426 63.6091 71.082C63.7036 70.9297 63.8368 70.8052 63.9952 70.7213C64.1536 70.6374 64.3314 70.597 64.5104 70.6043C64.779 70.5976 65.0396 70.512 65.2597 70.3581C65.4799 70.2042 65.6498 69.9888 65.7483 69.7389C65.8217 69.5025 65.8341 69.2514 65.7844 69.0088ZM55.0582 65.4785C54.865 65.4651 54.6777 65.4064 54.5113 65.3072C54.3659 65.2057 54.2467 65.071 54.1636 64.9142C54.0806 64.7575 54.036 64.5833 54.0336 64.4059C54.0317 64.1389 53.9492 63.8788 53.797 63.6595C53.6447 63.4402 53.4298 63.2721 53.1803 63.177C52.9419 63.0808 52.6794 63.0609 52.4292 63.1199C52.2098 63.1488 51.9929 63.194 51.7802 63.2551C51.9939 63.313 52.2105 63.3591 52.4292 63.3934C52.6286 63.3993 52.8236 63.454 52.997 63.5526C53.1446 63.6423 53.2677 63.7672 53.3553 63.9161C53.4429 64.065 53.4922 64.2333 53.4988 64.4059C53.4975 64.6745 53.574 64.9377 53.719 65.1637C53.864 65.3898 54.0714 65.569 54.316 65.6798C54.553 65.7679 54.809 65.7917 55.0582 65.7489C55.2745 65.7038 55.4998 65.6798 55.7162 65.6137C55.4998 65.5686 55.2745 65.5446 55.0582 65.4875V65.4785ZM72.3673 47.2109C72.1745 47.1985 71.9891 47.1318 71.8325 47.0186C71.6798 46.9254 71.5555 46.7921 71.4734 46.6331C71.3913 46.4742 71.3544 46.2957 71.3668 46.1172C71.352 45.8489 71.2618 45.5901 71.1066 45.3706C70.9514 45.1512 70.7375 44.9798 70.4895 44.8764C70.2547 44.7991 70.0032 44.7877 69.7624 44.8433C69.5351 44.8724 69.3102 44.9176 69.0894 44.9785C69.3177 45.0266 69.534 45.0596 69.7624 45.0927C69.9559 45.1128 70.1426 45.1754 70.3092 45.276C70.4576 45.3646 70.5811 45.4893 70.6683 45.6385C70.7555 45.7877 70.8035 45.9565 70.808 46.1293C70.807 46.397 70.8856 46.6591 71.0338 46.8821C71.182 47.1052 71.393 47.2792 71.6402 47.3821C71.8685 47.4827 72.1214 47.5141 72.3673 47.4723C72.5957 47.4152 72.812 47.3821 73.0283 47.3371C72.8113 47.2811 72.5903 47.242 72.3673 47.2199V47.2109Z" fill="white"/>
<path d="M65.0034 74.482C65.7285 72.4449 66.4897 70.4208 67.2869 68.4098C68.0741 66.3967 68.8943 64.3987 69.7205 62.4007C70.5468 60.4027 71.4031 58.4197 72.2804 56.4427C73.1577 54.4657 74.0531 52.5007 74.9845 50.5508C74.2614 52.5919 73.5013 54.6159 72.7041 56.623C71.9169 58.636 71.0936 60.634 70.2674 62.632C69.4411 64.6301 68.5848 66.6131 67.7075 68.587C66.8302 70.561 65.9378 72.532 65.0034 74.482Z" fill="#263238"/>
<path d="M73.1487 55.2182C73.3932 54.7023 73.6838 54.2096 74.017 53.746C74.3446 53.2799 74.7029 52.8363 75.0896 52.418C74.9945 52.6902 74.8717 52.952 74.7231 53.1992C74.5818 53.4485 74.4226 53.6859 74.2634 53.9202C73.9391 54.3914 73.5654 54.8265 73.1487 55.2182Z" fill="#263238"/>
<path d="M44.6716 83.6647C47.4749 87.7479 55.1875 88.5831 74.4406 92.5161C77.1026 93.0599 85.9961 75.3001 83.1838 74.573C79.6385 73.6566 65.6884 70.8714 64.6428 70.7962C55.8185 70.1653 42.7667 80.8945 44.6716 83.6647Z" fill="#EB9481"/>
<path d="M91.3862 78.3952C90.2925 77.6982 90.6531 77.1213 92.9425 76.893C95.232 76.6646 104.498 77.7192 104.591 74.4563C104.684 71.1933 91.5965 69.9134 87.8108 70.5684C84.025 71.2234 78.1301 73.6451 78.1301 73.6451C80.6269 74.4202 86.5068 76.8239 91.3862 78.3952Z" fill="#EB9481"/>
<path d="M74.5608 92.5341C81.6725 94.4269 90.4097 97.2152 98.4078 94.9828C99.3027 94.7586 100.096 94.2387 100.658 93.5076C104.264 92.5731 104.901 90.5901 104.901 90.5901C107.989 88.6913 108.365 86.5761 108.365 86.5761C108.365 86.5761 112.571 85.4313 112.313 82.7663C112.012 79.7768 106.154 81.9701 102.194 81.204C93.1138 79.4463 80.6961 74.4107 78.1302 73.6445L74.5608 92.5341Z" fill="#EB9481"/>
<path d="M91.3833 86.0502C94.0664 86.5129 96.6893 87.0387 99.4204 87.1379C102.425 87.2461 105.318 86.8374 108.281 86.513C108.299 86.5109 108.317 86.5158 108.332 86.5266C108.346 86.5373 108.356 86.5532 108.36 86.5711C108.363 86.5889 108.36 86.6073 108.35 86.6227C108.34 86.6381 108.325 86.6494 108.308 86.6542C103.038 88.1054 96.5601 87.8259 91.3593 86.1704C91.2331 86.1374 91.2481 86.0262 91.3833 86.0502Z" fill="#263238"/>
<path d="M89.5264 91.3782C92.1614 91.6787 96.7974 92.1925 104.883 90.5039C104.91 90.5039 104.928 90.543 104.898 90.552C99.7899 92.3547 94.7723 92.565 89.5113 91.5014C89.3491 91.4684 89.3521 91.3572 89.5264 91.3782Z" fill="#263238"/>
<path d="M88.583 94.2475C93.0899 94.5991 95.9652 94.2475 100.637 93.4844C100.664 93.4844 100.679 93.5264 100.637 93.5324C95.4184 94.9596 93.3633 94.8875 88.535 94.4008C88.3817 94.3918 88.4058 94.2475 88.583 94.2475Z" fill="#263238"/>
<path d="M80.0591 71.7673L63.2337 94.743C63.2337 94.743 44.5214 88.4125 42.2019 83.3017C40.8228 80.2762 54.4965 70.259 64.2913 70.6436L80.0591 71.7673Z" fill="#FFC727"/>
<path d="M56.5546 79.5064C56.4095 79.6358 56.2336 79.7258 56.0438 79.7678C55.8699 79.8062 55.6892 79.8005 55.5181 79.7512C55.347 79.7018 55.191 79.6105 55.0643 79.4854C54.876 79.2932 54.633 79.1638 54.3684 79.1149C54.1039 79.0659 53.8307 79.0998 53.5861 79.212C53.3647 79.3254 53.1763 79.4941 53.0393 79.7017C52.8993 79.8792 52.7698 80.0648 52.6517 80.2575C52.8525 80.1507 53.0426 80.025 53.2195 79.882C53.3646 79.7508 53.5419 79.6606 53.7333 79.6206C53.9007 79.5786 54.076 79.5794 54.2429 79.623C54.4099 79.6666 54.5632 79.7515 54.6887 79.87C54.8789 80.0589 55.1202 80.188 55.3829 80.2414C55.6456 80.2947 55.9182 80.2701 56.167 80.1704C56.398 80.0717 56.5961 79.9091 56.7378 79.7017C56.8741 79.5199 56.9995 79.3303 57.1134 79.1338C56.9241 79.257 56.7378 79.3922 56.5546 79.5064ZM58.5286 91.6898C58.4715 91.4645 58.4384 91.2482 58.3934 91.0318C58.3292 91.247 58.283 91.4671 58.2551 91.6898C58.2416 91.888 58.1797 92.0799 58.0749 92.2487C57.9747 92.4178 57.8289 92.5552 57.6542 92.6453L58.1951 92.8616C58.3176 92.7357 58.4118 92.5851 58.4715 92.4199C58.5504 92.185 58.57 91.9342 58.5286 91.6898ZM63.3629 70.637C63.3031 70.7166 63.2555 70.8047 63.2216 70.8984C63.132 71.1308 63.1091 71.3837 63.1555 71.6285C63.1829 71.855 63.2281 72.0791 63.2908 72.2985C63.3476 72.0777 63.3928 71.8541 63.426 71.6285C63.4424 71.4379 63.5053 71.2543 63.6092 71.0937C63.6803 70.9798 63.7731 70.8811 63.8824 70.8033C63.9917 70.7254 64.1154 70.6699 64.2462 70.64C63.9548 70.631 63.6603 70.631 63.3629 70.637ZM48.4723 88.2046C48.2839 88.1865 48.1014 88.1281 47.9375 88.0333C47.7858 87.938 47.6616 87.8047 47.5772 87.6466C47.4929 87.4885 47.4514 87.3111 47.4568 87.1319C47.452 86.8614 47.3661 86.5984 47.2102 86.3772C47.0543 86.156 46.8357 85.9866 46.5825 85.8911C46.351 85.7965 46.0958 85.7766 45.8524 85.834C45.627 85.8911 45.4107 85.9151 45.1824 85.9722C45.4033 86.0285 45.6269 86.0736 45.8524 86.1074C46.0479 86.12 46.2384 86.1743 46.4112 86.2666C46.5611 86.3568 46.6857 86.4835 46.7734 86.6348C46.8611 86.7861 46.9091 86.9571 46.913 87.1319C46.9134 87.2674 46.9336 87.402 46.9731 87.5315C47.4809 87.832 48.0157 88.1475 48.5655 88.4479C48.759 88.4191 48.9506 88.379 49.1394 88.3277C48.914 88.2827 48.6977 88.2616 48.4723 88.2046ZM68.3023 84.0192C68.1058 83.99 67.9164 83.9248 67.7435 83.8269C67.5951 83.7292 67.4744 83.595 67.3928 83.4371C67.3113 83.2793 67.2717 83.1031 67.2778 82.9256C67.2748 82.6541 67.1893 82.39 67.0326 82.1684C66.8758 81.9467 66.6554 81.778 66.4005 81.6847C66.1666 81.6055 65.9167 81.5859 65.6734 81.6276C65.445 81.6847 65.2287 81.7087 65.0124 81.7658C65.2299 81.8236 65.4506 81.8687 65.6734 81.901C65.8705 81.9136 66.0619 81.9723 66.2322 82.0723C66.3832 82.162 66.5091 82.2883 66.5983 82.4396C66.6876 82.5908 66.7373 82.7621 66.743 82.9376C66.7357 83.2051 66.8104 83.4685 66.957 83.6924C67.1036 83.9164 67.3151 84.0901 67.5632 84.1905C67.7959 84.292 68.0553 84.3152 68.3023 84.2566C68.5257 84.2277 68.7466 84.1825 68.9633 84.1214C68.738 84.0763 68.5217 84.0553 68.3053 84.0343L68.3023 84.0192Z" fill="white"/>
<path d="M60.229 89.4934C61.7493 87.1619 63.3928 84.9145 65.0363 82.6731C66.6798 80.4317 68.3413 78.1663 70.0419 75.979C71.0063 74.7321 71.9648 73.4822 72.9713 72.2714C72.9983 72.2383 73.0584 72.2714 73.0344 72.3104C71.5171 74.6389 69.8796 76.8953 68.2481 79.1457C66.6167 81.3962 64.9432 83.6526 63.2696 85.8639C62.3202 87.1198 61.3437 88.3557 60.3402 89.5715C60.3041 89.6286 60.193 89.5625 60.229 89.4934Z" fill="#263238"/>
<path d="M79.0706 73.3265C79.0165 73.3716 78.8933 73.3686 78.9113 73.3115C78.9293 73.2544 79.7766 71.9084 79.8127 71.8333C79.8127 71.8333 69.5612 70.9319 64.0659 70.989C59.5591 71.2354 54.0818 73.2815 52.6486 74.3541C52.6096 74.3841 52.5705 74.318 52.6066 74.288C55.1334 72.2599 59.7063 70.7997 63.2547 70.5984C68.098 70.325 79.389 71.3075 80.4496 71.5448C80.5818 71.5749 79.1998 73.2184 79.0706 73.3265Z" fill="#263238"/>
<path d="M80.6929 35.8442C80.6935 36.1741 80.5963 36.4968 80.4134 36.7714C80.2305 37.0461 79.9703 37.2603 79.6656 37.3869C79.361 37.5136 79.0256 37.5471 78.702 37.4831C78.3783 37.419 78.0809 37.2605 77.8474 37.0274C77.6139 36.7943 77.4548 36.4972 77.3902 36.1736C77.3256 35.8501 77.3584 35.5146 77.4846 35.2098C77.6107 34.9049 77.8244 34.6443 78.0987 34.4609C78.373 34.2776 78.6955 34.1797 79.0254 34.1797C79.4672 34.1797 79.8909 34.355 80.2035 34.667C80.5161 34.9791 80.6922 35.4025 80.6929 35.8442Z" fill="#FFC727"/>
<path d="M79.1096 40.6728C80.0289 40.6728 80.7741 39.9276 80.7741 39.0083C80.7741 38.089 80.0289 37.3438 79.1096 37.3438C78.1903 37.3438 77.4451 38.089 77.4451 39.0083C77.4451 39.9276 78.1903 40.6728 79.1096 40.6728Z" fill="#FFC727"/>
<path d="M81.9578 41.941C81.9578 42.2709 81.86 42.5934 81.6766 42.8677C81.4932 43.142 81.2326 43.3557 80.9278 43.4818C80.6229 43.608 80.2874 43.6408 79.9639 43.5762C79.6403 43.5116 79.3432 43.3525 79.1101 43.119C78.8771 42.8855 78.7185 42.5881 78.6545 42.2644C78.5905 41.9408 78.6239 41.6054 78.7506 41.3007C78.8773 40.9961 79.0915 40.7359 79.3661 40.553C79.6407 40.3701 79.9634 40.2728 80.2933 40.2734C80.5122 40.2734 80.7289 40.3166 80.931 40.4004C81.1331 40.4843 81.3168 40.6071 81.4714 40.762C81.626 40.9169 81.7485 41.1008 81.832 41.3031C81.9155 41.5053 81.9582 41.7221 81.9578 41.941Z" fill="#FFC727"/>
<path d="M83.7847 44.6363C83.7847 44.9661 83.687 45.2885 83.5037 45.5627C83.3205 45.8369 83.0601 46.0507 82.7554 46.1769C82.4507 46.3031 82.1154 46.3361 81.7919 46.2718C81.4684 46.2074 81.1713 46.0486 80.9381 45.8154C80.7049 45.5822 80.5461 45.2851 80.4817 44.9616C80.4174 44.6381 80.4504 44.3028 80.5766 43.9981C80.7029 43.6934 80.9166 43.433 81.1908 43.2498C81.465 43.0666 81.7874 42.9688 82.1172 42.9688C82.3363 42.9684 82.5533 43.0112 82.7558 43.0949C82.9583 43.1785 83.1423 43.3014 83.2972 43.4563C83.4521 43.6112 83.575 43.7952 83.6586 43.9977C83.7423 44.2002 83.7851 44.4172 83.7847 44.6363Z" fill="#FFC727"/>
<path d="M85.6656 47.2847C85.6656 47.6146 85.5677 47.9372 85.3844 48.2114C85.201 48.4857 84.9404 48.6995 84.6355 48.8256C84.3306 48.9517 83.9952 48.9846 83.6717 48.92C83.3481 48.8554 83.051 48.6963 82.8179 48.4628C82.5848 48.2293 82.4262 47.9318 82.3622 47.6082C82.2982 47.2845 82.3317 46.9491 82.4584 46.6445C82.585 46.3398 82.7992 46.0796 83.0739 45.8968C83.3485 45.7139 83.6712 45.6166 84.0011 45.6172C84.2199 45.6172 84.4366 45.6603 84.6388 45.7442C84.8409 45.828 85.0245 45.9509 85.1791 46.1058C85.3338 46.2607 85.4563 46.4445 85.5398 46.6468C85.6232 46.8491 85.666 47.0659 85.6656 47.2847Z" fill="#FFC727"/>
<path d="M88.0152 49.5317C88.0158 49.8616 87.9185 50.1843 87.7357 50.4589C87.5528 50.7336 87.2926 50.9478 86.9879 51.0744C86.6833 51.2011 86.3479 51.2346 86.0242 51.1706C85.7006 51.1065 85.4031 50.948 85.1696 50.7149C84.9361 50.4818 84.777 50.1847 84.7124 49.8611C84.6479 49.5376 84.6807 49.2021 84.8068 48.8973C84.9329 48.5924 85.1467 48.3318 85.421 48.1484C85.6952 47.9651 86.0178 47.8672 86.3477 47.8672C86.7894 47.8672 87.2131 48.0425 87.5258 48.3545C87.8384 48.6666 88.0144 49.09 88.0152 49.5317Z" fill="#FFC727"/>
<path d="M89.4482 52.2157C90.3675 52.2157 91.1127 51.4705 91.1127 50.5512C91.1127 49.632 90.3675 48.8867 89.4482 48.8867C88.5289 48.8867 87.7837 49.632 87.7837 50.5512C87.7837 51.4705 88.5289 52.2157 89.4482 52.2157Z" fill="#FFC727"/>
<path d="M91.5935 50.0908C92.5128 50.0908 93.258 49.3455 93.258 48.4262C93.258 47.5069 92.5128 46.7617 91.5935 46.7617C90.6742 46.7617 89.929 47.5069 89.929 48.4262C89.929 49.3455 90.6742 50.0908 91.5935 50.0908Z" fill="#FFC727"/>
<path d="M93.1798 45.2105C93.1798 45.5404 93.0819 45.8629 92.8985 46.1372C92.7152 46.4115 92.4546 46.6252 92.1497 46.7514C91.8448 46.8775 91.5094 46.9103 91.1858 46.8457C90.8623 46.7812 90.5652 46.6221 90.3321 46.3885C90.099 46.155 89.9404 45.8576 89.8764 45.534C89.8124 45.2103 89.8459 44.8749 89.9725 44.5703C90.0992 44.2656 90.3134 44.0054 90.588 43.8225C90.8626 43.6397 91.1853 43.5424 91.5153 43.543C91.7341 43.543 91.9508 43.5861 92.1529 43.67C92.3551 43.7538 92.5387 43.8767 92.6933 44.0316C92.8479 44.1864 92.9705 44.3703 93.0539 44.5726C93.1374 44.7749 93.1802 44.9917 93.1798 45.2105Z" fill="#FFC727"/>
<path d="M93.0055 41.941C93.005 42.27 92.9068 42.5916 92.7236 42.8649C92.5403 43.1382 92.2801 43.3511 91.9759 43.4766C91.6717 43.6021 91.3371 43.6347 91.0145 43.5701C90.6918 43.5056 90.3955 43.3468 90.163 43.1139C89.9305 42.881 89.7723 42.5844 89.7083 42.2616C89.6443 41.9388 89.6774 41.6043 89.8035 41.3003C89.9296 40.9963 90.1429 40.7365 90.4166 40.5538C90.6902 40.371 91.0119 40.2734 91.341 40.2734C91.5599 40.2734 91.7766 40.3166 91.9787 40.4004C92.1808 40.4843 92.3645 40.6071 92.5191 40.762C92.6737 40.9169 92.7962 41.1008 92.8797 41.303C92.9632 41.5053 93.0059 41.7221 93.0055 41.941Z" fill="#FFC727"/>
<path d="M92.2425 38.7378C92.2425 39.0678 92.1446 39.3903 91.9613 39.6646C91.7779 39.9389 91.5173 40.1526 91.2124 40.2787C90.9076 40.4048 90.5721 40.4377 90.2486 40.3731C89.925 40.3085 89.6279 40.1494 89.3948 39.9159C89.1617 39.6824 89.0031 39.385 88.9391 39.0613C88.8751 38.7376 88.9086 38.4023 89.0353 38.0976C89.1619 37.793 89.3761 37.5327 89.6508 37.3499C89.9254 37.167 90.2481 37.0697 90.578 37.0703C90.7968 37.0703 91.0135 37.1135 91.2157 37.1973C91.4178 37.2811 91.6014 37.404 91.7561 37.5589C91.9107 37.7138 92.0332 37.8976 92.1167 38.0999C92.2001 38.3022 92.2429 38.519 92.2425 38.7378Z" fill="#FFC727"/>
<path d="M88.7993 37.5829C89.7186 37.5829 90.4638 36.8377 90.4638 35.9184C90.4638 34.9991 89.7186 34.2539 88.7993 34.2539C87.88 34.2539 87.1348 34.9991 87.1348 35.9184C87.1348 36.8377 87.88 37.5829 88.7993 37.5829Z" fill="#FFC727"/>
<g opacity="0.3">
<path d="M80.6929 35.8442C80.6935 36.1741 80.5963 36.4968 80.4134 36.7714C80.2305 37.0461 79.9703 37.2603 79.6656 37.3869C79.361 37.5136 79.0256 37.5471 78.702 37.4831C78.3783 37.419 78.0809 37.2605 77.8474 37.0274C77.6139 36.7943 77.4548 36.4972 77.3902 36.1736C77.3256 35.8501 77.3584 35.5146 77.4846 35.2098C77.6107 34.9049 77.8244 34.6443 78.0987 34.4609C78.373 34.2776 78.6955 34.1797 79.0254 34.1797C79.4672 34.1797 79.8909 34.355 80.2035 34.667C80.5161 34.9791 80.6922 35.4025 80.6929 35.8442Z" fill="white"/>
<path d="M79.1096 40.6728C80.0289 40.6728 80.7741 39.9276 80.7741 39.0083C80.7741 38.089 80.0289 37.3438 79.1096 37.3438C78.1903 37.3438 77.4451 38.089 77.4451 39.0083C77.4451 39.9276 78.1903 40.6728 79.1096 40.6728Z" fill="white"/>
<path d="M81.9578 41.941C81.9578 42.2709 81.86 42.5934 81.6766 42.8677C81.4932 43.142 81.2326 43.3557 80.9278 43.4818C80.6229 43.608 80.2874 43.6408 79.9639 43.5762C79.6403 43.5116 79.3432 43.3525 79.1101 43.119C78.8771 42.8855 78.7185 42.5881 78.6545 42.2644C78.5905 41.9408 78.6239 41.6054 78.7506 41.3007C78.8773 40.9961 79.0915 40.7359 79.3661 40.553C79.6407 40.3701 79.9634 40.2728 80.2933 40.2734C80.5122 40.2734 80.7289 40.3166 80.931 40.4004C81.1331 40.4843 81.3168 40.6071 81.4714 40.762C81.626 40.9169 81.7485 41.1008 81.832 41.3031C81.9155 41.5053 81.9582 41.7221 81.9578 41.941Z" fill="white"/>
<path d="M83.7847 44.6402C83.7847 44.97 83.687 45.2924 83.5037 45.5666C83.3205 45.8408 83.0601 46.0546 82.7554 46.1808C82.4507 46.307 82.1154 46.34 81.7919 46.2757C81.4684 46.2113 81.1713 46.0525 80.9381 45.8193C80.7049 45.5861 80.5461 45.289 80.4817 44.9655C80.4174 44.642 80.4504 44.3067 80.5766 44.002C80.7029 43.6973 80.9166 43.4369 81.1908 43.2537C81.465 43.0705 81.7874 42.9727 82.1172 42.9727C82.3363 42.9723 82.5533 43.0151 82.7558 43.0988C82.9583 43.1824 83.1423 43.3053 83.2972 43.4602C83.4521 43.6151 83.575 43.7991 83.6586 44.0016C83.7423 44.2041 83.7851 44.4211 83.7847 44.6402Z" fill="white"/>
<path d="M85.6654 47.2847C85.6654 47.6146 85.5675 47.9372 85.3841 48.2114C85.2008 48.4857 84.9401 48.6995 84.6353 48.8256C84.3304 48.9517 83.995 48.9846 83.6714 48.92C83.3479 48.8554 83.0507 48.6963 82.8177 48.4628C82.5846 48.2293 82.426 47.9318 82.362 47.6082C82.298 47.2845 82.3314 46.9491 82.4581 46.6445C82.5848 46.3398 82.799 46.0796 83.0736 45.8968C83.3482 45.7139 83.6709 45.6166 84.0008 45.6172C84.2197 45.6172 84.4364 45.6603 84.6385 45.7442C84.8407 45.828 85.0243 45.9509 85.1789 46.1058C85.3335 46.2607 85.4561 46.4445 85.5395 46.6468C85.623 46.8491 85.6658 47.0659 85.6654 47.2847Z" fill="white"/>
<path d="M88.015 49.5317C88.0156 49.8616 87.9183 50.1843 87.7354 50.4589C87.5525 50.7336 87.2923 50.9478 86.9877 51.0744C86.683 51.2011 86.3476 51.2346 86.024 51.1706C85.7003 51.1065 85.4029 50.948 85.1694 50.7149C84.9359 50.4818 84.7768 50.1847 84.7122 49.8611C84.6476 49.5376 84.6805 49.2021 84.8066 48.8973C84.9327 48.5924 85.1464 48.3318 85.4207 48.1484C85.695 47.9651 86.0175 47.8672 86.3474 47.8672C86.7892 47.8672 87.2129 48.0425 87.5255 48.3545C87.8381 48.6666 88.0142 49.09 88.015 49.5317Z" fill="white"/>
<path d="M89.4482 52.2197C90.3675 52.2197 91.1127 51.4744 91.1127 50.5551C91.1127 49.6359 90.3675 48.8906 89.4482 48.8906C88.5289 48.8906 87.7837 49.6359 87.7837 50.5551C87.7837 51.4744 88.5289 52.2197 89.4482 52.2197Z" fill="white"/>
<path d="M91.5935 50.0947C92.5128 50.0947 93.258 49.3494 93.258 48.4301C93.258 47.5109 92.5128 46.7656 91.5935 46.7656C90.6742 46.7656 89.929 47.5109 89.929 48.4301C89.929 49.3494 90.6742 50.0947 91.5935 50.0947Z" fill="white"/>
<path d="M93.1798 45.2105C93.1798 45.5404 93.0819 45.8629 92.8985 46.1372C92.7152 46.4115 92.4546 46.6252 92.1497 46.7514C91.8448 46.8775 91.5094 46.9103 91.1858 46.8457C90.8623 46.7812 90.5652 46.6221 90.3321 46.3885C90.099 46.155 89.9404 45.8576 89.8764 45.534C89.8124 45.2103 89.8459 44.8749 89.9725 44.5703C90.0992 44.2656 90.3134 44.0054 90.588 43.8225C90.8626 43.6397 91.1853 43.5424 91.5153 43.543C91.7341 43.543 91.9508 43.5861 92.1529 43.67C92.3551 43.7538 92.5387 43.8767 92.6933 44.0316C92.8479 44.1864 92.9705 44.3703 93.0539 44.5726C93.1374 44.7749 93.1802 44.9917 93.1798 45.2105Z" fill="white"/>
<path d="M93.0055 41.941C93.005 42.27 92.9068 42.5916 92.7236 42.8649C92.5403 43.1382 92.2801 43.3511 91.9759 43.4766C91.6717 43.6021 91.3371 43.6347 91.0145 43.5701C90.6918 43.5056 90.3955 43.3468 90.163 43.1139C89.9305 42.881 89.7723 42.5844 89.7083 42.2616C89.6443 41.9388 89.6774 41.6043 89.8035 41.3003C89.9296 40.9963 90.1429 40.7365 90.4166 40.5538C90.6902 40.371 91.0119 40.2734 91.341 40.2734C91.5599 40.2734 91.7766 40.3166 91.9787 40.4004C92.1808 40.4843 92.3645 40.6071 92.5191 40.762C92.6737 40.9169 92.7962 41.1008 92.8797 41.303C92.9632 41.5053 93.0059 41.7221 93.0055 41.941Z" fill="white"/>
<path d="M92.2423 38.7378C92.2423 39.0678 92.1444 39.3903 91.961 39.6646C91.7777 39.9389 91.5171 40.1526 91.2122 40.2787C90.9073 40.4048 90.5719 40.4377 90.2483 40.3731C89.9248 40.3085 89.6277 40.1494 89.3946 39.9159C89.1615 39.6824 89.0029 39.385 88.9389 39.0613C88.8749 38.7376 88.9084 38.4023 89.035 38.0976C89.1617 37.793 89.3759 37.5327 89.6505 37.3499C89.9251 37.167 90.2478 37.0697 90.5778 37.0703C90.7966 37.0703 91.0133 37.1135 91.2154 37.1973C91.4176 37.2811 91.6012 37.404 91.7558 37.5589C91.9104 37.7138 92.033 37.8976 92.1164 38.0999C92.1999 38.3022 92.2427 38.519 92.2423 38.7378Z" fill="white"/>
<path d="M88.7993 37.5829C89.7186 37.5829 90.4638 36.8377 90.4638 35.9184C90.4638 34.9991 89.7186 34.2539 88.7993 34.2539C87.88 34.2539 87.1348 34.9991 87.1348 35.9184C87.1348 36.8377 87.88 37.5829 88.7993 37.5829Z" fill="white"/>
</g>
<path d="M83.3309 33.8937C80.3264 33.9538 78.6198 35.414 79.1096 37.6855C80.071 42.1352 85.4852 50.3286 89.6765 50.3286C93.0717 50.3286 91.0947 38.4366 89.0756 36.051C87.0566 33.6654 84.8663 33.8577 83.3309 33.8937Z" fill="#EB9481"/>
<path d="M79.2209 36.5621C79.5214 37.4124 83.863 42.3578 87.6968 41.0689C90.4008 40.1675 88.7664 34.6993 88.7664 34.6993L89.6737 26.6471L79.1098 21.4492C79.1098 21.4492 79.1008 36.1985 79.2209 36.5621Z" fill="#EB9481"/>
<path d="M79.1128 26.6291C80.1212 28.4972 81.5032 30.1379 83.1727 31.4492C84.8422 32.7605 86.7636 33.7144 88.8174 34.2516L89.6737 26.6471L79.1038 21.4492C79.1038 21.4492 79.1098 23.7898 79.1128 26.6291Z" fill="#263238"/>
<path d="M85.329 27.4751C88.7452 32.673 96.9506 33.3761 102.052 30.5338C102.179 30.4647 99.5675 27.5803 98.1103 22.2683C97.3502 19.4951 97.5395 16.5596 97.4283 13.6813C97.3802 12.3923 97.3352 11.1034 97.2571 9.81443C97.1849 8.58858 97.1399 7.23053 96.6922 6.05275C95.4213 2.7117 90.1844 2.86793 89.5264 3.62808C85.0136 8.868 81.4351 21.5532 85.329 27.4751Z" fill="#263238"/>
<path d="M86.5458 23.8231C86.8533 25.3179 87.4756 26.7301 88.3713 27.9656C89.267 29.2012 90.4156 30.2318 91.7406 30.989C94.6009 32.5934 98.3506 32.7917 101.424 31.686C101.478 31.665 101.517 31.7461 101.463 31.7671C98.2755 33.0381 94.8533 33.1192 91.7436 31.4937C88.8803 29.9915 86.72 27.1041 86.3354 23.8652C86.3371 23.8409 86.3468 23.8178 86.3629 23.7995C86.379 23.7812 86.4006 23.7687 86.4245 23.7639C86.4485 23.7591 86.4733 23.7623 86.4952 23.773C86.5171 23.7837 86.5349 23.8013 86.5458 23.8231Z" fill="#263238"/>
<path d="M84.4937 22.7233C85.1397 25.7278 86.5638 28.2576 89.0606 30.1294C91.5574 32.0013 95.3701 33.7019 98.5249 33.1791C98.5336 33.1775 98.5425 33.1776 98.5511 33.1795C98.5598 33.1814 98.5679 33.1849 98.5752 33.1899C98.5824 33.1949 98.5886 33.2013 98.5934 33.2088C98.5982 33.2162 98.6015 33.2245 98.603 33.2331C98.6046 33.2418 98.6045 33.2507 98.6026 33.2594C98.6007 33.268 98.5972 33.2761 98.5922 33.2834C98.5872 33.2907 98.5808 33.2969 98.5733 33.3016C98.5659 33.3064 98.5576 33.3097 98.549 33.3113C95.1989 33.9482 91.323 32.3618 88.688 30.3578C86.3505 28.5791 84.3405 25.7669 84.2563 22.7353C84.2654 22.5971 84.4667 22.5941 84.4937 22.7233Z" fill="#263238"/>
<path d="M96.602 8.74959C96.7672 12.3971 96.9865 15.9214 97.9901 19.4578C98.9941 23.0317 100.533 26.4332 102.554 29.547C102.593 29.6071 102.509 29.6852 102.464 29.6221C100.322 26.6532 98.6917 23.3466 97.6415 19.8394C96.605 16.3331 95.9319 12.3911 96.3736 8.72254C96.3772 8.69226 96.3927 8.66465 96.4166 8.64577C96.4406 8.6269 96.471 8.61831 96.5013 8.62189C96.5316 8.62548 96.5592 8.64095 96.5781 8.66489C96.597 8.68884 96.6055 8.71931 96.602 8.74959Z" fill="#263238"/>
<path d="M98.8555 14.6077C100.959 27.7226 93.3182 30.4537 90.4849 30.9014C87.913 31.307 79.1037 32.3616 75.6635 19.5322C72.2233 6.70278 77.6555 1.58905 83.4993 0.351179C89.3432 -0.886692 96.7584 1.49591 98.8555 14.6077Z" fill="#EB9481"/>
<path d="M95.8268 13.2595C95.5244 13.2347 95.2235 13.1936 94.9255 13.1363C94.6004 13.1363 94.2841 13.0309 94.0241 12.8359C93.955 12.7574 93.9137 12.6584 93.9066 12.5541C93.8995 12.4498 93.9271 12.346 93.985 12.259C94.2524 11.8985 94.6971 11.8564 95.1238 11.9015C95.5525 11.9321 95.9543 12.1218 96.2505 12.4333C96.3137 12.5093 96.3532 12.6023 96.3641 12.7006C96.3749 12.7989 96.3567 12.8983 96.3115 12.9863C96.2664 13.0743 96.1964 13.1471 96.1102 13.1957C96.024 13.2443 95.9255 13.2665 95.8268 13.2595Z" fill="#263238"/>
<path d="M86.4468 14.0968C86.7467 14.0282 87.0426 13.9429 87.3331 13.8414C87.6572 13.7964 87.9572 13.6453 88.1864 13.4118C88.2447 13.3241 88.2721 13.2196 88.2645 13.1146C88.2569 13.0097 88.2146 12.9102 88.1443 12.8319C87.8259 12.5164 87.3782 12.5314 86.9666 12.6426C86.5464 12.7343 86.1756 12.9797 85.927 13.3306C85.8744 13.4137 85.8471 13.5104 85.8487 13.6087C85.8502 13.707 85.8805 13.8028 85.9357 13.8841C85.9909 13.9655 86.0687 14.029 86.1595 14.0668C86.2503 14.1046 86.3501 14.115 86.4468 14.0968Z" fill="#263238"/>
<path d="M88.616 16.8838C88.616 16.8477 88.5499 16.9319 88.5529 16.9679C88.6701 17.8693 88.6491 18.9209 87.8589 19.2994C87.8348 19.2994 87.8408 19.3565 87.8589 19.3505C88.8594 19.1132 88.8684 17.7191 88.616 16.8838Z" fill="#263238"/>
<path d="M87.7146 16.0158C86.2484 16.0458 86.4167 18.9722 87.7747 18.9452C89.1328 18.9182 88.9465 15.9917 87.7146 16.0158Z" fill="#263238"/>
<path d="M87.1498 16.2025C86.9034 16.3828 86.6691 16.6892 86.3596 16.7373C86.0051 16.7944 85.7196 16.5029 85.4582 16.2205C85.4342 16.1905 85.4102 16.2205 85.4102 16.2566C85.4342 16.8184 85.6836 17.3833 86.2905 17.4313C86.8433 17.4764 87.2099 16.9566 87.318 16.3858C87.3481 16.2806 87.2489 16.1304 87.1498 16.2025Z" fill="#263238"/>
<path d="M94.0753 16.5291C94.0753 16.493 94.1474 16.5681 94.1474 16.6042C94.1654 17.5056 94.3367 18.5511 95.1719 18.8125C95.199 18.8125 95.199 18.8666 95.1719 18.8636C94.1564 18.7705 93.9431 17.3914 94.0753 16.5291Z" fill="#263238"/>
<path d="M94.8385 15.5315C96.2957 15.3512 96.5541 18.2686 95.205 18.4399C93.856 18.6111 93.6186 15.6967 94.8385 15.5315Z" fill="#263238"/>
<path d="M95.4663 15.6818C95.7097 15.817 95.9651 16.0784 96.2415 16.0724C96.5179 16.0664 96.7733 15.7269 96.9505 15.4084C96.9686 15.3753 96.9926 15.4084 96.9986 15.4354C97.0647 15.9913 96.9295 16.5892 96.3977 16.7424C95.8659 16.8956 95.5114 16.4419 95.3311 15.8921C95.301 15.793 95.3822 15.6277 95.4663 15.6818Z" fill="#263238"/>
<path d="M89.1117 24.2717C89.316 24.497 89.5143 24.8035 89.8418 24.8515C90.1802 24.867 90.5181 24.8106 90.8333 24.6863C90.8633 24.6863 90.8904 24.7103 90.8693 24.7344C90.726 24.9049 90.5391 25.0333 90.3284 25.1058C90.1178 25.1783 89.8914 25.1922 89.6735 25.146C89.492 25.0854 89.3323 24.9728 89.2142 24.8221C89.0962 24.6715 89.025 24.4895 89.0095 24.2987C89.0125 24.2446 89.0726 24.2446 89.1117 24.2717Z" fill="#263238"/>
<path d="M92.9335 21.0103C92.9335 21.0103 93.1138 22.3684 93.1108 23.0083C93.1108 23.0684 92.9546 23.0955 92.7383 23.1075C92.7383 23.1075 92.7202 23.1075 92.7112 23.1075C92.1604 23.2048 91.5935 23.1486 91.0725 22.9451C90.5516 22.7416 90.0967 22.3986 89.7577 21.9537C89.7157 21.8906 89.7968 21.8275 89.8539 21.8666C90.6952 22.4915 91.6296 22.6568 92.6331 22.6778C92.6782 22.5006 92.2455 20.3643 92.3326 20.3583C92.6812 20.3283 93.3722 20.5716 93.7868 20.6948C93.4864 17.8555 92.7443 15.0884 92.4949 12.2581C92.4905 12.2338 92.4959 12.2087 92.51 12.1884C92.5241 12.1682 92.5457 12.1543 92.57 12.1499C92.5943 12.1455 92.6193 12.151 92.6396 12.1651C92.6599 12.1792 92.6738 12.2007 92.6782 12.225C93.6667 15.0703 94.0783 18.3273 94.4569 21.2387C94.5049 21.6112 93.1889 21.1215 92.9335 21.0103Z" fill="#263238"/>
<path d="M92.1343 22.8226C91.8363 23.2514 91.4327 23.596 90.9626 23.8232C90.7023 23.9389 90.4127 23.9714 90.1333 23.9163C89.5324 23.7871 89.4843 23.2343 89.5715 22.7595C89.6194 22.5056 89.6981 22.2584 89.8058 22.0234C90.4771 22.531 91.2928 22.811 92.1343 22.8226Z" fill="#263238"/>
<path d="M90.9626 23.8214C90.7023 23.9372 90.4127 23.9697 90.1333 23.9146C89.5324 23.7854 89.4843 23.2325 89.5715 22.7578C90.2174 22.7909 90.8754 23.1995 90.9626 23.8214Z" fill="#FF98B9"/>
<path d="M69.1135 14.7043C69.3104 17.1579 69.0089 19.6261 68.2271 21.9602C67.5722 23.8982 66.7038 25.8331 66.8541 27.9303C67.1305 31.6799 70.8681 33.9213 74.2242 35.2734C76.4686 36.1747 81.2759 36.0455 84.8513 34.5913C85.0255 34.5192 69.8286 19.5686 80.6629 1.31001C80.711 1.22588 77.373 0.883363 73.6233 3.83683C70.0208 6.67612 68.807 10.4799 69.1135 14.7043Z" fill="#263238"/>
<path d="M68.5667 13.5536C68.6887 10.8428 69.6812 8.24355 71.397 6.14138C71.412 6.12035 71.4481 6.14138 71.4331 6.16842C69.7883 8.42725 68.8693 11.1329 68.7981 13.9262C68.6959 16.3027 68.8702 18.7124 67.9568 20.9568C67.437 22.2367 66.755 23.3995 66.6528 24.8026C66.5565 26.1367 66.8004 27.4734 67.3619 28.6875C68.5637 31.3435 70.9674 33.011 73.6714 34.0716C73.7556 34.1047 73.7285 34.2369 73.6354 34.2068C68.72 32.6805 64.9883 27.5578 66.9563 22.6543C67.5782 21.104 68.2422 19.7339 68.4105 18.0454C68.5487 16.5551 68.4796 15.0468 68.5667 13.5536Z" fill="#263238"/>
<path d="M71.28 6.87973C71.298 6.8587 71.3401 6.87973 71.322 6.90377C69.536 9.42348 68.7236 12.5051 69.0356 15.5779C69.1648 17.0441 69.3961 18.5073 69.2609 19.9765C69.1158 21.2978 68.7566 22.5865 68.1973 23.7923C66.9955 26.5865 65.5383 29.8765 68.5428 32.2351C71.1688 34.2932 74.8854 35.0593 78.1574 35.1495C78.1765 35.1495 78.1948 35.1571 78.2083 35.1706C78.2219 35.1841 78.2295 35.2025 78.2295 35.2216C78.2295 35.2407 78.2219 35.259 78.2083 35.2726C78.1948 35.2861 78.1765 35.2937 78.1574 35.2937C74.9335 35.3237 71.3431 34.4825 68.6901 32.5896C66.4847 31.0092 66.1362 28.6837 66.9354 26.2801C67.5033 24.5885 68.4557 23.0472 68.8523 21.2925C69.2699 19.4387 69.0266 17.633 68.8523 15.7642C68.5518 12.5283 69.3 9.49969 71.28 6.87973Z" fill="#263238"/>
<path d="M68.5698 14.6294C68.6389 11.7451 69.0926 8.68345 71.355 6.65538C71.382 6.62834 71.4271 6.65538 71.397 6.69745C68.729 9.28736 68.8011 13.1632 68.7621 16.6124C68.744 18.316 68.6839 20.0496 68.1942 21.6901C67.7045 23.3306 66.6018 24.7758 66.3644 26.4974C65.8717 30.1028 68.6809 33.1254 71.8898 34.3723C75.4021 35.7424 78.9865 35.2196 82.634 35.1144C82.7212 35.1144 82.7482 35.2556 82.6551 35.2676C77.5894 35.9947 70.6579 35.9647 67.407 31.2596C66.7347 30.3333 66.3107 29.2503 66.1756 28.1137C66.0404 26.9771 66.1985 25.8249 66.6348 24.7668C67.3349 23.0812 68.1371 21.582 68.3655 19.7432C68.5878 18.0396 68.5277 16.327 68.5698 14.6294Z" fill="#263238"/>
<path d="M76.9374 19.9705C79.6805 19.646 79.1277 13.3605 79.1277 13.3605C79.1277 13.3605 83.6645 11.9844 85.2569 8.61933C85.2569 8.61933 84.2654 11.4857 82.5679 12.8047C82.2674 13.027 91.6055 11.062 91.7197 3.74897C91.7197 3.74897 93.871 10.7255 98.3297 11.723C98.543 11.7681 97.0017 5.29931 95.4544 3.92624C94.5649 3.12328 93.5739 2.44044 92.5069 1.89517C89.4472 0.0830658 85.7987 -0.456335 82.3455 0.392896C76.6369 1.85611 73.5152 8.34592 73.3319 10.8878C73.0044 15.8993 75.6364 20.1267 76.9374 19.9705Z" fill="#263238"/>
<path d="M82.8864 12.9367C87.9941 12.1616 91.7378 8.42991 91.5996 3.14492C91.6022 3.11804 91.614 3.09289 91.633 3.07372C91.652 3.05455 91.6771 3.04253 91.704 3.03971C91.7308 3.03688 91.7578 3.04342 91.7804 3.05821C91.803 3.073 91.8198 3.09514 91.8279 3.12089C93.0959 8.36982 87.7568 12.8917 82.8443 13.0359C82.7302 13.0359 82.7632 12.9548 82.8864 12.9367Z" fill="#263238"/>
<path d="M76.9194 19.6809C79.5513 17.9533 79.6895 15.108 79.5964 12.2447C79.5964 12.1606 79.7346 12.1425 79.7466 12.2267C80.0891 15.0089 79.9479 18.4791 77.0425 19.9033C77.0139 19.9129 76.9828 19.9122 76.9546 19.9013C76.9264 19.8904 76.9029 19.8699 76.8883 19.8435C76.8736 19.817 76.8687 19.7863 76.8744 19.7566C76.8801 19.7269 76.896 19.7001 76.9194 19.6809Z" fill="#263238"/>
<path d="M91.6476 2.66376C91.6476 2.65659 91.6505 2.64971 91.6555 2.64464C91.6606 2.63957 91.6675 2.63672 91.6747 2.63672C91.6818 2.63672 91.6887 2.63957 91.6938 2.64464C91.6988 2.64971 91.7017 2.65659 91.7017 2.66376C92.6451 5.53911 93.3061 10.4906 97.1549 10.8301C97.1734 10.8337 97.1901 10.8436 97.202 10.8582C97.214 10.8727 97.2205 10.8909 97.2205 10.9097C97.2205 10.9285 97.214 10.9468 97.202 10.9613C97.1901 10.9758 97.1734 10.9857 97.1549 10.9893C93.4263 10.9863 91.5785 5.74943 91.6476 2.66376Z" fill="#263238"/>
<path d="M78.9475 19.2225C78.9475 19.2225 75.967 15.1303 74.1042 16.1969C72.2414 17.2635 74.5339 23.2335 76.7602 24.0087C77.0392 24.1313 77.3402 24.1958 77.6449 24.1984C77.9495 24.201 78.2516 24.1416 78.5326 24.0239C78.8136 23.9061 79.0678 23.7325 79.2796 23.5135C79.4914 23.2944 79.6565 23.0346 79.7648 22.7498L78.9475 19.2225Z" fill="#EB9481"/>
<path d="M74.8042 17.8906C74.7682 17.8906 74.7622 17.9387 74.8042 17.9507C76.3666 18.5516 77.2079 19.9698 77.8088 21.448C77.3371 20.8831 76.7031 20.5827 75.946 21.1475C75.9069 21.1776 75.946 21.2407 75.988 21.2317C76.2591 21.1402 76.5517 21.1347 76.826 21.2159C77.1003 21.2971 77.3428 21.4611 77.5203 21.6854C77.8132 22.0632 78.065 22.4711 78.2715 22.9022C78.3466 23.0404 78.596 22.9593 78.5419 22.8031L78.5269 22.767C78.5178 20.787 76.9315 18.0529 74.8042 17.8906Z" fill="#263238"/>
</svg>
