<svg width="583" height="704" viewBox="0 0 583 704" fill="none" xmlns="http://www.w3.org/2000/svg">
<path d="M318.679 252.093C318.008 251.953 317.387 251.635 316.88 251.174C316.373 250.712 316 250.123 315.798 249.467C315.495 248.806 315.411 248.065 315.559 247.353C315.553 247.308 315.553 247.262 315.559 247.217C315.571 246.951 315.617 246.687 315.696 246.432C315.893 245.701 316.303 245.044 316.873 244.545C317.444 244.046 318.149 243.727 318.901 243.628C319.652 243.53 320.416 243.656 321.096 243.991C321.776 244.326 322.341 244.855 322.721 245.512C324.596 248.547 322.175 252.724 318.679 252.093Z" fill="#FFC727"/>
<path d="M332.422 240.118C332.462 240.218 332.496 240.321 332.525 240.425C332.625 240.812 332.622 241.218 332.518 241.603C332.413 241.989 332.21 242.341 331.928 242.624C331.78 242.765 331.607 242.875 331.416 242.948C331.193 243.138 330.928 243.273 330.644 243.343C330.359 243.413 330.062 243.416 329.776 243.351C329.49 243.287 329.223 243.157 328.995 242.971C328.768 242.786 328.587 242.55 328.467 242.283C327.427 240.186 329.933 237.441 331.877 239.197C332.081 239.393 332.248 239.624 332.371 239.879V239.964L332.422 240.118Z" fill="#FFC727"/>
<path d="M333.463 253.248C333.114 253.4 332.721 253.417 332.359 253.298C331.998 253.178 331.693 252.93 331.502 252.6C331.417 252.474 331.361 252.33 331.341 252.179C331.32 252.029 331.334 251.875 331.383 251.731C331.393 251.393 331.519 251.069 331.74 250.813C331.961 250.558 332.263 250.386 332.596 250.328C332.929 250.27 333.272 250.329 333.567 250.494C333.861 250.66 334.09 250.922 334.213 251.236C334.363 251.605 334.37 252.016 334.231 252.389C334.092 252.761 333.818 253.068 333.463 253.248Z" fill="#FFC727"/>
<path d="M316.617 424.411C308.875 441.206 288.039 436.603 274.688 432.152C254.79 425.485 235.027 418.511 214.737 413.294C194.446 408.076 173.183 404.768 152.057 406.047C144.316 406.507 134.137 409.73 127.163 404.7C124.96 403.248 123.366 401.039 122.681 398.491C121.996 395.943 122.268 393.233 123.446 390.872C122.201 375.441 135.074 363.982 148.903 359.191C152.313 358.049 154.819 356.821 156.729 353.581C157.906 351.603 158.826 349.506 160.037 347.562C162.347 343.72 165.026 340.11 168.034 336.786C173.909 330.298 180.918 324.935 188.717 320.963C217.584 306.35 253.221 315.046 273.153 341.321C275.865 344.885 277.928 348.892 280.537 352.541C283.538 356.736 287.647 359.02 291.756 361.851C298.28 366.355 303.868 372.082 308.21 378.714C312.825 385.78 316.011 393.682 317.588 401.972C318.935 409.099 319.72 417.642 316.617 424.411Z" fill="url(#paint0_linear_1_5950)"/>
<path d="M312.183 434.857C309.473 438.813 305.989 442.177 301.942 444.748C297.894 447.318 293.368 449.041 288.635 449.811C269.214 452.949 252.59 441.729 236.852 431.618C227.422 425.53 218.522 422.649 207.404 424.661C198.879 426.178 190.643 428.531 181.93 428.89C165.544 429.606 146.123 426.042 132.772 415.487C121.808 406.843 117.614 389.911 129.993 380.482C136.643 375.366 145.134 373.661 153.08 371.956C162.763 370.247 172.159 367.188 180.992 362.868C212.912 346.755 249.674 346.294 280.604 365.443C294.126 373.815 307.153 385.904 314.706 400.414C320.47 411.344 321.646 426.485 312.183 434.857Z" fill="#FFC727"/>
<path opacity="0.1" d="M312.183 434.857C309.473 438.813 305.989 442.177 301.942 444.748C297.894 447.318 293.368 449.041 288.635 449.811C269.214 452.949 252.59 441.729 236.852 431.618C227.422 425.53 218.522 422.649 207.404 424.661C198.879 426.178 190.643 428.531 181.93 428.89C165.544 429.606 146.123 426.042 132.772 415.487C121.808 406.843 117.614 389.911 129.993 380.482C136.643 375.366 145.134 373.661 153.08 371.956C162.763 370.247 172.159 367.188 180.992 362.868C212.912 346.755 249.674 346.294 280.604 365.443C294.126 373.815 307.153 385.904 314.706 400.414C320.47 411.344 321.646 426.485 312.183 434.857Z" fill="black"/>
<path d="M461.239 98.3563C460.61 107.126 449.856 109.744 443.161 111.713C423.175 117.58 402.074 115.388 381.825 112.546C360.013 109.48 337.188 105.258 315.457 110.516C299.002 114.576 283.318 123.731 274.736 139.158C404.874 122.492 441.396 224.762 433.117 228.68C423.804 233.105 395.216 246.361 385.112 247.416C362.895 249.791 340.353 247.173 318.156 246.218C294.802 245.224 271.489 244.676 248.034 243.985C201.916 242.605 155.696 240.758 109.942 234.16C86.9192 230.951 64.127 226.259 41.7078 220.113C25.476 215.607 -1.59051 212.562 0.0732511 193.724C3.03556 160.108 31.7658 107.999 106.513 113.764C106.384 95.0012 110.783 76.4847 119.336 59.7871C134.919 29.1956 163.122 6.78488 196.072 1.3852C212.203 -1.22586 228.716 -0.135877 244.365 4.57283C260.013 9.28154 274.387 17.4859 286.402 28.5663C297.077 22.4465 308.862 18.5124 321.071 16.9929C333.28 15.4735 345.67 16.399 357.518 19.7157C379.667 26.4039 398.691 40.8063 411.144 60.3149C427.03 56.6813 443.912 63.8673 453.752 77.3665C457.851 82.9286 461.767 91.0079 461.239 98.3563Z" fill="url(#paint1_linear_1_5950)"/>
<path d="M478.968 107.803C473.71 121.789 460.413 130.416 447.562 135.592C415.079 148.705 379.328 141.174 345.77 137.825C329.042 136.14 311.928 135.349 295.26 138.272C279.973 140.951 259.631 147.508 250.597 161.9C244.303 172.049 251.896 182.584 261.661 185.487C270.736 188.166 280.582 185.771 289.657 184.533C309.695 181.782 329.889 180.324 350.115 180.169C380.12 179.945 417.109 184.228 430.346 217.397C433.011 223.914 433.936 231.012 433.028 237.995C432.12 244.977 429.412 251.604 425.169 257.223C418.117 267.391 408.752 275.739 397.843 281.582C388.708 291.021 374.558 294.999 361.443 294.695C337.629 294.126 314.75 284.545 291.606 279.836C280.533 277.399 269.138 276.775 257.865 277.989C247.024 279.389 236.832 283.571 226.357 286.555C206.358 292.294 185.118 292.062 165.25 285.885C145.395 279.613 127.509 268.184 107.512 262.115C88.9566 256.452 69.8123 252.899 51.5004 246.363C35.0968 240.517 17.4345 231.91 6.73566 217.153C-3.96322 202.396 -1.56764 184.756 11.4456 172.861C26.2048 159.504 48.3131 152.724 67.1528 152.765C122.454 152.887 125.438 125.057 122.454 117.526C116.83 103.317 116.059 87.9101 123.124 74.1069C129.731 61.8014 140.368 52.1407 153.251 46.744C168.315 40.2484 185.186 40.3296 200.96 43.4962C219.394 47.1703 235.716 56.0815 253.419 61.9479C273.72 68.6668 293.169 62.1103 312.861 56.3048C330.658 50.8754 348.93 47.1507 367.432 45.181C385.786 43.195 404.331 43.8787 422.489 47.2109C438.426 50.276 455.5 55.3304 467.721 67.0023C478.278 77.0299 484.429 93.2691 478.968 107.803Z" fill="url(#paint2_linear_1_5950)"/>
<path opacity="0.1" d="M478.968 107.803C473.71 121.789 460.413 130.416 447.562 135.592C415.079 148.705 379.328 141.174 345.77 137.825C329.042 136.14 311.928 135.349 295.26 138.272C279.973 140.951 259.631 147.508 250.597 161.9C244.303 172.049 251.896 182.584 261.661 185.487C270.736 188.166 280.582 185.771 289.657 184.533C309.695 181.782 329.889 180.324 350.115 180.169C380.12 179.945 417.109 184.228 430.346 217.397C433.011 223.914 433.936 231.012 433.028 237.995C432.12 244.977 429.412 251.604 425.169 257.223C418.117 267.391 408.752 275.739 397.843 281.582C388.708 291.021 374.558 294.999 361.443 294.695C337.629 294.126 314.749 284.545 291.606 279.836C280.533 277.399 269.138 276.775 257.865 277.989C247.024 279.389 236.832 283.571 226.357 286.555C206.358 292.294 185.118 292.062 165.249 285.885C145.395 279.613 127.509 268.184 107.512 262.115C88.9566 256.452 69.8123 252.899 51.5004 246.363C35.0968 240.517 17.4345 231.91 6.73566 217.153C-3.96321 202.396 -1.56764 184.756 11.4456 172.861C26.2048 159.504 48.3131 152.724 67.1528 152.765C122.454 152.887 125.438 125.057 122.454 117.526C116.83 103.317 116.059 87.9101 123.124 74.1069C129.731 61.8014 140.368 52.1407 153.251 46.744C168.315 40.2484 185.186 40.3296 200.96 43.4962C219.394 47.1703 235.716 56.0815 253.419 61.9479C273.72 68.6668 293.169 62.1103 312.861 56.3048C330.658 50.8754 348.93 47.1507 367.432 45.181C385.786 43.195 404.331 43.8787 422.489 47.2109C438.426 50.276 455.5 55.3304 467.721 67.0023C478.278 77.0299 484.429 93.2691 478.968 107.803Z" fill="black"/>
<path d="M283.077 402.306C282.254 402.477 281.492 402.867 280.871 403.434C280.25 404.001 279.793 404.724 279.548 405.529C279.182 406.329 279.075 407.223 279.241 408.086V408.257C279.258 408.585 279.31 408.911 279.394 409.229C279.635 410.129 280.138 410.937 280.839 411.552C281.54 412.166 282.407 412.558 283.332 412.678C284.256 412.799 285.195 412.642 286.03 412.229C286.865 411.815 287.558 411.162 288.022 410.354C290.256 406.705 287.357 401.59 283.077 402.306Z" fill="#FFC727"/>
<path d="M139.866 390.174C139.044 390.344 138.284 390.731 137.663 391.295C137.042 391.859 136.584 392.579 136.336 393.38C135.971 394.186 135.864 395.085 136.029 395.955V396.125C136.045 396.455 136.102 396.782 136.2 397.097C136.451 397.975 136.954 398.76 137.646 399.357C138.337 399.953 139.188 400.334 140.094 400.454C140.999 400.573 141.92 400.426 142.743 400.029C143.565 399.633 144.254 399.005 144.725 398.222C147.112 394.505 144.145 389.39 139.866 390.174Z" fill="#FFC727"/>
<path d="M299.89 416.939C299.945 416.818 299.991 416.693 300.026 416.564C300.147 416.09 300.143 415.592 300.015 415.12C299.886 414.648 299.638 414.217 299.293 413.87C299.108 413.707 298.901 413.569 298.679 413.461C298.401 413.232 298.074 413.071 297.724 412.988C297.373 412.906 297.009 412.905 296.658 412.986C296.307 413.066 295.979 413.227 295.7 413.454C295.421 413.681 295.198 413.969 295.047 414.296C293.785 416.854 296.855 420.213 299.174 418.065C299.421 417.824 299.623 417.541 299.77 417.229V417.127L299.89 416.939Z" fill="#FFC727"/>
<path d="M200.295 417.417C200.35 417.295 200.396 417.17 200.431 417.041C200.552 416.565 200.548 416.065 200.419 415.59C200.291 415.115 200.042 414.681 199.698 414.33C199.519 414.163 199.311 414.03 199.084 413.938C198.807 413.709 198.481 413.546 198.131 413.463C197.782 413.379 197.418 413.377 197.067 413.456C196.716 413.535 196.389 413.693 196.109 413.919C195.829 414.144 195.604 414.431 195.452 414.757C194.19 417.314 197.259 420.69 199.578 418.542C199.826 418.297 200.033 418.015 200.192 417.706V417.587L200.295 417.417Z" fill="#FFC727"/>
<path d="M301.169 400.86C300.742 400.674 300.262 400.653 299.82 400.801C299.379 400.949 299.009 401.256 298.781 401.662C298.675 401.814 298.606 401.988 298.58 402.172C298.553 402.355 298.57 402.543 298.628 402.719C298.549 403.171 298.653 403.636 298.916 404.012C299.18 404.387 299.582 404.643 300.035 404.722C300.487 404.801 300.952 404.698 301.328 404.434C301.703 404.17 301.959 403.768 302.038 403.315C302.231 402.872 302.248 402.372 302.087 401.916C301.926 401.461 301.597 401.083 301.169 400.86Z" fill="#FFC727"/>
<path d="M212.963 361.46C212.536 361.282 212.058 361.264 211.619 361.412C211.179 361.559 210.809 361.861 210.576 362.262C210.473 362.418 210.406 362.596 210.38 362.782C210.353 362.967 210.368 363.157 210.422 363.336C210.383 363.56 210.389 363.789 210.438 364.011C210.488 364.233 210.58 364.443 210.711 364.629C210.841 364.815 211.007 364.973 211.199 365.095C211.391 365.217 211.605 365.3 211.829 365.339C212.053 365.379 212.282 365.373 212.504 365.324C212.726 365.274 212.936 365.182 213.122 365.051C213.308 364.92 213.467 364.754 213.589 364.562C213.711 364.371 213.793 364.157 213.833 363.933C214.022 363.486 214.038 362.985 213.877 362.528C213.716 362.07 213.39 361.69 212.963 361.46Z" fill="#FFC727"/>
<path d="M146.397 409.304C145.969 409.125 145.491 409.108 145.052 409.256C144.613 409.403 144.242 409.705 144.009 410.105C143.911 410.264 143.846 410.441 143.82 410.626C143.793 410.811 143.806 411 143.856 411.18C143.817 411.404 143.822 411.633 143.872 411.855C143.921 412.077 144.014 412.287 144.144 412.473C144.275 412.659 144.441 412.817 144.633 412.939C144.825 413.061 145.039 413.144 145.263 413.183C145.715 413.262 146.18 413.159 146.556 412.895C146.742 412.764 146.9 412.598 147.022 412.406C147.144 412.214 147.227 412 147.266 411.776C147.456 411.33 147.472 410.829 147.311 410.372C147.15 409.914 146.824 409.533 146.397 409.304Z" fill="#FFC727"/>
<path d="M21.9411 178.003C21.1468 178.155 20.4091 178.521 19.8081 179.062C19.207 179.603 18.7653 180.298 18.5309 181.072C18.1792 181.834 18.0777 182.688 18.241 183.51V183.681C18.2497 183.993 18.3013 184.303 18.3944 184.602C18.6226 185.459 19.1006 186.228 19.7677 186.813C20.4348 187.397 21.2608 187.77 22.1404 187.883C23.02 187.997 23.9134 187.846 24.7069 187.45C25.5004 187.053 26.158 186.43 26.596 185.659C28.8297 182.129 25.9651 177.253 21.9411 178.003Z" fill="#FFC727"/>
<path d="M239.776 41.0772C238.982 41.2291 238.244 41.5954 237.643 42.1364C237.042 42.6773 236.6 43.3724 236.366 44.1464C236.014 44.9082 235.913 45.7617 236.076 46.5847V46.7552C236.085 47.0677 236.136 47.3775 236.229 47.676C236.458 48.533 236.936 49.3027 237.603 49.8871C238.27 50.4715 239.096 50.8441 239.975 50.9575C240.855 51.0709 241.748 50.9199 242.542 50.5238C243.335 50.1276 243.993 49.5043 244.431 48.7331C246.665 45.2036 243.8 40.327 239.776 41.0772Z" fill="#FFC727"/>
<path d="M305.823 237.449C305.03 237.604 304.295 237.972 303.694 238.512C303.094 239.053 302.651 239.746 302.413 240.518C302.074 241.309 301.997 242.187 302.191 243.025V243.178C302.2 243.491 302.252 243.8 302.345 244.099C302.571 244.957 303.047 245.728 303.713 246.315C304.379 246.901 305.205 247.276 306.085 247.391C306.965 247.506 307.859 247.357 308.653 246.962C309.448 246.567 310.107 245.944 310.546 245.173C312.729 241.592 309.898 236.716 305.823 237.449Z" fill="#FFC727"/>
<path d="M37.9006 191.969C37.9562 191.848 38.0019 191.723 38.037 191.594C38.1507 191.141 38.1461 190.667 38.0236 190.216C37.9012 189.765 37.6651 189.353 37.3379 189.02C37.1636 188.868 36.9683 188.741 36.7582 188.645C36.4953 188.435 36.1883 188.287 35.8603 188.212C35.5322 188.137 35.1915 188.138 34.8636 188.213C34.5358 188.288 34.2291 188.437 33.9667 188.648C33.7042 188.858 33.4927 189.125 33.348 189.429C32.1373 191.867 35.0531 195.073 37.2697 193.027C37.5057 192.793 37.7016 192.522 37.8494 192.225V192.123C37.8724 192.074 37.8895 192.022 37.9006 191.969Z" fill="#FFC727"/>
<path d="M407.837 227.813C407.892 227.692 407.938 227.567 407.973 227.438C408.087 226.985 408.082 226.51 407.96 226.059C407.837 225.609 407.601 225.197 407.274 224.863C407.1 224.711 406.904 224.585 406.694 224.488C406.431 224.278 406.124 224.13 405.796 224.056C405.468 223.981 405.128 223.981 404.8 224.057C404.472 224.132 404.165 224.281 403.903 224.491C403.64 224.702 403.429 224.969 403.284 225.273C402.073 227.711 404.989 230.916 407.206 228.87C407.442 228.637 407.638 228.366 407.785 228.069V227.967C407.808 227.918 407.826 227.866 407.837 227.813Z" fill="#FFC727"/>
<path d="M308.736 166.512C308.791 166.391 308.837 166.266 308.872 166.137C308.986 165.684 308.981 165.209 308.859 164.759C308.736 164.308 308.5 163.896 308.173 163.563C307.999 163.411 307.803 163.284 307.593 163.187C307.33 162.978 307.023 162.83 306.695 162.755C306.367 162.68 306.026 162.681 305.699 162.756C305.371 162.831 305.064 162.98 304.802 163.19C304.539 163.401 304.328 163.668 304.183 163.972C302.972 166.41 305.888 169.616 308.105 167.57C308.341 167.336 308.537 167.065 308.684 166.768V166.666C308.707 166.617 308.724 166.565 308.736 166.512Z" fill="#FFC727"/>
<path d="M360.471 87.0001C360.527 86.8849 360.573 86.7651 360.608 86.642C360.721 86.1889 360.717 85.7142 360.594 85.2634C360.472 84.8126 360.236 84.4007 359.909 84.0673C359.739 83.9096 359.543 83.7826 359.329 83.6922C359.067 83.4817 358.761 83.3329 358.434 83.257C358.107 83.1811 357.767 83.18 357.439 83.2537C357.111 83.3274 356.804 83.4742 356.541 83.6829C356.278 83.8917 356.065 84.1572 355.919 84.4595C354.708 86.8978 357.624 90.1034 359.841 88.0573C360.076 87.83 360.272 87.5649 360.42 87.2729V87.1706C360.447 87.117 360.464 87.0594 360.471 87.0001Z" fill="#FFC727"/>
<path d="M39.1623 176.628C38.7593 176.433 38.2955 176.403 37.8711 176.547C37.4468 176.691 37.096 176.995 36.8946 177.396C36.7933 177.54 36.7281 177.707 36.7044 177.882C36.6807 178.057 36.6991 178.235 36.7581 178.402C36.7686 178.795 36.9146 179.172 37.1713 179.47C37.428 179.767 37.7797 179.967 38.1668 180.035C38.554 180.104 38.9528 180.036 39.2958 179.844C39.6388 179.652 39.9048 179.347 40.049 178.981C40.227 178.55 40.2344 178.067 40.0698 177.63C39.9052 177.193 39.5808 176.835 39.1623 176.628Z" fill="#FFC727"/>
<path d="M204.997 202.171C204.594 201.976 204.13 201.946 203.706 202.09C203.282 202.234 202.931 202.538 202.73 202.939C202.628 203.083 202.563 203.25 202.539 203.425C202.516 203.6 202.534 203.778 202.593 203.945C202.604 204.338 202.75 204.715 203.006 205.013C203.263 205.31 203.615 205.51 204.002 205.578C204.389 205.647 204.788 205.579 205.131 205.387C205.474 205.195 205.74 204.89 205.884 204.524C206.062 204.093 206.069 203.61 205.905 203.173C205.74 202.736 205.416 202.378 204.997 202.171Z" fill="#FFC727"/>
<path d="M309.997 151.171C309.594 150.976 309.13 150.946 308.706 151.09C308.282 151.234 307.931 151.538 307.73 151.939C307.628 152.083 307.563 152.25 307.539 152.425C307.516 152.6 307.534 152.778 307.593 152.945C307.604 153.338 307.75 153.715 308.006 154.013C308.263 154.31 308.615 154.51 309.002 154.578C309.389 154.647 309.788 154.579 310.131 154.387C310.474 154.195 310.74 153.89 310.884 153.524C311.062 153.093 311.069 152.61 310.905 152.173C310.74 151.736 310.416 151.378 309.997 151.171Z" fill="#FFC727"/>
<path d="M202.767 87.057C202.359 86.8814 201.9 86.8626 201.478 87.0042C201.057 87.1457 200.702 87.4377 200.482 87.8243C200.381 87.969 200.316 88.1358 200.292 88.3108C200.269 88.4858 200.287 88.6639 200.346 88.8303C200.357 89.2233 200.502 89.6006 200.759 89.8983C201.016 90.196 201.368 90.3959 201.755 90.4641C202.142 90.5323 202.541 90.4646 202.884 90.2725C203.227 90.0805 203.493 89.7758 203.637 89.41C203.816 88.9805 203.826 88.4991 203.665 88.0625C203.503 87.626 203.183 87.2667 202.767 87.057Z" fill="#FFC727"/>
<path d="M377.216 82.4691C376.809 82.2984 376.354 82.2821 375.937 82.4235C375.519 82.5648 375.167 82.8539 374.948 83.2364C374.85 83.3824 374.785 83.5483 374.759 83.7223C374.732 83.8962 374.744 84.0738 374.795 84.2424C374.805 84.6354 374.951 85.0127 375.208 85.3104C375.464 85.6081 375.816 85.808 376.203 85.8762C376.59 85.9444 376.989 85.8768 377.332 85.6847C377.675 85.4926 377.941 85.1879 378.086 84.8222C378.265 84.3927 378.275 83.9112 378.113 83.4747C377.952 83.0381 377.631 82.6789 377.216 82.4691Z" fill="#FFC727"/>
<path d="M50.7908 680.89H151.204C151.204 680.89 102.131 631.05 91.0994 608.287C85.7113 597.186 69.1206 496.296 68.0976 481.257C67.4837 472.032 112.908 386.419 127.776 381.576C141.042 377.246 178.452 378.644 183.38 381.73C185.17 382.855 215.367 407.92 218.624 409.847C224.097 413.104 239.222 417.946 253.306 412.2C256.886 410.717 235.999 413.735 226.467 407.699C223.569 405.857 202.596 382.122 189.859 376.87C203.54 378.224 217.321 375.598 229.544 369.306C241.768 363.014 251.914 353.325 258.762 341.404C257.057 343.536 230.44 381.082 184.249 370.391C170.216 367.134 147.845 369.249 131.237 370.715C131.237 370.715 166.738 308.274 188.495 298.998C204.114 292.349 222.955 288.768 233.015 280.924C245.923 270.95 260.024 233.727 258.83 231.084C257.483 228.117 240.228 266.55 232.009 273.507C221.676 282.254 200.328 284.846 181.385 292.741C172.501 296.458 141.11 322.205 131.851 340.773C131.851 340.773 132.414 325.99 131.851 307.899C131.664 302.153 131.374 295.963 130.931 290.013C129.703 273.729 153.097 222.508 159.031 216.983C162.577 213.658 188.239 198.773 195.486 197.255C200.601 196.181 214.242 197.681 221.966 198.551C230.696 199.523 214.958 194.203 199.135 192.037C192.417 191.117 176.764 198.227 176.764 198.227C176.764 198.227 192.417 167.007 192.417 162.42C192.417 152.411 194.889 139.52 196.713 135.752C197.992 133.109 205.426 126.442 204.523 124.908C203.619 123.373 193.286 128.829 188.921 150.314C188.921 150.314 182.101 127.516 178.315 120.048C174.53 112.58 180.02 94.6421 178.315 94.6421C176.61 94.6421 172.62 113.62 173.712 118.514C175.894 128.096 184.181 152.479 184.607 157.85C185.153 164.551 170.284 191.952 167.096 194.646C163.907 197.34 149.908 207.23 144.52 214.255C140.616 219.37 128.083 247.197 124.451 264.061C124.451 264.061 119.864 255.263 119.575 252.279C119.251 248.766 120.205 227.282 119.694 210.93C119.438 202.234 100.938 166.887 98.8065 166.325C94.8847 165.301 113.334 198.721 114.152 214.494C114.527 222.252 110.555 248.067 110.214 255.979C109.514 272.586 118.176 303.722 117.938 313.066C117.767 319.409 107.571 360.177 100.119 369.112C91.304 379.684 41.6344 454.776 40.8842 480.421C38.9404 544.823 66.3754 654.188 50.7908 680.89Z" fill="#FFC727"/>
<path opacity="0.5" d="M50.7908 680.89H151.204C151.204 680.89 102.131 631.05 91.0994 608.287C85.7113 597.186 69.1206 496.296 68.0976 481.257C67.4837 472.032 112.908 386.419 127.776 381.576C141.042 377.246 178.452 378.644 183.38 381.73C185.17 382.855 215.367 407.92 218.624 409.847C224.097 413.104 239.222 417.946 253.306 412.2C256.886 410.717 235.999 413.735 226.467 407.699C223.569 405.857 202.596 382.122 189.859 376.87C203.54 378.224 217.321 375.598 229.544 369.306C241.768 363.014 251.914 353.325 258.762 341.404C257.057 343.536 230.44 381.082 184.249 370.391C170.216 367.134 147.845 369.249 131.237 370.715C131.237 370.715 166.738 308.274 188.495 298.998C204.114 292.349 222.955 288.768 233.015 280.924C245.923 270.95 260.024 233.727 258.83 231.084C257.483 228.117 240.228 266.55 232.009 273.507C221.676 282.254 200.328 284.846 181.385 292.741C172.501 296.458 141.11 322.205 131.851 340.773C131.851 340.773 132.414 325.99 131.851 307.899C131.664 302.153 131.374 295.963 130.931 290.013C129.703 273.729 153.097 222.508 159.031 216.983C162.577 213.658 188.239 198.773 195.486 197.255C200.601 196.181 214.242 197.681 221.966 198.551C230.696 199.523 214.958 194.203 199.135 192.037C192.417 191.117 176.764 198.227 176.764 198.227C176.764 198.227 192.417 167.007 192.417 162.42C192.417 152.411 194.889 139.52 196.713 135.752C197.992 133.109 205.426 126.442 204.523 124.908C203.619 123.373 193.286 128.829 188.921 150.314C188.921 150.314 182.101 127.516 178.315 120.048C174.53 112.58 180.02 94.6421 178.315 94.6421C176.61 94.6421 172.62 113.62 173.712 118.514C175.894 128.096 184.181 152.479 184.607 157.85C185.153 164.551 170.284 191.952 167.096 194.646C163.907 197.34 149.908 207.23 144.52 214.255C140.616 219.37 128.083 247.197 124.451 264.061C124.451 264.061 119.864 255.263 119.575 252.279C119.251 248.766 120.205 227.282 119.694 210.93C119.438 202.234 100.938 166.887 98.8065 166.325C94.8847 165.301 113.334 198.721 114.152 214.494C114.527 222.252 110.555 248.067 110.214 255.979C109.514 272.586 118.176 303.722 117.938 313.066C117.767 319.409 107.571 360.177 100.119 369.112C91.304 379.684 41.6344 454.776 40.8842 480.421C38.9404 544.823 66.3754 654.188 50.7908 680.89Z" fill="black"/>
<g opacity="0.1">
<path d="M54.5261 628.893C54.5261 629.711 54.6625 630.512 54.7137 631.314L57.3395 631.194C61.5852 631.007 65.8651 630.7 70.0767 630.103C65.8309 629.541 61.5511 629.234 57.3395 629.029C56.4188 628.961 55.4639 628.927 54.5261 628.893Z" fill="black"/>
<path d="M70.0935 446.376C74.2369 446.921 78.3803 447.228 82.5408 447.433C82.8988 446.717 83.291 445.984 83.6832 445.233H82.8306C78.5849 445.489 74.3392 445.796 70.0935 446.376Z" fill="black"/>
<path d="M62.2498 436.438C66.4955 437.018 70.7753 437.325 74.9869 437.53C79.1985 437.734 83.4101 437.802 87.6387 437.836C88.1502 436.916 88.6447 435.995 89.1733 435.057H87.7069C83.4612 435.057 79.1814 435.057 74.9869 435.364C70.7923 435.671 66.4955 435.876 62.2498 436.438Z" fill="black"/>
<path d="M95.4146 387.792C99.6603 388.355 103.94 388.662 108.135 388.884C111.715 389.054 115.296 389.122 118.86 389.174C119.729 388.168 120.565 387.23 121.366 386.394H120.872C116.626 386.394 112.346 386.394 108.135 386.701C103.923 387.008 99.6603 387.196 95.4146 387.792Z" fill="black"/>
<path d="M55.3611 641.745C55.3611 641.932 55.3611 642.103 55.3611 642.29C56.1113 642.29 56.8445 642.12 57.5948 642.017L55.3611 641.745Z" fill="black"/>
<path d="M82.8984 648.16C87.1612 648.74 91.4239 649.047 95.6526 649.251C99.8812 649.456 104.178 649.524 108.373 649.558C112.567 649.593 116.898 649.473 121.093 649.251H121.826L119.916 647.052C116.063 646.881 112.226 646.83 108.373 646.796C104.127 646.796 99.8471 646.881 95.6526 647.103C91.458 647.325 87.1612 647.581 82.8984 648.16Z" fill="black"/>
<path d="M62.7444 610.752C66.9901 611.349 71.2699 611.656 75.4644 611.844C79.659 612.031 83.9899 612.134 88.2015 612.151C89.9066 612.151 91.5094 612.151 93.1463 612.151C92.5837 611.213 92.0892 610.326 91.6458 609.457H88.2356C83.9899 609.457 79.7101 609.457 75.4985 609.763C71.2869 610.07 66.9901 610.19 62.7444 610.752Z" fill="black"/>
<path d="M72.293 600.941C76.5216 601.504 80.8185 601.811 85.013 602.032L89.1223 602.186C88.9007 601.418 88.696 600.583 88.4573 599.696L85.0471 599.85C80.7673 600.054 76.5216 600.361 72.293 600.941Z" fill="black"/>
<path d="M46.1538 556.05C46.2561 556.971 46.3755 557.892 46.4948 558.796C49.905 558.796 53.2129 558.693 56.5549 558.523C60.8006 558.301 65.0804 558.011 69.292 557.431C65.0463 556.852 60.7665 556.545 56.5549 556.34C53.0936 556.17 49.6322 556.084 46.1538 556.05Z" fill="black"/>
<path d="M110.982 269.675L111.238 271.55C114.546 271.363 117.853 271.073 121.178 270.613C117.768 270.152 114.375 269.862 110.982 269.675Z" fill="black"/>
<path d="M139.457 230.528C143.123 231.006 146.755 231.295 150.421 231.517C150.745 230.818 151.103 230.136 151.41 229.471C147.42 229.693 143.464 229.982 139.457 230.528Z" fill="black"/>
<path d="M136.047 240.929C139.219 241.355 142.407 241.628 145.579 241.833C145.869 241.202 146.125 240.588 146.414 239.974C142.97 240.162 139.509 240.469 136.047 240.929Z" fill="black"/>
<path d="M108.561 350.122C112.755 349.917 116.967 349.627 121.161 349.048C117.188 348.502 113.215 348.195 109.226 348.008C109.038 348.741 108.799 349.423 108.561 350.122Z" fill="black"/>
<path d="M76.1638 404.534C80.3584 404.329 84.57 404.039 88.7475 403.46C84.9962 402.948 81.228 402.641 77.4597 402.454L76.1638 404.534Z" fill="black"/>
<path d="M162.373 306.113C161.623 306.761 160.856 307.392 160.088 308.091C164.147 307.887 168.188 307.597 172.229 307.034C169.023 306.625 165.783 306.369 162.373 306.113Z" fill="black"/>
<path d="M121.452 307.085C124.862 307.563 128.443 307.852 131.938 308.057V307.818C131.938 307.256 131.938 306.693 131.938 306.113C128.272 306.335 124.862 306.608 121.452 307.085Z" fill="black"/>
<path d="M48.8479 493.678C53.0936 494.258 57.3734 494.565 61.585 494.77C64.3132 494.906 67.0584 494.991 69.7865 495.025C69.6501 494.088 69.5137 493.184 69.4114 492.348C66.8026 492.348 64.1768 492.468 61.585 492.604C57.3393 492.86 53.0936 493.167 48.8479 493.678Z" fill="black"/>
</g>
<path d="M467.18 671.497V294.937C467.18 287.818 461.409 282.047 454.29 282.047H210.89C203.771 282.047 198 287.818 198 294.937V671.497C198 678.616 203.771 684.387 210.89 684.387H454.29C461.409 684.387 467.18 678.616 467.18 671.497Z" fill="#455A64"/>
<path d="M455.82 310.207H209.67V656.467H455.82V310.207Z" fill="white"/>
<path d="M361.88 299.227V297.547C361.88 296.857 361.32 296.297 360.63 296.297H304.55C303.86 296.297 303.3 296.857 303.3 297.547V299.227C303.3 299.917 303.86 300.477 304.55 300.477H360.63C361.32 300.477 361.88 299.917 361.88 299.227Z" fill="#263238"/>
<path d="M332.59 677.647C336.776 677.647 340.17 674.253 340.17 670.067C340.17 665.88 336.776 662.487 332.59 662.487C328.404 662.487 325.01 665.88 325.01 670.067C325.01 674.253 328.404 677.647 332.59 677.647Z" fill="#263238"/>
<path d="M455.82 310.207H209.67V656.467H455.82V310.207Z" fill="white"/>
<path d="M332.185 459C355.657 459 374.685 439.972 374.685 416.5C374.685 393.028 355.657 374 332.185 374C308.712 374 289.685 393.028 289.685 416.5C289.685 439.972 308.712 459 332.185 459Z" fill="#A6A6A6"/>
<path d="M356.845 451.16C355.965 451.79 355.064 452.38 354.144 452.95C351.919 454.284 349.576 455.412 347.144 456.32C346.574 456.54 345.995 456.74 345.415 456.94C344.105 457.37 342.755 457.74 341.415 458.04C340.215 458.3 338.995 458.52 337.755 458.68C336.125 456.25 334.755 454.14 333.865 452.51C333.245 451.43 332.425 449.92 331.595 448.22C329.025 443.01 326.314 436 328.824 434.09L328.964 433.99L329.164 433.88L329.295 433.82C329.526 433.717 329.772 433.653 330.024 433.63C330.376 433.584 330.733 433.584 331.084 433.63C332.909 433.922 334.667 434.538 336.274 435.45C336.744 435.68 337.224 435.94 337.744 436.23L337.944 436.34C342.204 438.72 349.515 444.8 356.845 451.16Z" fill="#FFC4C0"/>
<path opacity="0.1" d="M354.155 452.9C351.929 454.234 349.586 455.362 347.155 456.27C346.585 456.49 346.005 456.69 345.425 456.89C344.115 457.32 342.765 457.69 341.425 457.99C340.225 458.25 339.005 458.47 337.765 458.63L337.025 458.72C334.415 454.62 332.215 450.92 330.685 448.03L330.425 447.54C329.885 446.493 329.415 445.493 329.015 444.54C328.715 443.873 328.455 443.207 328.235 442.54C328.095 442.12 327.965 441.71 327.845 441.31C327.745 440.96 327.665 440.63 327.585 440.31C327.505 439.99 327.455 439.66 327.405 439.31C327.279 438.57 327.239 437.819 327.285 437.07C327.313 436.528 327.431 435.994 327.635 435.49C327.727 435.258 327.844 435.037 327.985 434.83L328.195 434.55C328.273 434.459 328.356 434.372 328.445 434.29C328.528 434.209 328.618 434.135 328.715 434.07L328.835 433.99L328.975 433.89L329.175 433.78L329.305 433.72C329.515 433.629 329.732 433.555 329.955 433.5C330.246 433.425 330.544 433.378 330.845 433.36L331.065 433.54L334.605 436.54L337.475 438.94L338.845 440.09L354.155 452.9Z" fill="black"/>
<path d="M330.945 455.16C329.855 455.142 328.773 455.332 327.755 455.72C328.771 456.113 329.855 456.303 330.945 456.28C332.037 456.3 333.124 456.11 334.145 455.72C333.124 455.33 332.037 455.14 330.945 455.16ZM312.785 440.6C312.635 440.67 312.495 440.76 312.355 440.84C312.212 440.921 312.075 441.011 311.945 441.11C311.879 441.145 311.819 441.189 311.765 441.24L311.555 441.39C311.235 441.64 310.945 441.91 310.655 442.18C309.872 442.943 309.237 443.845 308.785 444.84C309.032 444.74 309.273 444.623 309.505 444.49C310.213 444.072 310.865 443.564 311.445 442.98C312.23 442.221 312.862 441.318 313.305 440.32L312.785 440.6ZM339.555 441.54C339.355 441.12 339.155 440.7 338.945 440.29L338.675 440.07L338.475 439.92C338.368 439.834 338.254 439.757 338.135 439.69L337.795 439.47L337.595 439.36L337.465 439.29L337.045 439.1C337.144 439.34 337.257 439.574 337.385 439.8C337.807 440.527 338.317 441.199 338.905 441.8L339.575 442.41L340.125 442.84C339.955 442.36 339.755 441.94 339.555 441.52V441.54ZM339.555 441.54C339.355 441.12 339.155 440.7 338.945 440.29L338.675 440.07L338.475 439.92C338.368 439.834 338.254 439.757 338.135 439.69L337.795 439.47L337.595 439.36L337.465 439.29L337.045 439.1C337.144 439.34 337.257 439.574 337.385 439.8C337.807 440.527 338.317 441.199 338.905 441.8L339.575 442.41L340.125 442.84C339.955 442.36 339.755 441.94 339.555 441.52V441.54Z" fill="white"/>
<path d="M322.365 440.43C321.943 443.38 321.253 446.285 320.305 449.11C319.445 451.79 318.595 454.24 317.765 456.49C313.583 454.969 309.666 452.803 306.155 450.07C305.315 449.42 304.495 448.73 303.715 448.07C305.135 446.18 306.565 444.35 307.985 442.6C312.705 436.79 316.745 433.6 319.365 433.41H319.665C321.865 433.34 322.945 435.64 322.365 440.43Z" fill="#FFC4C0"/>
<path d="M322.925 441.27C322.706 443.076 322.372 444.867 321.925 446.63C321.219 449.168 320.364 451.662 319.365 454.1L318.305 456.69H318.205L317.725 456.52C313.555 454.986 309.651 452.81 306.155 450.07C305.315 449.42 304.495 448.73 303.715 448.07L302.905 447.32C305.489 443.931 308.367 440.775 311.505 437.89C315.365 434.49 317.995 433.13 319.765 433.05H320.125C323.155 433.16 323.335 437.52 322.925 441.27Z" fill="#FFC727"/>
<path d="M312.785 440.58C312.635 440.65 312.495 440.74 312.355 440.82C312.212 440.901 312.075 440.991 311.945 441.09C311.879 441.125 311.819 441.169 311.765 441.22L311.535 441.4C311.215 441.65 310.925 441.92 310.635 442.19C309.851 442.953 309.217 443.855 308.765 444.85C309.012 444.75 309.253 444.633 309.485 444.5C310.193 444.082 310.845 443.574 311.425 442.99C312.21 442.231 312.842 441.328 313.285 440.33L312.785 440.58Z" fill="white"/>
<path d="M319.405 454.1C319.095 454.97 318.775 455.84 318.455 456.7H318.345H318.245C318.615 455.85 318.985 455 319.335 454.14L319.405 454.1Z" fill="#263238"/>
<path d="M331.915 448.16C327.405 448.32 321.305 440.28 319.435 434.37C319.315 433.96 320.635 430.22 322.025 425.59C322.855 422.78 323.715 419.59 324.295 416.69C324.415 416.09 341.805 424.79 341.805 424.79C340.031 428.246 338.688 431.907 337.805 435.69C337.73 436.096 337.693 436.508 337.695 436.92C337.695 436.98 337.695 437.05 337.695 437.12C337.605 439.51 336.275 448.02 331.915 448.16Z" fill="#FFC4C0"/>
<path d="M325.415 417.02C325.285 422.15 326.005 434.73 335.775 436.89C336.399 437.034 337.035 437.121 337.675 437.15C337.679 437.083 337.679 437.017 337.675 436.95C337.674 436.538 337.708 436.127 337.775 435.72C338.657 431.933 340 428.269 341.775 424.81C341.775 424.81 329.255 418.54 325.415 417.02Z" fill="#263238"/>
<path d="M321.155 397.44C319.275 404.12 323.155 423.24 328.005 427.44C335.005 433.5 346.205 433.85 351.305 425.51C356.245 417.42 350.705 392.59 345.305 388.82C337.455 383.23 323.955 387.56 321.155 397.44Z" fill="#FFC4C0"/>
<path d="M337.905 409.51C337.905 409.51 337.815 409.6 337.835 409.65C338.175 410.92 338.355 412.43 337.305 413.13C337.305 413.13 337.305 413.22 337.305 413.2C338.695 412.66 338.435 410.66 337.905 409.51Z" fill="#263238"/>
<path d="M336.444 408.45C334.344 408.79 335.174 412.95 337.114 412.64C339.054 412.33 338.154 408.16 336.444 408.45Z" fill="#263238"/>
<path d="M345.295 408.03C345.295 407.98 345.405 408.03 345.415 408.12C345.635 409.42 346.095 410.87 347.345 411.07C347.345 411.07 347.395 411.14 347.345 411.14C345.885 411.22 345.285 409.29 345.295 408.03Z" fill="#263238"/>
<path d="M346.155 406.45C348.155 405.89 349.155 410.01 347.295 410.54C345.435 411.07 344.465 406.93 346.155 406.45Z" fill="#263238"/>
<path d="M334.485 406.41C335.025 406.15 335.484 405.83 335.994 405.53C336.504 405.23 337.054 404.97 337.354 404.34C337.411 404.158 337.408 403.962 337.345 403.782C337.282 403.602 337.162 403.447 337.005 403.34C336.648 403.168 336.251 403.095 335.857 403.131C335.462 403.166 335.085 403.307 334.764 403.54C334.038 403.904 333.472 404.524 333.175 405.28C333.142 405.452 333.155 405.63 333.213 405.795C333.271 405.961 333.371 406.108 333.504 406.222C333.637 406.337 333.797 406.414 333.969 406.447C334.141 406.48 334.319 406.467 334.485 406.41Z" fill="#263238"/>
<path d="M347.714 404.76C347.135 404.79 346.554 404.79 345.974 404.76C345.36 404.851 344.733 404.742 344.184 404.45C344.032 404.323 343.926 404.149 343.883 403.956C343.839 403.762 343.861 403.56 343.944 403.38C344.16 403.051 344.458 402.785 344.809 402.61C345.161 402.434 345.552 402.355 345.944 402.38C346.755 402.316 347.56 402.555 348.204 403.05C348.338 403.176 348.435 403.336 348.484 403.513C348.533 403.691 348.532 403.878 348.481 404.054C348.431 404.231 348.332 404.391 348.197 404.515C348.062 404.639 347.895 404.724 347.714 404.76Z" fill="#263238"/>
<path d="M339.804 417.04C340.232 417.487 340.748 417.841 341.319 418.077C341.891 418.312 342.506 418.426 343.124 418.41C343.663 418.404 344.198 418.324 344.714 418.17C344.814 418.151 344.911 418.12 345.004 418.08L345.284 417.98C345.35 417.952 345.405 417.904 345.441 417.843C345.477 417.782 345.492 417.711 345.484 417.64C345.49 417.597 345.49 417.553 345.484 417.51V417.4C345.314 416.4 344.924 414.91 344.924 414.91C345.314 415.02 347.334 415.48 347.204 414.97C346.199 410.518 344.745 406.179 342.864 402.02C342.859 402.005 342.851 401.991 342.84 401.979C342.83 401.967 342.817 401.957 342.803 401.95C342.788 401.943 342.772 401.939 342.757 401.938C342.741 401.938 342.725 401.94 342.709 401.945C342.694 401.95 342.68 401.958 342.668 401.969C342.657 401.98 342.647 401.993 342.64 402.007C342.633 402.021 342.629 402.037 342.628 402.053C342.627 402.069 342.629 402.085 342.634 402.1C343.534 406.22 345.154 410.15 346.134 414.28C345.415 414.104 344.674 414.03 343.934 414.06C343.804 414.13 344.754 416.93 344.794 417.38V417.43C343.998 417.672 343.161 417.752 342.333 417.665C341.505 417.577 340.703 417.324 339.974 416.92C339.794 416.85 339.704 416.95 339.804 417.04Z" fill="#263238"/>
<path d="M320.415 412.4C325.485 412.65 328.005 406.55 326.715 401.71C326.715 401.71 340.225 403.22 340.645 392.39C341.624 393.837 342.945 395.019 344.49 395.834C346.036 396.648 347.758 397.07 349.505 397.06L351.095 401.01C352.465 400.58 353.855 396.62 350.405 393.61C350.405 393.61 350.065 388.23 346.015 385.08C344.924 384.172 343.594 383.599 342.184 383.432C340.775 383.265 339.347 383.511 338.075 384.14C335.694 382.487 332.764 381.827 329.905 382.3C328.416 382.574 327.013 383.199 325.814 384.122C324.614 385.045 323.651 386.241 323.005 387.61C323.005 387.61 316.365 389.03 315.325 393.8C315.002 395.145 314.967 396.544 315.222 397.903C315.477 399.263 316.016 400.553 316.805 401.69C316.805 401.69 315.175 403.58 316.105 407.61C316.705 410.16 318.885 412.32 320.415 412.4Z" fill="#263238"/>
<path d="M340.325 391.43C340.446 392.305 340.473 393.19 340.405 394.07C340.368 394.941 340.224 395.804 339.975 396.64C339.516 398.305 338.444 399.734 336.975 400.64C335.456 401.468 333.764 401.931 332.035 401.99C331.165 401.99 330.285 401.99 329.405 401.99C328.525 401.99 327.645 401.83 326.755 401.77C327.615 401.97 328.495 402.12 329.375 402.29C330.255 402.46 331.155 402.41 332.055 402.48C333.883 402.495 335.685 402.048 337.295 401.18C338.884 400.203 340.026 398.641 340.475 396.83C340.886 395.047 340.835 393.188 340.325 391.43Z" fill="#263238"/>
<path d="M347.395 397.54C345.911 397.065 344.515 396.349 343.265 395.42C342.656 394.961 342.114 394.419 341.655 393.81C341.187 393.19 340.791 392.519 340.475 391.81C340.575 392.619 340.84 393.398 341.255 394.1C341.67 394.816 342.224 395.441 342.885 395.94C343.536 396.436 344.262 396.828 345.035 397.1C345.792 397.375 346.589 397.523 347.395 397.54Z" fill="#263238"/>
<path d="M325.605 412.99C325.605 412.99 321.005 406.99 318.255 408.63C315.505 410.27 319.135 419.15 322.495 420.24C322.916 420.411 323.367 420.494 323.821 420.485C324.276 420.476 324.723 420.375 325.138 420.188C325.552 420.001 325.923 419.732 326.231 419.397C326.538 419.062 326.774 418.669 326.925 418.24L325.605 412.99Z" fill="#FFC4C0"/>
<path d="M319.365 411.16V411.25C321.725 412.09 323.035 414.19 323.975 416.38C323.831 416.154 323.64 415.962 323.414 415.817C323.189 415.672 322.935 415.578 322.67 415.541C322.404 415.503 322.134 415.524 321.878 415.602C321.621 415.68 321.385 415.812 321.184 415.99C321.173 416 321.166 416.014 321.163 416.029C321.161 416.043 321.163 416.059 321.17 416.072C321.177 416.086 321.187 416.097 321.201 416.103C321.214 416.11 321.23 416.113 321.244 416.11C321.648 415.966 322.086 415.949 322.499 416.061C322.912 416.174 323.28 416.411 323.554 416.74C324.003 417.298 324.392 417.901 324.714 418.54C324.834 418.74 325.205 418.61 325.115 418.38V418.32C325.015 415.35 322.545 411.31 319.365 411.16Z" fill="#263238"/>
<g opacity="0.2">
<path d="M331.684 414.78C331.679 414.861 331.643 414.938 331.584 414.993C331.524 415.049 331.446 415.08 331.364 415.08C331.284 415.073 331.209 415.036 331.154 414.977C331.098 414.918 331.067 414.841 331.064 414.76C331.064 414.678 331.097 414.599 331.155 414.541C331.213 414.483 331.292 414.45 331.374 414.45C331.457 414.45 331.536 414.483 331.594 414.541C331.652 414.599 331.684 414.678 331.684 414.76V414.78Z" fill="black"/>
<path d="M338.154 414.76C338.141 414.831 338.104 414.896 338.048 414.942C337.992 414.989 337.922 415.014 337.849 415.014C337.777 415.014 337.707 414.989 337.651 414.942C337.595 414.896 337.557 414.831 337.544 414.76C337.546 414.72 337.555 414.68 337.572 414.643C337.589 414.607 337.613 414.574 337.643 414.547C337.673 414.52 337.708 414.499 337.746 414.486C337.784 414.473 337.824 414.467 337.864 414.47C337.94 414.475 338.011 414.507 338.064 414.56C338.118 414.614 338.15 414.685 338.154 414.76Z" fill="black"/>
<path d="M335.754 416.91C335.749 416.991 335.713 417.068 335.654 417.123C335.594 417.179 335.516 417.21 335.434 417.21C335.394 417.209 335.355 417.199 335.318 417.182C335.281 417.166 335.249 417.141 335.222 417.112C335.194 417.082 335.174 417.047 335.16 417.009C335.147 416.971 335.142 416.93 335.144 416.89C335.146 416.849 335.155 416.809 335.172 416.772C335.189 416.735 335.213 416.702 335.242 416.674C335.272 416.646 335.307 416.624 335.345 416.61C335.383 416.595 335.424 416.589 335.464 416.59C335.505 416.591 335.544 416.601 335.581 416.618C335.618 416.634 335.65 416.659 335.677 416.688C335.705 416.718 335.725 416.753 335.739 416.791C335.752 416.829 335.757 416.87 335.754 416.91Z" fill="black"/>
<path d="M331.964 412.26C331.959 412.34 331.923 412.416 331.863 412.47C331.803 412.524 331.725 412.553 331.644 412.55C331.604 412.549 331.564 412.539 331.528 412.522C331.491 412.506 331.458 412.481 331.431 412.452C331.404 412.422 331.384 412.387 331.37 412.349C331.357 412.311 331.352 412.27 331.354 412.23C331.346 412.185 331.348 412.139 331.36 412.095C331.371 412.052 331.392 412.011 331.421 411.976C331.45 411.941 331.487 411.913 331.528 411.894C331.569 411.874 331.614 411.865 331.659 411.865C331.705 411.865 331.75 411.874 331.791 411.894C331.832 411.913 331.868 411.941 331.897 411.976C331.926 412.011 331.948 412.052 331.959 412.095C331.971 412.139 331.972 412.185 331.964 412.23V412.26Z" fill="black"/>
<path d="M334.914 414.16C334.913 414.201 334.904 414.241 334.887 414.278C334.87 414.315 334.846 414.349 334.817 414.376C334.787 414.404 334.752 414.426 334.714 414.44C334.676 414.455 334.635 414.461 334.594 414.46C334.554 414.459 334.514 414.449 334.478 414.433C334.441 414.416 334.408 414.392 334.381 414.362C334.354 414.332 334.334 414.297 334.32 414.259C334.307 414.221 334.302 414.18 334.304 414.14C334.309 414.059 334.345 413.982 334.405 413.927C334.464 413.871 334.543 413.84 334.624 413.84C334.665 413.841 334.704 413.851 334.741 413.868C334.777 413.885 334.81 413.909 334.837 413.938C334.864 413.968 334.885 414.003 334.898 414.041C334.912 414.08 334.917 414.12 334.914 414.16Z" fill="black"/>
<path d="M350.894 410.36C350.893 410.4 350.884 410.44 350.867 410.476C350.85 410.513 350.826 410.546 350.796 410.573C350.766 410.6 350.731 410.621 350.693 410.634C350.655 410.647 350.615 410.653 350.574 410.65C350.494 410.645 350.419 410.609 350.364 410.549C350.31 410.489 350.282 410.411 350.284 410.33C350.297 410.259 350.335 410.194 350.391 410.147C350.446 410.101 350.517 410.075 350.589 410.075C350.662 410.075 350.732 410.101 350.788 410.147C350.844 410.194 350.881 410.259 350.894 410.33V410.36Z" fill="black"/>
<path d="M348.434 412C348.433 412.04 348.424 412.08 348.407 412.116C348.39 412.153 348.366 412.186 348.336 412.213C348.306 412.24 348.271 412.261 348.233 412.274C348.195 412.287 348.155 412.293 348.114 412.29C348.033 412.285 347.957 412.249 347.901 412.189C347.845 412.13 347.814 412.051 347.814 411.97C347.816 411.93 347.825 411.89 347.842 411.853C347.859 411.817 347.883 411.784 347.913 411.757C347.943 411.73 347.978 411.709 348.016 411.696C348.054 411.683 348.094 411.677 348.134 411.68C348.216 411.685 348.292 411.721 348.348 411.78C348.404 411.84 348.435 411.918 348.434 412Z" fill="black"/>
<path d="M348.954 414.05C348.949 414.13 348.913 414.206 348.853 414.26C348.793 414.314 348.715 414.343 348.634 414.34C348.594 414.339 348.555 414.329 348.518 414.312C348.481 414.296 348.449 414.271 348.421 414.242C348.394 414.212 348.374 414.177 348.36 414.139C348.347 414.1 348.342 414.06 348.344 414.02C348.357 413.949 348.395 413.884 348.451 413.837C348.507 413.791 348.577 413.765 348.649 413.765C348.722 413.765 348.792 413.791 348.848 413.837C348.904 413.884 348.941 413.949 348.954 414.02V414.05Z" fill="black"/>
<path d="M351.154 412.73C351.153 412.77 351.144 412.81 351.127 412.847C351.11 412.883 351.086 412.916 351.056 412.943C351.026 412.97 350.991 412.991 350.953 413.004C350.915 413.017 350.875 413.023 350.834 413.02C350.79 413.028 350.744 413.026 350.7 413.015C350.656 413.003 350.615 412.982 350.58 412.953C350.545 412.924 350.517 412.888 350.498 412.846C350.479 412.805 350.469 412.76 350.469 412.715C350.469 412.67 350.479 412.625 350.498 412.584C350.517 412.543 350.545 412.506 350.58 412.477C350.615 412.448 350.656 412.427 350.7 412.415C350.744 412.404 350.79 412.402 350.834 412.41C350.919 412.41 351.001 412.444 351.061 412.504C351.121 412.564 351.154 412.645 351.154 412.73Z" fill="black"/>
</g>
<path d="M309.561 684.223C312.351 685.223 394.891 686.863 397.991 684.963C398.361 684.773 399.701 657.463 399.701 657.463C399.601 657.073 400.981 654.463 403.091 650.793C408.971 640.523 420.481 622.123 420.481 622.123L371.481 607.313L351.361 647.623L346.231 657.903C346.231 657.903 334.981 662.303 325.161 666.693C319.161 669.383 313.851 671.843 312.621 672.763C309.461 675.223 306.781 683.243 309.561 684.223Z" fill="#AD6359"/>
<path d="M309.561 684.223C312.351 685.223 394.891 686.863 397.991 684.963C398.361 684.773 399.701 657.463 399.701 657.463C399.601 657.073 400.981 654.463 403.091 650.793L351.371 647.623L346.241 657.903C346.241 657.903 334.991 662.303 325.171 666.693C319.171 669.383 313.861 671.843 312.631 672.763C309.461 675.223 306.781 683.243 309.561 684.223Z" fill="white"/>
<path d="M309.221 684.533C312.091 685.533 394.731 686.963 397.921 685.023C399.131 684.293 400.591 671.573 399.701 657.463L346.421 656.613C346.421 656.613 315.561 670.253 312.291 672.753C309.021 675.253 306.351 683.513 309.221 684.533Z" fill="#607E8D"/>
<path opacity="0.1" d="M397.921 685.033C396.751 685.733 385.011 686.033 370.421 686.033L398.421 657.483H399.721C400.591 671.573 399.131 684.303 397.921 685.033Z" fill="black"/>
<path d="M310.461 681.243C324.321 681.143 380.231 682.033 393.941 682.993C394.051 682.993 394.051 683.073 393.941 683.073C380.201 683.473 324.301 682.133 310.451 681.473C310.161 681.463 310.171 681.243 310.461 681.243Z" fill="#263238"/>
<path d="M317.661 669.873C319.202 669.858 320.73 670.164 322.147 670.772C323.564 671.38 324.839 672.276 325.891 673.403C327.817 675.404 328.893 678.075 328.891 680.853C328.891 680.933 328.731 680.933 328.721 680.853C328.297 678.107 326.997 675.572 325.015 673.626C323.032 671.679 320.474 670.426 317.721 670.053C317.697 670.061 317.671 670.059 317.648 670.048C317.626 670.037 317.609 670.017 317.601 669.993C317.593 669.969 317.594 669.943 317.606 669.921C317.617 669.898 317.637 669.881 317.661 669.873Z" fill="#263238"/>
<path d="M342.011 657.933C347.551 657.933 353.951 660.013 357.321 664.613C357.451 664.783 357.191 664.973 357.031 664.883C352.226 662.257 347.154 660.155 341.901 658.613C341.823 658.586 341.758 658.532 341.716 658.462C341.674 658.391 341.658 658.308 341.671 658.227C341.685 658.146 341.726 658.072 341.788 658.019C341.85 657.965 341.929 657.935 342.011 657.933Z" fill="#263238"/>
<path d="M337.741 659.523C343.281 659.523 349.681 661.613 353.051 666.203C353.181 666.383 352.921 666.563 352.761 666.473C347.952 663.855 342.881 661.754 337.631 660.203C337.553 660.176 337.488 660.122 337.446 660.052C337.404 659.981 337.388 659.898 337.401 659.817C337.415 659.736 337.456 659.662 337.518 659.609C337.58 659.555 337.659 659.525 337.741 659.523Z" fill="#263238"/>
<path d="M333.431 661.123C338.971 661.123 345.371 663.203 348.741 667.803C348.871 667.983 348.611 668.163 348.451 668.073C343.647 665.447 338.574 663.345 333.321 661.803C333.243 661.776 333.178 661.722 333.136 661.652C333.094 661.581 333.079 661.498 333.092 661.417C333.105 661.336 333.146 661.263 333.208 661.209C333.27 661.155 333.349 661.125 333.431 661.123Z" fill="#263238"/>
<path d="M329.121 662.713C334.661 662.713 341.061 664.803 344.431 669.393C344.561 669.573 344.301 669.753 344.141 669.673C339.335 667.048 334.263 664.943 329.011 663.393C328.933 663.366 328.868 663.312 328.826 663.242C328.784 663.171 328.768 663.088 328.782 663.007C328.795 662.926 328.836 662.852 328.898 662.799C328.96 662.745 329.039 662.715 329.121 662.713Z" fill="#263238"/>
<path d="M390.631 669.773C396.851 669.893 396.631 679.563 390.441 679.433C384.251 679.303 384.401 669.643 390.631 669.773Z" fill="#263238"/>
<path d="M336.611 651.163C339.541 655.083 344.05 657.583 347.96 660.383C348.052 660.438 348.155 660.47 348.261 660.478C348.367 660.485 348.473 660.467 348.571 660.425C348.669 660.383 348.755 660.318 348.823 660.236C348.89 660.154 348.938 660.057 348.96 659.953C348.983 659.958 349.005 659.957 349.027 659.952C349.049 659.946 349.069 659.936 349.087 659.921C349.104 659.907 349.118 659.889 349.127 659.868C349.136 659.848 349.141 659.826 349.141 659.803C348.821 654.708 347.165 649.786 344.341 645.533C342.651 643.083 339.151 640.753 336.341 643.033C333.531 645.313 334.901 648.883 336.611 651.163ZM336.43 646.573C337.09 640.573 342.43 645.273 343.62 647.123C344.372 648.336 345.04 649.599 345.62 650.903C346.76 653.607 347.761 656.367 348.62 659.173C346.79 657.673 344.84 656.353 342.96 654.933C340.66 653.233 336.07 649.893 336.43 646.573Z" fill="#263238"/>
<path d="M368.891 656.603C368.521 652.973 364.401 652.123 361.471 652.603C356.46 653.574 351.794 655.847 347.941 659.193C347.922 659.206 347.907 659.223 347.896 659.243C347.886 659.263 347.881 659.286 347.881 659.308C347.881 659.331 347.886 659.353 347.896 659.373C347.907 659.393 347.922 659.41 347.941 659.423C347.888 659.513 347.856 659.613 347.848 659.717C347.84 659.821 347.856 659.925 347.895 660.022C347.933 660.118 347.994 660.205 348.071 660.274C348.148 660.344 348.241 660.395 348.341 660.423C353.071 661.243 358.031 662.703 362.871 662.043C365.701 661.703 369.241 660.033 368.891 656.603ZM355.781 660.243C353.441 659.903 351.131 659.443 348.781 659.183C351.431 657.903 354.001 656.523 356.781 655.503C358.108 654.996 359.468 654.579 360.851 654.253C362.991 653.793 370.121 654.253 366.291 658.993C364.171 661.583 358.561 660.653 355.781 660.243Z" fill="#263238"/>
<path d="M406.811 650.253L348.701 641.453C348.701 641.453 376.631 585.773 393.921 555.563C403.541 538.763 429.841 537.943 442.631 558.063C459.721 584.953 472.981 610.153 480.581 624.113L493.771 625.243L490.921 646.783L447.111 656.593C430.331 658.593 418.551 628.723 418.281 629.233C416.151 633.153 406.811 650.253 406.811 650.253Z" fill="#263238"/>
<path d="M418.011 629.363C419.661 625.983 420.951 622.363 422.421 618.923C423.891 615.483 425.271 612.213 426.681 608.853C429.531 602.063 432.481 595.303 435.251 588.483C436.801 584.653 438.251 580.773 439.681 576.903C439.689 576.886 439.704 576.873 439.722 576.866C439.739 576.859 439.759 576.858 439.777 576.864C439.795 576.87 439.811 576.882 439.82 576.899C439.83 576.915 439.834 576.934 439.831 576.953C438.701 580.603 437.541 584.253 436.311 587.873C436.641 587.253 436.961 586.623 437.311 586.013C438.241 584.343 439.211 582.693 440.171 581.013C440.173 581.005 440.178 580.997 440.184 580.99C440.19 580.983 440.198 580.978 440.207 580.975C440.215 580.972 440.224 580.971 440.233 580.971C440.242 580.972 440.251 580.975 440.259 580.98C440.267 580.984 440.273 580.991 440.278 580.998C440.283 581.006 440.286 581.015 440.287 581.024C440.289 581.033 440.288 581.042 440.285 581.05C440.282 581.059 440.277 581.067 440.271 581.073C439.381 582.723 438.491 584.373 437.561 586.013C437.101 586.823 436.561 587.633 436.111 588.443C432.709 598.628 428.668 608.588 424.011 618.263C422.161 622.053 420.011 625.683 418.151 629.473C418.091 629.593 417.911 629.483 418.011 629.363Z" fill="#37474F"/>
<path d="M405.511 639.923C408.311 635.603 414.991 622.513 417.381 617.993C422.211 608.843 426.631 599.503 430.821 590.043C433.181 584.693 435.391 579.293 437.581 573.873C437.581 573.873 437.651 573.873 437.641 573.873C434.305 583.631 430.477 593.213 426.171 602.583C421.911 611.973 408.171 637.273 405.691 640.013C405.601 640.133 405.441 640.033 405.511 639.923Z" fill="#37474F"/>
<path d="M441.591 581.103C446.591 590.043 451.711 598.923 456.741 607.853C459.281 612.373 461.814 616.893 464.341 621.413C465.521 623.543 466.671 625.693 467.901 627.803C468.955 629.788 470.545 631.438 472.491 632.563C474.822 633.673 477.266 634.528 479.781 635.113C482.601 635.933 485.411 636.823 488.251 637.603C488.277 637.611 488.299 637.629 488.313 637.654C488.326 637.678 488.329 637.707 488.321 637.733C488.313 637.76 488.295 637.782 488.27 637.795C488.246 637.808 488.217 637.811 488.191 637.803C485.661 637.123 483.101 636.543 480.561 635.913C478.22 635.414 475.907 634.793 473.631 634.053C471.62 633.377 469.842 632.146 468.501 630.503C467.137 628.606 465.933 626.599 464.901 624.503C459.881 615.31 454.904 606.1 449.971 596.873C447.161 591.623 444.381 586.363 441.541 581.133C441.531 581.103 441.571 581.033 441.591 581.103Z" fill="#37474F"/>
<path d="M408.131 642.103C404.651 641.463 401.081 641.163 397.571 640.713L387.011 639.343C380.011 638.433 356.081 634.623 354.281 634.023C354.256 634.016 354.234 634.001 354.219 633.98C354.203 633.959 354.195 633.934 354.195 633.908C354.195 633.882 354.203 633.857 354.219 633.836C354.234 633.816 354.256 633.801 354.281 633.793C355.991 633.743 371.641 635.793 375.161 636.343C382.161 637.343 389.161 638.623 396.161 639.803C398.161 640.143 400.161 640.523 402.161 640.873C404.161 641.223 406.161 641.653 408.161 641.873C408.191 641.877 408.219 641.893 408.237 641.917C408.256 641.942 408.265 641.973 408.261 642.003C408.257 642.034 408.241 642.061 408.216 642.08C408.192 642.099 408.161 642.107 408.131 642.103Z" fill="#37474F"/>
<path d="M371.351 696.663C372.351 693.893 425.031 630.293 428.491 629.173C428.881 629.023 450.441 645.823 450.441 645.823C451.311 647.083 494.011 640.033 494.011 640.033L492.211 691.033L415.211 686.033C415.211 686.033 404.541 691.703 394.811 696.273C388.811 699.113 383.531 701.483 382.031 701.803C378.101 702.623 370.281 699.413 371.351 696.663Z" fill="#AD6359"/>
<path d="M382.011 701.803C383.511 701.493 388.801 699.113 394.791 696.273C404.521 691.703 415.191 686.033 415.191 686.033L432.321 687.143L461.071 645.033C455.141 645.823 450.721 646.253 450.441 645.853C450.441 645.853 428.891 629.053 428.491 629.203C425.031 630.323 372.411 693.913 371.351 696.683C370.291 699.453 378.101 702.633 382.011 701.803Z" fill="white"/>
<path d="M370.891 696.723C372.001 693.893 424.891 630.343 428.401 629.193C429.741 628.743 440.331 635.943 450.401 645.823L416.281 686.753C416.281 686.753 385.811 701.233 381.781 702.083C377.751 702.933 369.791 699.563 370.891 696.723Z" fill="#607E8D"/>
<path d="M374.191 697.933C383.311 687.493 419.121 644.543 427.341 633.533C427.411 633.443 427.341 633.393 427.281 633.483C418.011 643.623 382.551 686.863 374.021 697.783C373.841 698.033 374.011 698.153 374.191 697.933Z" fill="#263238"/>
<path d="M387.51 699.893C388.526 698.734 389.291 697.376 389.756 695.906C390.22 694.436 390.375 692.886 390.21 691.353C389.928 688.596 388.601 686.052 386.5 684.243C386.43 684.243 386.34 684.313 386.39 684.373C388.205 686.486 389.283 689.132 389.463 691.911C389.644 694.69 388.916 697.453 387.39 699.783C387.385 699.799 387.385 699.817 387.39 699.833C387.394 699.85 387.403 699.865 387.416 699.876C387.428 699.888 387.444 699.895 387.461 699.898C387.477 699.901 387.495 699.9 387.51 699.893Z" fill="#263238"/>
<path d="M412.471 689.203C416.081 684.993 418.681 678.793 417.401 673.203C417.351 672.993 417.051 673.063 417.011 673.203C415.863 678.558 414.147 683.774 411.891 688.763C411.832 688.84 411.807 688.937 411.82 689.033C411.833 689.128 411.884 689.215 411.961 689.273C412.038 689.332 412.134 689.357 412.23 689.344C412.326 689.331 412.412 689.28 412.471 689.203Z" fill="#263238"/>
<path d="M408.451 691.433C412.061 687.213 414.661 681.023 413.381 675.433C413.331 675.213 413.021 675.293 412.981 675.433C411.844 680.803 410.127 686.034 407.861 691.033C407.808 691.112 407.788 691.208 407.806 691.3C407.824 691.393 407.877 691.475 407.956 691.528C408.034 691.581 408.13 691.601 408.223 691.583C408.316 691.565 408.398 691.511 408.451 691.433Z" fill="#263238"/>
<path d="M404.431 693.653C408.031 689.443 410.641 683.243 409.361 677.653C409.311 677.443 409.001 677.513 408.961 677.653C407.818 683.009 406.101 688.226 403.841 693.213C403.812 693.252 403.791 693.296 403.779 693.343C403.767 693.39 403.764 693.439 403.771 693.486C403.778 693.534 403.795 693.58 403.819 693.622C403.844 693.663 403.877 693.699 403.916 693.728C403.954 693.757 403.998 693.778 404.045 693.79C404.092 693.802 404.141 693.804 404.189 693.797C404.236 693.79 404.282 693.774 404.324 693.749C404.365 693.725 404.402 693.692 404.431 693.653Z" fill="#263238"/>
<path d="M400.411 695.883C404.011 691.663 406.621 685.473 405.341 679.883C405.291 679.663 404.981 679.743 404.941 679.883C403.796 685.235 402.08 690.448 399.821 695.433C399.761 695.511 399.735 695.61 399.748 695.708C399.761 695.805 399.812 695.894 399.891 695.953C399.969 696.013 400.068 696.039 400.165 696.026C400.263 696.013 400.351 695.961 400.411 695.883Z" fill="#263238"/>
<path d="M435.201 644.663C439.201 639.873 431.721 633.663 427.751 638.503C423.781 643.343 431.231 649.463 435.201 644.663Z" fill="#263238"/>
<path d="M420.01 703.273C423.59 702.613 424.1 698.433 423.35 695.553C421.971 690.64 419.322 686.178 415.67 682.613C415.656 682.596 415.639 682.583 415.619 682.574C415.599 682.564 415.577 682.559 415.555 682.559C415.534 682.559 415.512 682.564 415.492 682.574C415.472 682.583 415.455 682.596 415.44 682.613C415.345 682.56 415.239 682.531 415.131 682.528C415.022 682.525 414.914 682.548 414.816 682.595C414.719 682.642 414.633 682.712 414.568 682.798C414.502 682.885 414.459 682.986 414.44 683.093C414.01 687.883 412.96 692.943 414.02 697.713C414.67 700.523 416.63 703.913 420.01 703.273ZM415.3 690.513C415.45 688.153 415.71 685.813 415.78 683.453C417.27 685.983 418.86 688.453 420.1 691.113C420.716 692.392 421.244 693.712 421.68 695.063C422.32 697.163 422.4 704.313 417.41 700.873C414.67 699.033 415.12 693.323 415.31 690.513H415.3Z" fill="#263238"/>
<path d="M422.911 670.703C419.251 673.943 417.131 678.653 414.661 682.773C414.608 682.87 414.579 682.979 414.578 683.089C414.576 683.2 414.602 683.309 414.652 683.408C414.702 683.506 414.776 683.591 414.866 683.655C414.956 683.718 415.061 683.759 415.171 683.773C415.169 683.796 415.172 683.818 415.18 683.839C415.188 683.86 415.201 683.879 415.217 683.894C415.234 683.909 415.253 683.921 415.275 683.928C415.296 683.934 415.318 683.936 415.341 683.933C420.395 683.186 425.163 681.116 429.161 677.933C431.461 676.053 433.501 672.373 430.991 669.723C428.621 667.233 425.011 668.813 422.911 670.703ZM427.481 670.153C433.541 670.313 429.271 676.043 427.481 677.363C426.331 678.197 425.128 678.955 423.881 679.633C421.301 681.073 418.571 682.113 415.881 683.283C417.221 681.333 418.371 679.283 419.641 677.283C421.181 674.913 424.141 670.033 427.481 670.153Z" fill="#263238"/>
<path d="M469.181 627.103C469.181 627.103 535.181 618.243 556.791 624.053C586.921 632.173 590.371 668.363 567.171 682.143C537.771 699.593 435.791 689.863 435.791 689.863L464.251 641.863C464.251 641.863 506.981 633.863 545.251 636.993L468.011 646.573L469.181 627.103Z" fill="#263238"/>
<path d="M462.281 645.113C462.31 645.028 462.333 644.941 462.351 644.853C462.351 644.783 462.351 644.713 462.401 644.643L462.551 644.153C462.649 643.813 462.769 643.479 462.911 643.153C463.041 642.823 463.191 642.503 463.341 642.153C463.502 641.844 463.686 641.546 463.891 641.263C463.891 641.263 463.941 641.263 463.971 641.263H464.021H464.091C464.114 641.258 464.138 641.258 464.161 641.263C468.851 640.513 500.671 636.903 505.401 636.523C510.131 636.143 514.941 635.853 519.711 635.623C529.228 635.125 538.767 635.162 548.281 635.733C549.171 635.783 550.061 635.863 550.951 635.933C551.141 635.873 551.351 635.843 551.541 635.803C552.011 635.703 552.461 635.593 552.931 635.523C553.801 635.373 554.671 635.273 555.541 635.163C557.351 634.943 559.171 634.813 560.971 634.523C561.081 634.523 561.121 634.683 560.971 634.703C559.151 635.063 557.351 635.563 555.531 635.923L553.951 636.213C557.431 636.563 560.901 637.013 564.371 637.513C564.481 637.513 564.481 637.713 564.371 637.703C559.651 637.193 554.881 636.943 550.131 636.823C545.381 636.703 540.701 636.623 535.981 636.713C526.441 636.903 516.891 637.423 507.361 638.103C502.021 638.483 469.561 642.263 464.211 642.273H464.151C464.102 642.41 464.046 642.544 463.981 642.673C463.821 642.983 463.661 643.293 463.491 643.593C463.321 643.893 463.161 644.183 462.971 644.463C462.781 644.743 462.791 644.743 462.691 644.873L462.551 645.083C462.492 645.15 462.441 645.224 462.401 645.303C462.391 645.323 462.211 645.233 462.281 645.113Z" fill="#37474F"/>
<path d="M450.411 686.873C452.091 684.113 453.551 681.153 455.111 678.303L459.791 669.723C462.911 664.033 474.011 644.863 475.121 643.533C475.191 643.453 475.311 643.533 475.281 643.653C474.731 645.153 467.741 657.853 466.141 660.653C462.931 666.313 459.581 671.843 456.271 677.433C455.331 679.023 454.351 680.593 453.401 682.183C452.451 683.773 451.401 685.313 450.541 686.943C450.491 687.033 450.351 686.973 450.411 686.873Z" fill="#37474F"/>
<path d="M476.851 648.793C479.691 648.173 482.591 647.793 485.451 647.353C488.311 646.913 491.181 646.413 494.051 645.963C499.791 645.043 505.537 644.176 511.291 643.363C522.771 641.753 534.291 640.493 545.811 639.783C552.331 639.383 558.811 639.213 565.371 638.973C565.511 638.973 565.501 639.203 565.371 639.213C553.771 639.273 542.141 640.503 530.601 641.813C519.061 643.123 507.761 644.593 496.371 646.203L486.721 647.593C483.451 648.073 480.181 648.693 476.901 649.003C476.771 649.033 476.721 648.823 476.851 648.793Z" fill="#37474F"/>
<path d="M476.84 566.183C470.52 577.183 445.35 611.233 437.43 612.363C429.19 613.543 398.81 610.943 393.27 604.413C390.56 601.223 394.94 573.833 399.15 575.363C403.36 576.893 429.35 583.173 432.69 582.683C436.03 582.193 462.96 556.113 472.89 550.493C490.01 540.793 480.25 560.243 476.84 566.183Z" fill="#AD6359"/>
<path d="M405.831 576.233L399.421 610.173C399.421 610.173 429.851 616.403 438.821 613.783C447.791 611.163 472.871 575.503 480.191 561.403C487.511 547.303 481.111 543.593 467.981 552.403C454.851 561.213 433.811 580.883 431.761 580.973C429.711 581.063 405.831 576.233 405.831 576.233Z" fill="#FFC727"/>
<path d="M471.171 555.033C470.416 555.774 469.805 556.649 469.371 557.613C470.337 557.182 471.212 556.571 471.951 555.813C472.708 555.073 473.322 554.198 473.761 553.233C472.794 553.668 471.915 554.278 471.171 555.033ZM405.521 606.753C404.463 606.737 403.411 606.92 402.421 607.293C403.409 607.675 404.462 607.861 405.521 607.843C406.583 607.859 407.638 607.672 408.631 607.293C407.639 606.908 406.584 606.712 405.521 606.713V606.753ZM455.251 596.613C454.189 596.597 453.135 596.781 452.141 597.153C453.133 597.534 454.188 597.72 455.251 597.703H455.661C455.911 597.373 456.191 597.033 456.451 596.703C456.011 596.603 455.651 596.583 455.251 596.573V596.613ZM433.591 604.743C432.871 606.747 432.871 608.939 433.591 610.943C433.966 609.953 434.153 608.902 434.141 607.843C434.163 606.771 433.976 605.704 433.591 604.703V604.743ZM459.081 571.573C458.702 572.562 458.519 573.615 458.541 574.673C458.525 575.731 458.708 576.783 459.081 577.773C459.461 576.785 459.648 575.732 459.631 574.673C459.66 573.6 459.473 572.532 459.081 571.533V571.573ZM471.171 555.033C470.416 555.774 469.805 556.649 469.371 557.613C470.337 557.182 471.212 556.571 471.951 555.813C472.708 555.073 473.322 554.198 473.761 553.233C472.794 553.668 471.915 554.278 471.171 555.033ZM438.441 583.033C437.675 583.767 437.061 584.644 436.631 585.613C437.599 585.177 438.475 584.559 439.211 583.793C439.976 583.059 440.591 582.183 441.021 581.213C440.06 581.632 439.185 582.225 438.441 582.963V583.033ZM407.721 576.683L407.441 576.943C406.678 577.678 406.067 578.554 405.641 579.523C406.608 579.086 407.484 578.468 408.221 577.703C408.461 577.453 408.701 577.193 408.921 576.923L407.721 576.683ZM420.011 593.413C419.273 592.654 418.398 592.043 417.431 591.613C417.866 592.58 418.48 593.455 419.241 594.193C419.981 594.951 420.856 595.565 421.821 596.003C421.385 595.034 420.771 594.155 420.011 593.413ZM455.291 596.573C454.229 596.557 453.175 596.741 452.181 597.113C453.173 597.494 454.228 597.68 455.291 597.663H455.701C455.951 597.333 456.231 596.993 456.491 596.663C456.011 596.603 455.651 596.583 455.251 596.573H455.291ZM459.121 571.573C458.742 572.562 458.559 573.615 458.581 574.673C458.565 575.731 458.748 576.783 459.121 577.773C459.501 576.785 459.688 575.732 459.671 574.673C459.687 573.597 459.486 572.529 459.081 571.533L459.121 571.573Z" fill="white"/>
<path d="M411.331 594.743C411.851 592.053 413.841 581.293 414.131 578.583C414.131 578.583 414.071 578.523 414.051 578.583C413.271 581.113 410.991 591.673 410.471 594.363C409.293 599.708 408.409 605.112 407.821 610.553C407.821 610.643 407.961 610.703 407.991 610.553C409.461 605.383 410.311 600.033 411.331 594.743Z" fill="#263238"/>
<path opacity="0.1" d="M480.191 561.393C472.871 575.503 447.811 611.153 438.821 613.773C432.021 615.773 412.941 612.673 404.071 611.053L479.751 547.673C484.011 548.033 484.681 552.723 480.191 561.393Z" fill="black"/>
<path d="M453.661 628.683L528.491 633.033C528.391 631.513 516.691 588.593 508.271 572.253C497.481 551.303 492.691 548.103 489.491 547.033C485.391 545.663 476.981 545.673 474.491 549.633C461.131 571.033 452.641 627.733 453.661 628.683Z" fill="#FFC727"/>
<path d="M471.9 554.343C471.5 555.143 471.11 555.953 470.73 556.813C471.156 556.504 471.564 556.17 471.95 555.813C472.708 555.073 473.322 554.198 473.76 553.233C473.087 553.504 472.459 553.879 471.9 554.343ZM494.42 623.663C493.664 624.402 493.053 625.278 492.62 626.243C493.588 625.814 494.464 625.203 495.2 624.443C495.956 623.701 496.569 622.826 497.01 621.863C496.043 622.298 495.165 622.908 494.42 623.663ZM471.9 554.343C471.5 555.143 471.11 555.953 470.73 556.813C471.156 556.504 471.564 556.17 471.95 555.813C472.708 555.073 473.322 554.198 473.76 553.233C473.087 553.504 472.459 553.879 471.9 554.343ZM515.85 590.893C515.663 590.788 515.469 590.694 515.27 590.613C515.55 591.27 515.928 591.88 516.39 592.423C516.21 591.913 516.01 591.393 515.85 590.893ZM499.4 556.243C499.112 555.954 498.808 555.681 498.49 555.423C497.987 555.018 497.432 554.682 496.84 554.423C497.273 555.391 497.887 556.267 498.65 557.003C499.209 557.565 499.838 558.052 500.52 558.453C500.747 558.593 500.984 558.713 501.23 558.813C500.79 557.847 500.169 556.975 499.4 556.243ZM479.13 591.243C478.394 590.481 477.518 589.867 476.55 589.433C477.456 591.368 479.014 592.922 480.95 593.823C480.511 592.851 479.893 591.969 479.13 591.223V591.243ZM497.91 601.603C496.851 601.586 495.799 601.773 494.81 602.153C496.818 602.873 499.013 602.873 501.02 602.153C500.03 601.765 498.974 601.571 497.91 601.583V601.603ZM479.66 568.793C478.601 568.775 477.549 568.962 476.56 569.343C477.552 569.712 478.603 569.895 479.66 569.883C480.719 569.903 481.771 569.72 482.76 569.343C481.773 568.957 480.721 568.763 479.66 568.773V568.793ZM471.56 613.483C471.179 614.471 470.992 615.524 471.01 616.583C470.999 617.642 471.186 618.693 471.56 619.683C472.28 617.679 472.28 615.487 471.56 613.483ZM514.37 610.373C513.634 612.378 513.634 614.579 514.37 616.583C515.09 614.576 515.09 612.381 514.37 610.373ZM499.01 576.893C498.276 578.895 498.276 581.092 499.01 583.093C499.377 582.101 499.56 581.051 499.55 579.993C499.567 578.935 499.384 577.883 499.01 576.893Z" fill="white"/>
<path d="M502.011 556.563C520.921 579.803 541.581 618.413 531.461 625.883C522.221 632.703 490.281 624.043 470.381 615.013C466.601 613.303 484.101 579.923 487.941 582.173C491.984 584.591 496.176 586.752 500.491 588.643C501.581 589.003 495.871 581.223 490.031 562.923C484.011 544.333 491.171 543.273 502.011 556.563Z" fill="#AD6359"/>
<path d="M441.935 569.025C441.014 572.924 450.764 574.349 450.764 574.349C449.154 574.946 447.804 576.087 446.946 577.575C445.558 580.265 449.17 583.623 449.17 583.623C447.627 584.586 446.413 585.993 445.686 587.66C444.618 590.375 447.789 594.275 447.789 594.275C446.87 595.946 446.578 597.889 446.965 599.756C448.214 604.708 455.837 606.57 460.333 608.652C465.336 611.105 470.134 613.954 474.682 617.173L491.535 584.361C491.535 584.361 473.862 567.455 468.079 566.395C463.224 565.478 443.342 563.059 441.935 569.025Z" fill="#AD6359"/>
<path d="M448.361 580.603C453.641 579.363 459.201 579.393 464.571 579.483C464.691 579.483 464.681 579.673 464.571 579.673C459.241 579.523 453.731 580.793 448.401 580.853C448.371 580.851 448.344 580.839 448.322 580.819C448.3 580.8 448.286 580.773 448.281 580.744C448.277 580.715 448.282 580.685 448.296 580.66C448.311 580.634 448.333 580.614 448.361 580.603Z" fill="#263238"/>
<path d="M448.491 589.713C449.716 589.553 450.956 589.553 452.181 589.713C453.491 589.803 454.791 589.913 456.091 590.043C458.704 590.303 461.304 590.637 463.891 591.043C464.011 591.043 464.011 591.243 463.891 591.233C461.291 590.983 458.691 590.763 456.081 590.613C454.771 590.543 453.471 590.483 452.161 590.433C450.926 590.462 449.692 590.355 448.481 590.113C448.428 590.112 448.377 590.09 448.341 590.051C448.304 590.013 448.284 589.961 448.286 589.908C448.287 589.855 448.309 589.805 448.348 589.768C448.386 589.732 448.438 589.712 448.491 589.713Z" fill="#263238"/>
<path d="M448.921 600.853C450.028 600.717 451.151 600.771 452.241 601.013C453.431 601.163 454.621 601.293 455.801 601.423C458.181 601.683 460.551 601.943 462.931 602.123C462.951 602.13 462.968 602.143 462.98 602.16C462.993 602.177 462.999 602.197 462.999 602.218C462.999 602.239 462.993 602.26 462.98 602.277C462.968 602.294 462.951 602.307 462.931 602.313C460.511 602.143 458.081 602.003 455.671 601.813L452.101 601.523C451.009 601.53 449.925 601.34 448.901 600.963C448.851 600.943 448.871 600.863 448.921 600.853Z" fill="#263238"/>
<path d="M491.131 583.133L481.341 621.133C481.341 621.133 528.781 636.253 534.411 624.343C540.041 612.433 514.171 565.743 498.561 551.973C482.951 538.203 487.971 558.853 488.381 560.503C490.201 567.833 499.451 587.203 499.451 587.203L491.131 583.133Z" fill="#FFC727"/>
<path d="M499.011 576.893C498.276 578.895 498.276 581.092 499.011 583.093C499.378 582.101 499.561 581.051 499.551 579.993C499.567 578.935 499.384 577.883 499.011 576.893ZM514.351 610.353C513.614 612.358 513.614 614.559 514.351 616.563C515.07 614.556 515.07 612.361 514.351 610.353ZM497.891 601.583C496.832 601.566 495.779 601.753 494.791 602.133C496.798 602.853 498.993 602.853 501.001 602.133C500.015 601.754 498.966 601.568 497.911 601.583H497.891ZM499.381 556.243C498.648 555.48 497.776 554.865 496.811 554.433C497.715 556.365 499.269 557.918 501.201 558.823C500.771 557.856 500.16 556.98 499.401 556.243H499.381ZM532.241 621.473C531.506 620.713 530.634 620.099 529.671 619.663C530.109 620.631 530.723 621.509 531.481 622.253C532.22 623.01 533.095 623.621 534.061 624.053C533.631 623.086 533.02 622.211 532.261 621.473H532.241ZM517.821 592.413C517.08 591.658 516.205 591.048 515.241 590.613C516.134 592.549 517.687 594.105 519.621 595.003C519.198 594.034 518.594 593.155 517.841 592.413H517.821ZM494.401 623.663C494.131 623.963 493.851 624.253 493.601 624.573L494.731 624.853C494.881 624.713 495.041 624.583 495.181 624.443C495.936 623.701 496.55 622.826 496.991 621.863C496.031 622.3 495.159 622.91 494.421 623.663H494.401Z" fill="white"/>
<path d="M492.011 583.203C497.431 585.443 511.521 593.433 514.541 596.573C514.551 596.581 514.56 596.591 514.567 596.602C514.573 596.614 514.578 596.626 514.58 596.639C514.581 596.652 514.581 596.665 514.577 596.678C514.574 596.691 514.568 596.703 514.561 596.713C514.553 596.724 514.543 596.733 514.531 596.739C514.52 596.746 514.508 596.75 514.495 596.752C514.482 596.754 514.468 596.753 514.456 596.75C514.443 596.747 514.431 596.741 514.421 596.733C511.421 594.363 493.981 584.643 491.241 583.423C491.241 583.423 491.091 583.763 491.031 583.853C490.971 583.943 490.861 583.853 490.871 583.773C490.93 583.457 491.014 583.146 491.121 582.843L492.011 583.203Z" fill="#263238"/>
<path d="M494.931 604.923C495.591 602.273 498.171 591.633 498.611 588.923C498.611 588.923 498.551 588.863 498.531 588.923C497.611 591.413 494.761 601.823 494.091 604.483C492.618 609.748 491.436 615.089 490.551 620.483C490.551 620.573 490.691 620.633 490.721 620.483C492.471 615.453 493.621 610.153 494.931 604.923Z" fill="#263238"/>
<path d="M499.821 587.463C498.491 584.113 496.821 580.903 495.331 577.613C493.841 574.323 492.331 571.083 490.931 567.763C490.931 567.713 490.841 567.763 490.861 567.763C491.681 570.033 492.491 572.273 493.381 574.503C493.091 574.143 492.831 573.773 492.571 573.393C492.091 572.713 491.661 572.003 491.241 571.293C491.241 571.293 491.151 571.293 491.161 571.293C491.483 572.083 491.892 572.834 492.381 573.533C492.754 574.05 493.158 574.545 493.591 575.013C493.961 575.923 494.331 576.823 494.731 577.723C496.201 581.043 497.301 584.313 499.261 587.383C499.331 587.543 499.871 587.573 499.821 587.463Z" fill="#263238"/>
<path d="M527.361 628.333C517.561 629.703 486.771 622.573 481.531 621.203C481.621 620.643 481.621 620.443 481.751 619.653C481.751 619.553 481.611 619.493 481.581 619.603C481.391 620.343 480.801 621.823 481.011 621.913C483.511 623.053 517.811 630.913 527.351 628.563C527.501 628.533 527.511 628.313 527.361 628.333Z" fill="#263238"/>
<path d="M451.341 613.833L411.271 618.363L397.291 562.503L437.371 557.973L451.341 613.833Z" fill="#37474F"/>
<path d="M449.371 614.053L409.301 618.583L395.331 562.723L435.401 558.203L449.371 614.053Z" fill="#8297A2"/>
<path d="M416.811 586.503C417.036 587.546 417.636 588.47 418.496 589.1C419.357 589.73 420.419 590.023 421.481 589.923C421.981 589.876 422.466 589.722 422.902 589.473C423.338 589.224 423.717 588.885 424.012 588.478C424.307 588.071 424.512 587.606 424.614 587.114C424.715 586.622 424.711 586.113 424.601 585.623C424.373 584.58 423.772 583.656 422.909 583.026C422.047 582.395 420.984 582.103 419.921 582.203C419.421 582.25 418.936 582.404 418.5 582.653C418.064 582.902 417.686 583.242 417.392 583.649C417.097 584.056 416.893 584.521 416.793 585.013C416.693 585.505 416.699 586.013 416.811 586.503Z" fill="white"/>
<path d="M395.481 574.183C393.721 578.823 388.821 584.793 388.681 588.483C388.609 589.39 388.832 590.295 389.317 591.065C389.802 591.834 390.522 592.426 391.371 592.753C391.371 592.753 387.881 594.853 388.301 598.223C388.511 599.953 391.471 601.133 391.471 601.133C391.471 601.133 388.741 602.943 389.301 605.913C389.741 608.283 392.641 609.103 392.641 609.103C392.641 609.103 390.831 612.103 392.061 614.333C394.541 618.923 415.151 617.273 417.721 609.433C418.921 605.773 413.911 606.433 413.911 606.433C413.911 606.433 420.911 603.713 420.651 599.433C420.391 595.153 413.961 596.433 413.961 596.433C413.961 596.433 420.691 593.743 420.011 589.363C419.291 584.793 413.011 587.163 413.011 587.163C413.011 587.163 417.351 583.693 416.011 580.453C413.871 575.103 405.751 582.703 401.141 581.983L398.041 574.723L395.481 574.183Z" fill="#AD6359"/>
<path d="M391.871 581.033C393.161 576.493 387.261 571.493 387.871 566.973C388.691 560.863 395.921 566.213 398.121 574.813L398.661 581.813L391.871 581.033Z" fill="#AD6359"/>
<path d="M393.08 609.303C393.07 609.308 393.061 609.316 393.054 609.325C393.048 609.335 393.044 609.347 393.044 609.358C393.044 609.37 393.048 609.381 393.054 609.391C393.061 609.401 393.07 609.409 393.08 609.413C400.262 610.584 407.629 609.537 414.2 606.413C414.41 606.313 414.33 605.933 414.08 606.003C407.277 608.114 400.203 609.225 393.08 609.303Z" fill="#263238"/>
<path d="M391.371 601.183C391.291 601.183 391.291 601.313 391.371 601.333C398.491 602.433 407.371 601.173 414.211 596.663C414.441 596.503 414.501 596.133 414.211 596.293C409.471 598.953 398.011 601.223 391.371 601.183Z" fill="#263238"/>
<path d="M413.45 586.743C406.75 590.813 399.45 592.333 391.66 592.813C391.56 592.813 391.58 592.953 391.66 592.973C395.51 593.773 400.42 592.973 404.19 591.973C407.705 591.16 410.944 589.435 413.58 586.973C413.69 586.883 413.59 586.653 413.45 586.743Z" fill="#263238"/>
<path d="M478.721 562.033C483.101 562.203 489.021 554.393 490.831 548.653C490.951 548.263 489.671 544.653 488.321 540.143C487.511 537.413 486.681 534.353 486.121 531.513C486.001 530.923 469.121 539.363 469.121 539.363C470.844 542.714 472.15 546.264 473.011 549.933C473.08 550.326 473.117 550.724 473.121 551.123C473.116 551.19 473.116 551.257 473.121 551.323C473.201 553.613 474.491 561.863 478.721 562.033Z" fill="#AD6359"/>
<path d="M485.011 531.793C485.131 536.793 484.431 548.973 475.011 551.063C474.403 551.202 473.784 551.289 473.161 551.323C473.151 551.257 473.151 551.19 473.161 551.123C473.16 550.724 473.127 550.326 473.061 549.933C472.197 546.259 470.891 542.703 469.171 539.343C469.171 539.343 481.301 533.263 485.011 531.793Z" fill="#263238"/>
<path d="M490.575 515.108C491.252 521.808 484.264 539.381 478.986 542.593C471.298 547.209 460.513 545.662 457.045 536.826C453.691 528.263 463.17 505.483 468.929 502.772C477.405 498.814 489.582 505.195 490.575 515.108Z" fill="#AD6359"/>
<path d="M470.479 522.714C470.479 522.714 470.542 522.817 470.524 522.864C469.975 524.016 469.554 525.425 470.441 526.271C470.441 526.271 470.425 526.36 470.429 526.34C469.189 525.594 469.773 523.727 470.479 522.714Z" fill="#263238"/>
<path d="M472.056 521.946C473.968 522.618 472.509 526.463 470.709 525.842C468.91 525.22 470.429 521.385 472.056 521.946Z" fill="#263238"/>
<path d="M463.81 520.166C463.819 520.117 463.702 520.147 463.676 520.234C463.251 521.438 462.563 522.748 461.338 522.725C461.338 522.725 461.277 522.786 461.326 522.794C462.71 523.12 463.606 521.379 463.81 520.166Z" fill="#263238"/>
<path d="M463.229 518.509C461.355 517.62 459.733 521.406 461.451 522.257C463.169 523.109 464.782 519.26 463.229 518.509Z" fill="#263238"/>
<path d="M474.328 520.062C473.879 519.722 473.448 519.358 473.038 518.971C472.533 518.649 472.146 518.171 471.938 517.61C471.913 517.421 471.948 517.23 472.04 517.063C472.131 516.897 472.274 516.764 472.446 516.684C472.817 516.582 473.208 516.581 473.58 516.681C473.951 516.78 474.289 516.976 474.56 517.249C475.191 517.723 475.622 518.415 475.772 519.189C475.791 519.366 475.759 519.544 475.681 519.702C475.602 519.861 475.48 519.994 475.328 520.086C475.177 520.178 475.002 520.224 474.825 520.22C474.648 520.216 474.475 520.161 474.328 520.062Z" fill="#263238"/>
<path d="M462.186 515.9C462.731 516.031 463.284 516.129 463.841 516.191C464.408 516.391 465.025 516.396 465.595 516.206C465.756 516.114 465.882 515.973 465.956 515.803C466.03 515.633 466.047 515.443 466.005 515.263C465.856 514.898 465.61 514.58 465.294 514.345C464.977 514.11 464.602 513.967 464.209 513.931C463.446 513.734 462.638 513.827 461.939 514.191C461.778 514.284 461.649 514.423 461.568 514.59C461.487 514.757 461.458 514.945 461.485 515.129C461.511 515.313 461.592 515.484 461.717 515.622C461.842 515.759 462.006 515.856 462.186 515.9Z" fill="#263238"/>
<path d="M468.305 530.493C467.82 530.845 467.268 531.093 466.682 531.222C466.097 531.351 465.492 531.358 464.903 531.243C464.39 531.147 463.893 530.978 463.428 530.74C463.334 530.703 463.243 530.657 463.158 530.601L462.91 530.455C462.851 530.419 462.807 530.363 462.783 530.299C462.76 530.234 462.759 530.163 462.78 530.097C462.782 530.054 462.79 530.011 462.803 529.969L462.822 529.861C463.163 528.906 463.782 527.583 463.782 527.583C463.39 527.616 461.382 527.718 461.595 527.258C463.33 523.173 465.477 519.275 468.003 515.624C468.021 515.605 468.044 515.593 468.07 515.589C468.096 515.584 468.122 515.589 468.145 515.601C468.168 515.613 468.187 515.632 468.198 515.656C468.209 515.679 468.212 515.706 468.207 515.732C466.656 519.52 464.438 522.997 462.816 526.783C463.532 526.73 464.251 526.782 464.952 526.936C465.068 527.028 463.689 529.547 463.574 529.973C464.293 530.342 465.08 530.561 465.887 530.618C466.694 530.674 467.503 530.568 468.268 530.303C468.348 530.307 468.439 530.425 468.305 530.493Z" fill="#263238"/>
<path d="M464.429 531.05C464.769 531.801 465.298 532.45 465.965 532.935C466.337 533.189 466.779 533.32 467.229 533.31C468.249 533.287 468.4 532.43 468.432 531.674C468.426 531.267 468.372 530.862 468.269 530.467C467.084 531.066 465.739 531.27 464.429 531.05Z" fill="#263238"/>
<path d="M465.969 532.916C466.341 533.171 466.783 533.302 467.233 533.291C468.253 533.268 468.404 532.411 468.436 531.655C467.943 531.559 467.431 531.63 466.984 531.859C466.537 532.088 466.179 532.46 465.969 532.916Z" fill="#FF9BBC"/>
<path d="M488.775 529.524C483.888 528.906 482.511 522.662 484.558 518.251C484.558 518.251 471.394 517.412 472.816 507.042C471.636 508.259 470.174 509.167 468.56 509.685C466.945 510.202 465.228 510.314 463.56 510.009L461.379 513.514C460.14 512.879 459.477 508.863 463.274 506.567C463.274 506.567 464.517 501.476 468.908 499.143C470.106 498.464 471.474 498.144 472.849 498.223C474.224 498.301 475.547 498.774 476.659 499.586C479.211 498.414 482.118 498.279 484.768 499.208C486.147 499.719 487.385 500.553 488.376 501.639C489.368 502.725 490.086 504.033 490.47 505.453C490.47 505.453 496.574 507.92 496.765 512.655C496.845 513.996 496.642 515.338 496.168 516.595C495.695 517.852 494.962 518.995 494.017 519.949C494.017 519.949 495.263 522.037 493.688 525.73C492.69 528.052 490.244 529.712 488.775 529.524Z" fill="#263238"/>
<path d="M473.29 506.142C473.024 506.956 472.846 507.795 472.756 508.647C472.646 509.485 472.643 510.335 472.747 511.174C472.922 512.832 473.719 514.362 474.978 515.456C476.286 516.508 477.824 517.236 479.467 517.578C480.305 517.726 481.143 517.924 481.989 518.023C482.834 518.121 483.699 518.172 484.556 518.262C483.696 518.303 482.833 518.303 481.966 518.323C481.099 518.343 480.241 518.141 479.374 518.049C477.623 517.755 475.975 517.024 474.58 515.924C473.228 514.723 472.402 513.038 472.28 511.234C472.177 509.478 472.525 507.725 473.29 506.142Z" fill="#263238"/>
<path d="M465.496 510.777C466.992 510.578 468.443 510.13 469.792 509.453C470.448 509.114 471.056 508.689 471.599 508.188C472.154 507.654 472.647 507.06 473.069 506.416C472.847 507.174 472.463 507.876 471.945 508.472C471.428 509.084 470.794 509.587 470.079 509.951C469.374 510.314 468.617 510.567 467.835 510.702C467.065 510.858 466.275 510.884 465.496 510.777Z" fill="#263238"/>
<path d="M483.72 529.223C483.72 529.223 489.128 524.237 491.467 526.294C493.805 528.351 488.858 536.191 485.464 536.669C485.034 536.76 484.59 536.764 484.159 536.679C483.728 536.594 483.318 536.423 482.955 536.176C482.592 535.928 482.282 535.61 482.045 535.241C481.807 534.871 481.647 534.457 481.574 534.024L483.72 529.223Z" fill="#AD6359"/>
<path d="M489.991 528.499L489.975 528.587C487.578 528.997 485.975 530.776 484.695 532.733C484.872 532.542 485.088 532.39 485.329 532.29C485.57 532.19 485.829 532.143 486.09 532.152C486.351 532.161 486.606 532.227 486.839 532.344C487.072 532.461 487.277 532.628 487.44 532.831C487.489 532.84 487.417 532.959 487.35 532.937C486.993 532.729 486.579 532.637 486.168 532.674C485.756 532.71 485.365 532.873 485.05 533.141C484.523 533.597 484.048 534.109 483.633 534.668C483.482 534.835 483.148 534.654 483.277 534.443L483.285 534.394C483.886 531.565 486.92 528.12 489.991 528.499Z" fill="#263238"/>
<g opacity="0.2">
<path d="M476.448 529.695C476.432 529.736 476.426 529.78 476.43 529.824C476.433 529.868 476.446 529.91 476.468 529.949C476.49 529.987 476.52 530.02 476.556 530.045C476.592 530.07 476.633 530.088 476.677 530.095C476.72 530.103 476.764 530.101 476.807 530.089C476.849 530.078 476.889 530.057 476.923 530.029C476.956 530 476.983 529.965 477.001 529.925C477.02 529.885 477.029 529.841 477.029 529.797C477.034 529.758 477.032 529.719 477.022 529.68C477.013 529.642 476.995 529.606 476.972 529.575C476.948 529.543 476.918 529.517 476.884 529.497C476.85 529.477 476.813 529.463 476.774 529.458C476.7 529.45 476.625 529.47 476.565 529.513C476.505 529.557 476.463 529.622 476.448 529.695Z" fill="black"/>
<path d="M470.306 528.591C470.297 528.67 470.319 528.749 470.366 528.812C470.414 528.875 470.483 528.917 470.561 528.931C470.6 528.935 470.64 528.932 470.678 528.921C470.716 528.91 470.751 528.891 470.782 528.866C470.813 528.842 470.838 528.811 470.857 528.776C470.876 528.742 470.888 528.704 470.892 528.664C470.898 528.626 470.896 528.586 470.886 528.549C470.876 528.511 470.858 528.476 470.834 528.445C470.81 528.414 470.78 528.389 470.746 528.37C470.712 528.351 470.674 528.339 470.636 528.335C470.558 528.326 470.48 528.348 470.419 528.396C470.357 528.444 470.317 528.514 470.306 528.591Z" fill="black"/>
<path d="M472.198 531.047C472.183 531.089 472.177 531.133 472.18 531.177C472.184 531.221 472.197 531.263 472.219 531.301C472.241 531.339 472.271 531.372 472.307 531.398C472.343 531.423 472.384 531.44 472.427 531.448C472.471 531.455 472.515 531.453 472.558 531.442C472.6 531.43 472.64 531.41 472.673 531.381C472.707 531.353 472.734 531.317 472.752 531.277C472.77 531.237 472.78 531.194 472.779 531.15C472.786 531.111 472.785 531.07 472.776 531.032C472.767 530.993 472.75 530.957 472.726 530.925C472.702 530.893 472.672 530.866 472.637 530.847C472.602 530.827 472.564 530.815 472.524 530.81C472.45 530.802 472.376 530.822 472.316 530.866C472.255 530.91 472.214 530.974 472.198 531.047Z" fill="black"/>
<path d="M476.607 527.235C476.602 527.274 476.604 527.314 476.614 527.352C476.623 527.39 476.641 527.426 476.664 527.458C476.688 527.489 476.718 527.516 476.752 527.536C476.786 527.556 476.823 527.569 476.862 527.575C476.921 527.583 476.981 527.574 477.034 527.548C477.088 527.522 477.132 527.481 477.163 527.43C477.193 527.379 477.207 527.32 477.204 527.261C477.2 527.202 477.18 527.145 477.144 527.097C477.108 527.05 477.06 527.014 477.004 526.994C476.948 526.975 476.887 526.972 476.83 526.987C476.772 527.002 476.72 527.033 476.681 527.077C476.641 527.121 476.616 527.176 476.607 527.235Z" fill="black"/>
<path d="M473.467 528.519C473.467 528.589 473.492 528.657 473.538 528.71C473.583 528.764 473.646 528.8 473.715 528.812C473.784 528.824 473.855 528.812 473.916 528.777C473.976 528.742 474.023 528.687 474.048 528.622C474.053 528.583 474.051 528.543 474.041 528.505C474.032 528.466 474.014 528.431 473.991 528.399C473.967 528.368 473.937 528.341 473.903 528.321C473.869 528.301 473.832 528.288 473.793 528.282C473.719 528.274 473.644 528.294 473.584 528.338C473.524 528.382 473.482 528.446 473.467 528.519Z" fill="black"/>
<path d="M458.836 522.233C458.83 522.272 458.833 522.312 458.842 522.35C458.852 522.388 458.869 522.424 458.893 522.456C458.917 522.487 458.946 522.514 458.98 522.534C459.014 522.554 459.052 522.567 459.091 522.572C459.168 522.581 459.246 522.559 459.308 522.511C459.369 522.463 459.41 522.393 459.421 522.316C459.429 522.237 459.408 522.159 459.36 522.096C459.313 522.033 459.243 521.99 459.166 521.976C459.088 521.968 459.01 521.99 458.949 522.038C458.887 522.086 458.847 522.156 458.836 522.233Z" fill="black"/>
<path d="M460.914 524.214C460.905 524.292 460.926 524.371 460.974 524.434C461.021 524.497 461.091 524.54 461.169 524.553C461.246 524.562 461.324 524.54 461.385 524.492C461.447 524.444 461.487 524.374 461.498 524.297C461.504 524.258 461.502 524.218 461.492 524.18C461.482 524.142 461.465 524.106 461.441 524.074C461.417 524.043 461.388 524.016 461.354 523.996C461.32 523.976 461.282 523.963 461.243 523.957C461.166 523.949 461.088 523.971 461.026 524.019C460.965 524.067 460.924 524.137 460.914 524.214Z" fill="black"/>
<path d="M460.066 526.085C460.057 526.163 460.079 526.24 460.127 526.302C460.175 526.363 460.245 526.404 460.322 526.415C460.361 526.42 460.401 526.418 460.439 526.408C460.478 526.399 460.513 526.381 460.545 526.358C460.576 526.334 460.603 526.304 460.623 526.27C460.643 526.236 460.656 526.199 460.662 526.16C460.67 526.082 460.648 526.005 460.6 525.943C460.552 525.881 460.482 525.841 460.405 525.83C460.366 525.823 460.326 525.824 460.287 525.834C460.248 525.843 460.212 525.86 460.18 525.884C460.148 525.908 460.122 525.938 460.102 525.973C460.082 526.007 460.07 526.046 460.066 526.085Z" fill="black"/>
<path d="M458.24 524.463C458.231 524.542 458.252 524.621 458.3 524.684C458.347 524.747 458.417 524.789 458.494 524.803C458.572 524.811 458.65 524.789 458.711 524.741C458.773 524.693 458.813 524.623 458.824 524.546C458.83 524.507 458.827 524.467 458.818 524.429C458.808 524.391 458.791 524.355 458.767 524.324C458.743 524.292 458.714 524.266 458.68 524.246C458.646 524.225 458.608 524.212 458.569 524.207C458.492 524.198 458.414 524.22 458.352 524.268C458.291 524.316 458.25 524.386 458.24 524.463Z" fill="black"/>
</g>
<defs>
<linearGradient id="paint0_linear_1_5950" x1="220.541" y1="313.904" x2="220.541" y2="436.293" gradientUnits="userSpaceOnUse">
<stop stop-color="#FFC727"/>
<stop offset="1" stop-color="#2868C5" stop-opacity="0.25"/>
</linearGradient>
<linearGradient id="paint1_linear_1_5950" x1="109.408" y1="-20.2059" x2="413.975" y2="324.774" gradientUnits="userSpaceOnUse">
<stop stop-color="#FFC727"/>
<stop offset="1" stop-color="#2868C5"/>
</linearGradient>
<linearGradient id="paint2_linear_1_5950" x1="-30.0625" y1="294.711" x2="647.576" y2="0.985566" gradientUnits="userSpaceOnUse">
<stop stop-color="#FFC727"/>
<stop offset="1" stop-color="#2868C5"/>
</linearGradient>
</defs>
</svg>
