<svg width="902" height="252" viewBox="0 0 902 252" fill="none" xmlns="http://www.w3.org/2000/svg">
<path d="M116 165.175H242.152C242.152 165.175 229.639 131 210.393 131C191.148 131 185.115 154.588 185.115 154.588C185.115 154.588 172.126 141.771 161.448 141.771C150.769 141.771 141.502 158.707 141.502 158.707C141.502 158.707 126.428 149.599 116 165.175Z" fill="#EBEBEB"/>
<path d="M38 61.8111H115.576C115.576 61.8111 102.244 36.3747 87.7904 36.0051C73.3364 35.6355 65.7332 55.3035 65.7332 55.3035C65.7332 55.3035 43.2536 37.2063 38 61.8111Z" fill="#EBEBEB"/>
<path d="M657 131.069H758.477C758.477 131.069 744.585 100.043 729.725 98.1069C714.865 96.1707 707.75 121.167 707.75 121.167C707.75 121.167 698.162 112.325 690.616 112.325C683.069 112.325 677.26 123.989 677.26 123.989C677.26 123.989 662.167 115.988 657 131.069Z" fill="#EBEBEB"/>
<path d="M369 85.3999H415.271C415.271 85.3999 407.316 70.2367 398.697 70.0034C390.077 69.7702 385.54 81.4808 385.54 81.4808C385.54 81.4808 372.126 70.7266 369 85.3999Z" fill="#EBEBEB"/>
</svg>
