<svg width="595" height="149" viewBox="0 0 595 149" fill="none" xmlns="http://www.w3.org/2000/svg">
<path d="M594.969 148.841C594.969 148.841 548.136 91.581 538.601 86.4471C531.329 82.5326 510.882 49.8734 496.063 27.0491C494.296 24.2921 487.439 26.5542 485.795 24.0005C480.255 15.3409 475.766 8.14808 473.424 4.45448C468.697 -3.10062 441.437 0.380912 436.983 4.45448C434.695 6.53986 420.291 41.3375 409.988 55.9351C406.683 60.6272 384.955 63.6228 376.039 66.0263C367.432 68.3502 342.549 108.679 335.833 111.913C298.827 129.71 289.681 145.607 282.32 148.841H594.969Z" fill="#FFC727"/>
<path opacity="0.5" d="M594.969 148.841C594.969 148.841 548.136 91.581 538.601 86.4471C531.329 82.5326 510.882 49.8734 496.063 27.0491C494.296 24.2921 487.439 26.5542 485.795 24.0005C480.255 15.3409 475.766 8.14808 473.424 4.45448C468.697 -3.10062 441.437 0.380912 436.983 4.45448C434.695 6.53986 420.291 41.3375 409.988 55.9351C406.683 60.6272 384.955 63.6228 376.039 66.0263C367.432 68.3502 342.549 108.679 335.833 111.913C298.827 129.71 289.681 145.607 282.32 148.841H594.969Z" fill="white"/>
<path opacity="0.1" d="M594.951 148.823H408.707C419.965 141.232 443.938 124.788 446.041 121.253C448.789 116.632 452.359 83.195 453.384 78.7591C454.409 74.3232 473.469 47.8318 474.264 43.0602C475.059 38.2885 471.905 3.52629 471.843 2.81055C471.917 2.85062 471.986 2.90121 472.046 2.96076C472.13 3.02018 472.21 3.08512 472.285 3.15516L472.506 3.34073C472.567 3.41143 472.638 3.46444 472.691 3.53514C472.766 3.60427 472.837 3.67805 472.903 3.75604L472.983 3.85324C473.043 3.91694 473.1 3.98486 473.151 4.05648L473.248 4.19786C473.301 4.28623 473.354 4.34807 473.407 4.43643C473.46 4.5248 473.628 4.78105 473.743 4.97545C473.858 5.16985 473.99 5.36425 474.114 5.56749C474.238 5.77072 474.379 5.9828 474.511 6.19488L474.936 6.86643C477.454 10.8693 481.254 16.9399 485.76 23.9736C485.818 24.0665 485.886 24.1525 485.963 24.2299C486.025 24.3065 486.096 24.3748 486.175 24.4331C486.268 24.5165 486.369 24.5905 486.476 24.654C486.558 24.7051 486.643 24.7495 486.732 24.7866C486.732 24.7866 487.333 41.5757 487.209 43.0337C487.086 44.4917 481.572 55.1572 481.245 57.4635C480.918 59.7698 481.74 68.668 481.245 70.5678C480.935 71.6723 475.439 83.3186 473.99 86.164C473.592 86.9416 477.949 86.4291 478.064 86.4291C478.611 86.4291 483.754 76.0817 484.744 75.3394C485.734 74.5972 486.555 60.6799 487.245 59.6284C487.934 58.5768 494.632 47.0542 495.507 45.7818C496.381 44.5094 496.063 27.031 496.063 27.031C498.838 31.3078 501.816 35.9292 504.9 40.6479C505.66 41.8231 506.428 43.016 507.197 44.1824L507.975 45.3753C508.676 46.4651 509.383 47.552 510.095 48.6359L512.985 53.0541C513.471 53.7875 513.948 54.5209 514.434 55.2455L515.866 57.4016L517.288 59.5223C519.179 62.3411 521.035 65.0539 522.82 67.6164L524.154 69.5074C527.538 74.2879 530.658 78.4145 533.273 81.4453C533.706 81.9313 534.157 82.3997 534.519 82.8327C534.793 83.1331 535.067 83.4159 535.323 83.7163L535.8 84.1935C536.26 84.6441 536.684 85.0771 537.117 85.3952C537.117 85.3952 520.699 97.7661 518.269 101.301C515.839 104.835 509.945 127.129 508.045 129.692C506.146 132.254 493.527 142.513 494.049 143.344C494.57 144.175 517.907 139.173 520.558 134.357C523.209 129.542 528.82 111.295 531.426 108.82C533.415 106.921 542.914 98.6497 548.039 94.7264C569.953 117.657 594.014 148.001 594.951 148.823Z" fill="black"/>
<path opacity="0.1" d="M419.136 96.6712C418.412 97.2367 405.078 93.5519 404.274 93.3045C403.469 93.0571 399.104 81.8703 398.291 82.1088C397.478 82.3474 386.415 79.0338 384.931 77.6023C383.446 76.1708 379.629 65.3905 379.629 65.3905L383.261 64.3919C391.505 62.6777 402.223 60.6188 407.384 57.9414C407.676 60.2654 409.001 71.6201 408.754 73.3962C408.471 75.3844 406.288 79.9881 406.942 81.4461C407.596 82.9041 419.861 96.1145 419.136 96.6712Z" fill="black"/>
<path opacity="0.5" d="M461.195 0.0712838C461.195 0.0712838 442.091 2.85474 439.351 7.65289C436.612 12.451 415.184 55.3693 412.445 57.9318C409.705 60.4944 382.816 67.9787 379.591 71.1156C376.366 74.2526 358.658 109.518 351.986 114.087C345.315 118.655 337.795 119.512 333.969 122.358C330.434 124.956 306.099 145.332 301.946 148.823H282.32C289.681 145.589 298.827 129.692 335.833 111.895C342.531 108.679 367.432 68.3499 376.056 66.0259C384.972 63.6224 406.701 60.6269 410.006 55.9348C420.309 41.3371 434.748 6.53951 437.001 4.44529C439.802 1.89159 451.625 -0.441225 461.195 0.0712838Z" fill="white"/>
<path d="M349.832 148.823C349.832 148.823 325.629 135.18 316.695 134.579C306.092 133.872 245.704 115.563 239.527 113.831C231.787 111.667 198.253 81.4726 173.838 60.9634C171.947 59.3729 162.536 60.7779 161.387 60.1682C151.544 54.8664 144.006 45.5352 137.953 45.5352C131.37 45.5352 80.8792 104.297 75.6216 109.245C70.364 114.194 41.9109 132.017 33.101 133.828C24.2912 135.64 0 148.85 0 148.85L349.832 148.823Z" fill="#FFC727"/>
<path opacity="0.4" d="M349.832 148.823C349.832 148.823 325.629 135.18 316.695 134.579C306.092 133.872 245.704 115.563 239.527 113.831C231.787 111.667 198.253 81.4726 173.838 60.9634C171.947 59.3729 162.536 60.7779 161.387 60.1682C151.544 54.8664 144.006 45.5352 137.953 45.5352C131.37 45.5352 80.8792 104.297 75.6216 109.245C70.364 114.194 41.9109 132.017 33.101 133.828C24.2912 135.64 0 148.85 0 148.85L349.832 148.823Z" fill="white"/>
<path opacity="0.1" d="M145.613 111.03C144.394 110.208 144.005 100.595 143.634 98.8538C143.263 97.113 126.059 81.8703 125.891 79.7054C125.723 77.5405 137.961 45.5352 137.961 45.5352C131.369 45.5352 80.8782 104.306 75.6206 109.245C75.2936 109.546 74.8695 109.908 74.3746 110.315L73.5617 110.951C72.5544 111.728 71.3173 112.621 69.9035 113.602L68.6487 114.485C67.9948 114.936 67.3321 115.369 66.6252 115.846L65.1937 116.792C64.4691 117.269 63.718 117.755 62.9492 118.241C62.4367 118.577 61.9154 118.903 61.3852 119.23C59.8123 120.22 58.1776 121.236 56.5164 122.226C50.9096 125.678 45.1191 128.823 39.1706 131.646L37.8628 132.211C37.4475 132.397 37.0322 132.556 36.6434 132.715C36.0513 132.953 35.4858 133.157 34.9733 133.324L33.9836 133.634L33.1 133.846C32.5433 133.952 31.9424 134.12 31.2797 134.314C30.9439 134.402 30.5993 134.517 30.2458 134.632C29.8924 134.747 29.5213 134.871 29.1501 135.012L27.9837 135.427L26.7732 135.896C25.9514 136.223 25.0942 136.576 24.2106 136.947C23.327 137.318 22.4433 137.716 21.5597 138.123L19.492 139.059L18.7939 139.386L17.3713 140.014L16.682 140.341L15.2947 141.012C7.27131 144.874 0.0078125 148.823 0.0078125 148.823H210.181C189.026 136.656 146.506 111.64 145.613 111.03ZM97.5524 108.15C96.8632 107.955 92.2506 102.795 91.6409 102.609C91.0312 102.424 89.6174 98.3678 89.962 98.191C90.8748 97.7699 91.8133 97.4069 92.772 97.1042C93.1077 97.06 94.9545 99.6049 95.2903 99.6049C95.6261 99.6049 101.988 99.6049 102.607 99.9848C103.225 100.365 108.077 107.522 107.909 108.167C107.626 108.989 98.224 108.379 97.5524 108.15Z" fill="black"/>
<path opacity="0.4" d="M349.813 148.814C349.512 148.691 329.251 148.814 329.251 148.814C325.822 145.368 318.514 140.376 315.59 139.784C310.738 138.803 294.046 135.516 288.992 133.934C283.938 132.352 239.217 118.426 229.735 115.687C220.254 112.948 173.775 64.268 171.354 64.1973C168.932 64.1266 161.271 65.081 159.115 64.1973C156.959 63.3137 143.652 47.638 137.961 45.5791C144.014 45.5791 151.551 54.9456 161.386 60.2121C162.535 60.8218 171.99 59.4169 173.837 61.0074C198.251 81.5166 231.785 111.71 239.526 113.875C245.712 115.643 306.126 133.916 316.694 134.623C325.486 135.171 349.079 148.399 349.813 148.814Z" fill="white"/>
<path d="M11.75 148.841C11.75 148.841 43.5609 127.633 60.4384 119.919C63.4516 118.541 72.6326 118.523 73.905 118.152C80.329 116.226 98.3906 100.161 111.468 88.93C113.05 87.578 119.085 88.6914 120.534 87.4278C125.43 83.1687 129.371 79.6341 131.439 77.8138C135.618 74.1026 159.715 75.8168 163.621 77.8138C165.635 78.8389 179.915 94.002 189.007 101.186C191.932 103.492 211.098 104.968 218.989 106.152C226.597 107.292 247.027 129.127 252.939 130.673C285.633 139.43 293.692 147.25 300.187 148.841H11.75Z" fill="#FFC727"/>
<path opacity="0.3" d="M11.75 148.841C11.75 148.841 43.5609 127.633 60.4384 119.919C63.4516 118.541 72.6326 118.523 73.905 118.152C80.329 116.226 98.3906 100.161 111.468 88.93C113.05 87.578 119.085 88.6914 120.534 87.4278C125.43 83.1687 129.371 79.6341 131.439 77.8138C135.618 74.1026 159.715 75.8168 163.621 77.8138C165.635 78.8389 179.915 94.002 189.007 101.186C191.932 103.492 211.098 104.968 218.989 106.152C226.597 107.292 247.027 129.127 252.939 130.673C285.633 139.43 293.692 147.25 300.187 148.841H11.75Z" fill="white"/>
<path opacity="0.1" d="M188.594 148.832H11.7695H11.8226L12.0435 148.691L12.3086 148.506C16.6295 145.643 44.8971 127.033 60.4402 119.955C67.1559 122.968 78.8729 128.42 80.3132 129.189C82.6107 130.409 87.5855 139.386 89.9183 141.755C92.2511 144.123 112.813 146.579 113.273 146.173C113.732 145.766 102.59 140.721 100.902 139.457C99.2142 138.194 94.0096 127.219 91.8712 125.487C89.7328 123.755 75.2323 117.658 75.2323 117.658C75.5946 117.49 75.9834 117.295 76.3987 117.066L76.814 116.836L77.2293 116.589L77.5298 116.412L78.6255 115.731C79.7388 115.016 80.9583 114.176 82.2572 113.222C82.4428 113.089 82.6283 112.957 82.8139 112.807C84.0421 111.923 85.3323 110.916 86.6754 109.855C87.073 109.555 87.4618 109.246 87.8595 108.927L89.5295 107.584L91.4912 105.985L92.7371 104.951L93.9919 103.9C94.416 103.558 94.8402 103.204 95.2643 102.839L96.5368 101.77L99.0993 99.5963L100.973 97.988L101.653 97.4048C102.333 96.8305 103.014 96.2384 103.677 95.6376L106.327 93.3313L110.198 90L111.435 88.9396C111.435 88.9396 111.143 97.5374 111.921 98.1648C112.698 98.7922 118.61 104.447 119.22 104.969C119.829 105.49 120.554 112.338 121.429 112.701C122.304 113.063 126.837 118.161 127.323 118.161C127.429 118.161 131.273 118.409 130.919 118.029C129.647 116.624 124.787 110.898 124.522 110.359C124.053 109.422 124.778 105.057 124.522 103.908C124.265 102.76 119.379 97.5374 119.22 96.8393C119.061 96.1412 119.644 87.8704 119.644 87.8704L119.865 87.7997C119.957 87.7752 120.046 87.7396 120.13 87.6937L120.324 87.5965C120.388 87.5599 120.448 87.5153 120.501 87.4639C121.497 86.598 122.451 85.7644 123.364 84.9632L125.326 83.2401L125.935 82.7011L126.527 82.1798L127.703 81.1371C127.924 80.9427 128.144 80.7571 128.348 80.5627C128.551 80.3683 128.763 80.2004 128.957 80.0237C129.152 79.847 129.346 79.6879 129.523 79.52L129.629 79.4317L130.062 79.0517L130.433 78.7248L130.778 78.4155L131.105 78.1239L131.264 77.9825L131.405 77.8588L131.546 77.7439L131.635 77.6732L131.785 77.5672L131.847 77.523L132.032 77.417L132.2 77.3198L132.404 77.2226L132.607 77.1342C132.663 77.1024 132.722 77.0758 132.784 77.0547C132.731 77.4081 129.947 94.5242 130.645 96.8482C131.343 99.1721 148.185 112.241 149.087 114.415C149.988 116.589 153.143 133.051 155.573 135.322C157.49 137.009 178.662 145.095 188.594 148.832Z" fill="black"/>
<path opacity="0.1" d="M180.961 121.209C181.597 121.492 193.376 119.681 194.074 119.557C194.772 119.433 198.616 113.946 199.376 114.052C200.136 114.158 209.865 112.541 211.173 111.834C212.48 111.127 215.891 105.825 215.891 105.825L212.684 105.339C205.403 104.456 195.895 103.484 191.37 102.167C191.123 103.307 189.948 108.891 190.169 109.766C190.39 110.641 192.342 113.009 191.768 113.725C191.194 114.441 180.316 120.935 180.961 121.209Z" fill="black"/>
<path opacity="0.4" d="M300.187 148.832H278.979C278.158 148.505 250.968 134.924 246.285 132.75C241.602 130.576 220.544 109.776 217.249 108.83C213.953 107.885 188.442 104.969 186.684 104.138C184.925 103.307 165.821 81.7555 163.037 79.5464C160.254 77.3373 149.253 75.7468 144.375 75.623C152.328 75.623 161.341 76.6569 163.621 77.8056C165.635 78.8306 179.915 93.9939 189.007 101.178C191.932 103.484 211.098 104.96 218.989 106.135C226.597 107.284 247.027 129.11 252.939 130.665C285.615 139.422 293.692 147.259 300.187 148.832Z" fill="white"/>
<path d="M227.094 148.823C227.094 148.823 251.73 139.024 260.831 138.591C271.585 138.078 333.095 124.921 339.377 123.675C347.251 122.12 377.86 100.418 402.716 85.6785C404.634 84.5386 414.204 85.546 415.379 85.1041C425.399 81.3222 436.586 74.5889 442.772 74.5889C449.47 74.5889 500.871 116.827 506.217 120.379C511.563 123.931 540.537 136.753 549.515 138.052C558.493 139.351 583.208 148.823 583.208 148.823H227.094Z" fill="#FFC727"/>
<path opacity="0.4" d="M227.094 148.823C227.094 148.823 251.73 139.024 260.831 138.591C271.585 138.078 333.095 124.921 339.377 123.675C347.251 122.12 377.86 100.418 402.716 85.6785C404.634 84.5386 414.204 85.546 415.379 85.1041C425.399 81.3222 436.586 74.5889 442.772 74.5889C449.47 74.5889 500.871 116.827 506.217 120.379C511.563 123.931 540.537 136.753 549.515 138.052C558.493 139.351 583.208 148.823 583.208 148.823H227.094Z" fill="white"/>
<path opacity="0.1" d="M369.254 148.823H583.2C583.2 148.823 575.804 145.996 567.63 143.212L566.225 142.735L565.518 142.496L564.105 142.028L563.398 141.798L561.295 141.127C560.411 140.835 559.448 140.544 558.546 140.243C557.645 139.943 556.779 139.722 555.949 139.492L554.711 139.156L553.527 138.856L552.414 138.582C552.052 138.494 551.698 138.423 551.363 138.352C550.682 138.211 550.064 138.096 549.507 138.016C549.224 137.972 548.924 137.928 548.623 137.866L547.616 137.645C547.086 137.522 546.52 137.371 545.919 137.204C545.513 137.089 545.098 136.974 544.673 136.841C544.249 136.709 543.79 136.576 543.348 136.435C538.338 134.835 531.861 132.299 525.675 129.666C523.987 128.95 522.326 128.226 520.718 127.51L519.127 126.803L516.839 125.76L515.381 125.08C514.674 124.753 513.985 124.426 513.331 124.099C512.889 123.896 512.447 123.684 512.05 123.481C510.618 122.774 509.399 122.138 508.321 121.572L507.499 121.113C506.995 120.821 506.562 120.565 506.226 120.344C500.88 116.809 449.479 74.5537 442.772 74.5537C442.772 74.5537 455.205 97.5282 455.055 99.1188C454.905 100.709 437.382 111.711 437.002 112.877C436.622 114.043 436.225 121.042 434.988 121.634C434.069 122.102 390.788 140.075 369.254 148.823ZM473.373 119.593C473.187 119.133 478.127 113.982 478.754 113.716C479.382 113.451 485.823 113.443 486.194 113.443C486.565 113.443 488.421 111.613 488.766 111.675C489.11 111.737 491.275 112.32 491.62 112.453C491.965 112.585 490.577 115.528 489.914 115.643C489.252 115.758 484.613 119.487 483.897 119.619C483.181 119.752 473.638 120.202 473.373 119.593Z" fill="black"/>
<path opacity="0.5" d="M442.763 74.5889C440.501 75.2162 418.905 86.0143 415.839 86.5003C412.772 86.9863 404.873 86.4031 403.795 87.4811C402.716 88.5592 355.195 124.505 347.065 128.597C338.936 132.688 289.099 139.492 282.321 140.605C276.604 141.489 265.276 147.109 261.874 148.823H227.094C227.094 148.823 251.73 139.024 260.831 138.591C271.585 138.078 333.095 124.921 339.377 123.675C347.251 122.12 377.86 100.418 402.716 85.6785C404.634 84.5386 414.204 85.546 415.379 85.1041C425.391 81.3222 436.604 74.5977 442.763 74.5889Z" fill="white"/>
</svg>
