<svg width="280" height="280" viewBox="0 0 280 280" fill="none" xmlns="http://www.w3.org/2000/svg">
<path d="M232.646 29.4365H47.5459V158.77H232.646V29.4365Z" fill="#DBDBDB"/>
<path d="M232.646 29.3359H47.5459V34.4361H232.646V29.3359Z" fill="#455A64"/>
<path d="M51.9652 31.8855C51.9652 32.1063 51.8997 32.322 51.7771 32.5055C51.6544 32.6891 51.4802 32.8321 51.2762 32.9166C51.0723 33.001 50.8479 33.0231 50.6314 32.9801C50.415 32.937 50.2161 32.8307 50.06 32.6747C49.9039 32.5186 49.7977 32.3197 49.7546 32.1033C49.7115 31.8868 49.7336 31.6624 49.8181 31.4585C49.9026 31.2545 50.0456 31.0802 50.2291 30.9576C50.4127 30.835 50.6284 30.7695 50.8492 30.7695C51.1451 30.7695 51.429 30.8871 51.6383 31.0964C51.8476 31.3057 51.9652 31.5895 51.9652 31.8855Z" fill="#C7C7C7"/>
<path d="M56.4905 31.8855C56.4905 32.1063 56.4251 32.322 56.3025 32.5055C56.1798 32.6891 56.0055 32.8321 55.8016 32.9166C55.5977 33.001 55.3733 33.0231 55.1568 32.9801C54.9403 32.937 54.7415 32.8307 54.5854 32.6747C54.4293 32.5186 54.3231 32.3197 54.28 32.1033C54.2369 31.8868 54.259 31.6624 54.3435 31.4585C54.428 31.2545 54.571 31.0802 54.7545 30.9576C54.9381 30.835 55.1538 30.7695 55.3745 30.7695C55.6705 30.7695 55.9544 30.8871 56.1637 31.0964C56.373 31.3057 56.4905 31.5895 56.4905 31.8855Z" fill="white"/>
<path d="M61.022 31.8855C61.022 32.1063 60.9566 32.322 60.834 32.5055C60.7113 32.6891 60.537 32.8321 60.3331 32.9166C60.1292 33.001 59.9048 33.0231 59.6883 32.9801C59.4718 32.937 59.273 32.8307 59.1169 32.6747C58.9608 32.5186 58.8545 32.3197 58.8115 32.1033C58.7684 31.8868 58.7905 31.6624 58.875 31.4585C58.9595 31.2545 59.1025 31.0802 59.286 30.9576C59.4695 30.835 59.6853 30.7695 59.906 30.7695C60.202 30.7695 60.4859 30.8871 60.6952 31.0964C60.9045 31.3057 61.022 31.5895 61.022 31.8855Z" fill="#FFC727"/>
<path d="M216.235 47.0693H63.957V147.208H216.235V47.0693Z" fill="white"/>
<path d="M205.973 142.03H74.2183V141.807C74.2183 140.475 73.6892 139.197 72.7474 138.256C71.8056 137.314 70.5282 136.785 69.1963 136.785H69.0233V57.4203H69.1628C70.4947 57.4203 71.7721 56.8912 72.7139 55.9494C73.6557 55.0076 74.1848 53.7302 74.1848 52.3983V52.2588H205.973V52.3983C205.973 53.7302 206.502 55.0076 207.444 55.9494C208.386 56.8912 209.663 57.4203 210.995 57.4203H211.135V136.773H210.995C209.663 136.773 208.386 137.303 207.444 138.244C206.502 139.186 205.973 140.464 205.973 141.795V142.03ZM74.4973 141.751H205.694C205.71 140.376 206.257 139.062 207.222 138.082C208.186 137.103 209.493 136.536 210.867 136.5V57.7104C209.507 57.6725 208.213 57.1153 207.251 56.1534C206.289 55.1914 205.732 53.8977 205.694 52.5378H74.4973C74.4593 53.8977 73.9022 55.1914 72.9402 56.1534C71.9783 57.1153 70.6845 57.6725 69.3246 57.7104V136.5C70.6986 136.536 72.0052 137.103 72.9698 138.082C73.9344 139.062 74.4819 140.376 74.4973 141.751Z" fill="#FFC727"/>
<path d="M99.5791 68.4842C99.5967 67.4515 100.02 66.4672 100.757 65.7437C101.494 65.0202 102.486 64.6156 103.519 64.6172C104.416 64.613 105.29 64.9075 106.002 65.4542C106.123 65.5584 106.202 65.7043 106.221 65.8633C106.241 66.0223 106.201 66.1829 106.108 66.3136C106.007 66.4393 105.861 66.5215 105.701 66.5433C105.542 66.5651 105.379 66.5248 105.248 66.4307C104.758 66.0381 104.146 65.8289 103.519 65.8393C102.798 65.8434 102.106 66.1206 101.582 66.6149C101.085 67.1103 100.804 67.7823 100.801 68.4842C100.801 68.8311 100.87 69.1747 101.004 69.4947C101.138 69.8147 101.335 70.1047 101.582 70.3479C102.106 70.8422 102.798 71.1193 103.519 71.1235C104.147 71.1348 104.759 70.9255 105.248 70.532C105.381 70.443 105.542 70.4057 105.7 70.4273C105.859 70.4489 106.004 70.5279 106.108 70.6492C106.202 70.7794 106.243 70.9403 106.223 71.0997C106.204 71.2591 106.125 71.4051 106.002 71.5085C105.291 72.0576 104.417 72.3523 103.519 72.3455C102.485 72.3545 101.489 71.953 100.751 71.2292C100.012 70.5053 99.5909 69.5182 99.5791 68.4842Z" fill="#FFC727"/>
<path d="M108.19 71.7615V65.4226C108.185 65.3437 108.197 65.2646 108.225 65.1906C108.253 65.1166 108.296 65.0494 108.352 64.9935C108.408 64.9376 108.475 64.8942 108.549 64.8662C108.623 64.8382 108.702 64.8263 108.781 64.8311H112.296C112.447 64.8397 112.589 64.9058 112.693 65.0158C112.797 65.1258 112.855 65.2714 112.854 65.4226C112.855 65.575 112.798 65.7219 112.694 65.8337C112.59 65.9455 112.448 66.014 112.296 66.0253H109.384V67.9894H111.884C112.042 67.9894 112.194 68.0523 112.306 68.1643C112.418 68.2763 112.481 68.4281 112.481 68.5865C112.481 68.7448 112.418 68.8967 112.306 69.0087C112.194 69.1206 112.042 69.1835 111.884 69.1835H109.384V71.1589H112.296C112.444 71.1732 112.581 71.242 112.681 71.3519C112.781 71.4617 112.836 71.6048 112.836 71.7531C112.836 71.9015 112.781 72.0446 112.681 72.1544C112.581 72.2643 112.444 72.3331 112.296 72.3474H108.781C108.704 72.3481 108.627 72.3335 108.555 72.3044C108.483 72.2753 108.418 72.2323 108.363 72.1778C108.308 72.1233 108.264 72.0585 108.235 71.987C108.205 71.9156 108.19 71.8389 108.19 71.7615Z" fill="#FFC727"/>
<path d="M119.745 71.4602C119.77 71.5338 119.781 71.6117 119.775 71.6894C119.77 71.767 119.75 71.8429 119.715 71.9125C119.68 71.9821 119.632 72.044 119.573 72.0948C119.514 72.1455 119.445 72.184 119.371 72.2079C119.293 72.2295 119.212 72.2408 119.131 72.2414C118.983 72.243 118.838 72.2024 118.713 72.1242C118.566 72.0326 118.447 71.9035 118.367 71.7503C118.195 71.3434 118.118 70.9024 118.143 70.4614C118.143 70.2975 118.097 70.137 118.01 69.9982C117.928 69.8716 117.82 69.7648 117.691 69.6857C117.505 69.5693 117.302 69.4827 117.089 69.4291H115.822V71.7615C115.812 71.914 115.744 72.0568 115.632 72.1606C115.52 72.2644 115.372 72.3213 115.22 72.3195C115.068 72.3211 114.922 72.2639 114.811 72.1598C114.701 72.0558 114.635 71.913 114.628 71.7615V65.4226C114.623 65.3437 114.635 65.2646 114.663 65.1906C114.691 65.1166 114.734 65.0494 114.79 64.9935C114.846 64.9376 114.914 64.8942 114.987 64.8662C115.061 64.8382 115.141 64.8263 115.22 64.8311H117.139C117.442 64.8304 117.742 64.8897 118.022 65.0057C118.302 65.1217 118.556 65.292 118.77 65.5068C118.984 65.7216 119.153 65.9766 119.268 66.2572C119.382 66.5377 119.44 66.8382 119.438 67.1413C119.439 67.479 119.364 67.8126 119.219 68.1177C119.074 68.4228 118.863 68.6916 118.601 68.9045C118.748 69.0154 118.876 69.1492 118.98 69.3007C119.212 69.6434 119.334 70.0479 119.332 70.4614C119.321 70.6726 119.336 70.8843 119.377 71.0919C119.463 71.1187 119.542 71.1663 119.606 71.2304C119.671 71.2946 119.718 71.3735 119.745 71.4602ZM118.244 67.1413C118.244 66.8453 118.126 66.5614 117.917 66.3521C117.708 66.1428 117.424 66.0253 117.128 66.0253H115.811V68.2573H117.128C117.424 68.2573 117.708 68.1397 117.917 67.9304C118.126 67.7211 118.244 67.4373 118.244 67.1413Z" fill="#FFC727"/>
<path d="M125.867 66.0253H124.16V71.7615C124.16 71.8372 124.145 71.9121 124.115 71.9817C124.085 72.0513 124.041 72.1141 123.987 72.1663C123.932 72.2185 123.867 72.259 123.796 72.2853C123.725 72.3117 123.649 72.3233 123.574 72.3195C123.422 72.3211 123.276 72.2639 123.166 72.1598C123.055 72.0558 122.99 71.913 122.982 71.7615V66.0253H121.308C121.23 66.0245 121.152 66.0084 121.08 65.9777C121.008 65.947 120.943 65.9024 120.888 65.8465C120.833 65.7905 120.79 65.7243 120.76 65.6515C120.731 65.5788 120.716 65.501 120.717 65.4226C120.712 65.3437 120.724 65.2646 120.752 65.1906C120.78 65.1166 120.823 65.0494 120.879 64.9935C120.935 64.9376 121.002 64.8942 121.076 64.8662C121.15 64.8382 121.229 64.8263 121.308 64.8311H125.89C125.967 64.8304 126.045 64.8452 126.117 64.8747C126.189 64.9041 126.254 64.9477 126.309 65.0027C126.365 65.0578 126.408 65.1233 126.438 65.1954C126.467 65.2675 126.482 65.3447 126.481 65.4226C126.481 65.5027 126.465 65.582 126.434 65.6559C126.403 65.7297 126.358 65.7966 126.301 65.8528C126.243 65.9089 126.176 65.953 126.101 65.9826C126.027 66.0123 125.947 66.0268 125.867 66.0253Z" fill="#FFC727"/>
<path d="M128.305 65.4226C128.3 65.3437 128.312 65.2646 128.34 65.1906C128.368 65.1166 128.411 65.0494 128.467 64.9935C128.523 64.9376 128.59 64.8942 128.664 64.8662C128.738 64.8382 128.817 64.8263 128.896 64.8311C128.975 64.8304 129.052 64.8451 129.125 64.8745C129.198 64.9038 129.264 64.9471 129.32 65.0021C129.376 65.057 129.421 65.1224 129.451 65.1946C129.482 65.2667 129.498 65.3442 129.499 65.4226V71.7615C129.489 71.914 129.421 72.0568 129.309 72.1606C129.197 72.2644 129.049 72.3213 128.896 72.3195C128.82 72.3241 128.744 72.313 128.672 72.287C128.601 72.261 128.535 72.2207 128.48 72.1684C128.424 72.1161 128.38 72.053 128.35 71.9831C128.32 71.9131 128.305 71.8377 128.305 71.7615V65.4226Z" fill="#FFC727"/>
<path d="M131.519 71.7605V65.4216C131.519 65.3437 131.533 65.2665 131.563 65.1944C131.592 65.1223 131.636 65.0568 131.691 65.0017C131.746 64.9466 131.811 64.9031 131.884 64.8736C131.956 64.8441 132.033 64.8294 132.111 64.8301H135.621C135.779 64.8301 135.931 64.893 136.043 65.005C136.155 65.1169 136.218 65.2688 136.218 65.4272C136.218 65.5855 136.155 65.7374 136.043 65.8493C135.931 65.9613 135.779 66.0242 135.621 66.0242H132.713V67.9884H135.213C135.372 67.9884 135.524 68.0513 135.635 68.1633C135.747 68.2752 135.81 68.4271 135.81 68.5854C135.81 68.7438 135.747 68.8957 135.635 69.0076C135.524 69.1196 135.372 69.1825 135.213 69.1825H132.713V71.7605C132.702 71.9124 132.634 72.0545 132.522 72.158C132.41 72.2616 132.263 72.3189 132.111 72.3185C131.959 72.3201 131.813 72.2628 131.703 72.1588C131.592 72.0547 131.527 71.9119 131.519 71.7605Z" fill="#FFC727"/>
<path d="M138.081 65.4226C138.076 65.3437 138.088 65.2646 138.116 65.1906C138.144 65.1166 138.188 65.0494 138.244 64.9935C138.299 64.9376 138.367 64.8942 138.441 64.8662C138.515 64.8382 138.594 64.8263 138.673 64.8311C138.831 64.8311 138.982 64.8931 139.095 65.0037C139.208 65.1143 139.272 65.2647 139.275 65.4226V71.7615C139.264 71.9135 139.196 72.0555 139.084 72.1591C138.972 72.2626 138.825 72.3199 138.673 72.3195C138.597 72.3241 138.52 72.313 138.449 72.287C138.377 72.261 138.312 72.2207 138.256 72.1684C138.201 72.1161 138.157 72.053 138.127 71.9831C138.096 71.9131 138.081 71.8377 138.081 71.7615V65.4226Z" fill="#FFC727"/>
<path d="M140.949 68.4852C140.968 67.453 141.392 66.4695 142.129 65.7463C142.865 65.0231 143.857 64.6181 144.889 64.6182C145.787 64.6132 146.661 64.9077 147.372 65.4552C147.495 65.5586 147.574 65.7047 147.594 65.8641C147.613 66.0235 147.572 66.1844 147.478 66.3145C147.378 66.4415 147.232 66.5246 147.072 66.5465C146.912 66.5683 146.749 66.5272 146.619 66.4317C146.129 66.0391 145.517 65.8299 144.889 65.8402C144.167 65.8496 143.476 66.1352 142.958 66.6382C142.71 66.8825 142.513 67.1734 142.378 67.4942C142.243 67.8151 142.173 68.1594 142.171 68.5075C142.171 68.855 142.241 69.199 142.376 69.5192C142.511 69.8393 142.709 70.1291 142.958 70.3712C143.492 70.8552 144.191 71.1167 144.911 71.1022C145.539 71.1135 146.151 70.9042 146.641 70.5107C146.774 70.4217 146.935 70.3844 147.093 70.406C147.251 70.4276 147.396 70.5065 147.5 70.6279C147.596 70.7576 147.638 70.9188 147.618 71.0786C147.598 71.2384 147.518 71.3846 147.394 71.4872C146.684 72.037 145.809 72.3319 144.911 72.3242C143.877 72.3391 142.879 71.9434 142.137 71.2237C141.394 70.504 140.967 69.5192 140.949 68.4852Z" fill="#FFC727"/>
<path d="M153.237 70.5781H150.626L150.101 71.9731C150.055 72.0833 149.978 72.1775 149.878 72.244C149.779 72.3105 149.663 72.3463 149.543 72.3469C149.444 72.3574 149.343 72.341 149.252 72.2994C149.162 72.2577 149.083 72.1924 149.026 72.1103C148.969 72.0282 148.935 71.9322 148.928 71.8325C148.921 71.7328 148.941 71.6329 148.985 71.5434L151.362 65.2157C151.408 65.1051 151.485 65.0104 151.584 64.9438C151.684 64.8773 151.801 64.8418 151.92 64.8419C152.04 64.8402 152.158 64.8751 152.257 64.9419C152.357 65.0087 152.434 65.1042 152.478 65.2157L154.85 71.5434C154.903 71.6931 154.896 71.8575 154.83 72.0021C154.765 72.1468 154.646 72.2603 154.498 72.319C154.352 72.3647 154.194 72.3546 154.055 72.2907C153.916 72.2268 153.806 72.1136 153.745 71.9731L153.237 70.5781ZM152.796 69.3951L151.926 67.085L151.05 69.3951H152.796Z" fill="#FFC727"/>
<path d="M159.86 66.0243H158.153V71.7605C158.138 71.9068 158.07 72.0425 157.961 72.1412C157.853 72.2399 157.711 72.2946 157.564 72.2946C157.417 72.2946 157.275 72.2399 157.167 72.1412C157.058 72.0425 156.99 71.9068 156.975 71.7605V66.0243H155.273C155.116 66.0214 154.965 65.9566 154.855 65.8439C154.744 65.7312 154.682 65.5796 154.682 65.4217C154.677 65.3427 154.689 65.2636 154.717 65.1896C154.745 65.1157 154.788 65.0485 154.844 64.9925C154.9 64.9366 154.967 64.8932 155.041 64.8652C155.115 64.8372 155.195 64.8253 155.273 64.8302H159.86C159.938 64.8294 160.015 64.8442 160.087 64.8737C160.16 64.9031 160.225 64.9467 160.28 65.0018C160.335 65.0568 160.379 65.1223 160.408 65.1944C160.438 65.2665 160.452 65.3438 160.452 65.4217C160.452 65.5796 160.39 65.7312 160.279 65.8439C160.169 65.9566 160.018 66.0214 159.86 66.0243Z" fill="#FFC727"/>
<path d="M162.298 65.4226C162.293 65.3437 162.305 65.2646 162.333 65.1906C162.361 65.1166 162.404 65.0494 162.46 64.9935C162.516 64.9376 162.583 64.8942 162.657 64.8662C162.731 64.8382 162.81 64.8263 162.889 64.8311C162.968 64.8304 163.046 64.8451 163.118 64.8745C163.191 64.9038 163.257 64.9471 163.313 65.0021C163.369 65.057 163.414 65.1224 163.444 65.1946C163.475 65.2667 163.491 65.3442 163.492 65.4226V71.7615C163.482 71.914 163.414 72.0568 163.302 72.1606C163.19 72.2644 163.042 72.3213 162.889 72.3195C162.813 72.3241 162.737 72.313 162.666 72.287C162.594 72.261 162.528 72.2207 162.473 72.1684C162.418 72.1161 162.373 72.053 162.343 71.9831C162.313 71.9131 162.298 71.8377 162.298 71.7615V65.4226Z" fill="#FFC727"/>
<path d="M171.428 65.7676C172.125 66.5002 172.515 67.4733 172.515 68.4851C172.515 69.4969 172.125 70.47 171.428 71.2026C171.099 71.5547 170.702 71.8355 170.26 72.0275C169.819 72.2195 169.342 72.3186 168.861 72.3186C168.37 72.3204 167.884 72.2224 167.432 72.0305C166.98 71.8387 166.572 71.557 166.233 71.2026C165.547 70.4637 165.166 69.493 165.166 68.4851C165.166 67.4772 165.547 66.5065 166.233 65.7676C166.568 65.4053 166.974 65.1162 167.427 64.9184C167.879 64.7206 168.367 64.6183 168.861 64.6182C169.345 64.6204 169.824 64.7238 170.266 64.9217C170.708 65.1197 171.103 65.4078 171.428 65.7676ZM171.288 68.4851C171.287 67.789 171.027 67.1183 170.557 66.6046C170.34 66.3644 170.076 66.1722 169.78 66.0407C169.485 65.9092 169.165 65.8413 168.841 65.8413C168.518 65.8413 168.198 65.9092 167.902 66.0407C167.607 66.1722 167.342 66.3644 167.125 66.6046C166.65 67.1148 166.388 67.7878 166.394 68.4851C166.387 69.1776 166.649 69.8457 167.125 70.3488C167.34 70.5923 167.604 70.7872 167.9 70.9208C168.196 71.0543 168.517 71.1234 168.841 71.1234C169.166 71.1234 169.487 71.0543 169.782 70.9208C170.078 70.7872 170.342 70.5923 170.557 70.3488C171.028 69.8429 171.29 69.1766 171.288 68.4851Z" fill="#FFC727"/>
<path d="M175.534 71.7608C175.534 71.9162 175.473 72.0652 175.363 72.1751C175.253 72.2849 175.104 72.3467 174.948 72.3467C174.793 72.3467 174.644 72.2849 174.534 72.1751C174.424 72.0652 174.363 71.9162 174.363 71.7608V65.5223C174.356 65.4273 174.375 65.3323 174.416 65.2463C174.457 65.1604 174.519 65.0863 174.597 65.0313C174.723 64.9424 174.878 64.9061 175.03 64.9301C175.182 64.954 175.319 65.0364 175.412 65.1596L178.882 69.9584V65.5223C178.889 65.3765 178.95 65.2385 179.053 65.1353C179.157 65.0321 179.295 64.9711 179.44 64.9643C179.591 64.9654 179.736 65.0236 179.846 65.1271C179.955 65.2306 180.022 65.3718 180.032 65.5223V71.7664C180.022 71.9169 179.955 72.0581 179.846 72.1616C179.736 72.2651 179.591 72.3233 179.44 72.3244C179.356 72.3248 179.272 72.306 179.195 72.2692C179.119 72.2325 179.052 72.1788 179 72.1123C178.978 72.0944 178.96 72.0714 178.949 72.0454L175.512 67.28L175.534 71.7608Z" fill="#FFC727"/>
<path d="M119.901 80.4888C123.272 80.4405 126.638 80.4051 130.001 80.3828H140.095H150.195C153.543 80.4051 156.908 80.4405 160.289 80.4888C156.941 80.5446 153.577 80.5818 150.195 80.6004H140.095H130.001C126.638 80.593 123.272 80.5558 119.901 80.4888Z" fill="#263238"/>
<path d="M108.681 83.6356L116.532 83.5631L124.388 83.5407L140.096 83.4961L155.804 83.5407L163.66 83.5631L171.517 83.6356L163.66 83.7026L155.804 83.7249L140.096 83.7751L124.388 83.7249L116.532 83.7026L108.681 83.6356Z" fill="#263238"/>
<path d="M154.046 122.348C157.461 122.296 160.874 122.261 164.285 122.242L174.525 122.209L184.764 122.242C188.179 122.242 191.592 122.278 195.003 122.348C191.596 122.401 188.182 122.436 184.764 122.455L174.525 122.488L164.285 122.438C160.87 122.438 157.457 122.408 154.046 122.348Z" fill="#263238"/>
<path d="M85.2051 122.348C88.62 122.296 92.0331 122.261 95.4444 122.242L105.684 122.209L115.923 122.242C119.338 122.242 122.753 122.278 126.168 122.348C122.742 122.408 119.317 122.438 115.895 122.438L105.656 122.471L95.4276 122.438C92.0127 122.438 88.6052 122.408 85.2051 122.348Z" fill="#263238"/>
<path d="M177.654 99.1532L168.263 99.2201L158.872 99.2424L140.095 99.2871L121.319 99.2424L111.928 99.2201L102.542 99.1532L111.928 99.0806L121.319 99.0583L140.095 99.0137L158.872 99.0583L168.263 99.0806L177.654 99.1532Z" fill="#263238"/>
<path d="M187.559 96.006L175.696 96.0785L163.827 96.1009L140.095 96.1455L116.364 96.1009L104.495 96.0785L92.6318 96.006L104.495 95.939L116.364 95.9167L140.095 95.8721L163.827 95.9167L175.696 95.939L187.559 96.006Z" fill="#263238"/>
<path d="M184.569 102.295L173.448 102.362L162.332 102.384L140.096 102.434L117.86 102.384L106.744 102.362L95.6233 102.295L106.744 102.222L117.86 102.2L140.096 102.155L162.332 102.2L173.448 102.228L184.569 102.295Z" fill="#263238"/>
<path d="M165.356 105.436L159.04 105.503L152.729 105.526L140.096 105.576L127.468 105.526L121.152 105.503L114.835 105.436L121.152 105.369L127.468 105.342L140.096 105.297L152.729 105.342L159.04 105.369L165.356 105.436Z" fill="#263238"/>
<path d="M161.394 120.262C162.079 119.785 162.786 119.339 163.515 118.922C164.234 118.485 165.004 118.139 165.808 117.89C165.911 117.864 166.016 117.844 166.121 117.829C166.184 117.812 166.251 117.814 166.314 117.835C166.376 117.856 166.431 117.894 166.472 117.946C166.582 118.145 166.632 118.372 166.617 118.599C166.608 119.02 166.565 119.44 166.489 119.854C166.344 120.68 166.137 121.495 165.931 122.298C165.479 123.913 164.92 125.496 164.257 127.036C164.094 127.425 163.896 127.798 163.666 128.152C163.599 128.247 163.522 128.335 163.437 128.414C163.379 128.472 163.301 128.505 163.219 128.509C163.165 128.508 163.112 128.491 163.068 128.459L162.996 128.38C162.873 128.179 162.811 127.947 162.817 127.711C162.836 126.862 162.985 126.021 163.258 125.217C163.503 124.411 163.819 123.629 164.201 122.879C164.564 122.114 165.061 121.42 165.669 120.831C165.994 120.54 166.394 120.347 166.824 120.273C167.045 120.238 167.27 120.257 167.482 120.329C167.683 120.429 167.844 120.594 167.94 120.797C168.037 120.977 168.153 121.145 168.286 121.299C168.346 121.372 168.426 121.426 168.516 121.455C168.606 121.485 168.702 121.489 168.794 121.467C169.178 121.329 169.534 121.121 169.843 120.853C170.01 120.73 170.172 120.596 170.345 120.479C170.434 120.417 170.527 120.361 170.624 120.312C170.675 120.278 170.735 120.261 170.797 120.261C170.858 120.261 170.918 120.278 170.97 120.312C171.132 120.518 171.093 120.736 171.171 120.92C171.194 121.011 171.252 121.09 171.332 121.141C171.411 121.192 171.507 121.211 171.6 121.193C171.947 120.976 172.258 120.704 172.521 120.39C172.8 120.089 173.079 119.771 173.352 119.458C173.91 118.828 174.435 118.186 174.993 117.566C175.272 117.254 175.551 116.947 175.858 116.651C176.009 116.504 176.169 116.366 176.338 116.238C176.427 116.173 176.522 116.117 176.622 116.071C176.68 116.043 176.743 116.028 176.806 116.026C176.844 116.027 176.882 116.037 176.915 116.055C176.948 116.074 176.976 116.1 176.996 116.132C177.093 116.339 177.124 116.571 177.085 116.796C177.064 117.006 177.03 117.215 176.985 117.421C176.894 117.832 176.782 118.238 176.65 118.638C176.398 119.444 176.063 120.222 175.651 120.959C175.542 121.15 175.409 121.326 175.255 121.484C175.209 121.534 175.151 121.573 175.088 121.598C175.024 121.623 174.955 121.634 174.887 121.629C174.771 121.617 174.657 121.585 174.552 121.534C174.345 121.436 174.162 121.294 174.016 121.118C173.871 120.941 173.766 120.735 173.71 120.513C173.678 120.381 173.696 120.242 173.76 120.122C173.797 120.055 173.854 120.001 173.922 119.966C173.987 119.931 174.06 119.915 174.134 119.921C174.356 119.939 174.574 119.99 174.781 120.072C175.183 120.211 175.568 120.384 175.953 120.552C176.338 120.719 176.717 120.887 177.097 121.043C177.292 121.115 177.482 121.193 177.655 121.249C177.744 121.276 177.835 121.297 177.928 121.311C178.007 121.315 178.087 121.298 178.157 121.26C178.475 121.104 178.681 120.702 178.999 120.407C179.163 120.222 179.39 120.104 179.636 120.077C179.682 120.072 179.729 120.077 179.773 120.091C179.817 120.106 179.858 120.13 179.892 120.161C179.924 120.195 179.949 120.236 179.965 120.28C179.98 120.324 179.986 120.371 179.981 120.418C179.972 120.533 179.951 120.647 179.92 120.758C179.859 120.942 179.836 121.182 179.892 121.193C179.948 121.205 180.194 121.193 180.366 121.166C180.75 121.047 181.108 120.858 181.421 120.608C181.589 120.49 181.761 120.362 181.951 120.25C182.156 120.114 182.404 120.054 182.649 120.083C183.067 120.245 183.436 120.512 183.72 120.859C183.853 121.004 184.003 121.133 184.166 121.244C184.239 121.294 184.312 121.305 184.328 121.288C184.412 121.247 184.492 121.198 184.568 121.143C184.896 120.898 185.209 120.633 185.506 120.351C186.115 119.796 186.659 119.173 187.124 118.493C187.355 118.176 187.494 117.801 187.526 117.41C187.526 117.036 187.141 116.852 186.739 116.802C185.929 116.665 185.101 116.677 184.295 116.835C183.891 116.91 183.495 117.022 183.112 117.17C182.915 117.245 182.728 117.342 182.554 117.46C182.403 117.572 182.264 117.734 182.308 117.885C182.391 118.05 182.532 118.18 182.705 118.247C182.886 118.333 183.073 118.409 183.263 118.476C183.653 118.61 184.049 118.733 184.451 118.828C186.09 119.137 187.755 119.295 189.423 119.302V119.33C187.75 119.368 186.078 119.246 184.429 118.967C184.017 118.876 183.611 118.762 183.212 118.627C183.017 118.554 182.816 118.493 182.621 118.398C182.402 118.312 182.225 118.144 182.13 117.929C182.113 117.808 182.133 117.686 182.187 117.576C182.241 117.467 182.326 117.376 182.431 117.315C182.602 117.185 182.79 117.078 182.989 116.997C183.38 116.832 183.788 116.71 184.206 116.635C185.039 116.457 185.897 116.432 186.739 116.562C186.961 116.593 187.175 116.667 187.369 116.78C187.475 116.844 187.564 116.934 187.627 117.041C187.691 117.148 187.727 117.269 187.732 117.393C187.715 117.842 187.565 118.275 187.302 118.638C186.835 119.345 186.282 119.991 185.656 120.563C185.352 120.858 185.028 121.132 184.685 121.383C184.593 121.452 184.494 121.512 184.39 121.562C184.318 121.586 184.242 121.594 184.167 121.583C184.093 121.572 184.022 121.544 183.96 121.5C183.78 121.375 183.614 121.231 183.463 121.071C183.214 120.772 182.899 120.535 182.543 120.379C182.236 120.334 181.879 120.619 181.549 120.853C181.205 121.124 180.814 121.329 180.394 121.456C180.275 121.501 180.148 121.521 180.021 121.516C179.893 121.512 179.768 121.482 179.652 121.428C179.595 121.376 179.552 121.31 179.527 121.237C179.503 121.164 179.498 121.085 179.513 121.009C179.525 120.896 179.548 120.784 179.58 120.675C179.605 120.585 179.622 120.494 179.63 120.401C179.63 120.368 179.63 120.351 179.63 120.368C179.63 120.384 179.63 120.368 179.591 120.368C179.419 120.393 179.261 120.478 179.144 120.608C178.86 120.87 178.665 121.277 178.224 121.512C178.109 121.572 177.979 121.598 177.85 121.584C177.736 121.572 177.624 121.548 177.515 121.512C177.309 121.45 177.113 121.372 176.918 121.294C176.527 121.132 176.148 120.959 175.763 120.792C175.378 120.624 175.004 120.451 174.619 120.317C174.441 120.244 174.253 120.195 174.061 120.172C173.927 120.172 173.849 120.284 173.888 120.462C173.935 120.646 174.021 120.818 174.141 120.965C174.26 121.112 174.41 121.232 174.58 121.316C174.663 121.356 174.751 121.382 174.842 121.394C174.898 121.394 174.959 121.394 175.032 121.305C175.171 121.165 175.291 121.008 175.389 120.836C175.801 120.128 176.139 119.381 176.399 118.604C176.534 118.213 176.647 117.814 176.739 117.41C176.788 117.21 176.824 117.007 176.846 116.802C176.884 116.615 176.868 116.422 176.801 116.244C176.739 116.138 176.505 116.244 176.354 116.383C176.191 116.506 176.034 116.638 175.886 116.78C175.584 117.064 175.3 117.371 175.021 117.678C174.463 118.292 173.905 118.928 173.347 119.553C173.068 119.865 172.789 120.178 172.504 120.485C172.231 120.811 171.902 121.087 171.533 121.299C171.417 121.329 171.293 121.311 171.189 121.251C171.085 121.19 171.008 121.092 170.975 120.976C170.897 120.775 170.903 120.529 170.791 120.418C170.68 120.306 170.641 120.418 170.551 120.451C170.461 120.498 170.375 120.552 170.295 120.613C170.127 120.73 169.965 120.864 169.798 120.993C169.479 121.275 169.11 121.494 168.71 121.64C168.598 121.667 168.48 121.663 168.37 121.629C168.26 121.594 168.162 121.531 168.085 121.445C167.943 121.285 167.818 121.111 167.711 120.926C167.599 120.753 167.488 120.568 167.32 120.513C167.14 120.459 166.949 120.446 166.762 120.474C166.366 120.547 165.997 120.728 165.697 120.998C165.113 121.581 164.637 122.263 164.291 123.013C163.921 123.755 163.617 124.528 163.381 125.323C163.127 126.105 162.992 126.922 162.979 127.744C162.973 127.928 163.017 128.109 163.108 128.269L163.141 128.308C163.163 128.3 163.182 128.286 163.197 128.269C163.265 128.206 163.325 128.134 163.375 128.057C163.584 127.708 163.771 127.347 163.933 126.974C164.594 125.451 165.154 123.885 165.607 122.287C165.847 121.49 166.046 120.682 166.204 119.865C166.289 119.462 166.336 119.05 166.344 118.638C166.361 118.446 166.324 118.252 166.238 118.08C166.188 118.013 166.137 117.996 166.026 118.018C165.926 118.029 165.827 118.048 165.73 118.074C164.934 118.308 164.168 118.634 163.448 119.045C162.717 119.441 161.997 119.871 161.3 120.323L161.394 120.262Z" fill="#263238"/>
<path d="M115.812 120.262C115.127 119.785 114.42 119.339 113.691 118.922C112.972 118.485 112.202 118.139 111.398 117.89C111.293 117.864 111.187 117.843 111.08 117.829C111.017 117.813 110.951 117.815 110.889 117.836C110.828 117.857 110.774 117.895 110.734 117.946C110.624 118.145 110.574 118.372 110.589 118.599C110.595 119.02 110.638 119.44 110.717 119.854C110.862 120.68 111.069 121.495 111.275 122.298C111.727 123.913 112.286 125.496 112.949 127.036C113.112 127.425 113.31 127.798 113.54 128.152C113.606 128.248 113.682 128.336 113.769 128.414C113.827 128.472 113.905 128.505 113.987 128.509C114.041 128.508 114.094 128.49 114.138 128.459L114.21 128.38C114.33 128.178 114.392 127.946 114.389 127.711C114.367 126.862 114.219 126.021 113.948 125.217C113.7 124.412 113.385 123.63 113.005 122.879C112.64 122.113 112.141 121.42 111.532 120.831C111.208 120.538 110.807 120.344 110.377 120.273C110.158 120.238 109.934 120.258 109.724 120.329C109.523 120.429 109.362 120.594 109.266 120.797C109.169 120.977 109.053 121.145 108.92 121.299C108.859 121.371 108.779 121.425 108.69 121.454C108.6 121.484 108.504 121.488 108.412 121.467C108.027 121.33 107.671 121.122 107.363 120.853C107.196 120.73 107.029 120.596 106.856 120.479C106.769 120.416 106.678 120.36 106.582 120.312C106.531 120.278 106.471 120.261 106.409 120.261C106.348 120.261 106.288 120.278 106.236 120.312C106.074 120.518 106.113 120.736 106.035 120.92C106.012 121.011 105.954 121.09 105.874 121.141C105.795 121.192 105.699 121.211 105.606 121.193C105.256 120.979 104.945 120.707 104.685 120.39C104.4 120.089 104.127 119.771 103.854 119.458C103.296 118.828 102.771 118.186 102.213 117.566C101.934 117.254 101.655 116.947 101.348 116.651C101.197 116.504 101.037 116.366 100.868 116.238C100.78 116.173 100.684 116.117 100.584 116.071C100.526 116.044 100.463 116.029 100.4 116.026C100.361 116.028 100.323 116.038 100.29 116.057C100.256 116.075 100.227 116.101 100.204 116.132C100.109 116.34 100.08 116.572 100.121 116.796C100.142 117.006 100.176 117.215 100.221 117.421C100.312 117.832 100.424 118.238 100.556 118.638C100.808 119.444 101.143 120.222 101.555 120.959C101.664 121.15 101.797 121.326 101.951 121.484C101.997 121.534 102.055 121.573 102.118 121.598C102.182 121.623 102.251 121.634 102.319 121.629C102.435 121.617 102.549 121.585 102.654 121.534C102.861 121.436 103.044 121.294 103.19 121.118C103.335 120.941 103.44 120.735 103.496 120.513C103.523 120.381 103.505 120.243 103.446 120.122C103.407 120.057 103.351 120.003 103.284 119.966C103.218 119.931 103.142 119.915 103.067 119.921C102.845 119.94 102.627 119.991 102.42 120.072C102.018 120.211 101.638 120.384 101.253 120.552C100.868 120.719 100.489 120.887 100.104 121.043C99.9141 121.115 99.7244 121.193 99.5458 121.249C99.4546 121.277 99.3613 121.298 99.2668 121.311C99.1874 121.315 99.1084 121.297 99.038 121.26C98.7256 121.104 98.5135 120.702 98.201 120.407C98.0363 120.223 97.8101 120.106 97.5649 120.077C97.5186 120.072 97.4717 120.077 97.4274 120.091C97.3831 120.106 97.3425 120.13 97.3083 120.161C97.276 120.195 97.2513 120.236 97.2359 120.28C97.2205 120.324 97.2147 120.371 97.219 120.418C97.2288 120.533 97.2494 120.647 97.2804 120.758C97.3362 120.942 97.3641 121.182 97.3083 121.193C97.2525 121.205 97.0069 121.193 96.8339 121.166C96.4505 121.047 96.0927 120.858 95.7793 120.608C95.6119 120.49 95.4389 120.362 95.2213 120.25C95.0184 120.113 94.7727 120.054 94.5294 120.083C94.1114 120.245 93.7423 120.512 93.458 120.859C93.3248 121.004 93.175 121.133 93.0117 121.244C92.9391 121.294 92.8666 121.305 92.8498 121.288C92.766 121.247 92.6858 121.198 92.6099 121.143C92.2791 120.899 91.9641 120.635 91.6669 120.351C91.0605 119.795 90.5195 119.171 90.0543 118.493C89.8281 118.177 89.6948 117.804 89.6692 117.416C89.6692 117.042 90.0542 116.858 90.4504 116.808C91.2623 116.671 92.0922 116.682 92.9 116.841C93.3039 116.916 93.6999 117.028 94.083 117.176C94.2785 117.253 94.4655 117.35 94.641 117.466C94.7917 117.578 94.9312 117.739 94.8865 117.89C94.803 118.057 94.6596 118.187 94.4848 118.253C94.3029 118.339 94.1166 118.415 93.9268 118.482C93.5349 118.619 93.1364 118.736 92.7327 118.833C91.0952 119.143 89.4329 119.301 87.7664 119.307V119.335C89.4482 119.375 91.1299 119.254 92.7884 118.973C93.1998 118.881 93.6059 118.768 94.0049 118.632C94.2002 118.56 94.4011 118.498 94.5964 118.403C94.8154 118.318 94.9918 118.15 95.0874 117.935C95.1037 117.814 95.0838 117.691 95.0301 117.582C94.9765 117.473 94.8915 117.382 94.7861 117.321C94.6145 117.191 94.427 117.084 94.2281 117.003C93.8369 116.838 93.4291 116.717 93.0117 116.64C92.1786 116.463 91.3202 116.438 90.4783 116.568C90.2545 116.599 90.0387 116.673 89.8422 116.785C89.7368 116.851 89.6487 116.941 89.5855 117.048C89.5224 117.155 89.486 117.275 89.4795 117.399C89.5021 117.846 89.6511 118.278 89.9092 118.643C90.3836 119.353 90.9461 120 91.5832 120.568C91.8875 120.864 92.2119 121.138 92.5541 121.389C92.6455 121.456 92.7426 121.516 92.8443 121.567C92.9155 121.592 92.9918 121.6 93.0666 121.589C93.1414 121.579 93.2126 121.55 93.2739 121.506C93.4567 121.382 93.6252 121.238 93.7761 121.076C94.0254 120.778 94.3405 120.541 94.6968 120.384C95.0037 120.34 95.3608 120.624 95.69 120.859C96.0341 121.13 96.4259 121.334 96.8451 121.461C96.9635 121.506 97.0897 121.527 97.2162 121.522C97.3427 121.517 97.467 121.487 97.5817 121.433C97.6406 121.383 97.6851 121.317 97.7106 121.244C97.7361 121.17 97.7416 121.091 97.7268 121.015C97.7141 120.902 97.6917 120.79 97.6598 120.68C97.6342 120.591 97.6174 120.499 97.6096 120.407C97.6096 120.373 97.6096 120.356 97.6096 120.373C97.6096 120.39 97.6096 120.373 97.6486 120.373C97.821 120.398 97.979 120.483 98.095 120.613C98.3796 120.875 98.5693 121.283 99.0102 121.517C99.127 121.577 99.2588 121.603 99.3896 121.59C99.5035 121.578 99.6158 121.554 99.7244 121.517C99.9309 121.456 100.126 121.378 100.321 121.299C100.712 121.138 101.091 120.965 101.477 120.797C101.862 120.63 102.235 120.457 102.62 120.323C102.799 120.249 102.987 120.2 103.178 120.178C103.312 120.178 103.39 120.289 103.351 120.468C103.304 120.652 103.218 120.823 103.099 120.971C102.979 121.118 102.829 121.238 102.659 121.322C102.577 121.361 102.488 121.388 102.397 121.4C102.341 121.4 102.28 121.4 102.207 121.311C102.068 121.171 101.948 121.013 101.85 120.842C101.439 120.134 101.101 119.386 100.84 118.61C100.706 118.214 100.589 117.818 100.494 117.416C100.447 117.216 100.414 117.012 100.394 116.808C100.356 116.621 100.371 116.428 100.439 116.25C100.5 116.144 100.734 116.25 100.885 116.389C101.049 116.512 101.205 116.644 101.354 116.785C101.655 117.07 101.912 117.377 102.219 117.684C102.777 118.297 103.335 118.934 103.893 119.559C104.172 119.871 104.451 120.183 104.735 120.49C105.008 120.815 105.334 121.091 105.701 121.305C105.817 121.333 105.94 121.315 106.044 121.254C106.148 121.194 106.225 121.097 106.259 120.981C106.337 120.781 106.331 120.535 106.437 120.423C106.543 120.312 106.593 120.423 106.677 120.457C106.769 120.503 106.857 120.558 106.939 120.619C107.107 120.736 107.269 120.87 107.436 120.998C107.755 121.28 108.124 121.5 108.524 121.645C108.636 121.673 108.754 121.669 108.864 121.634C108.974 121.6 109.072 121.536 109.149 121.45C109.291 121.29 109.416 121.116 109.523 120.931C109.634 120.758 109.746 120.574 109.913 120.518C110.094 120.465 110.285 120.451 110.471 120.479C110.868 120.552 111.237 120.734 111.537 121.004C112.121 121.587 112.597 122.269 112.943 123.018C113.311 123.761 113.613 124.534 113.847 125.328C114.105 126.11 114.243 126.927 114.255 127.75C114.258 127.933 114.214 128.114 114.126 128.274L114.087 128.314C114.066 128.305 114.047 128.292 114.032 128.274C113.964 128.211 113.904 128.14 113.853 128.062C113.642 127.715 113.455 127.353 113.295 126.98C112.634 125.456 112.075 123.89 111.621 122.293C111.392 121.489 111.18 120.686 111.024 119.871C110.944 119.466 110.898 119.056 110.884 118.643C110.873 118.451 110.911 118.259 110.996 118.085C111.046 118.018 111.096 118.002 111.208 118.024C111.308 118.035 111.407 118.054 111.504 118.08C112.299 118.314 113.065 118.64 113.786 119.051C114.517 119.447 115.237 119.877 115.934 120.329L115.812 120.262Z" fill="#263238"/>
<path d="M140.369 111.401C140.404 111.489 140.463 111.566 140.538 111.624C140.614 111.681 140.704 111.716 140.798 111.726C140.892 111.736 140.987 111.72 141.073 111.679C141.159 111.639 141.232 111.575 141.284 111.496C141.342 111.41 141.424 111.343 141.52 111.304C141.617 111.265 141.722 111.255 141.824 111.277C141.925 111.299 142.018 111.35 142.09 111.425C142.162 111.5 142.21 111.595 142.227 111.697C142.244 111.79 142.285 111.876 142.346 111.947C142.408 112.018 142.488 112.071 142.577 112.101C142.667 112.13 142.762 112.134 142.854 112.113C142.946 112.092 143.03 112.047 143.098 111.982C143.171 111.908 143.265 111.858 143.367 111.839C143.47 111.82 143.575 111.833 143.67 111.875C143.765 111.918 143.845 111.988 143.899 112.077C143.954 112.165 143.979 112.268 143.974 112.372C143.97 112.467 143.992 112.561 144.038 112.644C144.084 112.727 144.152 112.796 144.234 112.843C144.316 112.89 144.41 112.914 144.505 112.911C144.6 112.909 144.692 112.881 144.772 112.83C144.858 112.774 144.96 112.745 145.063 112.748C145.166 112.751 145.266 112.784 145.35 112.845C145.433 112.905 145.497 112.989 145.532 113.086C145.567 113.183 145.573 113.288 145.547 113.388C145.524 113.48 145.526 113.577 145.554 113.667C145.581 113.758 145.633 113.84 145.704 113.903C145.775 113.966 145.862 114.009 145.955 114.026C146.049 114.044 146.145 114.035 146.234 114.002C146.331 113.966 146.437 113.961 146.538 113.986C146.639 114.011 146.73 114.066 146.799 114.144C146.868 114.221 146.912 114.318 146.926 114.421C146.939 114.524 146.922 114.629 146.875 114.721C146.832 114.808 146.814 114.904 146.823 115C146.832 115.096 146.867 115.188 146.925 115.265C146.983 115.342 147.061 115.401 147.151 115.437C147.241 115.472 147.339 115.481 147.433 115.464C147.535 115.45 147.639 115.467 147.731 115.512C147.824 115.558 147.901 115.629 147.952 115.718C148.003 115.808 148.027 115.91 148.02 116.013C148.013 116.115 147.976 116.214 147.913 116.295C147.855 116.369 147.819 116.458 147.807 116.551C147.796 116.645 147.81 116.74 147.849 116.826C147.887 116.912 147.948 116.986 148.025 117.04C148.103 117.094 148.193 117.126 148.287 117.132C148.39 117.14 148.489 117.178 148.57 117.241C148.651 117.305 148.711 117.392 148.743 117.49C148.775 117.588 148.777 117.694 148.748 117.793C148.72 117.892 148.662 117.981 148.583 118.047C148.51 118.107 148.455 118.187 148.424 118.276C148.393 118.365 148.387 118.461 148.407 118.554C148.426 118.646 148.471 118.731 148.535 118.8C148.6 118.869 148.682 118.92 148.773 118.945C148.873 118.973 148.962 119.031 149.029 119.11C149.096 119.19 149.138 119.288 149.149 119.391C149.16 119.495 149.139 119.599 149.09 119.691C149.041 119.782 148.965 119.857 148.873 119.905C148.79 119.95 148.721 120.016 148.673 120.096C148.624 120.177 148.599 120.269 148.599 120.363C148.599 120.457 148.624 120.549 148.673 120.629C148.721 120.71 148.79 120.776 148.873 120.82C148.965 120.869 149.041 120.943 149.09 121.035C149.139 121.127 149.16 121.231 149.149 121.334C149.138 121.438 149.096 121.536 149.029 121.615C148.962 121.695 148.873 121.752 148.773 121.78C148.682 121.805 148.599 121.854 148.535 121.923C148.47 121.991 148.425 122.076 148.406 122.169C148.386 122.261 148.392 122.357 148.423 122.446C148.455 122.535 148.51 122.613 148.583 122.673C148.661 122.74 148.718 122.829 148.746 122.928C148.774 123.028 148.772 123.133 148.741 123.232C148.709 123.33 148.649 123.417 148.569 123.481C148.488 123.545 148.39 123.585 148.287 123.594C148.193 123.6 148.103 123.632 148.025 123.686C147.948 123.74 147.887 123.814 147.849 123.9C147.81 123.986 147.796 124.081 147.807 124.174C147.819 124.268 147.855 124.356 147.913 124.431C147.976 124.512 148.013 124.61 148.02 124.713C148.027 124.816 148.003 124.918 147.952 125.007C147.901 125.096 147.824 125.168 147.731 125.213C147.639 125.259 147.535 125.276 147.433 125.262C147.339 125.245 147.241 125.254 147.151 125.289C147.061 125.324 146.983 125.384 146.925 125.461C146.867 125.538 146.832 125.629 146.823 125.725C146.814 125.821 146.832 125.918 146.875 126.004C146.92 126.097 146.936 126.201 146.922 126.303C146.907 126.405 146.863 126.5 146.794 126.576C146.725 126.653 146.635 126.707 146.535 126.733C146.436 126.758 146.331 126.753 146.234 126.718C146.145 126.687 146.049 126.68 145.957 126.698C145.864 126.716 145.779 126.759 145.708 126.822C145.638 126.884 145.586 126.965 145.558 127.055C145.53 127.145 145.526 127.241 145.547 127.332C145.57 127.432 145.563 127.535 145.526 127.631C145.49 127.726 145.427 127.808 145.344 127.868C145.262 127.927 145.163 127.961 145.061 127.965C144.96 127.969 144.859 127.943 144.772 127.89C144.692 127.839 144.6 127.811 144.505 127.809C144.41 127.806 144.316 127.83 144.234 127.877C144.152 127.924 144.084 127.993 144.038 128.076C143.992 128.159 143.97 128.253 143.974 128.348C143.979 128.452 143.954 128.555 143.899 128.643C143.845 128.732 143.765 128.802 143.67 128.845C143.575 128.887 143.47 128.9 143.367 128.881C143.265 128.862 143.171 128.812 143.098 128.738C143.03 128.673 142.946 128.628 142.854 128.607C142.762 128.586 142.667 128.59 142.577 128.619C142.488 128.649 142.408 128.702 142.346 128.773C142.285 128.844 142.244 128.93 142.227 129.023C142.21 129.125 142.162 129.22 142.09 129.295C142.018 129.37 141.925 129.421 141.824 129.443C141.722 129.465 141.617 129.455 141.52 129.416C141.424 129.377 141.342 129.31 141.284 129.224C141.232 129.145 141.159 129.082 141.073 129.041C140.987 129 140.892 128.984 140.798 128.994C140.704 129.004 140.614 129.039 140.538 129.096C140.463 129.154 140.404 129.231 140.369 129.319C140.332 129.416 140.266 129.5 140.181 129.559C140.095 129.618 139.993 129.65 139.889 129.65C139.785 129.65 139.683 129.618 139.598 129.559C139.512 129.5 139.446 129.416 139.409 129.319C139.374 129.231 139.316 129.154 139.24 129.096C139.165 129.039 139.075 129.004 138.981 128.994C138.886 128.984 138.791 129 138.705 129.041C138.62 129.082 138.547 129.145 138.494 129.224C138.437 129.31 138.354 129.377 138.258 129.416C138.162 129.455 138.056 129.465 137.955 129.443C137.853 129.421 137.76 129.37 137.688 129.295C137.617 129.22 137.569 129.125 137.551 129.023C137.535 128.93 137.494 128.844 137.432 128.773C137.371 128.702 137.291 128.649 137.201 128.619C137.112 128.59 137.016 128.586 136.925 128.607C136.833 128.628 136.749 128.673 136.681 128.738C136.607 128.812 136.513 128.862 136.411 128.881C136.309 128.9 136.203 128.887 136.108 128.845C136.013 128.802 135.933 128.732 135.879 128.643C135.825 128.555 135.799 128.452 135.805 128.348C135.808 128.253 135.786 128.159 135.74 128.076C135.694 127.993 135.627 127.924 135.544 127.877C135.462 127.83 135.368 127.806 135.274 127.809C135.179 127.811 135.087 127.839 135.007 127.89C134.92 127.943 134.819 127.969 134.717 127.965C134.615 127.961 134.517 127.927 134.434 127.868C134.351 127.808 134.288 127.726 134.252 127.631C134.216 127.535 134.209 127.432 134.231 127.332C134.253 127.241 134.249 127.145 134.221 127.055C134.192 126.965 134.14 126.884 134.07 126.822C134 126.759 133.914 126.716 133.822 126.698C133.729 126.68 133.634 126.687 133.545 126.718C133.448 126.753 133.343 126.758 133.243 126.733C133.143 126.707 133.053 126.653 132.984 126.576C132.916 126.5 132.871 126.405 132.857 126.303C132.842 126.201 132.858 126.097 132.903 126.004C132.946 125.918 132.964 125.821 132.956 125.725C132.947 125.629 132.911 125.538 132.854 125.461C132.796 125.384 132.717 125.324 132.628 125.289C132.538 125.254 132.44 125.245 132.345 125.262C132.243 125.276 132.139 125.259 132.047 125.213C131.955 125.168 131.878 125.096 131.827 125.007C131.775 124.918 131.751 124.816 131.758 124.713C131.765 124.61 131.802 124.512 131.865 124.431C131.923 124.356 131.96 124.268 131.971 124.174C131.983 124.081 131.968 123.986 131.93 123.9C131.891 123.814 131.83 123.74 131.753 123.686C131.676 123.632 131.585 123.6 131.491 123.594C131.388 123.585 131.291 123.545 131.21 123.481C131.129 123.417 131.069 123.33 131.038 123.232C131.006 123.133 131.004 123.028 131.032 122.928C131.06 122.829 131.117 122.74 131.196 122.673C131.269 122.613 131.324 122.535 131.355 122.446C131.386 122.357 131.393 122.261 131.373 122.169C131.353 122.076 131.309 121.991 131.244 121.923C131.179 121.854 131.097 121.805 131.006 121.78C130.906 121.752 130.816 121.695 130.749 121.615C130.682 121.536 130.64 121.438 130.63 121.334C130.619 121.231 130.639 121.127 130.688 121.035C130.738 120.943 130.813 120.869 130.905 120.82C130.988 120.776 131.058 120.71 131.106 120.629C131.154 120.549 131.18 120.457 131.18 120.363C131.18 120.269 131.154 120.177 131.106 120.096C131.058 120.016 130.988 119.95 130.905 119.905C130.813 119.857 130.738 119.782 130.688 119.691C130.639 119.599 130.619 119.495 130.63 119.391C130.64 119.288 130.682 119.19 130.749 119.11C130.816 119.031 130.906 118.973 131.006 118.945C131.097 118.92 131.179 118.869 131.243 118.8C131.308 118.731 131.352 118.646 131.372 118.554C131.391 118.461 131.385 118.365 131.354 118.276C131.323 118.187 131.268 118.107 131.196 118.047C131.116 117.981 131.059 117.892 131.03 117.793C131.002 117.694 131.004 117.588 131.035 117.49C131.067 117.392 131.127 117.305 131.209 117.241C131.29 117.178 131.388 117.14 131.491 117.132C131.585 117.126 131.676 117.094 131.753 117.04C131.83 116.986 131.891 116.912 131.93 116.826C131.968 116.74 131.983 116.645 131.971 116.551C131.96 116.458 131.923 116.369 131.865 116.295C131.802 116.214 131.765 116.115 131.758 116.013C131.751 115.91 131.775 115.808 131.827 115.718C131.878 115.629 131.955 115.558 132.047 115.512C132.139 115.467 132.243 115.45 132.345 115.464C132.44 115.481 132.538 115.472 132.628 115.437C132.717 115.401 132.796 115.342 132.854 115.265C132.911 115.188 132.947 115.096 132.956 115C132.964 114.904 132.946 114.808 132.903 114.721C132.857 114.629 132.839 114.524 132.853 114.421C132.866 114.318 132.911 114.221 132.98 114.144C133.049 114.066 133.14 114.011 133.24 113.986C133.341 113.961 133.447 113.966 133.545 114.002C133.634 114.035 133.73 114.044 133.823 114.026C133.917 114.009 134.003 113.966 134.074 113.903C134.145 113.84 134.197 113.758 134.225 113.667C134.252 113.577 134.255 113.48 134.231 113.388C134.206 113.288 134.211 113.183 134.246 113.086C134.282 112.989 134.345 112.905 134.429 112.845C134.513 112.784 134.612 112.751 134.716 112.748C134.819 112.745 134.92 112.774 135.007 112.83C135.087 112.881 135.179 112.909 135.274 112.911C135.368 112.914 135.462 112.89 135.544 112.843C135.627 112.796 135.694 112.727 135.74 112.644C135.786 112.561 135.808 112.467 135.805 112.372C135.799 112.268 135.825 112.165 135.879 112.077C135.933 111.988 136.013 111.918 136.108 111.875C136.203 111.833 136.309 111.82 136.411 111.839C136.513 111.858 136.607 111.908 136.681 111.982C136.749 112.047 136.833 112.092 136.925 112.113C137.016 112.134 137.112 112.13 137.201 112.101C137.291 112.071 137.371 112.018 137.432 111.947C137.494 111.876 137.535 111.79 137.551 111.697C137.569 111.595 137.617 111.5 137.688 111.425C137.76 111.35 137.853 111.299 137.955 111.277C138.056 111.255 138.162 111.265 138.258 111.304C138.354 111.343 138.437 111.41 138.494 111.496C138.547 111.575 138.62 111.639 138.705 111.679C138.791 111.72 138.886 111.736 138.981 111.726C139.075 111.716 139.165 111.681 139.24 111.624C139.316 111.566 139.374 111.489 139.409 111.401C139.446 111.304 139.512 111.22 139.598 111.161C139.683 111.102 139.785 111.07 139.889 111.07C139.993 111.07 140.095 111.102 140.181 111.161C140.266 111.22 140.332 111.304 140.369 111.401Z" fill="#FFC727"/>
<path d="M143.179 127.711C147.227 125.892 149.035 121.136 147.216 117.088C145.398 113.04 140.642 111.233 136.594 113.051C132.546 114.87 130.739 119.625 132.557 123.673C134.376 127.721 139.131 129.529 143.179 127.711Z" fill="white"/>
<path d="M139.889 127.884C138.401 127.884 136.947 127.443 135.71 126.616C134.473 125.79 133.509 124.615 132.939 123.24C132.37 121.865 132.222 120.352 132.512 118.893C132.803 117.434 133.52 116.094 134.572 115.042C135.625 113.99 136.966 113.274 138.425 112.985C139.885 112.695 141.397 112.845 142.772 113.415C144.146 113.985 145.32 114.95 146.146 116.188C146.972 117.426 147.412 118.88 147.411 120.368C147.408 122.362 146.614 124.273 145.204 125.682C143.794 127.091 141.883 127.883 139.889 127.884ZM139.889 113.125C138.455 113.125 137.052 113.551 135.859 114.348C134.666 115.145 133.736 116.278 133.187 117.603C132.638 118.929 132.495 120.387 132.775 121.795C133.054 123.202 133.745 124.494 134.76 125.509C135.774 126.523 137.067 127.214 138.474 127.494C139.881 127.774 141.34 127.63 142.665 127.081C143.991 126.532 145.124 125.602 145.921 124.41C146.718 123.217 147.143 121.814 147.143 120.379C147.143 118.456 146.379 116.61 145.019 115.25C143.658 113.89 141.813 113.125 139.889 113.125Z" fill="#FFC727"/>
<path d="M152.087 118.058H127.691V122.678H152.087V118.058Z" fill="white"/>
<path d="M130.9 120.412C130.906 120.06 131.051 119.723 131.302 119.476C131.554 119.228 131.892 119.09 132.245 119.09C132.552 119.088 132.85 119.188 133.093 119.374C133.134 119.411 133.16 119.461 133.167 119.516C133.173 119.57 133.159 119.625 133.127 119.67C133.093 119.713 133.044 119.741 132.99 119.748C132.936 119.755 132.881 119.741 132.837 119.709C132.67 119.574 132.46 119.503 132.245 119.508C132 119.509 131.765 119.603 131.587 119.771C131.502 119.854 131.435 119.953 131.389 120.062C131.343 120.171 131.319 120.288 131.319 120.407C131.318 120.525 131.341 120.643 131.388 120.752C131.434 120.862 131.501 120.96 131.587 121.043C131.764 121.212 132 121.308 132.245 121.311C132.46 121.313 132.67 121.24 132.837 121.104C132.882 121.074 132.937 121.062 132.99 121.07C133.044 121.079 133.093 121.107 133.127 121.149C133.158 121.193 133.172 121.247 133.166 121.3C133.16 121.354 133.134 121.403 133.093 121.439C132.85 121.625 132.552 121.725 132.245 121.724C131.894 121.725 131.556 121.589 131.304 121.343C131.053 121.098 130.908 120.764 130.9 120.412Z" fill="#FFC727"/>
<path d="M133.841 121.528V119.369C133.841 119.342 133.846 119.316 133.856 119.292C133.866 119.268 133.881 119.245 133.899 119.227C133.918 119.208 133.94 119.193 133.965 119.183C133.989 119.173 134.015 119.168 134.041 119.168H135.241C135.289 119.176 135.333 119.201 135.365 119.238C135.396 119.275 135.414 119.323 135.414 119.372C135.414 119.421 135.396 119.468 135.365 119.505C135.333 119.542 135.289 119.567 135.241 119.575H134.248V120.245H135.102C135.15 120.253 135.194 120.278 135.225 120.315C135.257 120.352 135.274 120.4 135.274 120.449C135.274 120.497 135.257 120.545 135.225 120.582C135.194 120.619 135.15 120.644 135.102 120.652H134.248V121.322H135.241C135.294 121.322 135.346 121.343 135.383 121.381C135.421 121.418 135.442 121.469 135.442 121.523C135.442 121.576 135.421 121.627 135.383 121.665C135.346 121.702 135.294 121.724 135.241 121.724H134.041C133.989 121.724 133.939 121.703 133.901 121.667C133.864 121.63 133.842 121.581 133.841 121.528Z" fill="#FFC727"/>
<path d="M137.78 121.428C137.789 121.453 137.792 121.48 137.791 121.507C137.789 121.533 137.782 121.559 137.77 121.583C137.758 121.607 137.741 121.628 137.721 121.646C137.701 121.663 137.677 121.676 137.652 121.685H137.574C137.524 121.686 137.476 121.672 137.434 121.645C137.385 121.613 137.345 121.569 137.317 121.517C137.258 121.378 137.231 121.227 137.239 121.076C137.239 121.021 137.224 120.967 137.194 120.92C137.167 120.875 137.129 120.839 137.083 120.814C137.023 120.77 136.954 120.74 136.882 120.725H136.446V121.517C136.438 121.565 136.414 121.609 136.376 121.641C136.339 121.672 136.292 121.69 136.243 121.69C136.194 121.69 136.147 121.672 136.109 121.641C136.072 121.609 136.047 121.565 136.039 121.517V119.369C136.039 119.316 136.06 119.264 136.098 119.227C136.136 119.189 136.187 119.168 136.24 119.168H136.898C137.001 119.168 137.103 119.188 137.199 119.228C137.294 119.268 137.38 119.326 137.453 119.399C137.525 119.472 137.583 119.559 137.622 119.654C137.661 119.75 137.68 119.852 137.68 119.955C137.68 120.07 137.655 120.184 137.606 120.288C137.557 120.393 137.485 120.485 137.395 120.557C137.447 120.592 137.491 120.638 137.523 120.691C137.603 120.808 137.646 120.946 137.646 121.087C137.638 121.16 137.638 121.233 137.646 121.305C137.677 121.313 137.705 121.328 137.729 121.349C137.752 121.371 137.77 121.398 137.78 121.428ZM137.272 119.955C137.272 119.905 137.262 119.856 137.243 119.81C137.224 119.764 137.196 119.722 137.161 119.686C137.126 119.651 137.084 119.623 137.038 119.604C136.992 119.585 136.943 119.575 136.893 119.575H136.441V120.329H136.893C136.992 120.329 137.088 120.289 137.159 120.219C137.23 120.149 137.271 120.054 137.272 119.955Z" fill="#FFC727"/>
<path d="M139.889 119.575H139.303V121.528C139.304 121.555 139.299 121.581 139.29 121.606C139.28 121.631 139.265 121.653 139.246 121.672C139.227 121.691 139.205 121.706 139.18 121.716C139.155 121.725 139.129 121.73 139.102 121.729C139.076 121.729 139.05 121.724 139.026 121.714C139.001 121.704 138.979 121.689 138.96 121.67C138.942 121.652 138.927 121.63 138.917 121.605C138.907 121.581 138.902 121.555 138.902 121.528V119.575H138.344C138.317 119.575 138.29 119.57 138.265 119.56C138.241 119.549 138.218 119.534 138.199 119.515C138.181 119.495 138.166 119.473 138.156 119.448C138.147 119.422 138.142 119.396 138.143 119.369C138.142 119.342 138.147 119.316 138.156 119.291C138.166 119.266 138.181 119.244 138.2 119.225C138.219 119.206 138.241 119.192 138.266 119.182C138.29 119.172 138.317 119.167 138.344 119.168H139.889C139.942 119.168 139.994 119.189 140.031 119.227C140.069 119.265 140.09 119.316 140.09 119.369C140.09 119.423 140.069 119.474 140.032 119.513C139.994 119.552 139.943 119.574 139.889 119.575Z" fill="#FFC727"/>
<path d="M140.704 119.369C140.704 119.316 140.725 119.264 140.763 119.227C140.8 119.189 140.852 119.168 140.905 119.168C140.959 119.168 141.01 119.189 141.049 119.226C141.087 119.264 141.11 119.315 141.111 119.369V121.528C141.111 121.555 141.106 121.582 141.095 121.606C141.085 121.631 141.07 121.654 141.05 121.672C141.031 121.691 141.008 121.706 140.983 121.716C140.958 121.725 140.932 121.73 140.905 121.729C140.878 121.73 140.852 121.725 140.827 121.715C140.802 121.706 140.78 121.691 140.761 121.672C140.742 121.653 140.727 121.631 140.718 121.606C140.708 121.581 140.703 121.555 140.704 121.528V119.369Z" fill="#FFC727"/>
<path d="M141.798 121.528V119.369C141.798 119.342 141.803 119.316 141.813 119.292C141.823 119.268 141.838 119.245 141.856 119.227C141.875 119.208 141.897 119.193 141.922 119.183C141.946 119.173 141.972 119.168 141.998 119.168H143.198C143.251 119.169 143.301 119.191 143.339 119.228C143.376 119.266 143.398 119.316 143.399 119.369C143.399 119.423 143.378 119.474 143.341 119.513C143.303 119.551 143.252 119.574 143.198 119.575H142.205V120.245H143.059C143.107 120.253 143.151 120.278 143.182 120.315C143.214 120.352 143.231 120.4 143.231 120.449C143.231 120.497 143.214 120.545 143.182 120.582C143.151 120.619 143.107 120.644 143.059 120.652H142.205V121.528C142.203 121.582 142.181 121.633 142.143 121.671C142.104 121.708 142.052 121.729 141.998 121.729C141.972 121.729 141.946 121.724 141.922 121.714C141.897 121.704 141.875 121.689 141.856 121.67C141.838 121.652 141.823 121.63 141.813 121.605C141.803 121.581 141.798 121.555 141.798 121.528Z" fill="#FFC727"/>
<path d="M144.041 119.369C144.041 119.316 144.062 119.264 144.1 119.227C144.138 119.189 144.189 119.168 144.242 119.168C144.296 119.168 144.347 119.189 144.386 119.226C144.425 119.264 144.447 119.315 144.448 119.369V121.528C144.448 121.555 144.443 121.582 144.433 121.606C144.422 121.631 144.407 121.654 144.388 121.672C144.368 121.691 144.346 121.706 144.321 121.716C144.296 121.725 144.269 121.73 144.242 121.729C144.215 121.73 144.189 121.725 144.164 121.715C144.139 121.706 144.117 121.691 144.098 121.672C144.079 121.653 144.065 121.631 144.055 121.606C144.045 121.581 144.04 121.555 144.041 121.528V119.369Z" fill="#FFC727"/>
<path d="M145.135 121.528V119.369C145.134 119.342 145.139 119.316 145.149 119.291C145.158 119.266 145.173 119.244 145.192 119.225C145.211 119.206 145.233 119.192 145.258 119.182C145.283 119.172 145.309 119.167 145.336 119.168H146.53C146.578 119.176 146.622 119.201 146.654 119.238C146.685 119.276 146.702 119.323 146.702 119.372C146.702 119.421 146.685 119.468 146.654 119.505C146.622 119.543 146.578 119.567 146.53 119.575H145.537V120.245H146.39C146.439 120.253 146.482 120.278 146.514 120.315C146.546 120.352 146.563 120.4 146.563 120.449C146.563 120.498 146.546 120.545 146.514 120.582C146.482 120.619 146.439 120.644 146.39 120.652H145.537V121.322H146.53C146.583 121.322 146.634 121.343 146.672 121.381C146.71 121.418 146.731 121.47 146.731 121.523C146.731 121.576 146.71 121.627 146.672 121.665C146.634 121.703 146.583 121.724 146.53 121.724H145.336C145.31 121.724 145.284 121.72 145.259 121.71C145.235 121.701 145.213 121.687 145.194 121.669C145.175 121.65 145.16 121.629 145.15 121.604C145.14 121.58 145.135 121.555 145.135 121.528Z" fill="#FFC727"/>
<path d="M147.305 121.528V119.369C147.305 119.342 147.31 119.316 147.32 119.292C147.33 119.268 147.345 119.245 147.364 119.227C147.382 119.208 147.404 119.193 147.429 119.183C147.453 119.173 147.479 119.168 147.506 119.168H147.941C148.266 119.189 148.571 119.334 148.793 119.571C149.016 119.809 149.14 120.123 149.14 120.449C149.14 120.774 149.016 121.088 148.793 121.326C148.571 121.563 148.266 121.708 147.941 121.729H147.506C147.479 121.729 147.453 121.724 147.429 121.714C147.404 121.704 147.382 121.689 147.364 121.67C147.345 121.652 147.33 121.63 147.32 121.605C147.31 121.581 147.305 121.555 147.305 121.528ZM147.701 121.322H147.93C148.162 121.319 148.383 121.225 148.546 121.06C148.709 120.895 148.8 120.672 148.8 120.44C148.8 120.209 148.708 119.988 148.545 119.825C148.382 119.661 148.161 119.57 147.93 119.57H147.701V121.322Z" fill="#FFC727"/>
<path d="M223.562 164.433L228.595 158.379L236.256 160.175L226.871 132.197L214.176 136.46L223.562 164.433Z" fill="#455A64"/>
<path d="M218.835 150.332L214.176 136.46L226.871 132.197L218.835 150.332Z" fill="#37474F"/>
<path d="M225.23 132.756L234.27 159.707L234.549 159.774L225.459 132.678L225.23 132.756Z" fill="white"/>
<path d="M215.588 135.986L224.678 163.083L224.867 162.865L215.822 135.908L215.588 135.986Z" fill="white"/>
<path d="M199.785 164.388L207.329 162.145L212.708 167.893L221.436 135.702L208.518 132.197L199.785 164.388Z" fill="#455A64"/>
<path d="M219.762 135.256L211.313 166.403L211.509 166.61L219.996 135.317L219.762 135.256Z" fill="white"/>
<path d="M209.952 132.594L201.465 163.886L201.738 163.808L210.192 132.655L209.952 132.594Z" fill="white"/>
<path d="M219.125 101.022C219.205 101.221 219.337 101.394 219.508 101.523C219.679 101.652 219.882 101.732 220.095 101.754C220.308 101.777 220.523 101.74 220.717 101.65C220.91 101.559 221.076 101.417 221.195 101.24C221.327 101.044 221.513 100.893 221.731 100.805C221.949 100.717 222.189 100.696 222.419 100.746C222.649 100.795 222.858 100.912 223.021 101.081C223.184 101.251 223.293 101.465 223.332 101.697C223.369 101.908 223.463 102.105 223.603 102.267C223.744 102.429 223.926 102.549 224.129 102.615C224.333 102.681 224.551 102.69 224.76 102.641C224.968 102.593 225.16 102.488 225.313 102.339C225.482 102.175 225.696 102.065 225.927 102.024C226.159 101.982 226.397 102.011 226.612 102.107C226.827 102.202 227.009 102.36 227.133 102.559C227.258 102.759 227.32 102.991 227.311 103.226C227.303 103.44 227.353 103.652 227.456 103.84C227.559 104.028 227.712 104.184 227.898 104.291C228.083 104.398 228.294 104.453 228.508 104.449C228.723 104.446 228.932 104.383 229.113 104.269C229.312 104.144 229.544 104.082 229.779 104.089C230.014 104.097 230.241 104.175 230.432 104.313C230.622 104.451 230.767 104.643 230.847 104.864C230.927 105.085 230.939 105.325 230.882 105.553C230.829 105.761 230.834 105.98 230.896 106.186C230.958 106.391 231.076 106.576 231.236 106.72C231.395 106.864 231.592 106.961 231.803 107.001C232.014 107.041 232.232 107.023 232.433 106.948C232.654 106.867 232.894 106.854 233.122 106.911C233.35 106.967 233.556 107.091 233.713 107.266C233.87 107.44 233.972 107.658 234.004 107.891C234.037 108.123 233.999 108.361 233.895 108.572C233.804 108.763 233.766 108.976 233.785 109.188C233.805 109.399 233.882 109.602 234.007 109.773C234.132 109.945 234.301 110.079 234.497 110.163C234.693 110.246 234.907 110.274 235.117 110.246C235.352 110.207 235.593 110.24 235.808 110.34C236.023 110.441 236.203 110.604 236.324 110.809C236.445 111.014 236.5 111.25 236.484 111.487C236.468 111.724 236.381 111.951 236.233 112.137C236.101 112.306 236.017 112.507 235.99 112.72C235.964 112.933 235.996 113.149 236.083 113.345C236.171 113.54 236.31 113.709 236.486 113.831C236.662 113.954 236.868 114.026 237.082 114.04C237.317 114.055 237.542 114.141 237.728 114.286C237.914 114.43 238.053 114.627 238.125 114.852C238.198 115.076 238.202 115.317 238.136 115.543C238.07 115.769 237.938 115.971 237.757 116.121C237.592 116.259 237.468 116.438 237.399 116.641C237.329 116.844 237.315 117.061 237.36 117.271C237.405 117.481 237.506 117.674 237.653 117.83C237.799 117.987 237.986 118.1 238.192 118.158C238.419 118.222 238.622 118.352 238.774 118.532C238.926 118.712 239.02 118.934 239.045 119.169C239.069 119.403 239.023 119.639 238.912 119.847C238.801 120.055 238.63 120.225 238.421 120.334C238.232 120.434 238.073 120.584 237.963 120.768C237.852 120.951 237.794 121.161 237.794 121.375C237.794 121.589 237.852 121.799 237.963 121.982C238.073 122.166 238.232 122.316 238.421 122.416C238.63 122.525 238.801 122.695 238.912 122.903C239.023 123.11 239.069 123.347 239.045 123.581C239.02 123.816 238.926 124.037 238.774 124.218C238.622 124.398 238.419 124.528 238.192 124.592C237.986 124.65 237.799 124.763 237.653 124.92C237.506 125.076 237.405 125.269 237.36 125.479C237.315 125.688 237.329 125.906 237.399 126.109C237.468 126.311 237.592 126.491 237.757 126.629C237.939 126.778 238.072 126.979 238.138 127.205C238.204 127.432 238.201 127.673 238.128 127.897C238.055 128.121 237.916 128.318 237.729 128.462C237.543 128.606 237.317 128.691 237.082 128.704C236.868 128.718 236.662 128.791 236.486 128.913C236.31 129.036 236.171 129.204 236.083 129.4C235.996 129.596 235.964 129.812 235.99 130.024C236.017 130.237 236.101 130.439 236.233 130.607C236.383 130.793 236.472 131.021 236.489 131.259C236.506 131.497 236.451 131.735 236.33 131.94C236.209 132.146 236.028 132.31 235.811 132.411C235.595 132.512 235.353 132.544 235.117 132.504C234.907 132.475 234.693 132.504 234.497 132.587C234.301 132.67 234.132 132.805 234.007 132.977C233.882 133.148 233.805 133.35 233.785 133.562C233.766 133.774 233.804 133.987 233.895 134.178C233.999 134.389 234.037 134.626 234.004 134.859C233.972 135.092 233.87 135.31 233.713 135.484C233.556 135.659 233.35 135.782 233.122 135.839C232.894 135.896 232.654 135.883 232.433 135.802C232.232 135.727 232.014 135.709 231.803 135.749C231.592 135.789 231.395 135.886 231.236 136.03C231.076 136.174 230.958 136.359 230.896 136.564C230.834 136.77 230.829 136.989 230.882 137.197C230.939 137.425 230.927 137.665 230.847 137.886C230.767 138.107 230.622 138.299 230.432 138.437C230.241 138.575 230.014 138.653 229.779 138.661C229.544 138.668 229.312 138.606 229.113 138.48C228.932 138.367 228.723 138.304 228.508 138.3C228.294 138.297 228.083 138.351 227.898 138.459C227.712 138.566 227.559 138.722 227.456 138.91C227.353 139.097 227.303 139.31 227.311 139.524C227.32 139.759 227.258 139.991 227.133 140.191C227.009 140.39 226.827 140.548 226.612 140.643C226.397 140.739 226.159 140.768 225.927 140.726C225.696 140.685 225.482 140.575 225.313 140.411C225.16 140.262 224.968 140.157 224.76 140.108C224.551 140.06 224.333 140.069 224.129 140.135C223.926 140.201 223.744 140.321 223.603 140.483C223.463 140.645 223.369 140.842 223.332 141.053C223.293 141.285 223.184 141.499 223.021 141.669C222.858 141.838 222.649 141.955 222.419 142.004C222.189 142.054 221.949 142.033 221.731 141.945C221.513 141.857 221.327 141.705 221.195 141.51C221.076 141.333 220.91 141.191 220.717 141.1C220.523 141.009 220.308 140.973 220.095 140.996C219.882 141.018 219.679 141.098 219.508 141.227C219.337 141.356 219.205 141.529 219.125 141.728C219.038 141.947 218.887 142.134 218.692 142.267C218.497 142.399 218.267 142.469 218.031 142.469C217.796 142.469 217.566 142.399 217.371 142.267C217.176 142.134 217.025 141.947 216.938 141.728C216.858 141.529 216.726 141.356 216.555 141.227C216.384 141.098 216.181 141.018 215.968 140.996C215.755 140.973 215.54 141.009 215.346 141.1C215.152 141.191 214.987 141.333 214.868 141.51C214.736 141.705 214.55 141.857 214.332 141.945C214.114 142.033 213.874 142.054 213.644 142.004C213.414 141.955 213.204 141.838 213.042 141.669C212.879 141.499 212.77 141.285 212.73 141.053C212.694 140.842 212.6 140.645 212.46 140.483C212.319 140.321 212.137 140.201 211.933 140.135C211.73 140.069 211.512 140.06 211.303 140.108C211.094 140.157 210.903 140.262 210.75 140.411C210.581 140.575 210.367 140.685 210.136 140.726C209.904 140.768 209.666 140.739 209.451 140.643C209.236 140.548 209.054 140.39 208.93 140.191C208.805 139.991 208.743 139.759 208.752 139.524C208.759 139.31 208.708 139.097 208.604 138.91C208.5 138.723 208.347 138.567 208.161 138.46C207.975 138.353 207.764 138.298 207.55 138.302C207.335 138.305 207.126 138.367 206.944 138.48C206.745 138.606 206.513 138.668 206.278 138.661C206.043 138.653 205.816 138.575 205.626 138.437C205.435 138.299 205.291 138.107 205.21 137.886C205.13 137.665 205.118 137.425 205.175 137.197C205.228 136.989 205.223 136.771 205.161 136.566C205.099 136.361 204.982 136.177 204.823 136.034C204.664 135.89 204.469 135.793 204.258 135.752C204.048 135.711 203.831 135.728 203.629 135.802C203.409 135.883 203.169 135.896 202.941 135.839C202.713 135.782 202.507 135.659 202.35 135.484C202.193 135.31 202.091 135.092 202.059 134.859C202.026 134.626 202.064 134.389 202.168 134.178C202.259 133.987 202.297 133.774 202.277 133.562C202.258 133.35 202.181 133.148 202.056 132.977C201.931 132.805 201.761 132.67 201.566 132.587C201.37 132.504 201.156 132.475 200.946 132.504C200.71 132.544 200.468 132.512 200.252 132.411C200.035 132.31 199.854 132.146 199.733 131.94C199.612 131.735 199.557 131.497 199.574 131.259C199.591 131.021 199.68 130.793 199.83 130.607C199.962 130.439 200.046 130.237 200.073 130.024C200.099 129.812 200.067 129.596 199.979 129.4C199.892 129.204 199.753 129.036 199.577 128.913C199.401 128.791 199.195 128.718 198.981 128.704C198.746 128.691 198.52 128.606 198.334 128.462C198.147 128.318 198.008 128.121 197.935 127.897C197.862 127.673 197.859 127.432 197.925 127.205C197.991 126.979 198.124 126.778 198.306 126.629C198.471 126.491 198.594 126.311 198.664 126.109C198.734 125.906 198.747 125.688 198.703 125.479C198.658 125.269 198.557 125.076 198.41 124.92C198.264 124.763 198.077 124.65 197.871 124.592C197.644 124.528 197.441 124.398 197.289 124.218C197.137 124.037 197.043 123.816 197.018 123.581C196.994 123.347 197.04 123.11 197.151 122.903C197.262 122.695 197.433 122.525 197.642 122.416C197.831 122.316 197.99 122.166 198.1 121.982C198.211 121.799 198.269 121.589 198.269 121.375C198.269 121.161 198.211 120.951 198.1 120.768C197.99 120.584 197.831 120.434 197.642 120.334C197.433 120.225 197.262 120.055 197.151 119.847C197.04 119.639 196.994 119.403 197.018 119.169C197.043 118.934 197.137 118.712 197.289 118.532C197.441 118.352 197.644 118.222 197.871 118.158C198.077 118.1 198.264 117.987 198.41 117.83C198.557 117.674 198.658 117.481 198.703 117.271C198.747 117.061 198.734 116.844 198.664 116.641C198.594 116.438 198.471 116.259 198.306 116.121C198.125 115.971 197.993 115.769 197.927 115.543C197.861 115.317 197.865 115.076 197.938 114.852C198.01 114.627 198.149 114.43 198.335 114.286C198.521 114.141 198.746 114.055 198.981 114.04C199.195 114.026 199.401 113.954 199.577 113.831C199.753 113.709 199.892 113.54 199.979 113.345C200.067 113.149 200.099 112.933 200.073 112.72C200.046 112.507 199.962 112.306 199.83 112.137C199.682 111.951 199.595 111.724 199.579 111.487C199.562 111.25 199.618 111.014 199.739 110.809C199.86 110.604 200.04 110.441 200.255 110.34C200.47 110.24 200.711 110.207 200.946 110.246C201.156 110.274 201.37 110.246 201.566 110.163C201.761 110.079 201.931 109.945 202.056 109.773C202.181 109.602 202.258 109.399 202.277 109.188C202.297 108.976 202.259 108.763 202.168 108.572C202.064 108.361 202.026 108.123 202.059 107.891C202.091 107.658 202.193 107.44 202.35 107.266C202.507 107.091 202.713 106.967 202.941 106.911C203.169 106.854 203.409 106.867 203.629 106.948C203.831 107.021 204.048 107.039 204.258 106.998C204.469 106.957 204.664 106.86 204.823 106.716C204.982 106.573 205.099 106.388 205.161 106.183C205.223 105.979 205.228 105.76 205.175 105.553C205.118 105.325 205.13 105.085 205.21 104.864C205.291 104.643 205.435 104.451 205.626 104.313C205.816 104.175 206.043 104.097 206.278 104.089C206.513 104.082 206.745 104.144 206.944 104.269C207.126 104.383 207.335 104.445 207.55 104.448C207.764 104.452 207.975 104.397 208.161 104.29C208.347 104.183 208.5 104.027 208.604 103.84C208.708 103.652 208.759 103.44 208.752 103.226C208.744 102.991 208.808 102.759 208.933 102.56C209.059 102.361 209.241 102.204 209.457 102.11C209.673 102.015 209.911 101.988 210.143 102.031C210.374 102.074 210.588 102.185 210.755 102.35C210.909 102.499 211.1 102.604 211.309 102.653C211.517 102.701 211.735 102.692 211.939 102.626C212.143 102.56 212.325 102.44 212.465 102.278C212.606 102.116 212.699 101.919 212.736 101.708C212.776 101.477 212.884 101.262 213.047 101.092C213.21 100.923 213.42 100.806 213.65 100.757C213.88 100.707 214.119 100.728 214.337 100.816C214.555 100.904 214.742 101.056 214.873 101.251C214.993 101.428 215.158 101.57 215.352 101.661C215.546 101.752 215.761 101.788 215.974 101.765C216.187 101.743 216.39 101.663 216.56 101.534C216.731 101.405 216.864 101.232 216.943 101.033C217.03 100.816 217.18 100.629 217.374 100.497C217.568 100.365 217.796 100.294 218.03 100.293C218.265 100.292 218.494 100.361 218.689 100.49C218.884 100.62 219.036 100.805 219.125 101.022Z" fill="#FFC727"/>
<path d="M235.615 126.185C238.266 116.466 232.537 106.437 222.818 103.786C213.099 101.134 203.071 106.864 200.419 116.583C197.768 126.302 203.497 136.33 213.216 138.982C222.935 141.633 232.963 135.904 235.615 126.185Z" fill="white"/>
<path d="M218.01 138.353C214.653 138.353 211.373 137.357 208.582 135.493C205.792 133.628 203.617 130.978 202.332 127.877C201.048 124.777 200.712 121.365 201.367 118.073C202.022 114.782 203.638 111.758 206.011 109.385C208.384 107.012 211.407 105.396 214.699 104.741C217.991 104.086 221.403 104.422 224.503 105.707C227.604 106.991 230.254 109.166 232.119 111.956C233.983 114.747 234.978 118.028 234.978 121.384C234.974 125.883 233.185 130.196 230.003 133.378C226.822 136.559 222.509 138.348 218.01 138.353ZM218.01 104.839C214.736 104.839 211.536 105.81 208.814 107.629C206.092 109.448 203.971 112.033 202.719 115.057C201.466 118.082 201.139 121.41 201.778 124.62C202.417 127.831 203.994 130.78 206.309 133.094C208.624 135.409 211.573 136.984 214.784 137.622C217.995 138.26 221.323 137.932 224.347 136.678C227.371 135.425 229.955 133.303 231.773 130.58C233.591 127.858 234.561 124.657 234.56 121.384C234.554 116.997 232.808 112.791 229.706 109.69C226.603 106.588 222.397 104.844 218.01 104.839Z" fill="#FFC727"/>
<path d="M216.135 131.539L206.136 121.539L210.237 117.432L216.135 123.33L234.912 104.554L239.013 108.661L216.135 131.539Z" fill="#455A64"/>
<path d="M25.0928 245.56H96.0815L81.9307 163.222H28.8425L25.0928 245.56Z" fill="#DBDBDB"/>
<path d="M25.0928 245.56H31.3145L34.8076 163.222H28.8425L25.0928 245.56Z" fill="#A6A6A6"/>
<path d="M80.7923 176.055C89.6757 194.469 110.735 224.875 119.551 216.946C132.742 205.094 141.157 179.459 144.494 169.103C146.363 163.294 116.811 154.5 115.165 159.767C112.822 167.261 109.256 182.869 106.996 185.128C105.807 186.317 95.836 173.126 88.409 166.943C77.6787 158.032 77.9521 170.18 80.7923 176.055Z" fill="#EB9481"/>
<path d="M150.755 156.604C149.494 162.903 141.883 174.778 138.942 176.937C136.001 179.097 115.338 167.412 114.87 163.696C114.401 159.98 120.36 138.513 125.382 134.3C130.404 130.087 152.06 150.081 150.755 156.604Z" fill="#EB9481"/>
<path d="M115.338 159.371C115.338 159.371 113.921 151.14 110.316 144.718C107.292 139.322 102.186 131.649 105.026 129.909C110.863 126.343 123.586 145.488 123.586 145.488C123.586 145.488 127.843 154.834 122.375 158.88C118.921 161.413 115.338 159.371 115.338 159.371Z" fill="#EB9481"/>
<path d="M118.96 142.335C120.12 145.533 123.228 142.335 123.228 142.335C123.228 142.335 119.88 148.01 122.33 150.851C124.712 153.579 128.334 149.589 128.596 149.305C128.423 149.606 125.46 154.885 128.239 157.502C131.124 160.203 134.07 155.571 134.26 155.27C134.182 155.605 133.25 160.08 135.806 161.575C140.197 164.142 142.903 152.764 146.497 150.756C146.497 150.756 150.598 156.458 150.754 156.598C150.754 156.598 153.544 145.829 150.565 141.13C150.141 140.44 149.495 139.915 148.733 139.642C147.971 139.37 147.139 139.365 146.374 139.629C146.374 139.629 147.657 136.281 145.537 134.144C144.449 133.062 141.743 133.843 141.743 133.843C141.743 133.843 142.663 131.103 140.66 129.34C139.064 127.928 136.603 128.932 136.603 128.932C136.603 128.932 136.258 125.886 134.165 124.976C129.941 123.129 116.493 135.478 118.96 142.335Z" fill="#EB9481"/>
<path d="M136.191 129.034C136.236 129 136.191 128.922 136.141 128.955C130.728 131.935 125.695 136.868 123.045 142.493C122.955 142.677 123.217 142.9 123.351 142.716C127.19 137.443 131.018 133.068 136.191 129.034Z" fill="#263238"/>
<path d="M141.788 133.759C141.844 133.72 141.788 133.625 141.704 133.658C136.124 136.766 130.628 142.48 128.34 149.321C128.256 149.556 128.424 149.846 128.535 149.584C130.405 145.148 137.101 137.369 141.788 133.759Z" fill="#263238"/>
<path d="M134.265 155.805C136.715 149.332 140.994 144.294 146.134 139.751C146.201 139.69 146.134 139.601 146.039 139.634C142.92 141.174 139.945 144.411 137.847 147.128C135.848 149.61 134.534 152.573 134.036 155.721C134.019 155.85 134.209 155.945 134.265 155.805Z" fill="#263238"/>
<path d="M123.116 142.357C123.01 142.581 123.451 142.491 123.351 142.715C122.943 143.658 120.974 149.561 122.793 150.856C124.238 151.888 126.632 150.666 127.368 149.835L129.215 147.742L128.172 150.337C127.714 151.491 127.448 152.713 127.385 153.953C127.322 154.524 127.381 155.103 127.558 155.65C127.735 156.198 128.026 156.701 128.412 157.128C128.773 157.521 129.259 157.777 129.787 157.854C130.316 157.932 130.854 157.825 131.313 157.552C132.332 156.922 133.174 156.042 133.757 154.996L135.465 152.167L134.779 155.387C134.588 156.283 134.511 157.2 134.55 158.115C134.557 158.984 134.816 159.831 135.297 160.554C135.53 160.869 135.846 161.113 136.21 161.259C136.573 161.405 136.97 161.447 137.356 161.38C138.194 161.099 138.935 160.586 139.494 159.901C140.731 158.435 141.85 156.873 142.842 155.23C143.4 154.421 143.896 153.607 144.465 152.814C144.991 151.99 145.685 151.286 146.502 150.75C145.758 151.368 145.142 152.126 144.689 152.982C144.186 153.802 143.729 154.656 143.26 155.498C142.369 157.243 141.315 158.9 140.113 160.448C139.476 161.298 138.602 161.942 137.602 162.3C137.037 162.436 136.444 162.402 135.897 162.204C135.351 162.006 134.874 161.651 134.527 161.184C133.898 160.307 133.546 159.261 133.517 158.182C133.452 157.164 133.522 156.141 133.724 155.141L134.745 155.532C134.079 156.78 133.095 157.831 131.894 158.578C131.22 158.971 130.432 159.119 129.662 158.997C128.904 158.85 128.21 158.476 127.67 157.926C126.554 156.838 126.291 155.253 126.364 153.908C126.456 152.545 126.771 151.207 127.296 149.946L128.133 150.46C127.167 151.486 124.64 153.149 122.196 151.827C119.244 149.639 122.447 143.451 123.116 142.357Z" fill="#263238"/>
<path d="M123.228 142.34C122.651 142.737 122.017 143.044 121.347 143.25C121.08 143.339 120.794 143.356 120.519 143.298C120.243 143.24 119.988 143.11 119.779 142.921C119.386 142.443 119.138 141.862 119.065 141.247C118.948 140.572 118.864 139.857 118.809 139.115C118.495 139.806 118.33 140.555 118.323 141.314C118.298 141.731 118.356 142.148 118.493 142.543C118.63 142.937 118.843 143.301 119.121 143.613C119.464 143.917 119.889 144.111 120.343 144.171C120.777 144.209 121.214 144.126 121.604 143.931C122.3 143.586 122.869 143.029 123.228 142.34Z" fill="#263238"/>
<path d="M113.396 160.382L144.477 180.749C144.477 180.749 127.335 218.972 116.08 219.195C104.825 219.418 87.7783 191.619 81.8077 179.577C75.8371 167.535 78.9117 157.078 90.5628 167.898C102.214 178.718 106.404 183.171 106.745 183.014C107.476 182.702 113.396 160.382 113.396 160.382Z" fill="#FFC727"/>
<path d="M144.477 180.749C144.477 180.749 132.592 207.265 122.113 216.254C120.015 218.062 117.967 219.162 116.081 219.195C104.826 219.413 87.7789 191.613 81.8027 179.577C78.1032 172.117 77.8967 165.27 81.0104 163.713C82.9355 162.748 86.1273 163.78 90.5634 167.898C102.281 178.785 106.405 183.171 106.745 183.009C107.471 182.702 113.402 160.382 113.402 160.382L144.477 180.749Z" fill="#FFC727"/>
<path d="M137.368 184.487C136.542 183.845 135.694 183.22 134.874 182.595C133.181 181.331 131.483 180.071 129.78 178.818C126.398 176.324 122.95 173.93 119.473 171.564C117.498 170.225 115.567 168.807 113.531 167.557C113.511 167.543 113.487 167.537 113.464 167.541C113.44 167.545 113.419 167.558 113.405 167.577C113.391 167.596 113.385 167.62 113.389 167.644C113.392 167.667 113.405 167.688 113.425 167.702C115.048 169.058 116.773 170.286 118.447 171.569C120.121 172.853 121.795 174.142 123.502 175.397C126.895 177.882 130.319 180.313 133.775 182.69C134.746 183.36 135.694 184.074 136.693 184.699C137.206 185.017 137.692 185.38 138.211 185.692C138.73 186.005 139.271 186.284 139.779 186.613C139.784 186.617 139.791 186.619 139.797 186.621C139.803 186.622 139.81 186.622 139.817 186.621C139.823 186.619 139.829 186.617 139.835 186.613C139.84 186.609 139.845 186.605 139.849 186.599C139.852 186.594 139.855 186.587 139.856 186.581C139.857 186.574 139.857 186.568 139.856 186.561C139.855 186.555 139.852 186.549 139.849 186.543C139.845 186.538 139.84 186.533 139.835 186.529C139.009 185.876 138.216 185.151 137.368 184.487Z" fill="#263238"/>
<path d="M107.012 182.305C105.933 185.476 105.066 188.716 104.418 192.003C104.066 193.626 103.798 195.267 103.536 196.902C103.256 198.525 103.086 200.166 103.028 201.812C103.028 201.874 103.112 201.874 103.129 201.812C103.586 200.233 103.916 198.587 104.245 196.969C104.574 195.351 104.92 193.721 105.238 192.092C105.874 188.839 106.639 185.602 107.174 182.333C107.185 182.232 107.046 182.21 107.012 182.305Z" fill="#263238"/>
<path opacity="0.1" d="M122.113 216.254C120.015 218.062 117.967 219.161 116.081 219.195C104.826 219.412 87.7789 191.613 81.8027 179.577C78.1032 172.116 77.8967 165.27 81.0104 163.713L122.113 216.254Z" fill="black"/>
<path d="M104.145 245.559H30.9462C30.6225 244.081 42.1397 179.966 66.82 161.91C72.2996 157.903 82.0143 160.481 84.7151 164.376C98.3024 183.951 104.145 245.559 104.145 245.559Z" fill="#EBEBEB"/>
<path d="M65.2019 162.39C65.2019 162.39 71.6635 190.781 72.3275 193.23C72.9915 195.68 75.3854 245.56 75.3854 245.56H30.2822C30.2822 245.56 40.4322 181.948 65.2019 162.39Z" fill="#FFC727"/>
<path d="M84.715 164.377C84.715 164.377 87.5441 186.139 87.8789 187.4C88.2137 188.661 97.4821 245.56 97.4821 245.56H104.507C104.507 245.56 98.3637 179.794 84.715 164.377Z" fill="#FFC727"/>
<path d="M56.5473 170.626C43.3562 189.202 24.2447 222.47 33.05 228.39C47.558 238.128 87.3713 240.739 96.4778 240.962C100.384 241.057 105.763 214.926 102.856 211.89C99.9486 208.855 58.2492 210.49 57.7191 207.984C57.4122 206.561 62.5124 193.393 65.0959 177.601C68.0756 159.371 60.2692 165.403 56.5473 170.626Z" fill="#EB9481"/>
<path d="M95.8639 210.445C95.8639 210.445 107.755 209.223 115.572 208.771C119.936 208.531 127.447 208.771 130.733 210.066C135.644 211.991 154.967 223.179 152.356 227.922C149.99 232.218 134.611 220.5 134.611 220.5C134.611 220.5 151.178 230.952 147.378 235.6C143.578 240.248 127.966 224.691 127.966 224.691C127.966 224.691 144.745 235.817 140.074 239.986C136.542 243.138 121.604 229.852 121.604 229.852C121.604 229.852 135.956 239.511 132.463 242.909C128.607 246.665 114.049 235.265 114.049 235.265C103.715 242.413 95.8751 241.587 90.362 240.337C89.0284 240.041 95.8639 210.445 95.8639 210.445Z" fill="#EB9481"/>
<path d="M129.115 216.527C131.107 217.682 133.127 218.842 135.007 220.17C136.888 221.498 138.723 222.899 140.47 224.4C144.761 228.077 146.87 231.051 146.72 230.884C143.165 226.872 136.508 222.006 134.622 220.673C132.736 219.339 130.939 217.927 129.042 216.594C129.014 216.56 129.064 216.499 129.115 216.527Z" fill="#263238"/>
<path d="M124.188 223.229C126.665 224.819 129.182 226.303 131.592 228C134.003 229.696 137.267 232.174 139.538 234.026C139.711 234.166 139.583 234.478 139.399 234.339C137.055 232.581 133.596 230.204 131.23 228.474C128.864 226.744 126.565 224.92 124.143 223.285C124.104 223.262 124.149 223.206 124.188 223.229Z" fill="#263238"/>
<path d="M118.926 228.224C122.832 230.456 126.326 233.407 129.685 236.387C129.852 236.532 129.685 236.577 129.495 236.432C125.968 233.642 123.217 231.443 118.843 228.358C118.776 228.313 118.843 228.173 118.926 228.224Z" fill="#263238"/>
<path d="M95.8806 208.888L84.7206 242.608C84.7206 242.608 33.8255 236.124 30.0366 226.933C26.2478 217.743 41.4477 189.877 54.0306 172.757C66.4127 155.917 67.4617 167.3 65.1572 179.637C62.8526 191.975 58.5225 206.349 59.2535 207.325C59.9845 208.302 95.8806 208.888 95.8806 208.888Z" fill="#FFC727"/>
<path d="M78.5106 237.809C78.9068 236.844 79.2862 235.873 79.6657 234.897C80.4097 232.925 81.1648 230.951 81.9311 228.976C83.421 225.042 84.7993 221.08 86.1329 217.096C86.8862 214.831 87.7288 212.588 88.3649 210.294C88.373 210.271 88.3717 210.246 88.3612 210.224C88.3508 210.202 88.332 210.185 88.3091 210.177C88.2861 210.169 88.2609 210.17 88.2389 210.181C88.217 210.191 88.2 210.21 88.1919 210.233C87.327 212.158 86.6072 214.139 85.8315 216.12C85.0559 218.101 84.2524 220.026 83.5047 222.023C82.026 225.929 80.6142 229.908 79.2416 233.881C78.8621 234.997 78.4325 236.113 78.1256 237.229C77.9526 237.787 77.735 238.345 77.5676 238.959C77.4002 239.573 77.283 240.136 77.1044 240.716C77.1 240.729 77.1007 240.743 77.1065 240.755C77.1122 240.767 77.1225 240.776 77.1351 240.781C77.1477 240.785 77.1615 240.784 77.1736 240.779C77.1856 240.773 77.1948 240.763 77.1993 240.75C77.601 239.762 78.0865 238.803 78.5106 237.809Z" fill="#263238"/>
<path d="M85.5967 240.287L84.8099 242.647V242.72H84.7262C79.9219 242.285 75.1398 241.677 70.3745 240.94C65.6091 240.203 60.8606 239.333 56.1455 238.289C51.4253 237.278 46.7676 235.994 42.1955 234.445C39.8987 233.665 37.661 232.722 35.4995 231.621C34.4218 231.061 33.3916 230.413 32.4193 229.685C31.4196 228.983 30.6119 228.041 30.0701 226.945C30.7006 227.965 31.5604 228.823 32.5811 229.451C33.5862 230.091 34.6404 230.651 35.7338 231.125C37.9247 232.089 40.1719 232.921 42.4633 233.613C47.0445 235.025 51.715 236.158 56.4133 237.185C61.1117 238.211 65.8268 239.132 70.553 239.975C75.2793 240.817 80.039 241.682 84.7764 242.463L84.6704 242.53L85.5967 240.287Z" fill="#263238"/>
<path d="M95.4452 210.205L95.8247 208.872L95.8805 208.95C90.8585 209.084 85.8365 209.139 80.8145 209.089C75.7925 209.039 70.7705 208.939 65.7485 208.671C64.4874 208.598 63.2263 208.515 61.9652 208.392C61.3291 208.325 60.7041 208.263 60.0513 208.146C59.8801 208.119 59.7105 208.081 59.5435 208.035L59.2533 207.94C59.1824 207.907 59.1135 207.869 59.0469 207.828C58.9812 207.783 58.9244 207.726 58.8795 207.661C58.8494 207.621 58.8233 207.578 58.8014 207.532C58.7981 207.51 58.7981 207.488 58.8014 207.465C58.7512 207.246 58.7399 207.019 58.7679 206.796C58.7679 206.628 58.7679 206.455 58.8237 206.299C59.2143 203.755 59.7946 201.327 60.3805 198.872C61.5523 193.973 62.8692 189.118 64.2865 184.286L61.2231 199.056C60.7432 201.512 60.1852 203.989 59.8671 206.428C59.8671 206.578 59.8671 206.718 59.8225 206.868C59.8281 206.958 59.8281 207.047 59.8225 207.136C59.8118 207.107 59.7988 207.079 59.7834 207.053C59.7555 207.008 59.6774 206.958 59.6997 206.969C59.6997 206.969 59.7221 206.98 59.6997 206.969C59.7501 206.991 59.8024 207.007 59.856 207.019C59.9787 207.053 60.1238 207.08 60.2689 207.108C60.8269 207.209 61.4798 207.27 62.0936 207.326C63.3323 207.438 64.5822 207.51 65.8377 207.577C68.3376 207.718 70.8449 207.832 73.3596 207.917L80.887 208.208C85.909 208.386 90.931 208.609 95.953 208.849H96.0423V208.927L95.4452 210.205Z" fill="#263238"/>
<path d="M65.0509 187.327C64.7654 188.2 64.3915 189.041 63.9349 189.838C63.5024 190.653 62.9597 191.404 62.3223 192.07C62.7129 191.239 63.1258 190.435 63.5666 189.637C64.0083 188.834 64.5042 188.063 65.0509 187.327Z" fill="#263238"/>
<path d="M81.1713 174.359C76.9249 175.57 69.258 169.337 66.1053 164.164C65.8933 163.807 66.747 149.16 66.6131 146.241C66.6131 145.644 85.1275 149.863 85.1275 149.863C85.1275 149.863 83.6042 156.062 83.8609 161.151C83.8944 161.575 85.2726 173.215 81.1713 174.359Z" fill="#EB9481"/>
<path d="M66.3625 155.415C75.0282 161.553 83.4707 159.181 83.8502 159.07C83.9937 155.968 84.4233 152.886 85.1336 149.863C85.1336 149.863 66.5912 145.639 66.6191 146.241C66.6805 147.614 66.5299 151.565 66.3625 155.415Z" fill="#263238"/>
<path d="M84.1519 135.901C84.6262 140.22 88.0579 143.384 91.8746 142.966C95.6913 142.547 98.353 138.708 97.8787 134.389C97.4044 130.07 93.9448 126.907 90.156 127.319C86.3671 127.732 83.6776 131.577 84.1519 135.901Z" fill="#455A64"/>
<path d="M81.9582 136.415C82.4828 141.225 86.333 144.746 90.5514 144.283C94.7699 143.82 97.7552 139.546 97.2474 134.736C96.7397 129.926 92.8504 126.41 88.6375 126.901C84.4246 127.392 81.4281 131.611 81.9582 136.415Z" fill="#C7C7C7"/>
<path d="M64.0578 124.246C62.0379 130.73 65.3524 149.529 69.9503 153.742C76.6129 159.852 87.5831 160.499 92.7893 152.475C97.8113 144.697 93.0738 120.278 87.9347 116.445C80.3626 110.792 67.0487 114.665 64.0578 124.246Z" fill="#EB9481"/>
<path d="M79.6819 136.048C79.6819 135.997 79.5926 136.126 79.6038 136.176C79.8884 137.431 80 138.916 78.9342 139.524C78.9007 139.524 78.9342 139.608 78.9621 139.596C80.318 139.178 80.1506 137.191 79.6819 136.048Z" fill="#263238"/>
<path d="M78.2981 134.942C76.2391 135.177 76.8584 139.284 78.7724 139.066C80.6863 138.848 80.0279 134.747 78.2981 134.942Z" fill="#263238"/>
<path d="M86.9861 135.059C86.9861 135.009 87.0977 135.104 87.1032 135.154C87.2539 136.432 87.6612 137.871 88.8554 138.117C88.8944 138.117 88.9 138.19 88.8554 138.19C87.438 138.206 86.9247 136.292 86.9861 135.059Z" fill="#263238"/>
<path d="M87.924 133.558C89.944 133.095 90.7141 137.168 88.8503 137.604C86.9866 138.039 86.2277 133.949 87.924 133.558Z" fill="#263238"/>
<path d="M76.395 133.313C76.911 133.072 77.4139 132.804 77.9016 132.509C78.4722 132.301 78.9572 131.908 79.2798 131.393C79.3501 131.213 79.3593 131.014 79.3059 130.827C79.2525 130.641 79.1394 130.477 78.9841 130.361C78.2866 129.909 77.4886 130.121 76.78 130.467C76.0518 130.804 75.4763 131.401 75.1674 132.141C75.1083 132.31 75.0992 132.493 75.1411 132.667C75.183 132.841 75.2742 132.999 75.4037 133.123C75.5332 133.246 75.6955 133.33 75.8713 133.364C76.0471 133.397 76.2289 133.38 76.395 133.313Z" fill="#263238"/>
<path d="M89.1957 131.254C88.635 131.224 88.0762 131.164 87.5217 131.075C86.9233 131.093 86.3353 130.915 85.8477 130.567C85.7138 130.427 85.6302 130.246 85.61 130.054C85.5898 129.861 85.6342 129.667 85.7361 129.502C86.2104 128.821 87.0307 128.715 87.8175 128.771C88.5985 128.814 89.3367 129.142 89.8932 129.691C90.0138 129.826 90.0928 129.993 90.1207 130.172C90.1486 130.35 90.1243 130.533 90.0505 130.698C89.9768 130.864 89.8569 131.004 89.7052 131.102C89.5535 131.201 89.3766 131.253 89.1957 131.254Z" fill="#263238"/>
<path d="M80.3743 147.961C80.7258 148.212 81.0941 148.575 81.5573 148.547C82.0327 148.457 82.4836 148.267 82.8797 147.989C82.8883 147.984 82.8983 147.982 82.9083 147.983C82.9182 147.984 82.9275 147.988 82.9346 147.996C82.9417 148.003 82.9462 148.012 82.9474 148.022C82.9485 148.032 82.9463 148.042 82.9411 148.05C82.7973 148.327 82.5814 148.56 82.3161 148.724C82.0509 148.888 81.7463 148.977 81.4345 148.982C81.165 148.955 80.9097 148.848 80.701 148.675C80.4924 148.502 80.3398 148.271 80.2627 148.011C80.2644 147.999 80.2692 147.988 80.2766 147.978C80.2839 147.968 80.2936 147.961 80.3047 147.956C80.3158 147.951 80.328 147.948 80.3402 147.949C80.3524 147.95 80.3641 147.954 80.3743 147.961Z" fill="#263238"/>
<path d="M81.1383 143.954C81.5372 144.408 82.0256 144.774 82.5729 145.031C83.1203 145.287 83.7147 145.428 84.3189 145.444C84.8469 145.463 85.3749 145.406 85.8869 145.276C85.9859 145.259 86.083 145.233 86.177 145.198L86.4504 145.114C86.5159 145.09 86.572 145.046 86.6102 144.988C86.6484 144.929 86.6667 144.86 86.6625 144.791C86.6674 144.748 86.6674 144.705 86.6625 144.662V144.551C86.5397 143.563 86.2217 142.09 86.2217 142.09C86.6067 142.218 88.5541 142.76 88.4537 142.252C87.5609 138.061 86.5676 133.396 84.7932 129.418C84.7843 129.387 84.7637 129.362 84.736 129.347C84.7083 129.331 84.6757 129.328 84.6453 129.337C84.615 129.346 84.5894 129.366 84.5742 129.394C84.5591 129.422 84.5555 129.454 84.5644 129.485C85.2619 133.547 86.6737 137.464 87.4381 141.537C86.7444 141.332 86.0246 141.226 85.301 141.225C85.1726 141.286 85.9706 144.06 85.9929 144.506V144.556C84.3803 145.014 83.0634 144.707 81.3001 143.842C81.1327 143.764 81.0434 143.864 81.1383 143.954Z" fill="#263238"/>
<path d="M85.2338 144.869C84.8007 145.648 84.1743 146.304 83.4148 146.771C82.994 147.013 82.5085 147.118 82.0253 147.073C80.9707 146.961 80.8033 146.029 80.8703 145.203C80.9086 144.766 81.0004 144.335 81.1437 143.92C82.371 144.664 83.8042 144.997 85.2338 144.869Z" fill="#263238"/>
<path d="M83.4148 146.772C82.994 147.014 82.5085 147.119 82.0253 147.074C80.9707 146.962 80.8033 146.03 80.8703 145.204C81.9751 145.154 83.1637 145.729 83.4148 146.772Z" fill="#FF99BA"/>
<path d="M64.5994 140.745C69.2922 139.836 68.5836 131.137 68.5836 131.137C68.5836 131.137 76.3956 128.285 76.3956 121.996C76.3956 121.996 84.9776 125.423 90.5799 122.103C96.1822 118.782 93.621 112.209 92.678 110.881C91.735 109.553 88.9171 112.89 88.9171 112.89C88.9171 112.89 87.8011 109.112 86.6851 108.917C85.5691 108.722 84.9106 111.261 84.9106 111.261C84.9106 111.261 76.6634 110.145 69.6717 111.668C62.6799 113.191 60.5372 120.959 60.5372 120.959C60.5372 120.959 56.9325 122.471 56.2127 125.339C55.4929 128.207 61.6086 141.32 64.5994 140.745Z" fill="#263238"/>
<path d="M66.6972 131.56C73.0863 131.203 76.4399 126.27 76.1832 120.127C76.1804 120.117 76.1797 120.108 76.1813 120.098C76.1829 120.089 76.1867 120.08 76.1924 120.072C76.1981 120.064 76.2055 120.058 76.2141 120.053C76.2227 120.049 76.2322 120.047 76.2418 120.047C76.2514 120.047 76.2609 120.049 76.2695 120.053C76.2781 120.058 76.2856 120.064 76.2913 120.072C76.297 120.08 76.3008 120.089 76.3024 120.098C76.3039 120.108 76.3033 120.117 76.3004 120.127C77.1765 125.707 73.1589 132.91 66.6637 131.845C66.5298 131.817 66.5298 131.566 66.6972 131.56Z" fill="#263238"/>
<path d="M60.7156 120.813C60.7825 120.78 60.8383 120.886 60.7769 120.925C59.1866 122.069 57.3062 123.056 56.3799 124.875C55.2639 127.079 56.0618 129.54 57.0272 131.616C58.5282 134.841 61.1062 138.903 64.51 140.315C64.7053 140.399 64.5713 140.683 64.376 140.617C60.3417 139.166 57.122 133.865 55.8889 129.975C54.4827 125.623 56.7761 122.554 60.7156 120.813Z" fill="#263238"/>
<path d="M83.5708 122.437C86.6343 123.553 90.7244 122.866 93.0568 120.472C95.8971 117.56 94.4853 113.91 92.4654 111.031C92.3649 110.886 92.5602 110.68 92.6941 110.808C95.1605 113.213 96.1203 117.392 93.8883 120.294C91.5837 123.285 86.757 124.116 83.3811 122.872C83.1021 122.76 83.2918 122.331 83.5708 122.437Z" fill="#263238"/>
<path d="M67.9804 139.568C67.9804 139.568 63.6504 133.558 60.9162 135.104C58.182 136.649 61.4742 145.41 64.7496 146.571C65.1562 146.748 65.5945 146.841 66.038 146.845C66.4815 146.848 66.9212 146.762 67.3305 146.591C67.7397 146.42 68.1101 146.167 68.4194 145.85C68.7287 145.532 68.9704 145.154 69.1299 144.74L67.9804 139.568Z" fill="#EB9481"/>
<path d="M61.9264 137.598C61.9178 137.601 61.9105 137.607 61.9053 137.614C61.9001 137.622 61.8973 137.63 61.8973 137.64C61.8973 137.649 61.9001 137.658 61.9053 137.665C61.9105 137.672 61.9178 137.678 61.9264 137.681C64.2086 138.569 65.4306 140.655 66.3011 142.826C65.6148 141.995 64.6885 141.548 63.5781 142.363C63.5167 142.408 63.5781 142.502 63.6394 142.486C64.0357 142.355 64.4628 142.349 64.8624 142.47C65.2619 142.591 65.6143 142.832 65.8714 143.161C66.3081 143.713 66.6824 144.312 66.9874 144.947C67.099 145.147 67.4617 145.036 67.3836 144.801V144.751C67.3501 141.861 65.0344 137.843 61.9264 137.598Z" fill="#263238"/>
<path d="M63.2489 135.321C63.2489 135.321 60.9109 125.991 62.73 120.255C64.7611 113.894 73.1478 108.241 84.9384 111.238C84.9384 111.238 71.418 111.612 66.5244 119.998C64.2924 123.854 66.4351 134.981 66.4351 134.981L63.2489 135.321Z" fill="#C7C7C7"/>
<path d="M72.9634 138.496C73.8841 143.3 71.2113 147.848 66.9984 148.657C62.7855 149.466 58.6284 146.224 57.6966 141.403C56.7647 136.582 59.4487 132.046 63.6672 131.242C67.8856 130.439 72.0427 133.692 72.9634 138.496Z" fill="#C7C7C7"/>
<path d="M70.6981 138.647C71.5239 142.966 69.1245 147.056 65.3357 147.782C61.5469 148.507 57.8027 145.594 56.9657 141.276C56.1287 136.957 58.5393 132.866 62.3281 132.141C66.1169 131.416 69.8611 134.328 70.6981 138.647Z" fill="#455A64"/>
<path d="M168.203 242.587H93.7266V245.929H168.203V242.587Z" fill="#455A64"/>
<path d="M168.208 242.587H130.722V245.929H168.208V242.587Z" fill="#37474F"/>
<path d="M132.993 245.923H205.578L215.069 196.624H142.485L132.993 245.923Z" fill="#37474F"/>
<path d="M135.945 245.923H208.53L218.022 196.624H145.437L135.945 245.923Z" fill="#455A64"/>
<path d="M172.566 221.271C172.504 221.833 172.563 222.402 172.738 222.94C172.913 223.478 173.201 223.973 173.582 224.391C173.963 224.809 174.429 225.141 174.948 225.365C175.468 225.589 176.029 225.7 176.595 225.69C177.798 225.67 178.952 225.209 179.838 224.395C180.723 223.58 181.279 222.468 181.399 221.271C181.461 220.709 181.402 220.14 181.227 219.602C181.052 219.065 180.764 218.57 180.383 218.153C180.002 217.735 179.536 217.404 179.016 217.18C178.497 216.957 177.936 216.847 177.37 216.857C176.168 216.878 175.016 217.339 174.13 218.152C173.245 218.966 172.689 220.075 172.566 221.271Z" fill="white"/>
</svg>
