<svg width="806" height="377" viewBox="0 0 806 377" fill="none" xmlns="http://www.w3.org/2000/svg">
<path d="M617.048 22.9165L590.216 0C590.216 0 646.39 2.72546 697.645 22.9165C735.613 37.8663 765.348 59.1701 779.746 78.2968C813.033 122.485 816.791 226.795 778.704 394H0C0 394 620.515 225.601 662.257 80.6998C671.326 49.2682 617.048 22.9165 617.048 22.9165Z" fill="#37474F"/>
<path d="M721.904 88.9493C721.904 135.255 701.12 185.618 658.381 242.947C616.618 298.928 555.014 360.155 470.565 429.569H467.741C553.007 359.694 614.984 298.13 656.924 241.883C699.451 184.874 720.11 134.847 720.11 88.9493C720.11 64.689 680.479 37.7881 655.503 26.5174C642.305 20.5808 622.019 15.8847 607.15 12.8898L604.521 10.5684C619.621 13.4746 641.967 18.4897 656.178 24.9048C670.814 31.6636 684.541 40.2311 697.035 50.4057C713.306 63.9269 721.904 77.2533 721.904 88.9493Z" fill="#FFC727"/>
<path d="M725.409 88.9505C725.409 184.503 651.601 290.228 486.914 429.57H484.16C649.54 289.927 723.632 184.255 723.632 88.9505C723.632 76.9887 715.763 64.2648 700.255 51.1511C687.636 40.8487 673.766 32.1738 658.973 25.3314C642.985 17.8885 621.367 12.9265 604.136 10.1443L601.756 8C619.519 10.6405 642.612 15.8151 659.719 23.7188C666.433 26.8377 725.409 55.1385 725.409 88.9505Z" fill="#FFC727"/>
</svg>
