<svg width="545" height="103" viewBox="0 0 545 103" fill="none" xmlns="http://www.w3.org/2000/svg">
<path d="M305.382 97.0296H473.806V36.3476C473.806 36.3476 459.884 25.5794 447.094 30.5191C434.305 35.4588 427.962 43.3644 419.291 46.5163C410.621 49.6683 380.007 53.8019 372.706 60.2091C365.405 66.6162 355.355 80.9807 348.054 82.5101C340.754 84.0396 305.382 97.0296 305.382 97.0296Z" fill="#E5CC84"/>
<path d="M372.095 102.497C372.095 102.497 330.161 85.6769 319.19 80.3786C308.219 75.0804 274.198 71.5311 262.816 65.1938C251.435 58.8565 216.048 35.5751 208.977 30.3592C205.057 27.4683 186.778 21.1001 173.478 14.0323C162.774 8.37404 157.396 1.68695 149.319 0.905071C131.184 -0.812998 98.261 16.7483 95.3977 20.2565C90.7768 25.8482 85.8391 31.1689 80.6088 36.1924C77.6121 39.073 45.7766 56.3154 39.0955 69.1134C27.3239 91.7981 0.250977 102.497 0.250977 102.497H372.095Z" fill="#E5C771"/>
<path d="M544.809 28.4511V97.9873H389.594C400.605 91.0437 409.446 81.1485 415.111 69.4278C418.911 61.5801 447.11 48.7532 449.693 46.2697C455.454 40.7317 461.179 30.4006 463.65 27.3832C464 26.9971 464.396 26.6552 464.829 26.365C464.837 26.3502 464.848 26.337 464.86 26.3264C464.873 26.3157 464.888 26.3077 464.904 26.3029C471.113 21.783 495.947 9.39069 510.127 10.7317C517.093 11.3899 521.737 17.1639 530.951 22.019C535.26 24.2292 540.177 26.4271 544.809 28.4511Z" fill="#EFDFB2"/>
</svg>
