<svg width="332" height="117" viewBox="0 0 332 117" fill="none" xmlns="http://www.w3.org/2000/svg">
<path d="M305.974 58.25C306.721 58.9965 315.375 59.3231 318.525 59.3231C321.674 59.3231 330.317 58.9965 331.064 58.25C331.81 57.5035 321.324 0 318.525 0C315.725 0 305.239 57.5035 305.974 58.25Z" fill="#385B35"/>
<path d="M306.185 45.6005C308.319 46.417 316.239 49.6363 317.942 50.5811C317.942 50.2195 317.942 49.8579 317.942 49.4963C316.029 48.3766 314.112 47.2607 312.192 46.1487C310.072 45.0331 308.012 43.8067 306.021 42.4746C305.916 42.4046 306.021 42.2063 306.103 42.2646C308.19 43.2384 310.209 44.353 312.145 45.6005C314.093 46.7669 316.017 47.9333 317.977 49.0997C317.977 46.3354 317.977 43.5827 317.977 40.83C314.855 39.5345 311.837 38.002 308.949 36.246C308.856 36.1877 308.949 36.001 309.031 36.0477C312.119 37.2906 315.11 38.7645 317.977 40.4567C317.977 39.022 317.977 37.5874 317.977 36.1643C318.059 28.781 318.07 21.3977 318.257 14.0027C316.379 13.058 314.443 12.2181 312.565 11.2617C312.448 11.2034 312.565 10.9934 312.658 11.0401C314.571 11.7866 316.402 12.6614 318.269 13.4895C318.374 9.6754 318.513 5.87294 318.747 2.07048C318.754 2.04989 318.767 2.03205 318.785 2.01942C318.803 2.00679 318.824 2 318.846 2C318.868 2 318.889 2.00679 318.907 2.01942C318.924 2.03205 318.938 2.04989 318.945 2.07048C319.213 9.13886 319.19 16.2189 319.097 23.2873C321.045 21.736 323.121 20.3596 325.092 18.855C325.174 18.855 325.244 18.925 325.174 18.9833C323.097 20.5579 321.161 22.3075 319.097 23.8822C319.097 24.2787 319.097 24.6753 319.097 25.0486C321.208 24.0921 323.342 23.194 325.477 22.2725C325.652 22.2025 325.792 22.4475 325.629 22.5291C323.459 23.5672 321.289 24.6286 319.097 25.6084C319.038 29.1076 318.98 32.6068 318.933 36.106C318.852 42.218 318.723 48.3416 318.595 54.4535C322.576 52.4317 326.585 50.4877 330.621 48.6215C330.772 48.5515 330.912 48.7731 330.761 48.8548C326.812 51.1089 322.747 53.153 318.583 54.9784C318.478 60.0522 318.373 65.1377 318.304 70.2232C318.291 70.2776 318.261 70.3263 318.218 70.3612C318.174 70.396 318.12 70.415 318.064 70.415C318.009 70.415 317.955 70.396 317.911 70.3612C317.868 70.3263 317.837 70.2776 317.825 70.2232C317.895 63.738 317.907 57.2529 317.919 50.7677C313.871 49.3697 309.903 47.7498 306.033 45.9155C305.835 45.9155 305.975 45.5189 306.185 45.6005Z" fill="#0C4017"/>
<path d="M188.103 102.315C187.088 103.33 175.272 103.773 171.027 103.773C166.781 103.773 154.965 103.295 153.986 102.315C153.006 101.335 167.248 23 171.062 23C174.876 23 189.106 101.265 188.103 102.315Z" fill="#0C4017"/>
<path d="M188.338 82.335C185.433 83.4431 174.644 87.8288 172.323 89.1118C172.323 88.6219 172.323 88.1321 172.323 87.6422L180.138 83.0815C183.031 81.5635 185.842 79.8932 188.559 78.0777C188.687 77.9844 188.617 77.7278 188.443 77.7978C185.599 79.1274 182.847 80.6472 180.208 82.3467C177.56 83.898 174.936 85.496 172.323 87.1173C172.323 83.3615 172.323 79.6096 172.323 75.8615C176.549 74.1068 180.636 72.0324 184.547 69.6563C184.687 69.5863 184.547 69.3297 184.442 69.3997C180.235 71.0877 176.164 73.0959 172.265 75.4066C172.265 73.4471 172.265 71.4992 172.265 69.5746C172.16 59.5319 172.136 49.4775 171.88 39.4232C174.434 38.1401 177.07 36.9971 179.625 35.7024C179.788 35.6207 179.625 35.3291 179.496 35.3991C176.907 36.4022 174.411 37.6036 171.856 38.7234C171.728 33.5445 171.53 28.3657 171.215 23.1869C171.206 23.158 171.188 23.1327 171.164 23.1147C171.14 23.0966 171.111 23.0869 171.081 23.0869C171.051 23.0869 171.021 23.0966 170.997 23.1147C170.973 23.1327 170.955 23.158 170.947 23.1869C170.585 32.8097 170.62 42.4442 170.737 52.067C168.089 49.9558 165.266 48.0895 162.572 46.0367C162.467 45.955 162.362 46.1416 162.467 46.2116C165.289 48.3578 167.926 50.7372 170.748 52.8718C170.748 53.42 170.748 53.9565 170.748 54.5047C167.867 53.1867 164.916 51.9736 162.059 50.7256C161.825 50.6323 161.627 50.9589 161.86 51.0639C164.811 52.4869 167.762 53.9215 170.748 55.2629C170.818 60.0296 170.892 64.8002 170.97 69.5746C171.075 77.9027 171.261 86.2308 171.436 94.5589C165.993 91.814 160.55 89.1468 155.107 86.5574C154.897 86.4641 154.71 86.7557 154.92 86.8723C160.289 89.9205 165.818 92.6772 171.483 95.1304C171.635 102.047 171.775 108.964 171.856 115.892C171.856 115.979 171.891 116.062 171.952 116.123C172.013 116.185 172.096 116.219 172.183 116.219C172.27 116.219 172.353 116.185 172.414 116.123C172.475 116.062 172.509 115.979 172.509 115.892C172.416 107.063 172.405 98.2331 172.381 89.4151C175.239 88.7036 186.028 84.0846 188.594 82.8133C188.804 82.685 188.617 82.2301 188.338 82.335Z" fill="#385B35"/>
<path d="M151.298 55.7431C150.726 56.3146 144.078 56.5713 141.663 56.5713C139.249 56.5713 132.601 56.3146 132.029 55.7431C131.457 55.1716 139.506 11 141.663 11C143.821 11 151.869 55.1366 151.298 55.7431Z" fill="#385B35"/>
<path d="M151.439 44.4874C149.794 45.1173 143.706 47.5901 142.399 48.3132C142.399 48.045 142.399 47.765 142.399 47.4851L146.82 44.9074C148.452 44.0524 150.036 43.1101 151.567 42.0847C151.637 42.0847 151.567 41.8864 151.497 41.933C149.885 42.6814 148.327 43.5387 146.831 44.4991C145.327 45.3739 143.857 46.272 142.376 47.1935C142.376 45.0706 142.376 42.9595 142.376 40.8366C144.771 39.8484 147.087 38.6786 149.304 37.3374C149.386 37.3374 149.304 37.1508 149.246 37.1858C146.874 38.1425 144.577 39.2772 142.376 40.58C142.376 39.4719 142.376 38.3755 142.376 37.2674C142.306 31.5987 142.306 25.93 142.154 20.2613C143.601 19.5265 145.082 18.885 146.528 18.1618C146.622 18.1618 146.528 17.9402 146.458 17.9868C144.989 18.5584 143.577 19.2349 142.143 19.8647C142.073 16.9332 141.952 14.0094 141.781 11.0934C141.781 11.0001 141.629 11.0001 141.629 11.0934C141.419 16.5288 141.443 21.9643 141.513 27.423C140.02 26.2566 138.422 25.1719 136.905 24.0171C136.847 24.0171 136.789 24.0171 136.847 24.1104C138.433 25.2768 139.915 26.6648 141.513 27.8662C141.513 28.1812 141.513 28.4844 141.513 28.7877C139.891 28.0529 138.247 27.3647 136.614 26.6649C136.486 26.6065 136.369 26.7932 136.497 26.8515C138.165 27.6563 139.833 28.4611 141.524 29.1843C141.524 31.8787 141.606 34.573 141.641 37.2558C141.699 41.9214 141.804 46.657 141.909 51.3576C138.842 49.8179 135.762 48.3016 132.66 46.8436C132.543 46.8436 132.438 46.9602 132.555 47.0302C135.579 48.7512 138.694 50.3087 141.886 51.6958C141.968 55.6032 142.049 59.5107 142.108 63.4181C142.118 63.4583 142.141 63.4938 142.174 63.5193C142.207 63.5447 142.247 63.5584 142.288 63.5584C142.33 63.5584 142.37 63.5447 142.403 63.5193C142.436 63.4938 142.459 63.4583 142.469 63.4181C142.469 58.4376 142.469 53.4571 142.399 48.4765C145.512 47.4008 148.564 46.1587 151.544 44.7557C151.695 44.6391 151.59 44.4291 151.439 44.4874Z" fill="#0C4017"/>
<path d="M1.10914 55.7299C1.75955 56.2398 2.52005 56.5907 3.33006 56.7548C4.14007 56.9188 4.9772 56.8914 5.77474 56.6747C6.56789 56.4998 7.33771 56.2198 8.10754 56.0682C8.49284 55.9944 8.88863 55.9944 9.27394 56.0682C9.67456 56.1886 10.0183 56.4495 10.2421 56.803C10.9827 58.2531 11.6484 59.7403 12.2366 61.2587C12.5675 61.997 13.008 62.6812 13.543 63.2882C14.0719 63.8951 14.8168 64.2718 15.6192 64.338C16.4339 64.3593 17.2394 64.1619 17.952 63.7664C18.2386 63.4959 18.4521 63.1572 18.5724 62.7819C18.6928 62.4066 18.7161 62.007 18.6401 61.6202C18.3939 60.0182 17.9552 58.4517 17.3338 56.9546C16.1674 53.9103 14.826 50.9243 14.3478 47.6234C14.274 46.0009 14.0751 44.3865 13.7529 42.7945C13.4472 41.1829 12.9418 39.6156 12.2483 38.1289C11.9016 37.401 11.4539 36.7256 10.9186 36.1227C10.3846 35.5323 9.67882 35.1243 8.90068 34.9563C8.51106 34.8894 8.11164 34.9069 7.72933 35.0075C7.34703 35.1081 6.99074 35.2895 6.68453 35.5395C6.07056 36.0592 5.59726 36.7251 5.30818 37.4758C4.7082 38.9767 4.28543 40.5424 4.04847 42.1414C3.89684 42.9462 3.76853 43.751 3.59357 44.5441C3.47211 45.3735 3.17806 46.1682 2.73043 46.8769C1.84613 48.2435 1.0887 49.6881 0.467614 51.1926C0.164596 51.9325 0.0138431 52.7259 0.0243759 53.5254C0.0202852 53.9521 0.116287 54.3738 0.304674 54.7566C0.493061 55.1395 0.768594 55.4728 1.10914 55.7299ZM1.10914 55.7299C0.780372 55.4866 0.510221 55.1728 0.318485 54.8116C0.126749 54.4503 0.0182917 54.0507 0.00106076 53.6421C-0.0140598 52.8244 0.132602 52.0118 0.432623 51.2509C1.04849 49.743 1.79389 48.2912 2.66045 46.9119C3.09511 46.2245 3.38118 45.4537 3.50026 44.6491C3.66356 43.8443 3.79185 43.0395 3.93182 42.2463C4.16589 40.6254 4.58463 39.0365 5.17988 37.5108C5.47063 36.7351 5.95198 36.0452 6.57956 35.5045C6.90194 35.2409 7.27647 35.0485 7.67854 34.9399C8.0806 34.8313 8.50109 34.8091 8.91236 34.8747C9.72715 35.034 10.4727 35.4414 11.0469 36.0411C11.5978 36.6565 12.0574 37.3478 12.4116 38.094C13.1316 39.5752 13.6569 41.1435 13.9745 42.7596C14.3157 44.3576 14.5302 45.98 14.6161 47.6118C15.0476 50.8194 16.4123 53.8287 17.5087 56.943C18.134 58.4571 18.5652 60.0444 18.7918 61.6669C18.8814 62.0891 18.8574 62.5275 18.7222 62.9373C18.5869 63.3472 18.3453 63.7138 18.0219 63.9997C17.2926 64.4087 16.4668 64.6141 15.6308 64.5946C14.7866 64.5033 14.0118 64.0845 13.473 63.4282C12.9365 62.8094 12.4961 62.1134 12.1666 61.3636C11.5919 59.8451 10.9378 58.3579 10.2071 56.908C9.99624 56.5597 9.66376 56.3021 9.27394 56.1848C8.8891 56.1063 8.49237 56.1063 8.10754 56.1848C7.30272 56.3248 6.5329 56.6047 5.77474 56.768C4.97492 56.9846 4.1352 57.0087 3.32428 56.8384C2.51335 56.6681 1.75428 56.3082 1.10914 55.7882V55.7299Z" fill="#EBEBEB"/>
<path d="M273.299 46.3808C273.813 46.894 279.819 47.1273 282.001 47.1273C284.182 47.1273 290.165 46.894 290.702 46.3808C291.239 45.8675 283.949 6 282.001 6C280.053 6 272.786 45.8675 273.299 46.3808Z" fill="#0C4017"/>
<path d="M273.179 36.2088C274.66 36.7804 280.177 39.0198 281.344 39.708C281.344 39.4514 281.344 39.2065 281.344 38.9499L277.355 36.6171C275.886 35.8422 274.457 34.9936 273.074 34.0743C273.004 34.016 273.074 33.8877 273.132 33.9227C274.577 34.6082 275.976 35.3875 277.32 36.2555C278.673 37.0486 280.014 37.8651 281.344 38.6816C281.344 36.7687 281.344 34.8558 281.344 32.9429C279.175 32.0523 277.081 30.9914 275.08 29.7703C275.01 29.7703 275.08 29.5953 275.138 29.6303C277.28 30.4931 279.354 31.5146 281.344 32.6863C281.344 31.6949 281.344 30.7034 281.344 29.712C281.402 24.5915 281.402 19.471 281.542 14.3505C280.236 13.6856 278.894 13.1141 277.588 12.4493C277.506 12.4493 277.588 12.251 277.658 12.286C278.976 12.8108 280.247 13.4524 281.542 13.9889C281.612 11.3529 281.717 8.70511 281.88 6.06905C281.88 5.9874 282.008 5.9874 282.02 6.06905C282.195 10.9679 282.183 15.8785 282.125 20.789C283.466 19.7159 284.913 18.7595 286.277 17.7214C286.336 17.7214 286.382 17.7214 286.336 17.803C284.901 18.8994 283.56 20.1358 282.113 21.1973C282.113 21.4772 282.113 21.7571 282.113 22.0254C283.583 21.3606 285.064 20.7424 286.546 20.1008C286.662 20.1008 286.767 20.2175 286.651 20.2758C285.134 20.999 283.641 21.7338 282.113 22.422C282.113 24.8481 282.032 27.2742 282.008 29.712C281.95 33.9577 281.857 38.2034 281.764 42.4374C284.528 41.0494 287.316 39.6847 290.115 38.3667C290.22 38.3667 290.313 38.4716 290.208 38.53C287.471 40.0918 284.652 41.5052 281.764 42.764C281.682 46.2632 281.612 49.7624 281.565 53.3549C281.555 53.3922 281.533 53.4252 281.503 53.4488C281.472 53.4723 281.435 53.4851 281.396 53.4851C281.358 53.4851 281.32 53.4723 281.289 53.4488C281.259 53.4252 281.237 53.3922 281.227 53.3549C281.285 48.8526 281.285 44.3503 281.297 39.8597C278.485 38.8884 275.728 37.7631 273.039 36.4888C272.934 36.3955 273.062 36.1622 273.179 36.2088Z" fill="#385B35"/>
</svg>
