<svg width="289" height="161" viewBox="0 0 289 161" fill="none" xmlns="http://www.w3.org/2000/svg">
<g filter="url(#filter0_d_1_12314)">
<path d="M258.947 137.403C258.947 138.388 258.947 139.385 258.947 140.37H30C30 139.385 30 138.388 30 137.403C30 110.607 42.0633 84.9091 63.5363 65.9619C85.0092 47.0146 114.133 36.3701 144.5 36.3701C174.867 36.3701 203.991 47.0146 225.464 65.9619C246.937 84.9091 259 110.607 259 137.403H258.947Z" fill="#FFC727"/>
<path d="M75.5471 70.73L69.8621 71.7794L68.5973 77.7762L67.3189 71.7794L61.6475 70.7163L67.3053 69.3398L68.5973 63.6702L69.8893 69.3398L75.5471 70.73Z" fill="white"/>
<path d="M221.613 56.1689L215.942 57.2183L214.663 63.2151L213.398 57.2183L207.727 56.1553L213.371 54.7788L214.663 49.1091L215.955 54.7788L221.613 56.1689Z" fill="white"/>
<path d="M58.8673 43.1492C58.7122 43.1492 58.5634 43.2109 58.4538 43.3208C58.3441 43.4307 58.2825 43.5798 58.2825 43.7352C58.2825 43.8906 58.3441 44.0397 58.4538 44.1496C58.5634 44.2595 58.7122 44.3212 58.8673 44.3212C59.0224 44.3212 59.1712 44.2595 59.2808 44.1496C59.3905 44.0397 59.4521 43.8906 59.4521 43.7352C59.4521 43.5798 59.3905 43.4307 59.2808 43.3208C59.1712 43.2109 59.0224 43.1492 58.8673 43.1492Z" fill="white"/>
<path d="M169.635 84.8949C169.494 84.9165 169.365 84.9881 169.272 85.0969C169.178 85.2057 169.127 85.3444 169.127 85.4878C169.127 85.6312 169.178 85.7699 169.272 85.8786C169.365 85.9874 169.494 86.0591 169.635 86.0807C169.777 86.0591 169.906 85.9874 169.999 85.8786C170.093 85.7699 170.144 85.6312 170.144 85.4878C170.144 85.3444 170.093 85.2057 169.999 85.0969C169.906 84.9881 169.777 84.9165 169.635 84.8949Z" fill="white"/>
<path d="M122.892 31.4126L119.288 32.0804L118.472 35.8829L117.669 32.0804L114.052 31.3989L117.656 30.5267L118.472 26.915L119.301 30.5267L122.892 31.4126Z" fill="white"/>
<path d="M146.422 61.4011C146.146 61.4317 145.891 61.5633 145.705 61.7708C145.52 61.9782 145.417 62.247 145.417 62.5255C145.417 62.8041 145.52 63.0728 145.705 63.2803C145.891 63.4878 146.146 63.6194 146.422 63.6499C146.699 63.6194 146.954 63.4878 147.139 63.2803C147.325 63.0728 147.427 62.8041 147.427 62.5255C147.427 62.247 147.325 61.9782 147.139 61.7708C146.954 61.5633 146.699 61.4317 146.422 61.4011Z" fill="white"/>
<path d="M92.0168 81.6696L90.0039 82.0376L89.5551 84.1773L89.0927 82.0376L87.0798 81.6696L89.0927 81.179L89.5551 79.1619L90.0039 81.179L92.0168 81.6696Z" fill="white"/>
<path d="M187.126 79.5714L185.113 79.9531L184.664 82.0792L184.202 79.9531L182.189 79.5714L184.202 79.0808L184.664 77.0637L185.126 79.0808L187.126 79.5714Z" fill="white"/>
</g>
<defs>
<filter id="filter0_d_1_12314" x="0" y="0.915039" width="289" height="173.455" filterUnits="userSpaceOnUse" color-interpolation-filters="sRGB">
<feFlood flood-opacity="0" result="BackgroundImageFix"/>
<feColorMatrix in="SourceAlpha" type="matrix" values="0 0 0 0 0 0 0 0 0 0 0 0 0 0 0 0 0 0 127 0" result="hardAlpha"/>
<feOffset dy="4"/>
<feGaussianBlur stdDeviation="15"/>
<feComposite in2="hardAlpha" operator="out"/>
<feColorMatrix type="matrix" values="0 0 0 0 1 0 0 0 0 0.780392 0 0 0 0 0.152941 0 0 0 0.24 0"/>
<feBlend mode="normal" in2="BackgroundImageFix" result="effect1_dropShadow_1_12314"/>
<feBlend mode="normal" in="SourceGraphic" in2="effect1_dropShadow_1_12314" result="shape"/>
</filter>
</defs>
</svg>
