<svg width="24" height="24" viewBox="0 0 24 24" fill="none" xmlns="http://www.w3.org/2000/svg">
<path opacity="0.4" d="M12 22C17.5228 22 22 17.5228 22 12C22 6.47715 17.5228 2 12 2C6.47715 2 2 6.47715 2 12C2 17.5228 6.47715 22 12 22Z" fill="#2868C5"/>
<path d="M10.58 15.5796C10.38 15.5796 10.19 15.4996 10.05 15.3596L7.22 12.5296C6.93 12.2396 6.93 11.7596 7.22 11.4696C7.51 11.1796 7.99 11.1796 8.28 11.4696L10.58 13.7696L15.72 8.62961C16.01 8.33961 16.49 8.33961 16.78 8.62961C17.07 8.91961 17.07 9.39961 16.78 9.68961L11.11 15.3596C10.97 15.4996 10.78 15.5796 10.58 15.5796Z" fill="#2868C5"/>
</svg>
