<svg width="199" height="317" viewBox="0 0 199 317" fill="none" xmlns="http://www.w3.org/2000/svg">
<path d="M198.632 173.75L22.5664 316.816H0.00537109V291.73H24.9644V271.446H49.9289V251.168H74.8879V230.884H99.8469V210.6H124.817V190.316H149.776V170.032L174.735 149.753V149.748L176.071 148.664L198.632 173.75Z" fill="#94BCF5"/>
<path opacity="0.1" d="M198.632 173.75L22.5664 316.816H0.00537109V291.73H24.9644V271.446H49.9289V251.168H74.8879V230.884H99.8469V210.6H124.817V190.316H149.776V170.032L174.735 149.753V149.748L176.071 148.664L198.632 173.75Z" fill="black"/>
<g opacity="0.1">
<path d="M33.5393 271.445H24.9648V291.724H33.5393V271.445Z" fill="black"/>
<path d="M58.5032 251.172H49.9287V271.45H58.5032V251.172Z" fill="black"/>
<path d="M83.4681 230.883H74.8936V251.161H83.4681V230.883Z" fill="black"/>
<path d="M108.432 210.609H99.8579V230.888H108.432V210.609Z" fill="black"/>
<path d="M133.397 190.328H124.822V210.607H133.397V190.328Z" fill="black"/>
<path d="M158.367 190.329H149.792V170.045L158.367 163.055V190.329Z" fill="black"/>
<path d="M8.5745 291.727H0V316.818H8.5745V291.727Z" fill="black"/>
</g>
<path d="M93.7346 0H93.1846V38.3075H93.7346V0Z" fill="#C7C7C7"/>
<path d="M110.048 54.2972L108.711 57.2287H78.2026L76.8716 54.2972L89.8626 45.3047H97.0566L110.048 54.2972Z" fill="#EBEBEB"/>
<path d="M97.9584 36.6406L97.0564 45.3031H89.8624L88.9604 36.6406H97.9584Z" fill="white"/>
<path d="M110.048 54.2969L108.711 57.2284H78.2026L76.8716 54.2969H110.048Z" fill="white"/>
<path d="M46.7346 0H46.1846V47.7675H46.7346V0Z" fill="#C7C7C7"/>
<path d="M63.0475 63.7526L61.7165 66.6841H31.2025L29.877 63.7526L42.8625 54.7656H50.0565L63.0475 63.7526Z" fill="#EBEBEB"/>
<path d="M50.9589 46.1094L50.0569 54.7719H42.8629L41.9609 46.1094H50.9589Z" fill="white"/>
<path d="M63.0476 63.7578L61.7111 66.6948H31.2026L29.8716 63.7578H63.0476Z" fill="white"/>
</svg>
